<svg xmlns="http://www.w3.org/2000/svg" width="24" height="25" viewBox="0 0 24 25" fill="none">
    <path d="M7 13.5H17" stroke="#0FABB5" stroke-width="1.5" stroke-linecap="round" stroke-linejoin="round"></path>
    <path d="M7 17.5H17" stroke="#0FABB5" stroke-width="1.5" stroke-linecap="round" stroke-linejoin="round"></path>
    <path fill-rule="evenodd" clip-rule="evenodd"
          d="M10 3.5H8C7.448 3.5 7 3.948 7 4.5V9.5L9 8.5L11 9.5V4.5C11 3.948 10.552 3.5 10 3.5Z" stroke="#0FABB5"
          stroke-width="1.5" stroke-linecap="round" stroke-linejoin="round"></path>
    <path
        d="M11 4.5H19C20.105 4.5 21 5.395 21 6.5V19.5C21 20.605 20.105 21.5 19 21.5H5C3.895 21.5 3 20.605 3 19.5V6.5C3 5.395 3.895 4.5 5 4.5H7"
        stroke="#0FABB5" stroke-width="1.5" stroke-linecap="round" stroke-linejoin="round"></path>
    <path d="M15 9.5H17" stroke="#0FABB5" stroke-width="1.5" stroke-linecap="round" stroke-linejoin="round"></path>
</svg>
