<svg xmlns="http://www.w3.org/2000/svg" width="24" height="25" viewBox="0 0 24 25" fill="none"><path fill-rule="evenodd" clip-rule="evenodd" d="M17.365 6.13497C17.4652 6.0365 17.5193 5.90044 17.5142 5.76005C17.5091 5.61967 17.4452 5.48791 17.3382 5.39697C14.2288 2.86768 9.77115 2.86768 6.66175 5.39697C6.55468 5.48791 6.49079 5.61967 6.48568 5.76005C6.48058 5.90044 6.53473 6.0365 6.63491 6.13497L7.70013 7.20011C7.88251 7.37789 8.16889 7.3916 8.36741 7.23205C10.5105 5.58925 13.4895 5.58925 15.6326 7.23205C15.8311 7.39159 16.1175 7.37789 16.2998 7.20011L17.365 6.13497Z" stroke="#0FABB5" stroke-width="1.5" stroke-linecap="round" stroke-linejoin="round"></path><path fill-rule="evenodd" clip-rule="evenodd" d="M3.93693 19.5325L3.31998 18.2095C2.9382 17.3907 2.89729 16.4539 3.20627 15.605C3.51524 14.7561 4.14879 14.0647 4.96754 13.6829V13.6829C5.9418 13.2286 7.09988 13.6501 7.55418 14.6243L9.40501 18.5934C9.85932 19.5677 9.43781 20.7258 8.46355 21.1801V21.1801C6.7586 21.9751 4.73196 21.2375 3.93693 19.5325Z" stroke="#0FABB5" stroke-width="1.5" stroke-linecap="round" stroke-linejoin="round"></path><path fill-rule="evenodd" clip-rule="evenodd" d="M14.5951 18.5934L16.4459 14.6242C16.9002 13.65 18.0583 13.2285 19.0325 13.6828V13.6828C20.7375 14.4778 21.4751 16.5045 20.6801 18.2094L20.0631 19.5325C19.6813 20.3512 18.9899 20.9848 18.141 21.2937C17.2921 21.6027 16.3553 21.5618 15.5365 21.18V21.18C14.5623 20.7257 14.1407 19.5676 14.5951 18.5934L14.5951 18.5934Z" stroke="#0FABB5" stroke-width="1.5" stroke-linecap="round" stroke-linejoin="round"></path><path d="M20.1267 14.4935C21.1959 11.006 19.9208 7.22524 16.958 5.09765C13.9951 2.97006 10.0051 2.97006 7.0422 5.09765C4.07933 7.22524 2.80424 11.006 3.87342 14.4935" stroke="#0FABB5" stroke-width="1.5" stroke-linecap="round" stroke-linejoin="round"></path></svg>