<svg xmlns="http://www.w3.org/2000/svg" width="24" height="25" viewBox="0 0 24 25" fill="none"><path fill-rule="evenodd" clip-rule="evenodd" d="M4.9506 17.4818L4.69135 15.5265L3.49409 13.96C2.8353 13.0973 2.8353 11.9004 3.49409 11.0377L4.69135 9.47311L4.9524 7.51774C5.09629 6.44143 5.94295 5.5947 7.01924 5.45074L8.97266 5.19147L10.539 3.99412C11.4016 3.33529 12.5984 3.33529 13.461 3.99412L15.0273 5.19147L16.9826 5.45255C18.0586 5.59709 18.9049 6.44353 19.0494 7.51955L19.3086 9.47312L20.5059 11.0378C21.1647 11.9005 21.1647 13.0973 20.5059 13.96L19.3086 15.5265L19.0476 17.4818C18.9039 18.5586 18.0573 19.4059 16.9808 19.5506L15.0273 19.8081L13.461 21.0072C12.5978 21.6642 11.4022 21.6642 10.539 21.0072L8.97266 19.8081L7.01744 19.547C5.94116 19.4044 5.09408 18.558 4.9506 17.4818Z" stroke="#0FABB5" stroke-width="1.5" stroke-linecap="round" stroke-linejoin="round"></path><path fill-rule="evenodd" clip-rule="evenodd" d="M11.1031 8.58572C11.2716 8.24434 11.6192 8.0282 11.9999 8.0282C12.3806 8.0282 12.7282 8.24434 12.8967 8.58572L13.4055 9.61713C13.5511 9.91234 13.8327 10.117 14.1584 10.1643L15.2965 10.3297C15.6731 10.3845 15.986 10.6483 16.1036 11.0102C16.2213 11.3721 16.1233 11.7694 15.8509 12.0351L15.027 12.8387C14.7915 13.0685 14.684 13.3994 14.7396 13.7236L14.934 14.8569C14.9984 15.232 14.8442 15.6111 14.5363 15.8349C14.2284 16.0586 13.8202 16.0882 13.4833 15.9111L12.4651 15.376C12.1738 15.2229 11.8259 15.2229 11.5347 15.376L10.5165 15.9111C10.1795 16.0882 9.77135 16.0586 9.46346 15.8349C9.15557 15.6111 9.00137 15.232 9.06568 14.8569L9.26008 13.7236C9.3157 13.3994 9.20826 13.0685 8.97273 12.8387L8.14889 12.0351C7.8765 11.7694 7.77854 11.3721 7.89618 11.0102C8.01383 10.6483 8.32669 10.3845 8.70327 10.3297L9.8414 10.1643C10.1672 10.117 10.4487 9.91234 10.5944 9.61713L11.1031 8.58572Z" stroke="#0FABB5" stroke-width="1.5" stroke-linecap="round" stroke-linejoin="round"></path></svg>