<svg xmlns="http://www.w3.org/2000/svg" width="24" height="25" viewBox="0 0 24 25" fill="none"><path fill-rule="evenodd" clip-rule="evenodd" d="M9.44108 8.05795L13.3231 10.3539C13.8141 10.6439 13.8141 11.3549 13.3231 11.6449L9.44108 13.9409C8.94108 14.2369 8.30908 13.8759 8.30908 13.2949V8.70395C8.30908 8.12295 8.94108 7.76195 9.44108 8.05795V8.05795Z" stroke="#0FABB5" stroke-width="1.5" stroke-linecap="round" stroke-linejoin="round"></path><path fill-rule="evenodd" clip-rule="evenodd" d="M16.333 18.5H4.667C3.746 18.5 3 17.754 3 16.833V5.167C3 4.246 3.746 3.5 4.667 3.5H16.334C17.254 3.5 18 4.246 18 5.167V16.834C18 17.754 17.254 18.5 16.333 18.5V18.5Z" stroke="#0FABB5" stroke-width="1.5" stroke-linecap="round" stroke-linejoin="round"></path><path d="M6 18.5V19.5V19.5C6 20.605 6.895 21.5 8 21.5H19C20.105 21.5 21 20.605 21 19.5V8.5C21 7.395 20.105 6.5 19 6.5H18" stroke="#0FABB5" stroke-width="1.5" stroke-linecap="round" stroke-linejoin="round"></path></svg>