<svg xmlns="http://www.w3.org/2000/svg" width="54" height="54" viewBox="0 0 54 54" fill="none">
    <path opacity="0.4"
          d="M40.3891 17.3476L40.0741 17.1676L36.9466 15.3676L30.4891 11.6326C28.5091 10.4851 25.4941 10.4851 23.5141 11.6326L17.0566 15.3676L13.9291 17.1901L13.5241 17.4151C9.49656 20.1151 9.22656 20.6101 9.22656 24.9526V35.3251C9.22656 39.6676 9.49656 40.1626 13.6141 42.9301L23.5141 48.6451C24.5041 49.2301 25.7416 49.5001 27.0016 49.5001C28.2391 49.5001 29.4991 49.2301 30.4891 48.6451L40.4791 42.8626C44.5066 40.1626 44.7766 39.6676 44.7766 35.3251V24.9526C44.7766 20.6101 44.5066 20.1151 40.3891 17.3476Z"
          fill="#0FABB5"></path>
    <path
        d="M13.9219 17.19L17.0494 15.3675L23.2144 11.8125L23.5069 11.6325C25.4869 10.485 28.5019 10.485 30.4819 11.6325L30.7744 11.8125L36.9394 15.3675L40.0669 17.1675V12.3525C40.0669 7.29 37.2769 4.5 32.2144 4.5H21.7519C16.6894 4.5 13.9219 7.29 13.9219 12.3525V17.19Z"
        fill="#0FABB5"></path>
    <path
        d="M33.3982 30.0144L32.0032 31.7244C31.7782 31.9719 31.6207 32.4669 31.6432 32.8044L31.7782 35.0094C31.8682 36.3594 30.9007 37.0569 29.6407 36.5619L27.5932 35.7519C27.2782 35.6394 26.7382 35.6394 26.4232 35.7519L24.3757 36.5619C23.1157 37.0569 22.1482 36.3594 22.2382 35.0094L22.3732 32.8044C22.3957 32.4669 22.2382 31.9719 22.0132 31.7244L20.6182 30.0144C19.7407 28.9794 20.1232 27.8319 21.4282 27.4944L23.5657 26.9544C23.9032 26.8644 24.3082 26.5494 24.4882 26.2569L25.6807 24.4119C26.4232 23.2644 27.5932 23.2644 28.3357 24.4119L29.5282 26.2569C29.7082 26.5494 30.1132 26.8644 30.4507 26.9544L32.5882 27.4944C33.8932 27.8319 34.2757 28.9794 33.3982 30.0144Z"
        fill="#0FABB5"></path>
</svg>
