<svg width="81" height="81" viewBox="0 0 81 81" fill="none" xmlns="http://www.w3.org/2000/svg">
    <rect width="81" height="81" rx="10" fill="#E7F7F8"/>
    <path
        d="M49.2937 19.5203H31.7127C24.076 19.5203 19.5234 24.0729 19.5234 31.7095V49.2695C19.5234 56.9271 24.076 61.4797 31.7127 61.4797H49.2727C56.9093 61.4797 61.4619 56.9271 61.4619 49.2905V31.7095C61.4829 24.0729 56.9303 19.5203 49.2937 19.5203ZM51.5385 36.2201L46.6922 42.4721C46.0838 43.2483 45.2236 43.7519 44.2376 43.8568C43.2515 43.9826 42.2864 43.7099 41.5102 43.1015L37.6709 40.0804C37.524 39.9545 37.3562 39.9545 37.2723 39.9755C37.1884 39.9755 37.0415 40.0175 36.9156 40.1853L31.9225 46.668C31.6078 47.0666 31.1462 47.2764 30.6847 47.2764C30.349 47.2764 30.0133 47.1715 29.7196 46.9408C29.0273 46.4163 28.9014 45.4302 29.4259 44.7379L34.419 38.2552C35.0275 37.4789 35.8876 36.9754 36.8737 36.8495C37.8387 36.7236 38.8248 36.9964 39.601 37.6048L43.4403 40.6259C43.5872 40.7518 43.734 40.7517 43.8389 40.7308C43.9229 40.7308 44.0697 40.6888 44.1956 40.521L49.0419 34.269C49.5664 33.5767 50.5734 33.4508 51.2448 33.9963C51.9371 34.5627 52.063 35.5488 51.5385 36.2201Z"
        fill="#0FABB5"/>
</svg>
