<svg width="170" height="150" viewBox="0 0 170 150" fill="none" xmlns="http://www.w3.org/2000/svg">
    <path
        d="M107.488 44.6923C119.846 39.9206 137.475 30.048 144.725 25.7698C145.714 25.1117 147.032 26.2635 146.538 27.4153C144.231 32.8452 142.418 35.3134 142.418 35.3134C142.418 35.3134 146.208 36.1361 148.679 38.2751C149.668 39.0979 149.503 40.5788 148.35 41.0724C141.924 44.1987 133.686 45.6796 133.686 45.6796L111.607 47.4896L107.488 44.6923Z"
        fill="#D9D9D9"/>
    <path
        d="M62.8403 44.6919C50.4829 39.9201 32.8531 30.0475 25.6035 25.7694C24.6149 25.1112 23.2968 26.263 23.7911 27.4148C26.0978 32.8447 27.9102 35.3129 27.9102 35.3129C27.9102 35.3129 24.1206 36.1356 21.6491 38.2747C20.6605 39.0974 20.8253 40.5783 21.9787 41.0719C28.4045 44.1982 36.6427 45.6791 36.6427 45.6791L58.7212 47.4891L62.8403 44.6919Z"
        fill="#D9D9D9"/>
    <path
        d="M134.346 22.6429C133.852 25.6047 132.534 28.2374 130.721 30.541C126.932 35.3128 121.33 38.4391 116.057 41.0718C112.103 43.0463 107.984 44.8563 103.7 46.0081C100.899 46.6663 95.9558 45.1854 92.6605 43.869C90.6834 43.0463 89.3652 42.5527 89.3652 42.5527V38.6037C90.1891 32.1865 90.6833 25.4402 93.3196 19.5166C95.6263 14.0867 99.4159 9.15039 104.359 5.69497C109.137 2.23956 114.904 -1.05131 121.165 0.923215C128.744 3.39137 134.346 10.7958 134.84 18.6939C134.676 20.0102 134.511 21.3266 134.346 22.6429Z"
        fill="url(#paint0_linear_3047_3900)"/>
    <path
        d="M134.351 22.6434C133.857 25.6052 132.539 28.2378 130.727 30.5415C126.937 35.3132 121.335 38.4395 116.063 41.0722C112.108 43.0468 107.989 44.8567 103.705 46.0085C100.904 46.6667 95.9613 45.1858 92.666 43.8695C98.1032 42.0595 103.54 40.2495 108.978 38.4395C114.085 36.7941 119.193 34.9841 123.807 32.1869C128.42 29.3897 132.374 25.4406 134.187 20.3398C134.351 19.8461 134.516 19.188 134.681 18.5298C134.681 20.0107 134.516 21.327 134.351 22.6434Z"
        fill="#DDDDDD"/>
    <path
        d="M97.7684 33.8325C95.7912 34.3261 93.9788 32.5161 94.6379 30.5416C97.4389 20.5044 101.064 16.2263 104.524 13.1C107.654 10.3027 112.927 7.83459 117.705 6.84732C119.517 6.51824 121 7.99913 120.835 9.80911C120.176 16.2263 117.54 22.479 112.762 26.0989C106.666 30.8707 101.228 33.0097 97.7684 33.8325Z"
        fill="#DDDDDD"/>
    <path
        d="M81.7866 38.4396V42.3886C81.7866 42.3886 81.4571 42.5532 80.9628 42.7177C78.4914 43.8695 71.077 46.8313 67.4521 45.844C63.1682 44.8568 59.0491 42.8823 55.0948 40.9077C49.8223 38.275 44.0556 35.1487 40.4307 30.377C38.6183 28.0734 37.3002 25.4407 36.8059 22.4789C36.3116 18.6944 36.8059 15.0744 38.4536 11.619C39.1126 10.3027 39.7717 8.98632 40.5955 7.83451C43.067 4.54364 46.3623 1.91095 50.3166 0.594602C56.4129 -1.37992 62.1797 1.91095 67.1226 5.36636C72.0655 8.82177 75.8551 13.5935 78.1618 19.188C80.3038 25.2761 80.9628 32.0224 81.7866 38.4396Z"
        fill="url(#paint1_linear_3047_3900)"/>
    <path
        d="M80.8027 42.8819C78.3312 44.0337 70.9168 46.9955 67.292 46.0082C63.0081 45.021 58.889 43.0465 54.9346 41.0719C49.6622 38.4392 43.8954 35.3129 40.2706 30.5412C38.4582 28.2375 37.14 25.6049 36.6458 22.6431C36.1515 18.8586 36.6458 15.2386 38.2934 11.7832C37.9639 13.5932 37.9639 15.2386 37.9639 16.0613C38.2934 21.4913 40.6001 26.7567 44.5545 30.5412C48.5088 34.3257 53.6165 36.4647 58.889 37.6165C64.1614 38.7683 69.5987 39.0974 75.0359 39.7556C77.3426 39.9201 80.1436 40.7428 80.8027 42.8819Z"
        fill="#DDDDDD"/>
    <path
        d="M85.7413 58.6786C92.202 58.6786 97.4395 53.4482 97.4395 46.9961C97.4395 40.5439 92.202 35.3135 85.7413 35.3135C79.2805 35.3135 74.043 40.5439 74.043 46.9961C74.043 53.4482 79.2805 58.6786 85.7413 58.6786Z"
        fill="#D2D2D2"/>
    <path
        d="M73.0542 33.8325C75.0314 34.3261 76.8438 32.5161 76.1847 30.5416C73.3837 20.5044 69.7589 16.2263 66.2988 13.1C63.1683 10.3027 57.8958 7.83459 53.1177 6.84732C51.3053 6.51824 49.8224 7.99913 49.9871 9.80911C50.6462 16.2263 53.2824 22.479 58.0606 26.0989C64.3217 30.8707 69.5941 33.0097 73.0542 33.8325Z"
        fill="#DDDDDD"/>
    <g filter="url(#filter0_b_3047_3900)">
        <path
            d="M137.806 61.1466V142.102C137.806 146.38 134.346 149.836 130.063 149.836H41.0896C36.8058 149.836 33.3457 146.38 33.3457 142.102V61.1466C33.3457 56.8685 36.8058 53.4131 41.0896 53.4131H130.063C134.346 53.4131 137.806 56.8685 137.806 61.1466Z"
            fill="white" fill-opacity="0.2"/>
        <path
            d="M137.096 61.1466V142.102C137.096 145.987 133.955 149.125 130.063 149.125H41.0896C37.1972 149.125 34.0561 145.987 34.0561 142.102V61.1466C34.0561 57.2618 37.1972 54.1235 41.0896 54.1235H130.063C133.955 54.1235 137.096 57.2618 137.096 61.1466Z"
            stroke="white" stroke-opacity="0.2" stroke-width="1.42089"/>
    </g>
    <g filter="url(#filter1_b_3047_3900)">
        <path
            d="M143.249 47.49V68.2225C143.249 70.6907 141.272 72.8297 138.636 72.8297H32.5275C30.056 72.8297 27.9141 70.8552 27.9141 68.2225V47.49C27.9141 45.0219 29.8912 42.8828 32.5275 42.8828H138.801C141.272 42.8828 143.249 45.0219 143.249 47.49Z"
            fill="#4B4B4B"/>
        <path
            d="M142.539 47.49V68.2225C142.539 70.314 140.864 72.1193 138.636 72.1193H32.5275C30.4308 72.1193 28.6245 70.4455 28.6245 68.2225V47.49C28.6245 45.3985 30.2992 43.5933 32.5275 43.5933H138.801C140.848 43.5933 142.539 45.3813 142.539 47.49Z"
            stroke="white" stroke-opacity="0.2" stroke-width="1.42089"/>
    </g>
    <path d="M98.4313 61.9692H70.0918V150H98.4313V61.9692Z" fill="url(#paint2_linear_3047_3900)"/>
    <path opacity="0.6" d="M98.4313 61.9692H70.0918V79.0818H98.4313V61.9692Z" fill="#CFCFCF"/>
    <path d="M100.405 42.8828H68.1113V72.8297H100.405V42.8828Z" fill="url(#paint3_linear_3047_3900)"/>
    <g clip-path="url(#clip0_3047_3900)">
        <path
            d="M126.288 56.2519L118.385 53.8303C117.705 53.6102 116.934 53.7045 116.316 54.0505L110.296 57.3212C109.647 57.6671 109.184 58.2647 108.968 58.9565L106.591 67.0075C106.375 67.6994 106.467 68.4542 106.807 69.1146L120.638 95.4375C121.348 96.7898 122.985 97.293 124.312 96.5697L140.645 87.6381C141.972 86.9148 142.466 85.2165 141.756 83.8957L127.894 57.6042C127.554 56.9438 126.998 56.4721 126.288 56.2519ZM117.335 63.328C115.915 64.1142 114.155 63.5481 113.383 62.1014C112.611 60.6548 113.167 58.8622 114.587 58.076C116.007 57.2897 117.767 57.8558 118.539 59.271C119.28 60.7491 118.755 62.5732 117.335 63.328Z"
            fill="url(#paint4_linear_3047_3900)"/>
        <path
            d="M117.335 58.1064C116.748 57.7605 116.038 57.6662 115.359 57.792C115.606 58.6096 115.699 59.2072 115.606 59.4588C115.297 59.5217 114.618 59.3015 113.692 58.8298C112.92 58.4209 111.963 57.792 110.882 56.9743C109.462 55.8736 107.857 54.4269 106.22 52.54C101.311 46.8477 100.076 42.6964 100.663 42.1932C100.725 42.1303 100.817 42.0989 100.972 42.0989C101.528 42.0989 102.732 42.5706 104.306 43.7028C105.881 44.8349 107.888 46.5646 110.08 49.112C111.994 51.3134 113.352 53.4205 114.247 55.1817L115.884 54.3011C114.772 52.194 113.198 49.8982 111.469 47.8855C107.27 43.0109 101.682 38.7338 99.4281 40.778C97.1743 42.8222 100.663 48.9548 104.862 53.7979C106.313 55.4647 107.857 56.9428 109.339 58.1693C110.635 59.2386 111.901 60.0877 113.043 60.6224C113.97 61.0941 114.803 61.3457 115.452 61.3772H115.544C116.254 61.3772 116.687 61.0941 116.934 60.8425C117.304 60.4651 117.458 59.9305 117.458 59.2386C117.458 58.8927 117.427 58.5153 117.335 58.1064Z"
            fill="#1C3754"/>
        <path
            d="M121.163 75.908C121.656 74.1783 120.638 72.3543 118.909 71.8511C118.075 71.6309 117.211 71.7253 116.47 72.1656C115.729 72.6059 115.173 73.2977 114.957 74.1469C114.463 75.8766 115.482 77.7006 117.18 78.2038C118.013 78.4554 118.878 78.3296 119.619 77.8893C120.391 77.449 120.946 76.7571 121.163 75.908ZM117.458 73.9267C118.044 73.5808 118.785 73.8009 119.125 74.3985C119.464 74.996 119.248 75.7508 118.662 76.0967C118.075 76.4426 117.334 76.2225 116.995 75.625C116.655 75.0274 116.871 74.2727 117.458 73.9267Z"
            fill="white"/>
        <path
            d="M131.351 75.2474C130.518 74.9958 129.653 75.1216 128.912 75.5619C128.171 76.0021 127.615 76.694 127.399 77.5432C127.152 78.3923 127.276 79.2729 127.708 80.0276C128.14 80.7824 128.82 81.3485 129.653 81.5686C130.487 81.8202 131.351 81.6944 132.092 81.2542C132.833 80.8139 133.389 80.122 133.605 79.2729C133.852 78.4237 133.728 77.5432 133.296 76.7884C132.864 76.0336 132.185 75.499 131.351 75.2474ZM131.135 79.493C130.548 79.8389 129.807 79.6188 129.468 79.0213C129.128 78.4237 129.344 77.669 129.931 77.323C130.518 76.9771 131.259 77.1972 131.598 77.7947C131.938 78.3923 131.722 79.1471 131.135 79.493Z"
            fill="white"/>
        <path
            d="M126.654 68.1399C126.345 68.0456 126.006 68.077 125.728 68.2657C125.45 68.4229 125.234 68.706 125.141 69.0205L121.189 83.3613C121.097 83.6757 121.127 84.0217 121.313 84.3047C121.467 84.5878 121.745 84.8079 122.054 84.9023C122.362 84.9966 122.702 84.9652 122.98 84.7765C123.258 84.6192 123.474 84.3362 123.567 84.0217L127.518 69.6809C127.704 69.0205 127.302 68.3286 126.654 68.1399Z"
            fill="white"/>
    </g>
    <path
        d="M7.31428 56.0458C7.14952 55.5521 7.14952 54.894 7.31428 54.4003L8.46763 51.9322C8.6324 51.6031 8.46763 51.274 8.1381 51.1095C7.97334 51.1095 7.80857 51.1095 7.64381 51.1095L5.17234 52.2613C4.67805 52.4258 4.01899 52.4258 3.52469 52.2613L1.05323 51.1095C0.723696 50.9449 0.394167 51.1095 0.229403 51.4386C0.229403 51.6031 0.229403 51.7676 0.229403 51.9322L1.38275 54.4003C1.54752 54.894 1.54752 55.5521 1.38275 56.0458L0.064638 58.6785C-0.100127 59.0076 0.064638 59.3366 0.394167 59.5012C0.558932 59.5012 0.723696 59.5012 0.888461 59.5012L3.35993 58.3494C3.85422 58.1848 4.51328 58.1848 5.00758 58.3494L7.64381 59.5012C7.97334 59.6657 8.30287 59.5012 8.46763 59.1721C8.46763 59.0076 8.46763 58.843 8.46763 58.6785L7.31428 56.0458Z"
        fill="url(#paint5_linear_3047_3900)"/>
    <path
        d="M18.8455 111.34C18.6808 110.847 18.6808 110.188 18.8455 109.695L19.9989 107.227C20.1636 106.898 19.9989 106.568 19.6694 106.404C19.5046 106.404 19.3398 106.404 19.1751 106.404L16.7036 107.556C16.2093 107.72 15.5502 107.72 15.0559 107.556L12.5845 106.404C12.2549 106.239 11.9254 106.404 11.7607 106.733C11.7607 106.898 11.7607 107.062 11.7607 107.227L12.914 109.695C13.0788 110.188 13.0788 110.847 12.914 111.34L11.5959 113.808C11.4311 114.137 11.5959 114.467 11.9254 114.631C12.0902 114.631 12.2549 114.631 12.4197 114.631L14.8912 113.479C15.3855 113.315 16.0445 113.315 16.5388 113.479L19.0103 114.631C19.3398 114.796 19.6694 114.631 19.8341 114.302C19.8341 114.137 19.8341 113.973 19.8341 113.808L18.8455 111.34Z"
        fill="url(#paint6_linear_3047_3900)"/>
    <path
        d="M168.783 79.9042C168.618 79.4105 168.618 78.7524 168.783 78.2587L169.936 75.7906C170.101 75.4615 169.936 75.1324 169.607 74.9679C169.442 74.9679 169.277 74.9679 169.113 74.9679L166.641 76.1197C166.147 76.2842 165.488 76.2842 164.993 76.1197L162.522 74.9679C162.192 74.8033 161.863 74.9679 161.698 75.297C161.698 75.4615 161.698 75.626 161.698 75.7906L162.852 78.2587C163.016 78.7524 163.016 79.4105 162.852 79.9042L161.533 82.5369C161.369 82.866 161.533 83.195 161.863 83.3596C162.028 83.3596 162.192 83.3596 162.357 83.3596L164.829 82.2078C165.323 82.0432 165.982 82.0432 166.476 82.2078L168.948 83.3596C169.277 83.5241 169.607 83.3596 169.772 83.0305C169.772 82.866 169.772 82.7014 169.772 82.5369L168.783 79.9042Z"
        fill="url(#paint7_linear_3047_3900)"/>
    <path
        d="M154.118 12.6063C153.954 12.1127 153.954 11.4545 154.118 10.9609L155.272 8.49274C155.436 8.16365 155.272 7.83456 154.942 7.67002C154.777 7.67002 154.613 7.67002 154.448 7.67002L151.976 8.82182C151.482 8.98637 150.823 8.98637 150.329 8.82182L147.857 7.67002C147.528 7.50548 147.198 7.67002 147.033 7.99911C147.033 8.16365 147.033 8.32819 147.033 8.49274L148.187 10.9609C148.352 11.4545 148.352 12.1127 148.187 12.6063L147.033 15.0745C146.869 15.4036 147.033 15.7326 147.363 15.8972C147.528 15.8972 147.692 15.8972 147.857 15.8972L150.329 14.7454C150.823 14.5808 151.482 14.5808 151.976 14.7454L154.448 15.8972C154.777 16.0617 155.107 15.8972 155.272 15.5681C155.272 15.4036 155.272 15.239 155.272 15.0745L154.118 12.6063Z"
        fill="url(#paint8_linear_3047_3900)"/>
    <path
        d="M159.226 129.598C159.061 129.104 159.061 128.446 159.226 127.952L160.379 125.484C160.544 125.155 160.379 124.826 160.05 124.661C159.885 124.661 159.72 124.661 159.555 124.661L157.084 125.813C156.589 125.978 155.93 125.978 155.436 125.813L152.965 124.661C152.635 124.497 152.306 124.661 152.141 124.99C152.141 125.155 152.141 125.319 152.141 125.484L153.294 127.952C153.459 128.446 153.459 129.104 153.294 129.598L152.141 132.066C151.976 132.395 152.141 132.724 152.47 132.888C152.635 132.888 152.8 132.888 152.965 132.888L155.436 131.737C155.93 131.572 156.589 131.572 157.084 131.737L159.555 132.888C159.885 133.053 160.214 132.888 160.379 132.559C160.379 132.395 160.379 132.23 160.379 132.066L159.226 129.598Z"
        fill="url(#paint9_linear_3047_3900)"/>
    <defs>
        <filter id="filter0_b_3047_3900" x="-3.17609" y="16.8913" width="177.505" height="169.466"
                filterUnits="userSpaceOnUse" color-interpolation-filters="sRGB">
            <feFlood flood-opacity="0" result="BackgroundImageFix"/>
            <feGaussianBlur in="BackgroundImageFix" stdDeviation="18.2609"/>
            <feComposite in2="SourceAlpha" operator="in" result="effect1_backgroundBlur_3047_3900"/>
            <feBlend mode="normal" in="SourceGraphic" in2="effect1_backgroundBlur_3047_3900" result="shape"/>
        </filter>
        <filter id="filter1_b_3047_3900" x="-8.60773" y="6.36102" width="188.38" height="102.99"
                filterUnits="userSpaceOnUse" color-interpolation-filters="sRGB">
            <feFlood flood-opacity="0" result="BackgroundImageFix"/>
            <feGaussianBlur in="BackgroundImageFix" stdDeviation="18.2609"/>
            <feComposite in2="SourceAlpha" operator="in" result="effect1_backgroundBlur_3047_3900"/>
            <feBlend mode="normal" in="SourceGraphic" in2="effect1_backgroundBlur_3047_3900" result="shape"/>
        </filter>
        <linearGradient id="paint0_linear_3047_3900" x1="89.1975" y1="23.1986" x2="134.546" y2="23.1986"
                        gradientUnits="userSpaceOnUse">
            <stop stop-color="white"/>
            <stop offset="1" stop-color="#DDDDDD"/>
        </linearGradient>
        <linearGradient id="paint1_linear_3047_3900" x1="36.3797" y1="23.1976" x2="81.7179" y2="23.1976"
                        gradientUnits="userSpaceOnUse">
            <stop stop-color="#DDDDDD"/>
            <stop offset="1" stop-color="white"/>
        </linearGradient>
        <linearGradient id="paint2_linear_3047_3900" x1="70.1348" y1="105.881" x2="98.4105" y2="105.881"
                        gradientUnits="userSpaceOnUse">
            <stop stop-color="white"/>
            <stop offset="1" stop-color="#DDDDDD"/>
        </linearGradient>
        <linearGradient id="paint3_linear_3047_3900" x1="84.2733" y1="56.9679" x2="84.2733" y2="71.3561"
                        gradientUnits="userSpaceOnUse">
            <stop stop-color="#DDDDDD"/>
            <stop offset="1" stop-color="white"/>
        </linearGradient>
        <linearGradient id="paint4_linear_3047_3900" x1="106.466" y1="75.2936" x2="142.085" y2="75.2936"
                        gradientUnits="userSpaceOnUse">
            <stop stop-color="#00E7F5"/>
            <stop offset="1" stop-color="#0FABB5"/>
        </linearGradient>
        <linearGradient id="paint5_linear_3047_3900" x1="0.064638" y1="55.2357" x2="8.58874" y2="55.2357"
                        gradientUnits="userSpaceOnUse">
            <stop stop-color="white"/>
            <stop offset="1" stop-color="#D9D9D9"/>
        </linearGradient>
        <linearGradient id="paint6_linear_3047_3900" x1="11.5738" y1="110.495" x2="20.0979" y2="110.495"
                        gradientUnits="userSpaceOnUse">
            <stop stop-color="#FFD45C"/>
            <stop offset="1" stop-color="#F8B806"/>
        </linearGradient>
        <linearGradient id="paint7_linear_3047_3900" x1="161.468" y1="79.079" x2="169.992" y2="79.079"
                        gradientUnits="userSpaceOnUse">
            <stop stop-color="#FFD45C" stop-opacity="0.803922"/>
            <stop offset="1" stop-color="#F8B806"/>
        </linearGradient>
        <linearGradient id="paint8_linear_3047_3900" x1="146.766" y1="11.7973" x2="155.29" y2="11.7973"
                        gradientUnits="userSpaceOnUse">
            <stop stop-color="white"/>
            <stop offset="1" stop-color="#D9D9D9"/>
        </linearGradient>
        <linearGradient id="paint9_linear_3047_3900" x1="151.921" y1="128.733" x2="160.445" y2="128.733"
                        gradientUnits="userSpaceOnUse">
            <stop stop-color="#FFD45C"/>
            <stop offset="1" stop-color="#F8B806"/>
        </linearGradient>
        <clipPath id="clip0_3047_3900">
            <rect width="43.3776" height="56.6398" fill="white" transform="translate(98.7207 40.2441)"/>
        </clipPath>
    </defs>
</svg>
