<svg width="141" height="163" viewBox="0 0 141 163" fill="none" xmlns="http://www.w3.org/2000/svg">
<path d="M89.9141 36.9258C100.095 32.9833 114.619 24.8263 120.592 21.2916C121.407 20.7478 122.492 21.6995 122.085 22.6511C120.185 27.1374 118.692 29.1767 118.692 29.1767C118.692 29.1767 121.814 29.8564 123.85 31.6238C124.664 32.3035 124.529 33.5271 123.578 33.9349C118.284 36.518 111.497 37.7415 111.497 37.7415L93.3076 39.237L89.9141 36.9258Z" fill="white"/>
<path d="M53.1308 36.9258C42.95 32.9833 28.4255 24.8263 22.4528 21.2916C21.6383 20.7478 20.5524 21.6995 20.9596 22.6511C22.86 27.1374 24.3532 29.1767 24.3532 29.1767C24.3532 29.1767 21.2311 29.8564 19.1949 31.6238C18.3805 32.3035 18.5162 33.5271 19.4664 33.9349C24.7604 36.518 31.5476 37.7415 31.5476 37.7415L49.7372 39.237L53.1308 36.9258Z" fill="white"/>
<path d="M112.058 18.4366C111.651 20.8837 110.565 23.0589 109.072 24.9622C105.949 28.9047 101.334 31.4877 96.9904 33.6629C93.7326 35.2943 90.339 36.7898 86.8097 37.7414C84.502 38.2852 80.4297 37.0617 77.7149 35.9741C76.0859 35.2943 75 34.8865 75 34.8865V31.6237C75.6787 26.3217 76.0859 20.7477 78.2578 15.8536C80.1582 11.3672 83.2803 7.28875 87.3526 4.43381C91.2892 1.57887 96.0402 -1.14012 101.198 0.491273C107.443 2.53051 112.058 8.64824 112.465 15.1738C112.329 16.2614 112.194 17.349 112.058 18.4366Z" fill="url(#paint0_linear_2931_40670)"/>
<path d="M112.046 18.7083C111.639 21.1554 110.553 23.3306 109.06 25.2339C105.938 29.1764 101.322 31.7595 96.9787 33.9346C93.7208 35.566 90.3273 37.0615 86.7979 38.0131C84.4903 38.5569 80.418 37.3334 77.7031 36.2458C82.1827 34.7503 86.6622 33.2549 91.1417 31.7595C95.3498 30.4 99.5578 28.9045 103.359 26.5934C107.159 24.2822 110.417 21.0194 111.91 16.805C112.046 16.3972 112.182 15.8534 112.318 15.3096C112.318 16.5331 112.182 17.6207 112.046 18.7083Z" fill="#D8D8D8"/>
<path d="M81.9075 27.9529C80.2786 28.3608 78.7855 26.8653 79.3284 25.2339C81.6361 16.941 84.6224 13.4063 87.473 10.8233C90.0521 8.51213 94.3959 6.47289 98.3325 5.65719C99.8257 5.38529 101.047 6.60884 100.912 8.10428C100.369 13.4063 98.1967 18.5724 94.2602 21.5633C89.2377 25.5058 84.7582 27.2732 81.9075 27.9529Z" fill="#D8D8D8"/>
<path d="M68.7398 31.7597V35.0224C68.7398 35.0224 68.4683 35.1584 68.0611 35.2943C66.025 36.246 59.9165 38.6931 56.9302 37.8774C53.4008 37.0617 50.0073 35.4303 46.7494 33.7989C42.4056 31.6237 37.6546 29.0407 34.6683 25.0981C33.1751 23.1948 32.0891 21.0196 31.6819 18.5726C31.2747 15.4457 31.6819 12.4548 33.0393 9.59989C33.5823 8.51229 34.1253 7.4247 34.804 6.47305C36.8402 3.75406 39.555 1.57887 42.8129 0.491273C47.8354 -1.14012 52.5864 1.57887 56.6587 4.43381C60.731 7.28875 63.8531 11.2313 65.7535 15.8536C67.5181 20.8837 68.0611 26.4576 68.7398 31.7597Z" fill="url(#paint1_linear_2931_40670)"/>
<path d="M67.9283 35.4303C65.8921 36.3819 59.7837 38.829 56.7973 38.0133C53.268 37.1976 49.8744 35.5662 46.6166 33.9348C42.2728 31.7597 37.5218 29.1766 34.5354 25.2341C33.0423 23.3308 31.9563 21.1556 31.5491 18.7085C31.1419 15.5817 31.5491 12.5908 32.9065 9.73584C32.635 11.2313 32.635 12.5908 32.635 13.2705C32.9065 17.7569 34.8069 22.1072 38.0648 25.2341C41.3226 28.3609 45.5307 30.1283 49.8744 31.0799C54.2182 32.0316 58.6978 32.3035 63.1773 32.8472C65.0777 32.9832 67.3853 33.6629 67.9283 35.4303Z" fill="#D8D8D8"/>
<path d="M71.9971 48.4816C77.3199 48.4816 81.6349 44.16 81.6349 38.8292C81.6349 33.4983 77.3199 29.1768 71.9971 29.1768C66.6744 29.1768 62.3594 33.4983 62.3594 38.8292C62.3594 44.16 66.6744 48.4816 71.9971 48.4816Z" fill="#767676"/>
<path d="M61.5456 27.9529C63.1746 28.3608 64.6677 26.8653 64.1248 25.2339C61.8171 16.941 58.8308 13.4063 55.9802 10.8233C53.401 8.51213 49.0573 6.47289 45.1207 5.65719C43.6275 5.38529 42.4058 6.60884 42.5416 8.10428C43.0845 13.4063 45.2564 18.5724 49.193 21.5633C54.3512 25.5058 58.695 27.2732 61.5456 27.9529Z" fill="#D8D8D8"/>
<g filter="url(#filter0_d_2931_40670)">
<path d="M114.893 50.5205V117.408C114.893 120.942 112.043 123.797 108.513 123.797H35.212C31.6826 123.797 28.832 120.942 28.832 117.408V50.5205C28.832 46.9858 31.6826 44.1309 35.212 44.1309H108.513C112.043 44.1309 114.893 46.9858 114.893 50.5205Z" fill="#646E87"/>
</g>
<path d="M114.893 50.5205V65.339H28.832V50.5205C28.832 46.9858 31.6826 44.1309 35.212 44.1309H108.513C112.043 44.1309 114.893 46.9858 114.893 50.5205Z" fill="#313A47"/>
<path d="M119.376 39.2373V56.3669C119.376 58.4061 117.747 60.1735 115.575 60.1735H28.1563C26.1201 60.1735 24.3555 58.5421 24.3555 56.3669V39.2373C24.3555 37.198 25.9844 35.4307 28.1563 35.4307H115.711C117.747 35.4307 119.376 37.198 119.376 39.2373Z" fill="#646E87"/>
<path d="M82.4533 51.2002H59.1055V123.933H82.4533V51.2002Z" fill="url(#paint2_linear_2931_40670)"/>
<path opacity="0.6" d="M82.4533 51.2002H59.1055V65.3389H82.4533V51.2002Z" fill="#9B9B9B"/>
<path d="M84.0783 35.4307H57.4727V60.1735H84.0783V35.4307Z" fill="url(#paint3_linear_2931_40670)"/>
<g clip-path="url(#clip0_2931_40670)">
<path d="M104.042 46.477L97.531 44.4763C96.9714 44.2944 96.3355 44.3723 95.8268 44.6582L90.8668 47.3605C90.3327 47.6463 89.9511 48.14 89.7731 48.7116L87.8145 55.3635C87.6365 55.9352 87.7128 56.5588 87.9926 57.1045L99.3878 78.853C99.9728 79.9703 101.321 80.3861 102.415 79.7884L115.87 72.409C116.964 71.8114 117.371 70.4082 116.786 69.3169L105.365 47.5943C105.085 47.0487 104.628 46.6589 104.042 46.477ZM96.6661 52.3234C95.4961 52.973 94.0463 52.5053 93.4104 51.31C92.7745 50.1148 93.2323 48.6337 94.4024 47.9841C95.5724 47.3345 97.0222 47.8022 97.6581 48.9715C98.2686 50.1927 97.8362 51.6998 96.6661 52.3234Z" fill="url(#paint4_linear_2931_40670)"/>
<path d="M96.6675 48.0091C96.1843 47.7233 95.5992 47.6454 95.0396 47.7493C95.2431 48.4249 95.3194 48.9186 95.2431 49.1264C94.9888 49.1784 94.4292 48.9965 93.6661 48.6068C93.0302 48.269 92.2417 47.7493 91.3515 47.0737C90.1814 46.1643 88.8588 44.969 87.5107 43.41C83.4664 38.7069 82.449 35.277 82.9323 34.8613C82.9831 34.8093 83.0594 34.7833 83.1866 34.7833C83.6445 34.7833 84.6365 35.1731 85.9337 36.1085C87.2309 37.0439 88.8842 38.473 90.6901 40.5777C92.2672 42.3966 93.3863 44.1375 94.124 45.5926L95.4721 44.8651C94.5564 43.1241 93.2591 41.2273 91.8348 39.5643C88.3755 35.5368 83.7716 32.003 81.9148 33.692C80.058 35.3809 82.9323 40.4478 86.3915 44.4493C87.587 45.8265 88.8588 47.0477 90.0797 48.0611C91.148 48.9445 92.1909 49.6461 93.132 50.0878C93.895 50.4776 94.5818 50.6855 95.116 50.7115H95.1923C95.7773 50.7115 96.1334 50.4776 96.3369 50.2697C96.6421 49.9579 96.7693 49.5162 96.7693 48.9446C96.7693 48.6587 96.7438 48.3469 96.6675 48.0091Z" fill="#1C3754"/>
<path d="M99.8209 62.7168C100.228 61.2877 99.3885 59.7807 97.9641 59.3649C97.2773 59.183 96.5652 59.261 95.9547 59.6248C95.3442 59.9885 94.8864 60.5602 94.7083 61.2617C94.3014 62.6909 95.1408 64.1979 96.5397 64.6137C97.2265 64.8215 97.9387 64.7176 98.5491 64.3538C99.185 63.9901 99.6429 63.4184 99.8209 62.7168ZM96.7686 61.0799C97.2519 60.794 97.8624 60.9759 98.1422 61.4696C98.422 61.9633 98.2439 62.5869 97.7606 62.8727C97.2773 63.1586 96.6669 62.9767 96.3871 62.483C96.1073 61.9893 96.2854 61.3657 96.7686 61.0799Z" fill="white"/>
<path d="M108.215 62.1714C107.528 61.9635 106.816 62.0674 106.206 62.4312C105.595 62.795 105.137 63.3666 104.959 64.0682C104.756 64.7698 104.857 65.4973 105.214 66.1209C105.57 66.7446 106.129 67.2123 106.816 67.3942C107.503 67.602 108.215 67.4981 108.825 67.1343C109.436 66.7705 109.894 66.1989 110.072 65.4973C110.275 64.7958 110.173 64.0682 109.817 63.4446C109.461 62.821 108.902 62.3792 108.215 62.1714ZM108.037 65.6792C107.554 65.965 106.943 65.7831 106.663 65.2895C106.384 64.7958 106.562 64.1721 107.045 63.8863C107.528 63.6005 108.139 63.7824 108.418 64.2761C108.698 64.7698 108.52 65.3934 108.037 65.6792Z" fill="white"/>
<path d="M104.345 56.2989C104.09 56.221 103.81 56.2469 103.581 56.4028C103.353 56.5328 103.175 56.7666 103.098 57.0265L99.8424 68.8751C99.7661 69.135 99.7916 69.4208 99.9442 69.6547C100.071 69.8885 100.3 70.0704 100.555 70.1484C100.809 70.2263 101.089 70.2003 101.318 70.0444C101.547 69.9145 101.725 69.6806 101.801 69.4208L105.057 57.5721C105.209 57.0265 104.879 56.4548 104.345 56.2989Z" fill="white"/>
</g>
<path d="M6.02596 46.3061C5.89021 45.8983 5.89021 45.3545 6.02596 44.9466L6.97616 42.9074C7.1119 42.6355 6.97616 42.3636 6.70467 42.2276C6.56893 42.2276 6.43319 42.2276 6.29744 42.2276L4.2613 43.1793C3.85407 43.3152 3.31109 43.3152 2.90386 43.1793L0.867713 42.2276C0.596226 42.0917 0.324739 42.2277 0.188996 42.4995C0.188996 42.6355 0.188996 42.7714 0.188996 42.9074L1.1392 44.9466C1.27494 45.3545 1.27494 45.8983 1.1392 46.3061L0.0532528 48.4813C-0.0824906 48.7532 0.0532528 49.0251 0.324739 49.1611C0.460483 49.1611 0.596226 49.1611 0.731969 49.1611L2.76812 48.2094C3.17535 48.0735 3.71832 48.0735 4.12555 48.2094L6.29744 49.1611C6.56893 49.297 6.84042 49.1611 6.97616 48.8892C6.97616 48.7532 6.97616 48.6173 6.97616 48.4813L6.02596 46.3061Z" fill="url(#paint5_linear_2931_40670)"/>
<path d="M15.526 91.9922C15.3902 91.5843 15.3902 91.0405 15.526 90.6327L16.4762 88.5934C16.6119 88.3215 16.4762 88.0496 16.2047 87.9137C16.0689 87.9137 15.9332 87.9137 15.7974 87.9137L13.7613 88.8653C13.3541 89.0013 12.8111 89.0013 12.4039 88.8653L10.3677 87.9137C10.0962 87.7777 9.82474 87.9137 9.689 88.1856C9.689 88.3215 9.689 88.4575 9.689 88.5934L10.6392 90.6327C10.7749 91.0405 10.7749 91.5843 10.6392 91.9922L9.55325 94.0314C9.41751 94.3033 9.55325 94.5752 9.82474 94.7112C9.96048 94.7112 10.0962 94.7112 10.232 94.7112L12.2681 93.7595C12.6753 93.6236 13.2183 93.6236 13.6256 93.7595L15.6617 94.7112C15.9332 94.8471 16.2047 94.7112 16.3404 94.4393C16.3404 94.3033 16.3404 94.1674 16.3404 94.0314L15.526 91.9922Z" fill="url(#paint6_linear_2931_40670)"/>
<path d="M139.053 66.0185C138.918 65.6107 138.918 65.0669 139.053 64.659L140.004 62.6198C140.139 62.3479 140.004 62.076 139.732 61.9401C139.596 61.9401 139.461 61.9401 139.325 61.9401L137.289 62.8917C136.881 63.0276 136.338 63.0276 135.931 62.8917L133.895 61.9401C133.624 61.8041 133.352 61.94 133.216 62.2119C133.216 62.3479 133.216 62.4839 133.216 62.6198L134.167 64.659C134.302 65.0669 134.302 65.6107 134.167 66.0185L133.081 68.1937C132.945 68.4656 133.081 68.7375 133.352 68.8735C133.488 68.8735 133.624 68.8735 133.759 68.8735L135.795 67.9218C136.203 67.7859 136.746 67.7859 137.153 67.9218L139.189 68.8735C139.461 69.0094 139.732 68.8735 139.868 68.6016C139.868 68.4656 139.868 68.3297 139.868 68.1937L139.053 66.0185Z" fill="url(#paint7_linear_2931_40670)"/>
<path d="M126.972 10.4155C126.837 10.0077 126.837 9.46386 126.972 9.05601L127.922 7.01677C128.058 6.74487 127.922 6.47297 127.651 6.33703C127.515 6.33703 127.379 6.33703 127.244 6.33703L125.208 7.28867C124.8 7.42462 124.257 7.42462 123.85 7.28867L121.814 6.33703C121.543 6.20108 121.271 6.33702 121.135 6.60892C121.135 6.74487 121.135 6.88082 121.135 7.01677L122.085 9.05601C122.221 9.46386 122.221 10.0077 122.085 10.4155L121.135 12.4548C121 12.7267 121.135 12.9985 121.407 13.1345C121.543 13.1345 121.678 13.1345 121.814 13.1345L123.85 12.1829C124.257 12.0469 124.8 12.0469 125.208 12.1829L127.244 13.1345C127.515 13.2704 127.787 13.1345 127.922 12.8626C127.922 12.7267 127.922 12.5907 127.922 12.4548L126.972 10.4155Z" fill="url(#paint8_linear_2931_40670)"/>
<path d="M131.179 107.076C131.044 106.668 131.044 106.125 131.179 105.717L132.129 103.677C132.265 103.406 132.129 103.134 131.858 102.998C131.722 102.998 131.587 102.998 131.451 102.998L129.415 103.949C129.007 104.085 128.464 104.085 128.057 103.949L126.021 102.998C125.75 102.862 125.478 102.998 125.342 103.27C125.342 103.406 125.342 103.541 125.342 103.677L126.293 105.717C126.428 106.125 126.428 106.668 126.293 107.076L125.342 109.115C125.207 109.387 125.342 109.659 125.614 109.795C125.75 109.795 125.885 109.795 126.021 109.795L128.057 108.844C128.464 108.708 129.007 108.708 129.415 108.844L131.451 109.795C131.722 109.931 131.994 109.795 132.129 109.523C132.129 109.387 132.129 109.251 132.129 109.115L131.179 107.076Z" fill="url(#paint9_linear_2931_40670)"/>
<defs>
<filter id="filter0_d_2931_40670" x="3.15457" y="31.2921" width="137.417" height="131.021" filterUnits="userSpaceOnUse" color-interpolation-filters="sRGB">
<feFlood flood-opacity="0" result="BackgroundImageFix"/>
<feColorMatrix in="SourceAlpha" type="matrix" values="0 0 0 0 0 0 0 0 0 0 0 0 0 0 0 0 0 0 127 0" result="hardAlpha"/>
<feOffset dy="12.8387"/>
<feGaussianBlur stdDeviation="12.8387"/>
<feColorMatrix type="matrix" values="0 0 0 0 0 0 0 0 0 0 0 0 0 0 0 0 0 0 0.15 0"/>
<feBlend mode="normal" in2="BackgroundImageFix" result="effect1_dropShadow_2931_40670"/>
<feBlend mode="normal" in="SourceGraphic" in2="effect1_dropShadow_2931_40670" result="shape"/>
</filter>
<linearGradient id="paint0_linear_2931_40670" x1="74.8618" y1="18.8957" x2="112.223" y2="18.8957" gradientUnits="userSpaceOnUse">
<stop stop-color="#E7E7E7"/>
<stop offset="1" stop-color="white"/>
</linearGradient>
<linearGradient id="paint1_linear_2931_40670" x1="31.3307" y1="19.1664" x2="68.6832" y2="19.1664" gradientUnits="userSpaceOnUse">
<stop stop-color="white"/>
<stop offset="1" stop-color="#E7E7E7"/>
</linearGradient>
<linearGradient id="paint2_linear_2931_40670" x1="59.1409" y1="87.4812" x2="82.4362" y2="87.4812" gradientUnits="userSpaceOnUse">
<stop stop-color="#E7E7E7"/>
<stop offset="1" stop-color="white"/>
</linearGradient>
<linearGradient id="paint3_linear_2931_40670" x1="70.7879" y1="47.0681" x2="70.7879" y2="58.9559" gradientUnits="userSpaceOnUse">
<stop stop-color="white"/>
<stop offset="1" stop-color="#E7E7E7"/>
</linearGradient>
<linearGradient id="paint4_linear_2931_40670" x1="87.7114" y1="62.2097" x2="117.056" y2="62.2097" gradientUnits="userSpaceOnUse">
<stop stop-color="#00E7F5"/>
<stop offset="1" stop-color="#0FABB5"/>
</linearGradient>
<linearGradient id="paint5_linear_2931_40670" x1="0.0532528" y1="45.6369" x2="7.07593" y2="45.6369" gradientUnits="userSpaceOnUse">
<stop stop-color="white"/>
<stop offset="1" stop-color="#F7F7F7"/>
</linearGradient>
<linearGradient id="paint6_linear_2931_40670" x1="9.53506" y1="91.2941" x2="16.5577" y2="91.2941" gradientUnits="userSpaceOnUse">
<stop stop-color="white"/>
<stop offset="1" stop-color="#F6F6F6"/>
</linearGradient>
<linearGradient id="paint7_linear_2931_40670" x1="133.027" y1="65.3367" x2="140.05" y2="65.3367" gradientUnits="userSpaceOnUse">
<stop stop-color="white" stop-opacity="0.803922"/>
<stop offset="1" stop-color="#F7F7F7"/>
</linearGradient>
<linearGradient id="paint8_linear_2931_40670" x1="120.915" y1="9.74705" x2="127.938" y2="9.74705" gradientUnits="userSpaceOnUse">
<stop stop-color="#F6F6F6"/>
<stop offset="1" stop-color="#F6F6F6"/>
</linearGradient>
<linearGradient id="paint9_linear_2931_40670" x1="125.161" y1="106.362" x2="132.184" y2="106.362" gradientUnits="userSpaceOnUse">
<stop stop-color="white"/>
<stop offset="1" stop-color="#F7F7F7"/>
</linearGradient>
<clipPath id="clip0_2931_40670">
<rect width="35.7371" height="46.7971" fill="white" transform="translate(81.332 33.251)"/>
</clipPath>
</defs>
</svg>
