<svg width="406" height="333" viewBox="0 0 406 333" fill="none" xmlns="http://www.w3.org/2000/svg">
<path opacity="0.8" d="M426 311.7L426 332L405.727 332M426 311.7L426 291.4M426 311.7L405.727 311.7M426 291.4L426 271.1M426 291.4L405.727 291.4M426 271.1L426 250.8M426 271.1L405.727 271.1M426 250.8L426 230.5M426 250.8L405.727 250.8M426 230.5L426 210.2M426 230.5L405.727 230.5M426 210.2L426 189.9M426 210.2L405.727 210.2M426 189.9L426 169.6M426 189.9L405.727 189.9M426 169.6L426 149.3M426 169.6L405.727 169.6M426 149.3L426 129M426 149.3L405.727 149.3M426 129L426 108.7M426 129L405.727 129M426 108.7L426 88.4M426 108.7L405.727 108.7M426 88.4L426 68.1M426 88.4L405.727 88.4M426 68.1L426 47.8M426 68.1L405.727 68.1M426 47.8L426 27.5M426 47.8L405.727 47.8M426 27.5L426 7.20001M426 27.5L405.727 27.5M426 7.20001L426 -13.1L405.727 -13.1M426 7.20001L405.727 7.20001M405.727 332L405.727 311.7M405.727 332L385.455 332M405.727 311.7L405.727 291.4M405.727 311.7L385.455 311.7M405.727 291.4L405.727 271.1M405.727 291.4L385.455 291.4M405.727 271.1L405.727 250.8M405.727 271.1L385.455 271.1M405.727 250.8L405.727 230.5M405.727 250.8L385.455 250.8M405.727 230.5L405.727 210.2M405.727 230.5L385.455 230.5M405.727 210.2L405.727 189.9M405.727 210.2L385.455 210.2M405.727 189.9L405.727 169.6M405.727 189.9L385.455 189.9M405.727 169.6L405.727 149.3M405.727 169.6L385.455 169.6M405.727 149.3L405.727 129M405.727 149.3L385.455 149.3M405.727 129L405.727 108.7M405.727 129L385.455 129M405.727 108.7L405.727 88.4M405.727 108.7L385.455 108.7M405.727 88.4L405.727 68.1M405.727 88.4L385.455 88.4M405.727 68.1L405.727 47.8M405.727 68.1L385.455 68.1M405.727 47.8L405.727 27.5M405.727 47.8L385.455 47.8M405.727 27.5L405.727 7.20001M405.727 27.5L385.455 27.5M405.727 7.20001L405.727 -13.1M405.727 7.20001L385.455 7.20001M405.727 -13.1L385.455 -13.1M385.455 332L385.455 311.7M385.455 332L365.182 332M385.455 311.7L385.455 291.4M385.455 311.7L365.182 311.7M385.455 291.4L385.455 271.1M385.455 291.4L365.182 291.4M385.455 271.1L385.455 250.8M385.455 271.1L365.182 271.1M385.455 250.8L385.455 230.5M385.455 250.8L365.182 250.8M385.455 230.5L385.455 210.2M385.455 230.5L365.182 230.5M385.455 210.2L385.455 189.9M385.455 210.2L365.182 210.2M385.455 189.9L385.455 169.6M385.455 189.9L365.182 189.9M385.455 169.6L385.455 149.3M385.455 169.6L365.182 169.6M385.455 149.3L385.455 129M385.455 149.3L365.182 149.3M385.455 129L385.455 108.7M385.455 129L365.182 129M385.455 108.7L385.455 88.4M385.455 108.7L365.182 108.7M385.455 88.4L385.455 68.1M385.455 88.4L365.182 88.4M385.455 68.1L385.455 47.8M385.455 68.1L365.182 68.1M385.455 47.8L385.455 27.5M385.455 47.8L365.182 47.8M385.455 27.5L385.455 7.20001M385.455 27.5L365.182 27.5M385.455 7.20001L385.455 -13.1M385.455 7.20001L365.182 7.20001M385.455 -13.1L365.182 -13.1M365.182 332L365.182 311.7M365.182 332L344.909 332M365.182 311.7L365.182 291.4M365.182 311.7L344.909 311.7M365.182 291.4L365.182 271.1M365.182 291.4L344.909 291.4M365.182 271.1L365.182 250.8M365.182 271.1L344.909 271.1M365.182 250.8L365.182 230.5M365.182 250.8L344.909 250.8M365.182 230.5L365.182 210.2M365.182 230.5L344.909 230.5M365.182 210.2L365.182 189.9M365.182 210.2L344.909 210.2M365.182 189.9L365.182 169.6M365.182 189.9L344.909 189.9M365.182 169.6L365.182 149.3M365.182 169.6L344.909 169.6M365.182 149.3L365.182 129M365.182 149.3L344.909 149.3M365.182 129L365.182 108.7M365.182 129L344.909 129M365.182 108.7L365.182 88.4M365.182 108.7L344.909 108.7M365.182 88.4L365.182 68.1M365.182 88.4L344.909 88.4M365.182 68.1L365.182 47.8M365.182 68.1L344.909 68.1M365.182 47.8L365.182 27.5M365.182 47.8L344.909 47.8M365.182 27.5L365.182 7.20001M365.182 27.5L344.909 27.5M365.182 7.20001L365.182 -13.1M365.182 7.20001L344.909 7.20001M365.182 -13.1L344.909 -13.1M344.909 332L344.909 311.7M344.909 332L324.636 332M344.909 311.7L344.909 291.4M344.909 311.7L324.636 311.7M344.909 291.4L344.909 271.1M344.909 291.4L324.636 291.4M344.909 271.1L344.909 250.8M344.909 271.1L324.636 271.1M344.909 250.8L344.909 230.5M344.909 250.8L324.636 250.8M344.909 230.5L344.909 210.2M344.909 230.5L324.636 230.5M344.909 210.2L344.909 189.9M344.909 210.2L324.636 210.2M344.909 189.9L344.909 169.6M344.909 189.9L324.636 189.9M344.909 169.6L344.909 149.3M344.909 169.6L324.636 169.6M344.909 149.3L344.909 129M344.909 149.3L324.636 149.3M344.909 129L344.909 108.7M344.909 129L324.636 129M344.909 108.7L344.909 88.4M344.909 108.7L324.636 108.7M344.909 88.4L344.909 68.1M344.909 88.4L324.636 88.4M344.909 68.1L344.909 47.8M344.909 68.1L324.636 68.1M344.909 47.8L344.909 27.5M344.909 47.8L324.636 47.8M344.909 27.5L344.909 7.20001M344.909 27.5L324.636 27.5M344.909 7.20001L344.909 -13.1M344.909 7.20001L324.636 7.2M344.909 -13.1L324.636 -13.1M324.636 332L324.636 311.7M324.636 332L304.364 332M324.636 311.7L324.636 291.4M324.636 311.7L304.364 311.7M324.636 291.4L324.636 271.1M324.636 291.4L304.364 291.4M324.636 271.1L324.636 250.8M324.636 271.1L304.364 271.1M324.636 250.8L324.636 230.5M324.636 250.8L304.364 250.8M324.636 230.5L324.636 210.2M324.636 230.5L304.364 230.5M324.636 210.2L324.636 189.9M324.636 210.2L304.364 210.2M324.636 189.9L324.636 169.6M324.636 189.9L304.364 189.9M324.636 169.6L324.636 149.3M324.636 169.6L304.364 169.6M324.636 149.3L324.636 129M324.636 149.3L304.364 149.3M324.636 129L324.636 108.7M324.636 129L304.364 129M324.636 108.7L324.636 88.4M324.636 108.7L304.364 108.7M324.636 88.4L324.636 68.1M324.636 88.4L304.364 88.4M324.636 68.1L324.636 47.8M324.636 68.1L304.364 68.1M324.636 47.8L324.636 27.5M324.636 47.8L304.364 47.8M324.636 27.5L324.636 7.2M324.636 27.5L304.364 27.5M324.636 7.2L324.636 -13.1M324.636 7.2L304.364 7.2M324.636 -13.1L304.364 -13.1M304.364 332L304.364 311.7M304.364 332L284.091 332M304.364 311.7L304.364 291.4M304.364 311.7L284.091 311.7M304.364 291.4L304.364 271.1M304.364 291.4L284.091 291.4M304.364 271.1L304.364 250.8M304.364 271.1L284.091 271.1M304.364 250.8L304.364 230.5M304.364 250.8L284.091 250.8M304.364 230.5L304.364 210.2M304.364 230.5L284.091 230.5M304.364 210.2L304.364 189.9M304.364 210.2L284.091 210.2M304.364 189.9L304.364 169.6M304.364 189.9L284.091 189.9M304.364 169.6L304.364 149.3M304.364 169.6L284.091 169.6M304.364 149.3L304.364 129M304.364 149.3L284.091 149.3M304.364 129L304.364 108.7M304.364 129L284.091 129M304.364 108.7L304.364 88.4M304.364 108.7L284.091 108.7M304.364 88.4L304.364 68.1M304.364 88.4L284.091 88.4M304.364 68.1L304.364 47.8M304.364 68.1L284.091 68.1M304.364 47.8L304.364 27.5M304.364 47.8L284.091 47.8M304.364 27.5L304.364 7.2M304.364 27.5L284.091 27.5M304.364 7.2L304.364 -13.1M304.364 7.2L284.091 7.2M304.364 -13.1L284.091 -13.1M284.091 332L284.091 311.7M284.091 332L263.818 332M284.091 311.7L284.091 291.4M284.091 311.7L263.818 311.7M284.091 291.4L284.091 271.1M284.091 291.4L263.818 291.4M284.091 271.1L284.091 250.8M284.091 271.1L263.818 271.1M284.091 250.8L284.091 230.5M284.091 250.8L263.818 250.8M284.091 230.5L284.091 210.2M284.091 230.5L263.818 230.5M284.091 210.2L284.091 189.9M284.091 210.2L263.818 210.2M284.091 189.9L284.091 169.6M284.091 189.9L263.818 189.9M284.091 169.6L284.091 149.3M284.091 169.6L263.818 169.6M284.091 149.3L284.091 129M284.091 149.3L263.818 149.3M284.091 129L284.091 108.7M284.091 129L263.818 129M284.091 108.7L284.091 88.4M284.091 108.7L263.818 108.7M284.091 88.4L284.091 68.1M284.091 88.4L263.818 88.4M284.091 68.1L284.091 47.8M284.091 68.1L263.818 68.1M284.091 47.8L284.091 27.5M284.091 47.8L263.818 47.8M284.091 27.5L284.091 7.2M284.091 27.5L263.818 27.5M284.091 7.2L284.091 -13.1M284.091 7.2L263.818 7.2M284.091 -13.1L263.818 -13.1M263.818 332L263.818 311.7M263.818 332L243.545 332M263.818 311.7L263.818 291.4M263.818 311.7L243.545 311.7M263.818 291.4L263.818 271.1M263.818 291.4L243.545 291.4M263.818 271.1L263.818 250.8M263.818 271.1L243.545 271.1M263.818 250.8L263.818 230.5M263.818 250.8L243.545 250.8M263.818 230.5L263.818 210.2M263.818 230.5L243.545 230.5M263.818 210.2L263.818 189.9M263.818 210.2L243.545 210.2M263.818 189.9L263.818 169.6M263.818 189.9L243.545 189.9M263.818 169.6L263.818 149.3M263.818 169.6L243.545 169.6M263.818 149.3L263.818 129M263.818 149.3L243.545 149.3M263.818 129L263.818 108.7M263.818 129L243.545 129M263.818 108.7L263.818 88.4M263.818 108.7L243.545 108.7M263.818 88.4L263.818 68.1M263.818 88.4L243.545 88.4M263.818 68.1L263.818 47.8M263.818 68.1L243.545 68.1M263.818 47.8L263.818 27.5M263.818 47.8L243.545 47.8M263.818 27.5L263.818 7.2M263.818 27.5L243.545 27.5M263.818 7.2L263.818 -13.1M263.818 7.2L243.545 7.2M263.818 -13.1L243.545 -13.1M243.545 332L243.545 311.7M243.545 332L223.273 332M243.545 311.7L243.545 291.4M243.545 311.7L223.273 311.7M243.545 291.4L243.545 271.1M243.545 291.4L223.273 291.4M243.545 271.1L243.545 250.8M243.545 271.1L223.273 271.1M243.545 250.8L243.545 230.5M243.545 250.8L223.273 250.8M243.545 230.5L243.545 210.2M243.545 230.5L223.273 230.5M243.545 210.2L243.545 189.9M243.545 210.2L223.273 210.2M243.545 189.9L243.545 169.6M243.545 189.9L223.273 189.9M243.545 169.6L243.545 149.3M243.545 169.6L223.273 169.6M243.545 149.3L243.545 129M243.545 149.3L223.273 149.3M243.545 129L243.545 108.7M243.545 129L223.273 129M243.545 108.7L243.545 88.4M243.545 108.7L223.273 108.7M243.545 88.4L243.545 68.1M243.545 88.4L223.273 88.4M243.545 68.1L243.545 47.8M243.545 68.1L223.273 68.1M243.545 47.8L243.545 27.5M243.545 47.8L223.273 47.8M243.545 27.5L243.545 7.2M243.545 27.5L223.273 27.5M243.545 7.2L243.545 -13.1M243.545 7.2L223.273 7.19999M243.545 -13.1L223.273 -13.1M223.273 332L223.273 311.7M223.273 332L203 332M223.273 311.7L223.273 291.4M223.273 311.7L203 311.7M223.273 291.4L223.273 271.1M223.273 291.4L203 291.4M223.273 271.1L223.273 250.8M223.273 271.1L203 271.1M223.273 250.8L223.273 230.5M223.273 250.8L203 250.8M223.273 230.5L223.273 210.2M223.273 230.5L203 230.5M223.273 210.2L223.273 189.9M223.273 210.2L203 210.2M223.273 189.9L223.273 169.6M223.273 189.9L203 189.9M223.273 169.6L223.273 149.3M223.273 169.6L203 169.6M223.273 149.3L223.273 129M223.273 149.3L203 149.3M223.273 129L223.273 108.7M223.273 129L203 129M223.273 108.7L223.273 88.4M223.273 108.7L203 108.7M223.273 88.4L223.273 68.1M223.273 88.4L203 88.4M223.273 68.1L223.273 47.8M223.273 68.1L203 68.1M223.273 47.8L223.273 27.5M223.273 47.8L203 47.8M223.273 27.5L223.273 7.19999M223.273 27.5L203 27.5M223.273 7.19999L223.273 -13.1M223.273 7.19999L203 7.19999M223.273 -13.1L203 -13.1M203 332L203 311.7M203 332L182.727 332M203 311.7L203 291.4M203 311.7L182.727 311.7M203 291.4L203 271.1M203 291.4L182.727 291.4M203 271.1L203 250.8M203 271.1L182.727 271.1M203 250.8L203 230.5M203 250.8L182.727 250.8M203 230.5L203 210.2M203 230.5L182.727 230.5M203 210.2L203 189.9M203 210.2L182.727 210.2M203 189.9L203 169.6M203 189.9L182.727 189.9M203 169.6L203 149.3M203 169.6L182.727 169.6M203 149.3L203 129M203 149.3L182.727 149.3M203 129L203 108.7M203 129L182.727 129M203 108.7L203 88.4M203 108.7L182.727 108.7M203 88.4L203 68.1M203 88.4L182.727 88.4M203 68.1L203 47.8M203 68.1L182.727 68.1M203 47.8L203 27.5M203 47.8L182.727 47.8M203 27.5L203 7.19999M203 27.5L182.727 27.5M203 7.19999L203 -13.1M203 7.19999L182.727 7.19999M203 -13.1L182.727 -13.1M182.727 332L182.727 311.7M182.727 332L162.455 332M182.727 311.7L182.727 291.4M182.727 311.7L162.455 311.7M182.727 291.4L182.727 271.1M182.727 291.4L162.455 291.4M182.727 271.1L182.727 250.8M182.727 271.1L162.455 271.1M182.727 250.8L182.727 230.5M182.727 250.8L162.455 250.8M182.727 230.5L182.727 210.2M182.727 230.5L162.455 230.5M182.727 210.2L182.727 189.9M182.727 210.2L162.455 210.2M182.727 189.9L182.727 169.6M182.727 189.9L162.455 189.9M182.727 169.6L182.727 149.3M182.727 169.6L162.455 169.6M182.727 149.3L182.727 129M182.727 149.3L162.455 149.3M182.727 129L182.727 108.7M182.727 129L162.455 129M182.727 108.7L182.727 88.4M182.727 108.7L162.455 108.7M182.727 88.4L182.727 68.1M182.727 88.4L162.455 88.4M182.727 68.1L182.727 47.8M182.727 68.1L162.455 68.1M182.727 47.8L182.727 27.5M182.727 47.8L162.455 47.8M182.727 27.5L182.727 7.19999M182.727 27.5L162.455 27.5M182.727 7.19999L182.727 -13.1M182.727 7.19999L162.455 7.19999M182.727 -13.1L162.455 -13.1M162.455 332L162.455 311.7M162.455 332L142.182 332M162.455 311.7L162.455 291.4M162.455 311.7L142.182 311.7M162.455 291.4L162.455 271.1M162.455 291.4L142.182 291.4M162.455 271.1L162.455 250.8M162.455 271.1L142.182 271.1M162.455 250.8L162.455 230.5M162.455 250.8L142.182 250.8M162.455 230.5L162.455 210.2M162.455 230.5L142.182 230.5M162.455 210.2L162.455 189.9M162.455 210.2L142.182 210.2M162.455 189.9L162.455 169.6M162.455 189.9L142.182 189.9M162.455 169.6L162.455 149.3M162.455 169.6L142.182 169.6M162.455 149.3L162.455 129M162.455 149.3L142.182 149.3M162.455 129L162.455 108.7M162.455 129L142.182 129M162.455 108.7L162.455 88.4M162.455 108.7L142.182 108.7M162.455 88.4L162.455 68.1M162.455 88.4L142.182 88.4M162.455 68.1L162.455 47.8M162.455 68.1L142.182 68.1M162.455 47.8L162.455 27.5M162.455 47.8L142.182 47.8M162.455 27.5L162.455 7.19999M162.455 27.5L142.182 27.5M162.455 7.19999L162.455 -13.1M162.455 7.19999L142.182 7.19999M162.455 -13.1L142.182 -13.1M142.182 332L142.182 311.7M142.182 332L121.909 332M142.182 311.7L142.182 291.4M142.182 311.7L121.909 311.7M142.182 291.4L142.182 271.1M142.182 291.4L121.909 291.4M142.182 271.1L142.182 250.8M142.182 271.1L121.909 271.1M142.182 250.8L142.182 230.5M142.182 250.8L121.909 250.8M142.182 230.5L142.182 210.2M142.182 230.5L121.909 230.5M142.182 210.2L142.182 189.9M142.182 210.2L121.909 210.2M142.182 189.9L142.182 169.6M142.182 189.9L121.909 189.9M142.182 169.6L142.182 149.3M142.182 169.6L121.909 169.6M142.182 149.3L142.182 129M142.182 149.3L121.909 149.3M142.182 129L142.182 108.7M142.182 129L121.909 129M142.182 108.7L142.182 88.4M142.182 108.7L121.909 108.7M142.182 88.4L142.182 68.1M142.182 88.4L121.909 88.4M142.182 68.1L142.182 47.8M142.182 68.1L121.909 68.1M142.182 47.8L142.182 27.5M142.182 47.8L121.909 47.8M142.182 27.5L142.182 7.19999M142.182 27.5L121.909 27.5M142.182 7.19999L142.182 -13.1M142.182 7.19999L121.909 7.19999M142.182 -13.1L121.909 -13.1M121.909 332L121.909 311.7M121.909 332L101.636 332M121.909 311.7L121.909 291.4M121.909 311.7L101.636 311.7M121.909 291.4L121.909 271.1M121.909 291.4L101.636 291.4M121.909 271.1L121.909 250.8M121.909 271.1L101.636 271.1M121.909 250.8L121.909 230.5M121.909 250.8L101.636 250.8M121.909 230.5L121.909 210.2M121.909 230.5L101.636 230.5M121.909 210.2L121.909 189.9M121.909 210.2L101.636 210.2M121.909 189.9L121.909 169.6M121.909 189.9L101.636 189.9M121.909 169.6L121.909 149.3M121.909 169.6L101.636 169.6M121.909 149.3L121.909 129M121.909 149.3L101.636 149.3M121.909 129L121.909 108.7M121.909 129L101.636 129M121.909 108.7L121.909 88.4M121.909 108.7L101.636 108.7M121.909 88.4L121.909 68.1M121.909 88.4L101.636 88.4M121.909 68.1L121.909 47.8M121.909 68.1L101.636 68.1M121.909 47.8L121.909 27.5M121.909 47.8L101.636 47.8M121.909 27.5L121.909 7.19999M121.909 27.5L101.636 27.5M121.909 7.19999L121.909 -13.1M121.909 7.19999L101.636 7.19998M121.909 -13.1L101.636 -13.1M101.636 332L101.636 311.7M101.636 332L81.3636 332M101.636 311.7L101.636 291.4M101.636 311.7L81.3636 311.7M101.636 291.4L101.636 271.1M101.636 291.4L81.3636 291.4M101.636 271.1L101.636 250.8M101.636 271.1L81.3636 271.1M101.636 250.8L101.636 230.5M101.636 250.8L81.3636 250.8M101.636 230.5L101.636 210.2M101.636 230.5L81.3636 230.5M101.636 210.2L101.636 189.9M101.636 210.2L81.3636 210.2M101.636 189.9L101.636 169.6M101.636 189.9L81.3636 189.9M101.636 169.6L101.636 149.3M101.636 169.6L81.3636 169.6M101.636 149.3L101.636 129M101.636 149.3L81.3636 149.3M101.636 129L101.636 108.7M101.636 129L81.3636 129M101.636 108.7L101.636 88.4M101.636 108.7L81.3636 108.7M101.636 88.4L101.636 68.1M101.636 88.4L81.3636 88.4M101.636 68.1L101.636 47.8M101.636 68.1L81.3636 68.1M101.636 47.8L101.636 27.5M101.636 47.8L81.3636 47.8M101.636 27.5L101.636 7.19998M101.636 27.5L81.3636 27.5M101.636 7.19998L101.636 -13.1M101.636 7.19998L81.3636 7.19998M101.636 -13.1L81.3636 -13.1M81.3636 332L81.3636 311.7M81.3636 332L61.0909 332M81.3636 311.7L81.3636 291.4M81.3636 311.7L61.0909 311.7M81.3636 291.4L81.3636 271.1M81.3636 291.4L61.0909 291.4M81.3636 271.1L81.3636 250.8M81.3636 271.1L61.0909 271.1M81.3636 250.8L81.3636 230.5M81.3636 250.8L61.0909 250.8M81.3636 230.5L81.3636 210.2M81.3636 230.5L61.0909 230.5M81.3636 210.2L81.3636 189.9M81.3636 210.2L61.0909 210.2M81.3636 189.9L81.3636 169.6M81.3636 189.9L61.0909 189.9M81.3636 169.6L81.3636 149.3M81.3636 169.6L61.0909 169.6M81.3636 149.3L81.3636 129M81.3636 149.3L61.0909 149.3M81.3636 129L81.3636 108.7M81.3636 129L61.0909 129M81.3636 108.7L81.3636 88.4M81.3636 108.7L61.0909 108.7M81.3636 88.4L81.3636 68.1M81.3636 88.4L61.0909 88.4M81.3636 68.1L81.3636 47.8M81.3636 68.1L61.0909 68.1M81.3636 47.8L81.3636 27.5M81.3636 47.8L61.0909 47.8M81.3636 27.5L81.3636 7.19998M81.3636 27.5L61.0909 27.5M81.3636 7.19998L81.3636 -13.1M81.3636 7.19998L61.0909 7.19998M81.3636 -13.1L61.0909 -13.1M61.0909 332L61.0909 311.7M61.0909 332L40.8181 332M61.0909 311.7L61.0909 291.4M61.0909 311.7L40.8181 311.7M61.0909 291.4L61.0909 271.1M61.0909 291.4L40.8181 291.4M61.0909 271.1L61.0909 250.8M61.0909 271.1L40.8181 271.1M61.0909 250.8L61.0909 230.5M61.0909 250.8L40.8181 250.8M61.0909 230.5L61.0909 210.2M61.0909 230.5L40.8181 230.5M61.0909 210.2L61.0909 189.9M61.0909 210.2L40.8181 210.2M61.0909 189.9L61.0909 169.6M61.0909 189.9L40.8181 189.9M61.0909 169.6L61.0909 149.3M61.0909 169.6L40.8181 169.6M61.0909 149.3L61.0909 129M61.0909 149.3L40.8181 149.3M61.0909 129L61.0909 108.7M61.0909 129L40.8181 129M61.0909 108.7L61.0909 88.4M61.0909 108.7L40.8181 108.7M61.0909 88.4L61.0909 68.1M61.0909 88.4L40.8181 88.4M61.0909 68.1L61.0909 47.8M61.0909 68.1L40.8181 68.1M61.0909 47.8L61.0909 27.5M61.0909 47.8L40.8181 47.8M61.0909 27.5L61.0909 7.19998M61.0909 27.5L40.8181 27.5M61.0909 7.19998L61.0909 -13.1M61.0909 7.19998L40.8181 7.19998M61.0909 -13.1L40.8181 -13.1M40.8181 332L40.8181 311.7M40.8181 332L20.5454 332M40.8181 311.7L40.8181 291.4M40.8181 311.7L20.5454 311.7M40.8181 291.4L40.8181 271.1M40.8181 291.4L20.5454 291.4M40.8181 271.1L40.8181 250.8M40.8181 271.1L20.5454 271.1M40.8181 250.8L40.8181 230.5M40.8181 250.8L20.5454 250.8M40.8181 230.5L40.8181 210.2M40.8181 230.5L20.5454 230.5M40.8181 210.2L40.8181 189.9M40.8181 210.2L20.5454 210.2M40.8181 189.9L40.8181 169.6M40.8181 189.9L20.5454 189.9M40.8181 169.6L40.8181 149.3M40.8181 169.6L20.5454 169.6M40.8181 149.3L40.8181 129M40.8181 149.3L20.5454 149.3M40.8181 129L40.8181 108.7M40.8181 129L20.5454 129M40.8181 108.7L40.8181 88.4M40.8181 108.7L20.5454 108.7M40.8181 88.4L40.8181 68.1M40.8181 88.4L20.5454 88.4M40.8181 68.1L40.8181 47.8M40.8181 68.1L20.5454 68.1M40.8181 47.8L40.8181 27.5M40.8181 47.8L20.5454 47.8M40.8181 27.5L40.8181 7.19998M40.8181 27.5L20.5454 27.5M40.8181 7.19998L40.8181 -13.1M40.8181 7.19998L20.5454 7.19998M40.8181 -13.1L20.5454 -13.1M20.5454 332L20.5454 311.7M20.5454 332L0.272644 332M20.5454 311.7L20.5454 291.4M20.5454 311.7L0.272646 311.7M20.5454 291.4L20.5454 271.1M20.5454 291.4L0.272648 291.4M20.5454 271.1L20.5454 250.8M20.5454 271.1L0.272649 271.1M20.5454 250.8L20.5454 230.5M20.5454 250.8L0.272651 250.8M20.5454 230.5L20.5454 210.2M20.5454 230.5L0.272653 230.5M20.5454 210.2L20.5454 189.9M20.5454 210.2L0.272655 210.2M20.5454 189.9L20.5454 169.6M20.5454 189.9L0.272656 189.9M20.5454 169.6L20.5454 149.3M20.5454 169.6L0.272658 169.6M20.5454 149.3L20.5454 129M20.5454 149.3L0.27266 149.3M20.5454 129L20.5454 108.7M20.5454 129L0.272662 129M20.5454 108.7L20.5454 88.4M20.5454 108.7L0.272664 108.7M20.5454 88.4L20.5454 68.1M20.5454 88.4L0.272665 88.4M20.5454 68.1L20.5454 47.8M20.5454 68.1L0.272667 68.1M20.5454 47.8L20.5454 27.5M20.5454 47.8L0.272669 47.8M20.5454 27.5L20.5454 7.19998M20.5454 27.5L0.272671 27.5M20.5454 7.19998L20.5454 -13.1M20.5454 7.19998L0.272672 7.19997M20.5454 -13.1L0.272674 -13.1M0.272644 332L0.272646 311.7M0.272644 332L-20.0001 332L-20.0001 311.7M0.272646 311.7L0.272648 291.4M0.272646 311.7L-20.0001 311.7M0.272648 291.4L0.272649 271.1M0.272648 291.4L-20.0001 291.4M0.272649 271.1L0.272651 250.8M0.272649 271.1L-20.0001 271.1M0.272651 250.8L0.272653 230.5M0.272651 250.8L-20.0001 250.8M0.272653 230.5L0.272655 210.2M0.272653 230.5L-20.0001 230.5M0.272655 210.2L0.272656 189.9M0.272655 210.2L-20.0001 210.2M0.272656 189.9L0.272658 169.6M0.272656 189.9L-20 189.9M0.272658 169.6L0.27266 149.3M0.272658 169.6L-20 169.6M0.27266 149.3L0.272662 129M0.27266 149.3L-20 149.3M0.272662 129L0.272664 108.7M0.272662 129L-20 129M0.272664 108.7L0.272665 88.4M0.272664 108.7L-20 108.7M0.272665 88.4L0.272667 68.1M0.272665 88.4L-20 88.4M0.272667 68.1L0.272669 47.8M0.272667 68.1L-20 68.1M0.272669 47.8L0.272671 27.5M0.272669 47.8L-20 47.7999M0.272671 27.5L0.272672 7.19997M0.272671 27.5L-20 27.5M0.272672 7.19997L0.272674 -13.1M0.272672 7.19997L-20 7.19997M0.272674 -13.1L-20 -13.1L-20 7.19997M-20.0001 311.7L-20.0001 291.4M-20.0001 291.4L-20.0001 271.1M-20.0001 271.1L-20.0001 250.8M-20.0001 250.8L-20.0001 230.5M-20.0001 230.5L-20.0001 210.2M-20.0001 210.2L-20 189.9M-20 189.9L-20 169.6M-20 169.6L-20 149.3M-20 149.3L-20 129M-20 129L-20 108.7M-20 108.7L-20 88.4M-20 88.4L-20 68.1M-20 68.1L-20 47.7999M-20 47.7999L-20 27.5M-20 27.5L-20 7.19997" stroke="url(#paint0_radial_2938_40690)" stroke-width="0.804612"/>
<g opacity="0.4">
<g filter="url(#filter0_f_2938_40690)">
<g opacity="0.8" filter="url(#filter1_f_2938_40690)">
<path d="M333.07 -249.406L345.833 -244.426L258.466 -20.5162L195.226 130.472L245.704 -25.4961L333.07 -249.406Z" fill="url(#paint1_linear_2938_40690)"/>
</g>
<g opacity="0.8" filter="url(#filter2_f_2938_40690)">
<path d="M287.973 -275.03L300.736 -270.05L213.369 -46.1402L150.128 104.848L200.606 -51.1201L287.973 -275.03Z" fill="url(#paint2_linear_2938_40690)"/>
</g>
<g style="mix-blend-mode:soft-light" opacity="0.8" filter="url(#filter3_f_2938_40690)">
<path d="M377.723 -277.772L390.486 -272.793L303.119 -48.8829L239.878 102.105L290.356 -53.8628L377.723 -277.772Z" fill="url(#paint3_linear_2938_40690)"/>
</g>
<g style="mix-blend-mode:overlay" filter="url(#filter4_f_2938_40690)">
<path d="M305.41 -241.59L318.173 -236.61L230.806 -12.7003L167.566 138.288L218.043 -17.6802L305.41 -241.59Z" fill="url(#paint4_linear_2938_40690)"/>
</g>
<g opacity="0.8" filter="url(#filter5_f_2938_40690)">
<path d="M333.07 -249.406L345.833 -244.426L258.466 -20.5162L195.226 130.472L245.704 -25.4961L333.07 -249.406Z" fill="url(#paint5_linear_2938_40690)"/>
</g>
<g opacity="0.8" filter="url(#filter6_f_2938_40690)">
<path d="M287.973 -275.03L300.736 -270.05L213.369 -46.1402L150.128 104.848L200.606 -51.1201L287.973 -275.03Z" fill="url(#paint6_linear_2938_40690)"/>
</g>
<g style="mix-blend-mode:soft-light" opacity="0.8" filter="url(#filter7_f_2938_40690)">
<path d="M377.723 -277.772L390.486 -272.793L303.119 -48.8829L239.878 102.105L290.356 -53.8628L377.723 -277.772Z" fill="url(#paint7_linear_2938_40690)"/>
</g>
<g style="mix-blend-mode:overlay" filter="url(#filter8_f_2938_40690)">
<path d="M305.41 -241.59L318.173 -236.61L230.806 -12.7003L167.566 138.288L218.043 -17.6802L305.41 -241.59Z" fill="url(#paint8_linear_2938_40690)"/>
</g>
<g opacity="0.8" filter="url(#filter9_f_2938_40690)">
<path d="M333.07 -249.406L345.833 -244.426L258.466 -20.5162L195.226 130.472L245.704 -25.4961L333.07 -249.406Z" fill="url(#paint9_linear_2938_40690)"/>
</g>
<g opacity="0.8" filter="url(#filter10_f_2938_40690)">
<path d="M287.973 -275.03L300.736 -270.05L213.369 -46.1402L150.128 104.848L200.606 -51.1201L287.973 -275.03Z" fill="url(#paint10_linear_2938_40690)"/>
</g>
<g style="mix-blend-mode:soft-light" opacity="0.8" filter="url(#filter11_f_2938_40690)">
<path d="M377.723 -277.772L390.486 -272.793L303.119 -48.8829L239.878 102.105L290.356 -53.8628L377.723 -277.772Z" fill="url(#paint11_linear_2938_40690)"/>
</g>
<g style="mix-blend-mode:overlay" filter="url(#filter12_f_2938_40690)">
<path d="M305.41 -241.59L318.173 -236.61L230.806 -12.7003L167.566 138.288L218.043 -17.6802L305.41 -241.59Z" fill="url(#paint12_linear_2938_40690)"/>
</g>
<g opacity="0.8" filter="url(#filter13_f_2938_40690)">
<path d="M333.066 -249.406L345.829 -244.426L258.463 -20.5162L195.222 130.472L245.7 -25.4961L333.066 -249.406Z" fill="url(#paint13_linear_2938_40690)"/>
</g>
<g opacity="0.8" filter="url(#filter14_f_2938_40690)">
<path d="M283.477 -268.496L296.239 -263.516L208.873 -39.606L145.632 111.382L196.11 -44.5859L283.477 -268.496Z" fill="url(#paint14_linear_2938_40690)"/>
</g>
<g style="mix-blend-mode:soft-light" opacity="0.8" filter="url(#filter15_f_2938_40690)">
<path d="M377.719 -277.773L390.482 -272.793L303.115 -48.8834L239.875 102.104L290.352 -53.8633L377.719 -277.773Z" fill="url(#paint15_linear_2938_40690)"/>
</g>
<g style="mix-blend-mode:overlay" filter="url(#filter16_f_2938_40690)">
<path d="M342.73 -255.908L355.493 -250.928L268.127 -27.0186L204.886 123.969L255.364 -31.9985L342.73 -255.908Z" fill="url(#paint16_linear_2938_40690)"/>
</g>
<g style="mix-blend-mode:overlay" filter="url(#filter17_f_2938_40690)">
<path d="M286.449 -175.159L299.212 -170.179L211.845 53.7309L148.605 204.719L199.082 48.751L286.449 -175.159Z" fill="url(#paint17_linear_2938_40690)"/>
</g>
</g>
<g opacity="0.8" filter="url(#filter18_f_2938_40690)">
<path d="M333.07 -249.406L345.833 -244.426L258.466 -20.5162L195.226 130.472L245.704 -25.4961L333.07 -249.406Z" fill="url(#paint18_linear_2938_40690)"/>
</g>
<g opacity="0.8" filter="url(#filter19_f_2938_40690)">
<path d="M287.973 -275.03L300.736 -270.05L213.369 -46.1402L150.128 104.848L200.606 -51.1201L287.973 -275.03Z" fill="url(#paint19_linear_2938_40690)"/>
</g>
<g style="mix-blend-mode:soft-light" opacity="0.8" filter="url(#filter20_f_2938_40690)">
<path d="M377.723 -277.772L390.486 -272.793L303.119 -48.8829L239.878 102.105L290.356 -53.8628L377.723 -277.772Z" fill="url(#paint20_linear_2938_40690)"/>
</g>
<g style="mix-blend-mode:overlay" filter="url(#filter21_f_2938_40690)">
<path d="M305.41 -241.59L318.173 -236.61L230.806 -12.7003L167.566 138.288L218.043 -17.6802L305.41 -241.59Z" fill="url(#paint21_linear_2938_40690)"/>
</g>
<g opacity="0.8" filter="url(#filter22_f_2938_40690)">
<path d="M333.07 -249.406L345.833 -244.426L258.466 -20.5162L195.226 130.472L245.704 -25.4961L333.07 -249.406Z" fill="url(#paint22_linear_2938_40690)"/>
</g>
<g opacity="0.8" filter="url(#filter23_f_2938_40690)">
<path d="M287.973 -275.03L300.736 -270.05L213.369 -46.1402L150.128 104.848L200.606 -51.1201L287.973 -275.03Z" fill="url(#paint23_linear_2938_40690)"/>
</g>
<g style="mix-blend-mode:soft-light" opacity="0.8" filter="url(#filter24_f_2938_40690)">
<path d="M377.723 -277.772L390.486 -272.793L303.119 -48.8829L239.878 102.105L290.356 -53.8628L377.723 -277.772Z" fill="url(#paint24_linear_2938_40690)"/>
</g>
<g style="mix-blend-mode:overlay" filter="url(#filter25_f_2938_40690)">
<path d="M305.41 -241.59L318.173 -236.61L230.806 -12.7003L167.566 138.288L218.043 -17.6802L305.41 -241.59Z" fill="url(#paint25_linear_2938_40690)"/>
</g>
<g opacity="0.8" filter="url(#filter26_f_2938_40690)">
<path d="M333.07 -249.406L345.833 -244.426L258.466 -20.5162L195.226 130.472L245.704 -25.4961L333.07 -249.406Z" fill="url(#paint26_linear_2938_40690)"/>
</g>
<g opacity="0.8" filter="url(#filter27_f_2938_40690)">
<path d="M287.973 -275.03L300.736 -270.05L213.369 -46.1402L150.128 104.848L200.606 -51.1201L287.973 -275.03Z" fill="url(#paint27_linear_2938_40690)"/>
</g>
<g style="mix-blend-mode:soft-light" opacity="0.8" filter="url(#filter28_f_2938_40690)">
<path d="M377.723 -277.772L390.486 -272.793L303.119 -48.8829L239.878 102.105L290.356 -53.8628L377.723 -277.772Z" fill="url(#paint28_linear_2938_40690)"/>
</g>
<g style="mix-blend-mode:overlay" filter="url(#filter29_f_2938_40690)">
<path d="M305.41 -241.59L318.173 -236.61L230.806 -12.7003L167.566 138.288L218.043 -17.6802L305.41 -241.59Z" fill="url(#paint29_linear_2938_40690)"/>
</g>
<g opacity="0.8" filter="url(#filter30_f_2938_40690)">
<path d="M333.066 -249.406L345.829 -244.426L258.463 -20.5162L195.222 130.472L245.7 -25.4961L333.066 -249.406Z" fill="url(#paint30_linear_2938_40690)"/>
</g>
<g opacity="0.8" filter="url(#filter31_f_2938_40690)">
<path d="M313.125 -256.805L325.888 -251.825L238.521 -27.9151L175.281 123.073L225.758 -32.895L313.125 -256.805Z" fill="url(#paint31_linear_2938_40690)"/>
</g>
<g opacity="0.8" filter="url(#filter32_f_2938_40690)">
<path d="M283.477 -268.496L296.239 -263.516L208.873 -39.606L145.632 111.382L196.11 -44.5859L283.477 -268.496Z" fill="url(#paint32_linear_2938_40690)"/>
</g>
<g style="mix-blend-mode:soft-light" opacity="0.8" filter="url(#filter33_f_2938_40690)">
<path d="M377.719 -277.773L390.482 -272.793L303.115 -48.8834L239.875 102.104L290.352 -53.8633L377.719 -277.773Z" fill="url(#paint33_linear_2938_40690)"/>
</g>
<g style="mix-blend-mode:overlay" filter="url(#filter34_f_2938_40690)">
<path d="M342.73 -255.908L355.493 -250.928L268.127 -27.0186L204.886 123.969L255.364 -31.9985L342.73 -255.908Z" fill="url(#paint34_linear_2938_40690)"/>
</g>
<g style="mix-blend-mode:overlay" filter="url(#filter35_f_2938_40690)">
<path d="M286.449 -175.159L299.212 -170.179L211.845 53.7309L148.605 204.719L199.082 48.751L286.449 -175.159Z" fill="url(#paint35_linear_2938_40690)"/>
</g>
</g>
<defs>
<filter id="filter0_f_2938_40690" x="123.481" y="-299.924" width="289.155" height="526.795" filterUnits="userSpaceOnUse" color-interpolation-filters="sRGB">
<feFlood flood-opacity="0" result="BackgroundImageFix"/>
<feBlend mode="normal" in="SourceGraphic" in2="BackgroundImageFix" result="shape"/>
<feGaussianBlur stdDeviation="11.0757" result="effect1_foregroundBlur_2938_40690"/>
</filter>
<filter id="filter1_f_2938_40690" x="176.152" y="-268.481" width="188.755" height="418.027" filterUnits="userSpaceOnUse" color-interpolation-filters="sRGB">
<feFlood flood-opacity="0" result="BackgroundImageFix"/>
<feBlend mode="normal" in="SourceGraphic" in2="BackgroundImageFix" result="shape"/>
<feGaussianBlur stdDeviation="9.53747" result="effect1_foregroundBlur_2938_40690"/>
</filter>
<filter id="filter2_f_2938_40690" x="131.054" y="-294.105" width="188.755" height="418.027" filterUnits="userSpaceOnUse" color-interpolation-filters="sRGB">
<feFlood flood-opacity="0" result="BackgroundImageFix"/>
<feBlend mode="normal" in="SourceGraphic" in2="BackgroundImageFix" result="shape"/>
<feGaussianBlur stdDeviation="9.53747" result="effect1_foregroundBlur_2938_40690"/>
</filter>
<filter id="filter3_f_2938_40690" x="220.804" y="-296.847" width="188.755" height="418.027" filterUnits="userSpaceOnUse" color-interpolation-filters="sRGB">
<feFlood flood-opacity="0" result="BackgroundImageFix"/>
<feBlend mode="normal" in="SourceGraphic" in2="BackgroundImageFix" result="shape"/>
<feGaussianBlur stdDeviation="9.53747" result="effect1_foregroundBlur_2938_40690"/>
</filter>
<filter id="filter4_f_2938_40690" x="156.715" y="-252.442" width="172.309" height="401.581" filterUnits="userSpaceOnUse" color-interpolation-filters="sRGB">
<feFlood flood-opacity="0" result="BackgroundImageFix"/>
<feBlend mode="normal" in="SourceGraphic" in2="BackgroundImageFix" result="shape"/>
<feGaussianBlur stdDeviation="5.42588" result="effect1_foregroundBlur_2938_40690"/>
</filter>
<filter id="filter5_f_2938_40690" x="176.152" y="-268.481" width="188.755" height="418.027" filterUnits="userSpaceOnUse" color-interpolation-filters="sRGB">
<feFlood flood-opacity="0" result="BackgroundImageFix"/>
<feBlend mode="normal" in="SourceGraphic" in2="BackgroundImageFix" result="shape"/>
<feGaussianBlur stdDeviation="9.53747" result="effect1_foregroundBlur_2938_40690"/>
</filter>
<filter id="filter6_f_2938_40690" x="131.054" y="-294.105" width="188.755" height="418.027" filterUnits="userSpaceOnUse" color-interpolation-filters="sRGB">
<feFlood flood-opacity="0" result="BackgroundImageFix"/>
<feBlend mode="normal" in="SourceGraphic" in2="BackgroundImageFix" result="shape"/>
<feGaussianBlur stdDeviation="9.53747" result="effect1_foregroundBlur_2938_40690"/>
</filter>
<filter id="filter7_f_2938_40690" x="220.804" y="-296.847" width="188.755" height="418.027" filterUnits="userSpaceOnUse" color-interpolation-filters="sRGB">
<feFlood flood-opacity="0" result="BackgroundImageFix"/>
<feBlend mode="normal" in="SourceGraphic" in2="BackgroundImageFix" result="shape"/>
<feGaussianBlur stdDeviation="9.53747" result="effect1_foregroundBlur_2938_40690"/>
</filter>
<filter id="filter8_f_2938_40690" x="156.715" y="-252.442" width="172.309" height="401.581" filterUnits="userSpaceOnUse" color-interpolation-filters="sRGB">
<feFlood flood-opacity="0" result="BackgroundImageFix"/>
<feBlend mode="normal" in="SourceGraphic" in2="BackgroundImageFix" result="shape"/>
<feGaussianBlur stdDeviation="5.42588" result="effect1_foregroundBlur_2938_40690"/>
</filter>
<filter id="filter9_f_2938_40690" x="176.152" y="-268.481" width="188.755" height="418.027" filterUnits="userSpaceOnUse" color-interpolation-filters="sRGB">
<feFlood flood-opacity="0" result="BackgroundImageFix"/>
<feBlend mode="normal" in="SourceGraphic" in2="BackgroundImageFix" result="shape"/>
<feGaussianBlur stdDeviation="9.53747" result="effect1_foregroundBlur_2938_40690"/>
</filter>
<filter id="filter10_f_2938_40690" x="131.054" y="-294.105" width="188.755" height="418.027" filterUnits="userSpaceOnUse" color-interpolation-filters="sRGB">
<feFlood flood-opacity="0" result="BackgroundImageFix"/>
<feBlend mode="normal" in="SourceGraphic" in2="BackgroundImageFix" result="shape"/>
<feGaussianBlur stdDeviation="9.53747" result="effect1_foregroundBlur_2938_40690"/>
</filter>
<filter id="filter11_f_2938_40690" x="220.804" y="-296.847" width="188.755" height="418.027" filterUnits="userSpaceOnUse" color-interpolation-filters="sRGB">
<feFlood flood-opacity="0" result="BackgroundImageFix"/>
<feBlend mode="normal" in="SourceGraphic" in2="BackgroundImageFix" result="shape"/>
<feGaussianBlur stdDeviation="9.53747" result="effect1_foregroundBlur_2938_40690"/>
</filter>
<filter id="filter12_f_2938_40690" x="156.715" y="-252.442" width="172.309" height="401.581" filterUnits="userSpaceOnUse" color-interpolation-filters="sRGB">
<feFlood flood-opacity="0" result="BackgroundImageFix"/>
<feBlend mode="normal" in="SourceGraphic" in2="BackgroundImageFix" result="shape"/>
<feGaussianBlur stdDeviation="5.42588" result="effect1_foregroundBlur_2938_40690"/>
</filter>
<filter id="filter13_f_2938_40690" x="176.148" y="-268.481" width="188.755" height="418.027" filterUnits="userSpaceOnUse" color-interpolation-filters="sRGB">
<feFlood flood-opacity="0" result="BackgroundImageFix"/>
<feBlend mode="normal" in="SourceGraphic" in2="BackgroundImageFix" result="shape"/>
<feGaussianBlur stdDeviation="9.53747" result="effect1_foregroundBlur_2938_40690"/>
</filter>
<filter id="filter14_f_2938_40690" x="126.558" y="-287.571" width="188.755" height="418.027" filterUnits="userSpaceOnUse" color-interpolation-filters="sRGB">
<feFlood flood-opacity="0" result="BackgroundImageFix"/>
<feBlend mode="normal" in="SourceGraphic" in2="BackgroundImageFix" result="shape"/>
<feGaussianBlur stdDeviation="9.53747" result="effect1_foregroundBlur_2938_40690"/>
</filter>
<filter id="filter15_f_2938_40690" x="220.8" y="-296.848" width="188.755" height="418.027" filterUnits="userSpaceOnUse" color-interpolation-filters="sRGB">
<feFlood flood-opacity="0" result="BackgroundImageFix"/>
<feBlend mode="normal" in="SourceGraphic" in2="BackgroundImageFix" result="shape"/>
<feGaussianBlur stdDeviation="9.53747" result="effect1_foregroundBlur_2938_40690"/>
</filter>
<filter id="filter16_f_2938_40690" x="194.035" y="-266.76" width="172.309" height="401.581" filterUnits="userSpaceOnUse" color-interpolation-filters="sRGB">
<feFlood flood-opacity="0" result="BackgroundImageFix"/>
<feBlend mode="normal" in="SourceGraphic" in2="BackgroundImageFix" result="shape"/>
<feGaussianBlur stdDeviation="5.42588" result="effect1_foregroundBlur_2938_40690"/>
</filter>
<filter id="filter17_f_2938_40690" x="137.754" y="-186.01" width="172.309" height="401.581" filterUnits="userSpaceOnUse" color-interpolation-filters="sRGB">
<feFlood flood-opacity="0" result="BackgroundImageFix"/>
<feBlend mode="normal" in="SourceGraphic" in2="BackgroundImageFix" result="shape"/>
<feGaussianBlur stdDeviation="5.42588" result="effect1_foregroundBlur_2938_40690"/>
</filter>
<filter id="filter18_f_2938_40690" x="176.152" y="-268.481" width="188.755" height="418.027" filterUnits="userSpaceOnUse" color-interpolation-filters="sRGB">
<feFlood flood-opacity="0" result="BackgroundImageFix"/>
<feBlend mode="normal" in="SourceGraphic" in2="BackgroundImageFix" result="shape"/>
<feGaussianBlur stdDeviation="9.53747" result="effect1_foregroundBlur_2938_40690"/>
</filter>
<filter id="filter19_f_2938_40690" x="131.054" y="-294.105" width="188.755" height="418.027" filterUnits="userSpaceOnUse" color-interpolation-filters="sRGB">
<feFlood flood-opacity="0" result="BackgroundImageFix"/>
<feBlend mode="normal" in="SourceGraphic" in2="BackgroundImageFix" result="shape"/>
<feGaussianBlur stdDeviation="9.53747" result="effect1_foregroundBlur_2938_40690"/>
</filter>
<filter id="filter20_f_2938_40690" x="220.804" y="-296.847" width="188.755" height="418.027" filterUnits="userSpaceOnUse" color-interpolation-filters="sRGB">
<feFlood flood-opacity="0" result="BackgroundImageFix"/>
<feBlend mode="normal" in="SourceGraphic" in2="BackgroundImageFix" result="shape"/>
<feGaussianBlur stdDeviation="9.53747" result="effect1_foregroundBlur_2938_40690"/>
</filter>
<filter id="filter21_f_2938_40690" x="156.715" y="-252.442" width="172.309" height="401.581" filterUnits="userSpaceOnUse" color-interpolation-filters="sRGB">
<feFlood flood-opacity="0" result="BackgroundImageFix"/>
<feBlend mode="normal" in="SourceGraphic" in2="BackgroundImageFix" result="shape"/>
<feGaussianBlur stdDeviation="5.42588" result="effect1_foregroundBlur_2938_40690"/>
</filter>
<filter id="filter22_f_2938_40690" x="176.152" y="-268.481" width="188.755" height="418.027" filterUnits="userSpaceOnUse" color-interpolation-filters="sRGB">
<feFlood flood-opacity="0" result="BackgroundImageFix"/>
<feBlend mode="normal" in="SourceGraphic" in2="BackgroundImageFix" result="shape"/>
<feGaussianBlur stdDeviation="9.53747" result="effect1_foregroundBlur_2938_40690"/>
</filter>
<filter id="filter23_f_2938_40690" x="131.054" y="-294.105" width="188.755" height="418.027" filterUnits="userSpaceOnUse" color-interpolation-filters="sRGB">
<feFlood flood-opacity="0" result="BackgroundImageFix"/>
<feBlend mode="normal" in="SourceGraphic" in2="BackgroundImageFix" result="shape"/>
<feGaussianBlur stdDeviation="9.53747" result="effect1_foregroundBlur_2938_40690"/>
</filter>
<filter id="filter24_f_2938_40690" x="220.804" y="-296.847" width="188.755" height="418.027" filterUnits="userSpaceOnUse" color-interpolation-filters="sRGB">
<feFlood flood-opacity="0" result="BackgroundImageFix"/>
<feBlend mode="normal" in="SourceGraphic" in2="BackgroundImageFix" result="shape"/>
<feGaussianBlur stdDeviation="9.53747" result="effect1_foregroundBlur_2938_40690"/>
</filter>
<filter id="filter25_f_2938_40690" x="156.715" y="-252.442" width="172.309" height="401.581" filterUnits="userSpaceOnUse" color-interpolation-filters="sRGB">
<feFlood flood-opacity="0" result="BackgroundImageFix"/>
<feBlend mode="normal" in="SourceGraphic" in2="BackgroundImageFix" result="shape"/>
<feGaussianBlur stdDeviation="5.42588" result="effect1_foregroundBlur_2938_40690"/>
</filter>
<filter id="filter26_f_2938_40690" x="176.152" y="-268.481" width="188.755" height="418.027" filterUnits="userSpaceOnUse" color-interpolation-filters="sRGB">
<feFlood flood-opacity="0" result="BackgroundImageFix"/>
<feBlend mode="normal" in="SourceGraphic" in2="BackgroundImageFix" result="shape"/>
<feGaussianBlur stdDeviation="9.53747" result="effect1_foregroundBlur_2938_40690"/>
</filter>
<filter id="filter27_f_2938_40690" x="131.054" y="-294.105" width="188.755" height="418.027" filterUnits="userSpaceOnUse" color-interpolation-filters="sRGB">
<feFlood flood-opacity="0" result="BackgroundImageFix"/>
<feBlend mode="normal" in="SourceGraphic" in2="BackgroundImageFix" result="shape"/>
<feGaussianBlur stdDeviation="9.53747" result="effect1_foregroundBlur_2938_40690"/>
</filter>
<filter id="filter28_f_2938_40690" x="220.804" y="-296.847" width="188.755" height="418.027" filterUnits="userSpaceOnUse" color-interpolation-filters="sRGB">
<feFlood flood-opacity="0" result="BackgroundImageFix"/>
<feBlend mode="normal" in="SourceGraphic" in2="BackgroundImageFix" result="shape"/>
<feGaussianBlur stdDeviation="9.53747" result="effect1_foregroundBlur_2938_40690"/>
</filter>
<filter id="filter29_f_2938_40690" x="156.715" y="-252.442" width="172.309" height="401.581" filterUnits="userSpaceOnUse" color-interpolation-filters="sRGB">
<feFlood flood-opacity="0" result="BackgroundImageFix"/>
<feBlend mode="normal" in="SourceGraphic" in2="BackgroundImageFix" result="shape"/>
<feGaussianBlur stdDeviation="5.42588" result="effect1_foregroundBlur_2938_40690"/>
</filter>
<filter id="filter30_f_2938_40690" x="176.148" y="-268.481" width="188.755" height="418.027" filterUnits="userSpaceOnUse" color-interpolation-filters="sRGB">
<feFlood flood-opacity="0" result="BackgroundImageFix"/>
<feBlend mode="normal" in="SourceGraphic" in2="BackgroundImageFix" result="shape"/>
<feGaussianBlur stdDeviation="9.53747" result="effect1_foregroundBlur_2938_40690"/>
</filter>
<filter id="filter31_f_2938_40690" x="156.206" y="-275.88" width="188.755" height="418.027" filterUnits="userSpaceOnUse" color-interpolation-filters="sRGB">
<feFlood flood-opacity="0" result="BackgroundImageFix"/>
<feBlend mode="normal" in="SourceGraphic" in2="BackgroundImageFix" result="shape"/>
<feGaussianBlur stdDeviation="9.53747" result="effect1_foregroundBlur_2938_40690"/>
</filter>
<filter id="filter32_f_2938_40690" x="126.558" y="-287.571" width="188.755" height="418.027" filterUnits="userSpaceOnUse" color-interpolation-filters="sRGB">
<feFlood flood-opacity="0" result="BackgroundImageFix"/>
<feBlend mode="normal" in="SourceGraphic" in2="BackgroundImageFix" result="shape"/>
<feGaussianBlur stdDeviation="9.53747" result="effect1_foregroundBlur_2938_40690"/>
</filter>
<filter id="filter33_f_2938_40690" x="220.8" y="-296.848" width="188.755" height="418.027" filterUnits="userSpaceOnUse" color-interpolation-filters="sRGB">
<feFlood flood-opacity="0" result="BackgroundImageFix"/>
<feBlend mode="normal" in="SourceGraphic" in2="BackgroundImageFix" result="shape"/>
<feGaussianBlur stdDeviation="9.53747" result="effect1_foregroundBlur_2938_40690"/>
</filter>
<filter id="filter34_f_2938_40690" x="194.035" y="-266.76" width="172.309" height="401.581" filterUnits="userSpaceOnUse" color-interpolation-filters="sRGB">
<feFlood flood-opacity="0" result="BackgroundImageFix"/>
<feBlend mode="normal" in="SourceGraphic" in2="BackgroundImageFix" result="shape"/>
<feGaussianBlur stdDeviation="5.42588" result="effect1_foregroundBlur_2938_40690"/>
</filter>
<filter id="filter35_f_2938_40690" x="137.754" y="-186.01" width="172.309" height="401.581" filterUnits="userSpaceOnUse" color-interpolation-filters="sRGB">
<feFlood flood-opacity="0" result="BackgroundImageFix"/>
<feBlend mode="normal" in="SourceGraphic" in2="BackgroundImageFix" result="shape"/>
<feGaussianBlur stdDeviation="5.42588" result="effect1_foregroundBlur_2938_40690"/>
</filter>
<radialGradient id="paint0_radial_2938_40690" cx="0" cy="0" r="1" gradientUnits="userSpaceOnUse" gradientTransform="translate(-2.55254 -74) rotate(90) scale(405.727 891.338)">
<stop stop-color="white" stop-opacity="0.3"/>
<stop offset="1" stop-color="white" stop-opacity="0"/>
</radialGradient>
<linearGradient id="paint1_linear_2938_40690" x1="339.452" y1="-246.916" x2="252.085" y2="-23.0061" gradientUnits="userSpaceOnUse">
<stop stop-color="white"/>
<stop offset="1" stop-color="#FFE9AC"/>
</linearGradient>
<linearGradient id="paint2_linear_2938_40690" x1="294.354" y1="-272.54" x2="206.987" y2="-48.6302" gradientUnits="userSpaceOnUse">
<stop stop-color="white"/>
<stop offset="1" stop-color="#FFE9AC"/>
</linearGradient>
<linearGradient id="paint3_linear_2938_40690" x1="384.104" y1="-275.283" x2="296.737" y2="-51.3728" gradientUnits="userSpaceOnUse">
<stop stop-color="white"/>
<stop offset="1" stop-color="#FFE9AC"/>
</linearGradient>
<linearGradient id="paint4_linear_2938_40690" x1="311.792" y1="-239.1" x2="224.425" y2="-15.1902" gradientUnits="userSpaceOnUse">
<stop stop-color="white"/>
<stop offset="1" stop-color="white"/>
</linearGradient>
<linearGradient id="paint5_linear_2938_40690" x1="339.452" y1="-246.916" x2="252.085" y2="-23.0061" gradientUnits="userSpaceOnUse">
<stop stop-color="white"/>
<stop offset="1" stop-color="#FFE9AC"/>
</linearGradient>
<linearGradient id="paint6_linear_2938_40690" x1="294.354" y1="-272.54" x2="206.987" y2="-48.6302" gradientUnits="userSpaceOnUse">
<stop stop-color="white"/>
<stop offset="1" stop-color="#FFE9AC"/>
</linearGradient>
<linearGradient id="paint7_linear_2938_40690" x1="384.104" y1="-275.283" x2="296.737" y2="-51.3728" gradientUnits="userSpaceOnUse">
<stop stop-color="white"/>
<stop offset="1" stop-color="#FFE9AC"/>
</linearGradient>
<linearGradient id="paint8_linear_2938_40690" x1="311.792" y1="-239.1" x2="224.425" y2="-15.1902" gradientUnits="userSpaceOnUse">
<stop stop-color="white"/>
<stop offset="1" stop-color="white"/>
</linearGradient>
<linearGradient id="paint9_linear_2938_40690" x1="339.452" y1="-246.916" x2="252.085" y2="-23.0061" gradientUnits="userSpaceOnUse">
<stop stop-color="white"/>
<stop offset="1" stop-color="#FFE9AC"/>
</linearGradient>
<linearGradient id="paint10_linear_2938_40690" x1="294.354" y1="-272.54" x2="206.987" y2="-48.6302" gradientUnits="userSpaceOnUse">
<stop stop-color="white"/>
<stop offset="1" stop-color="#FFE9AC"/>
</linearGradient>
<linearGradient id="paint11_linear_2938_40690" x1="384.104" y1="-275.283" x2="296.737" y2="-51.3728" gradientUnits="userSpaceOnUse">
<stop stop-color="white"/>
<stop offset="1" stop-color="#FFE9AC"/>
</linearGradient>
<linearGradient id="paint12_linear_2938_40690" x1="311.792" y1="-239.1" x2="224.425" y2="-15.1902" gradientUnits="userSpaceOnUse">
<stop stop-color="white"/>
<stop offset="1" stop-color="white"/>
</linearGradient>
<linearGradient id="paint13_linear_2938_40690" x1="339.448" y1="-246.916" x2="252.081" y2="-23.0061" gradientUnits="userSpaceOnUse">
<stop stop-color="white"/>
<stop offset="0.557292" stop-color="#FFE9AC"/>
<stop offset="1" stop-color="#FFE499"/>
</linearGradient>
<linearGradient id="paint14_linear_2938_40690" x1="289.858" y1="-266.006" x2="202.491" y2="-42.096" gradientUnits="userSpaceOnUse">
<stop stop-color="white"/>
<stop offset="1" stop-color="#FFE9AC"/>
</linearGradient>
<linearGradient id="paint15_linear_2938_40690" x1="384.1" y1="-275.283" x2="296.733" y2="-51.3733" gradientUnits="userSpaceOnUse">
<stop stop-color="white"/>
<stop offset="0.557292" stop-color="#FFE9AC"/>
<stop offset="1" stop-color="#FFE499"/>
</linearGradient>
<linearGradient id="paint16_linear_2938_40690" x1="349.112" y1="-253.418" x2="261.745" y2="-29.5086" gradientUnits="userSpaceOnUse">
<stop stop-color="white"/>
<stop offset="1" stop-color="white"/>
</linearGradient>
<linearGradient id="paint17_linear_2938_40690" x1="292.831" y1="-172.669" x2="205.464" y2="51.2409" gradientUnits="userSpaceOnUse">
<stop stop-color="white"/>
<stop offset="1" stop-color="white"/>
</linearGradient>
<linearGradient id="paint18_linear_2938_40690" x1="339.452" y1="-246.916" x2="252.085" y2="-23.0061" gradientUnits="userSpaceOnUse">
<stop stop-color="white"/>
<stop offset="1" stop-color="#FFE9AC"/>
</linearGradient>
<linearGradient id="paint19_linear_2938_40690" x1="294.354" y1="-272.54" x2="206.987" y2="-48.6302" gradientUnits="userSpaceOnUse">
<stop stop-color="white"/>
<stop offset="1" stop-color="#FFE9AC"/>
</linearGradient>
<linearGradient id="paint20_linear_2938_40690" x1="384.104" y1="-275.283" x2="296.737" y2="-51.3728" gradientUnits="userSpaceOnUse">
<stop stop-color="white"/>
<stop offset="1" stop-color="#FFF2CF"/>
</linearGradient>
<linearGradient id="paint21_linear_2938_40690" x1="311.792" y1="-239.1" x2="224.425" y2="-15.1902" gradientUnits="userSpaceOnUse">
<stop stop-color="white"/>
<stop offset="1" stop-color="white"/>
</linearGradient>
<linearGradient id="paint22_linear_2938_40690" x1="339.452" y1="-246.916" x2="252.085" y2="-23.0061" gradientUnits="userSpaceOnUse">
<stop stop-color="white"/>
<stop offset="1" stop-color="#FFE9AC"/>
</linearGradient>
<linearGradient id="paint23_linear_2938_40690" x1="294.354" y1="-272.54" x2="206.987" y2="-48.6302" gradientUnits="userSpaceOnUse">
<stop stop-color="white"/>
<stop offset="1" stop-color="#FFE9AC"/>
</linearGradient>
<linearGradient id="paint24_linear_2938_40690" x1="384.104" y1="-275.283" x2="296.737" y2="-51.3728" gradientUnits="userSpaceOnUse">
<stop stop-color="white"/>
<stop offset="1" stop-color="#FFE9AC"/>
</linearGradient>
<linearGradient id="paint25_linear_2938_40690" x1="311.792" y1="-239.1" x2="224.425" y2="-15.1902" gradientUnits="userSpaceOnUse">
<stop stop-color="white"/>
<stop offset="1" stop-color="white"/>
</linearGradient>
<linearGradient id="paint26_linear_2938_40690" x1="339.452" y1="-246.916" x2="252.085" y2="-23.0061" gradientUnits="userSpaceOnUse">
<stop stop-color="white"/>
<stop offset="1" stop-color="#FFE9AC"/>
</linearGradient>
<linearGradient id="paint27_linear_2938_40690" x1="294.354" y1="-272.54" x2="206.987" y2="-48.6302" gradientUnits="userSpaceOnUse">
<stop stop-color="white"/>
<stop offset="1" stop-color="#FFE9AC"/>
</linearGradient>
<linearGradient id="paint28_linear_2938_40690" x1="384.104" y1="-275.283" x2="296.737" y2="-51.3728" gradientUnits="userSpaceOnUse">
<stop stop-color="white"/>
<stop offset="1" stop-color="#9773FE"/>
</linearGradient>
<linearGradient id="paint29_linear_2938_40690" x1="311.792" y1="-239.1" x2="224.425" y2="-15.1902" gradientUnits="userSpaceOnUse">
<stop stop-color="white"/>
<stop offset="1" stop-color="white"/>
</linearGradient>
<linearGradient id="paint30_linear_2938_40690" x1="339.448" y1="-246.916" x2="252.081" y2="-23.0061" gradientUnits="userSpaceOnUse">
<stop stop-color="white"/>
<stop offset="0.557292" stop-color="#FFE9AC"/>
<stop offset="1" stop-color="#FFE499"/>
</linearGradient>
<linearGradient id="paint31_linear_2938_40690" x1="319.506" y1="-254.315" x2="232.14" y2="-30.4051" gradientUnits="userSpaceOnUse">
<stop stop-color="white"/>
<stop offset="0.557292" stop-color="#FFE9AC"/>
<stop offset="1" stop-color="#FFE499"/>
</linearGradient>
<linearGradient id="paint32_linear_2938_40690" x1="289.858" y1="-266.006" x2="202.491" y2="-42.096" gradientUnits="userSpaceOnUse">
<stop stop-color="white"/>
<stop offset="1" stop-color="#FFF2CF"/>
</linearGradient>
<linearGradient id="paint33_linear_2938_40690" x1="384.1" y1="-275.283" x2="296.733" y2="-51.3733" gradientUnits="userSpaceOnUse">
<stop stop-color="white"/>
<stop offset="0.557292" stop-color="#FFE9AC"/>
<stop offset="1" stop-color="#FFE499"/>
</linearGradient>
<linearGradient id="paint34_linear_2938_40690" x1="349.112" y1="-253.418" x2="261.745" y2="-29.5086" gradientUnits="userSpaceOnUse">
<stop stop-color="white"/>
<stop offset="1" stop-color="white"/>
</linearGradient>
<linearGradient id="paint35_linear_2938_40690" x1="292.831" y1="-172.669" x2="205.464" y2="51.2409" gradientUnits="userSpaceOnUse">
<stop stop-color="white"/>
<stop offset="1" stop-color="white"/>
</linearGradient>
</defs>
</svg>
