<svg width="1092" height="831" viewBox="0 0 1092 831" fill="none" xmlns="http://www.w3.org/2000/svg">
    <path
        d="M1 44.6316V1H44.6364M1 44.6316V88.2632M1 44.6316H44.6364M1 88.2632V131.895M1 88.2632H44.6364M1 131.895V175.526M1 131.895H44.6364M1 175.526V219.158M1 175.526H44.6364M1 219.158V262.789M1 219.158H44.6364M1 262.789V306.421M1 262.789H44.6364M1 306.421V350.053M1 306.421H44.6364M1 350.053V393.684M1 350.053H44.6364M1 393.684V437.316M1 393.684H44.6364M1 437.316V480.947M1 437.316H44.6364M1 480.947V524.579M1 480.947H44.6364M1 524.579V568.211M1 524.579H44.6364M1 568.211V611.842M1 568.211H44.6364M1 611.842V655.474M1 611.842H44.6364M1 655.474V699.105M1 655.474H44.6364M1 699.105V742.737M1 699.105H44.6364M1 742.737V786.368M1 742.737H44.6364M1 786.368V830H44.6364M1 786.368H44.6364M44.6364 1V44.6316M44.6364 1H88.2728M44.6364 44.6316V88.2632M44.6364 44.6316H88.2728M44.6364 88.2632V131.895M44.6364 88.2632H88.2728M44.6364 131.895V175.526M44.6364 131.895H88.2728M44.6364 175.526V219.158M44.6364 175.526H88.2728M44.6364 219.158V262.789M44.6364 219.158H88.2728M44.6364 262.789V306.421M44.6364 262.789H88.2728M44.6364 306.421V350.053M44.6364 306.421H88.2728M44.6364 350.053V393.684M44.6364 350.053H88.2728M44.6364 393.684V437.316M44.6364 393.684H88.2728M44.6364 437.316V480.947M44.6364 437.316H88.2728M44.6364 480.947V524.579M44.6364 480.947H88.2728M44.6364 524.579V568.211M44.6364 524.579H88.2728M44.6364 568.211V611.842M44.6364 568.211H88.2728M44.6364 611.842V655.474M44.6364 611.842H88.2728M44.6364 655.474V699.105M44.6364 655.474H88.2728M44.6364 699.105V742.737M44.6364 699.105H88.2728M44.6364 742.737V786.368M44.6364 742.737H88.2728M44.6364 786.368V830M44.6364 786.368H88.2728M44.6364 830H88.2728M88.2728 1V44.6316M88.2728 1H131.909M88.2728 44.6316V88.2632M88.2728 44.6316H131.909M88.2728 88.2632V131.895M88.2728 88.2632H131.909M88.2728 131.895V175.526M88.2728 131.895H131.909M88.2728 175.526V219.158M88.2728 175.526H131.909M88.2728 219.158V262.789M88.2728 219.158H131.909M88.2728 262.789V306.421M88.2728 262.789H131.909M88.2728 306.421V350.053M88.2728 306.421H131.909M88.2728 350.053V393.684M88.2728 350.053H131.909M88.2728 393.684V437.316M88.2728 393.684H131.909M88.2728 437.316V480.947M88.2728 437.316H131.909M88.2728 480.947V524.579M88.2728 480.947H131.909M88.2728 524.579V568.211M88.2728 524.579H131.909M88.2728 568.211V611.842M88.2728 568.211H131.909M88.2728 611.842V655.474M88.2728 611.842H131.909M88.2728 655.474V699.105M88.2728 655.474H131.909M88.2728 699.105V742.737M88.2728 699.105H131.909M88.2728 742.737V786.368M88.2728 742.737H131.909M88.2728 786.368V830M88.2728 786.368H131.909M88.2728 830H131.909M131.909 1V44.6316M131.909 1H175.545M131.909 44.6316V88.2632M131.909 44.6316H175.545M131.909 88.2632V131.895M131.909 88.2632H175.545M131.909 131.895V175.526M131.909 131.895H175.545M131.909 175.526V219.158M131.909 175.526H175.545M131.909 219.158V262.789M131.909 219.158H175.545M131.909 262.789V306.421M131.909 262.789H175.545M131.909 306.421V350.053M131.909 306.421H175.545M131.909 350.053V393.684M131.909 350.053H175.545M131.909 393.684V437.316M131.909 393.684H175.545M131.909 437.316V480.947M131.909 437.316H175.545M131.909 480.947V524.579M131.909 480.947H175.545M131.909 524.579V568.211M131.909 524.579H175.545M131.909 568.211V611.842M131.909 568.211H175.545M131.909 611.842V655.474M131.909 611.842H175.545M131.909 655.474V699.105M131.909 655.474H175.545M131.909 699.105V742.737M131.909 699.105H175.545M131.909 742.737V786.368M131.909 742.737H175.545M131.909 786.368V830M131.909 786.368H175.545M131.909 830H175.545M175.545 1V44.6316M175.545 1H219.182M175.545 44.6316V88.2632M175.545 44.6316H219.182M175.545 88.2632V131.895M175.545 88.2632H219.182M175.545 131.895V175.526M175.545 131.895H219.182M175.545 175.526V219.158M175.545 175.526H219.182M175.545 219.158V262.789M175.545 219.158H219.182M175.545 262.789V306.421M175.545 262.789H219.182M175.545 306.421V350.053M175.545 306.421H219.182M175.545 350.053V393.684M175.545 350.053H219.182M175.545 393.684V437.316M175.545 393.684H219.182M175.545 437.316V480.947M175.545 437.316H219.182M175.545 480.947V524.579M175.545 480.947H219.182M175.545 524.579V568.211M175.545 524.579H219.182M175.545 568.211V611.842M175.545 568.211H219.182M175.545 611.842V655.474M175.545 611.842H219.182M175.545 655.474V699.105M175.545 655.474H219.182M175.545 699.105V742.737M175.545 699.105H219.182M175.545 742.737V786.368M175.545 742.737H219.182M175.545 786.368V830M175.545 786.368H219.182M175.545 830H219.182M219.182 1V44.6316M219.182 1H262.818M219.182 44.6316V88.2632M219.182 44.6316H262.818M219.182 88.2632V131.895M219.182 88.2632H262.818M219.182 131.895V175.526M219.182 131.895H262.818M219.182 175.526V219.158M219.182 175.526H262.818M219.182 219.158V262.789M219.182 219.158H262.818M219.182 262.789V306.421M219.182 262.789H262.818M219.182 306.421V350.053M219.182 306.421H262.818M219.182 350.053V393.684M219.182 350.053H262.818M219.182 393.684V437.316M219.182 393.684H262.818M219.182 437.316V480.947M219.182 437.316H262.818M219.182 480.947V524.579M219.182 480.947H262.818M219.182 524.579V568.211M219.182 524.579H262.818M219.182 568.211V611.842M219.182 568.211H262.818M219.182 611.842V655.474M219.182 611.842H262.818M219.182 655.474V699.105M219.182 655.474H262.818M219.182 699.105V742.737M219.182 699.105H262.818M219.182 742.737V786.368M219.182 742.737H262.818M219.182 786.368V830M219.182 786.368H262.818M219.182 830H262.818M262.818 1V44.6316M262.818 1H306.455M262.818 44.6316V88.2632M262.818 44.6316H306.455M262.818 88.2632V131.895M262.818 88.2632H306.455M262.818 131.895V175.526M262.818 131.895H306.455M262.818 175.526V219.158M262.818 175.526H306.455M262.818 219.158V262.789M262.818 219.158H306.455M262.818 262.789V306.421M262.818 262.789H306.455M262.818 306.421V350.053M262.818 306.421H306.455M262.818 350.053V393.684M262.818 350.053H306.455M262.818 393.684V437.316M262.818 393.684H306.455M262.818 437.316V480.947M262.818 437.316H306.455M262.818 480.947V524.579M262.818 480.947H306.455M262.818 524.579V568.211M262.818 524.579H306.455M262.818 568.211V611.842M262.818 568.211H306.455M262.818 611.842V655.474M262.818 611.842H306.455M262.818 655.474V699.105M262.818 655.474H306.455M262.818 699.105V742.737M262.818 699.105H306.455M262.818 742.737V786.368M262.818 742.737H306.455M262.818 786.368V830M262.818 786.368H306.455M262.818 830H306.455M306.455 1V44.6316M306.455 1H350.091M306.455 44.6316V88.2632M306.455 44.6316H350.091M306.455 88.2632V131.895M306.455 88.2632H350.091M306.455 131.895V175.526M306.455 131.895H350.091M306.455 175.526V219.158M306.455 175.526H350.091M306.455 219.158V262.789M306.455 219.158H350.091M306.455 262.789V306.421M306.455 262.789H350.091M306.455 306.421V350.053M306.455 306.421H350.091M306.455 350.053V393.684M306.455 350.053H350.091M306.455 393.684V437.316M306.455 393.684H350.091M306.455 437.316V480.947M306.455 437.316H350.091M306.455 480.947V524.579M306.455 480.947H350.091M306.455 524.579V568.211M306.455 524.579H350.091M306.455 568.211V611.842M306.455 568.211H350.091M306.455 611.842V655.474M306.455 611.842H350.091M306.455 655.474V699.105M306.455 655.474H350.091M306.455 699.105V742.737M306.455 699.105H350.091M306.455 742.737V786.368M306.455 742.737H350.091M306.455 786.368V830M306.455 786.368H350.091M306.455 830H350.091M350.091 1V44.6316M350.091 1H393.727M350.091 44.6316V88.2632M350.091 44.6316H393.727M350.091 88.2632V131.895M350.091 88.2632H393.727M350.091 131.895V175.526M350.091 131.895H393.727M350.091 175.526V219.158M350.091 175.526H393.727M350.091 219.158V262.789M350.091 219.158H393.727M350.091 262.789V306.421M350.091 262.789H393.727M350.091 306.421V350.053M350.091 306.421H393.727M350.091 350.053V393.684M350.091 350.053H393.727M350.091 393.684V437.316M350.091 393.684H393.727M350.091 437.316V480.947M350.091 437.316H393.727M350.091 480.947V524.579M350.091 480.947H393.727M350.091 524.579V568.211M350.091 524.579H393.727M350.091 568.211V611.842M350.091 568.211H393.727M350.091 611.842V655.474M350.091 611.842H393.727M350.091 655.474V699.105M350.091 655.474H393.727M350.091 699.105V742.737M350.091 699.105H393.727M350.091 742.737V786.368M350.091 742.737H393.727M350.091 786.368V830M350.091 786.368H393.727M350.091 830H393.727M393.727 1V44.6316M393.727 1H437.364M393.727 44.6316V88.2632M393.727 44.6316H437.364M393.727 88.2632V131.895M393.727 88.2632H437.364M393.727 131.895V175.526M393.727 131.895H437.364M393.727 175.526V219.158M393.727 175.526H437.364M393.727 219.158V262.789M393.727 219.158H437.364M393.727 262.789V306.421M393.727 262.789H437.364M393.727 306.421V350.053M393.727 306.421H437.364M393.727 350.053V393.684M393.727 350.053H437.364M393.727 393.684V437.316M393.727 393.684H437.364M393.727 437.316V480.947M393.727 437.316H437.364M393.727 480.947V524.579M393.727 480.947H437.364M393.727 524.579V568.211M393.727 524.579H437.364M393.727 568.211V611.842M393.727 568.211H437.364M393.727 611.842V655.474M393.727 611.842H437.364M393.727 655.474V699.105M393.727 655.474H437.364M393.727 699.105V742.737M393.727 699.105H437.364M393.727 742.737V786.368M393.727 742.737H437.364M393.727 786.368V830M393.727 786.368H437.364M393.727 830H437.364M437.364 1V44.6316M437.364 1H481M437.364 44.6316V88.2632M437.364 44.6316H481M437.364 88.2632V131.895M437.364 88.2632H481M437.364 131.895V175.526M437.364 131.895H481M437.364 175.526V219.158M437.364 175.526H481M437.364 219.158V262.789M437.364 219.158H481M437.364 262.789V306.421M437.364 262.789H481M437.364 306.421V350.053M437.364 306.421H481M437.364 350.053V393.684M437.364 350.053H481M437.364 393.684V437.316M437.364 393.684H481M437.364 437.316V480.947M437.364 437.316H481M437.364 480.947V524.579M437.364 480.947H481M437.364 524.579V568.211M437.364 524.579H481M437.364 568.211V611.842M437.364 568.211H481M437.364 611.842V655.474M437.364 611.842H481M437.364 655.474V699.105M437.364 655.474H481M437.364 699.105V742.737M437.364 699.105H481M437.364 742.737V786.368M437.364 742.737H481M437.364 786.368V830M437.364 786.368H481M437.364 830H481M481 1V44.6316M481 1H524.636M481 44.6316V88.2632M481 44.6316H524.636M481 88.2632V131.895M481 88.2632H524.636M481 131.895V175.526M481 131.895H524.636M481 175.526V219.158M481 175.526H524.636M481 219.158V262.789M481 219.158H524.636M481 262.789V306.421M481 262.789H524.636M481 306.421V350.053M481 306.421H524.636M481 350.053V393.684M481 350.053H524.636M481 393.684V437.316M481 393.684H524.636M481 437.316V480.947M481 437.316H524.636M481 480.947V524.579M481 480.947H524.636M481 524.579V568.211M481 524.579H524.636M481 568.211V611.842M481 568.211H524.636M481 611.842V655.474M481 611.842H524.636M481 655.474V699.105M481 655.474H524.636M481 699.105V742.737M481 699.105H524.636M481 742.737V786.368M481 742.737H524.636M481 786.368V830M481 786.368H524.636M481 830H524.636M524.636 1V44.6316M524.636 1H568.273M524.636 44.6316V88.2632M524.636 44.6316H568.273M524.636 88.2632V131.895M524.636 88.2632H568.273M524.636 131.895V175.526M524.636 131.895H568.273M524.636 175.526V219.158M524.636 175.526H568.273M524.636 219.158V262.789M524.636 219.158H568.273M524.636 262.789V306.421M524.636 262.789H568.273M524.636 306.421V350.053M524.636 306.421H568.273M524.636 350.053V393.684M524.636 350.053H568.273M524.636 393.684V437.316M524.636 393.684H568.273M524.636 437.316V480.947M524.636 437.316H568.273M524.636 480.947V524.579M524.636 480.947H568.273M524.636 524.579V568.211M524.636 524.579H568.273M524.636 568.211V611.842M524.636 568.211H568.273M524.636 611.842V655.474M524.636 611.842H568.273M524.636 655.474V699.105M524.636 655.474H568.273M524.636 699.105V742.737M524.636 699.105H568.273M524.636 742.737V786.368M524.636 742.737H568.273M524.636 786.368V830M524.636 786.368H568.273M524.636 830H568.273M568.273 1V44.6316M568.273 1H611.909M568.273 44.6316V88.2632M568.273 44.6316H611.909M568.273 88.2632V131.895M568.273 88.2632H611.909M568.273 131.895V175.526M568.273 131.895H611.909M568.273 175.526V219.158M568.273 175.526H611.909M568.273 219.158V262.789M568.273 219.158H611.909M568.273 262.789V306.421M568.273 262.789H611.909M568.273 306.421V350.053M568.273 306.421H611.909M568.273 350.053V393.684M568.273 350.053H611.909M568.273 393.684V437.316M568.273 393.684H611.909M568.273 437.316V480.947M568.273 437.316H611.909M568.273 480.947V524.579M568.273 480.947H611.909M568.273 524.579V568.211M568.273 524.579H611.909M568.273 568.211V611.842M568.273 568.211H611.909M568.273 611.842V655.474M568.273 611.842H611.909M568.273 655.474V699.105M568.273 655.474H611.909M568.273 699.105V742.737M568.273 699.105H611.909M568.273 742.737V786.368M568.273 742.737H611.909M568.273 786.368V830M568.273 786.368H611.909M568.273 830H611.909M611.909 1V44.6316M611.909 1H655.546M611.909 44.6316V88.2632M611.909 44.6316H655.546M611.909 88.2632V131.895M611.909 88.2632H655.546M611.909 131.895V175.526M611.909 131.895H655.546M611.909 175.526V219.158M611.909 175.526H655.546M611.909 219.158V262.789M611.909 219.158H655.546M611.909 262.789V306.421M611.909 262.789H655.546M611.909 306.421V350.053M611.909 306.421H655.546M611.909 350.053V393.684M611.909 350.053H655.546M611.909 393.684V437.316M611.909 393.684H655.546M611.909 437.316V480.947M611.909 437.316H655.546M611.909 480.947V524.579M611.909 480.947H655.546M611.909 524.579V568.211M611.909 524.579H655.546M611.909 568.211V611.842M611.909 568.211H655.546M611.909 611.842V655.474M611.909 611.842H655.546M611.909 655.474V699.105M611.909 655.474H655.546M611.909 699.105V742.737M611.909 699.105H655.546M611.909 742.737V786.368M611.909 742.737H655.546M611.909 786.368V830M611.909 786.368H655.546M611.909 830H655.546M655.546 1V44.6316M655.546 1H699.182M655.546 44.6316V88.2632M655.546 44.6316H699.182M655.546 88.2632V131.895M655.546 88.2632H699.182M655.546 131.895V175.526M655.546 131.895H699.182M655.546 175.526V219.158M655.546 175.526H699.182M655.546 219.158V262.789M655.546 219.158H699.182M655.546 262.789V306.421M655.546 262.789H699.182M655.546 306.421V350.053M655.546 306.421H699.182M655.546 350.053V393.684M655.546 350.053H699.182M655.546 393.684V437.316M655.546 393.684H699.182M655.546 437.316V480.947M655.546 437.316H699.182M655.546 480.947V524.579M655.546 480.947H699.182M655.546 524.579V568.211M655.546 524.579H699.182M655.546 568.211V611.842M655.546 568.211H699.182M655.546 611.842V655.474M655.546 611.842H699.182M655.546 655.474V699.105M655.546 655.474H699.182M655.546 699.105V742.737M655.546 699.105H699.182M655.546 742.737V786.368M655.546 742.737H699.182M655.546 786.368V830M655.546 786.368H699.182M655.546 830H699.182M699.182 1V44.6316M699.182 1H742.818M699.182 44.6316V88.2632M699.182 44.6316H742.818M699.182 88.2632V131.895M699.182 88.2632H742.818M699.182 131.895V175.526M699.182 131.895H742.818M699.182 175.526V219.158M699.182 175.526H742.818M699.182 219.158V262.789M699.182 219.158H742.818M699.182 262.789V306.421M699.182 262.789H742.818M699.182 306.421V350.053M699.182 306.421H742.818M699.182 350.053V393.684M699.182 350.053H742.818M699.182 393.684V437.316M699.182 393.684H742.818M699.182 437.316V480.947M699.182 437.316H742.818M699.182 480.947V524.579M699.182 480.947H742.818M699.182 524.579V568.211M699.182 524.579H742.818M699.182 568.211V611.842M699.182 568.211H742.818M699.182 611.842V655.474M699.182 611.842H742.818M699.182 655.474V699.105M699.182 655.474H742.818M699.182 699.105V742.737M699.182 699.105H742.818M699.182 742.737V786.368M699.182 742.737H742.818M699.182 786.368V830M699.182 786.368H742.818M699.182 830H742.818M742.818 1V44.6316M742.818 1H786.455M742.818 44.6316V88.2632M742.818 44.6316H786.455M742.818 88.2632V131.895M742.818 88.2632H786.455M742.818 131.895V175.526M742.818 131.895H786.455M742.818 175.526V219.158M742.818 175.526H786.455M742.818 219.158V262.789M742.818 219.158H786.455M742.818 262.789V306.421M742.818 262.789H786.455M742.818 306.421V350.053M742.818 306.421H786.455M742.818 350.053V393.684M742.818 350.053H786.455M742.818 393.684V437.316M742.818 393.684H786.455M742.818 437.316V480.947M742.818 437.316H786.455M742.818 480.947V524.579M742.818 480.947H786.455M742.818 524.579V568.211M742.818 524.579H786.455M742.818 568.211V611.842M742.818 568.211H786.455M742.818 611.842V655.474M742.818 611.842H786.455M742.818 655.474V699.105M742.818 655.474H786.455M742.818 699.105V742.737M742.818 699.105H786.455M742.818 742.737V786.368M742.818 742.737H786.455M742.818 786.368V830M742.818 786.368H786.455M742.818 830H786.455M786.455 1V44.6316M786.455 1H830.091M786.455 44.6316V88.2632M786.455 44.6316H830.091M786.455 88.2632V131.895M786.455 88.2632H830.091M786.455 131.895V175.526M786.455 131.895H830.091M786.455 175.526V219.158M786.455 175.526H830.091M786.455 219.158V262.789M786.455 219.158H830.091M786.455 262.789V306.421M786.455 262.789H830.091M786.455 306.421V350.053M786.455 306.421H830.091M786.455 350.053V393.684M786.455 350.053H830.091M786.455 393.684V437.316M786.455 393.684H830.091M786.455 437.316V480.947M786.455 437.316H830.091M786.455 480.947V524.579M786.455 480.947H830.091M786.455 524.579V568.211M786.455 524.579H830.091M786.455 568.211V611.842M786.455 568.211H830.091M786.455 611.842V655.474M786.455 611.842H830.091M786.455 655.474V699.105M786.455 655.474H830.091M786.455 699.105V742.737M786.455 699.105H830.091M786.455 742.737V786.368M786.455 742.737H830.091M786.455 786.368V830M786.455 786.368H830.091M786.455 830H830.091M830.091 1V44.6316M830.091 1H873.727M830.091 44.6316V88.2632M830.091 44.6316H873.727M830.091 88.2632V131.895M830.091 88.2632H873.727M830.091 131.895V175.526M830.091 131.895H873.727M830.091 175.526V219.158M830.091 175.526H873.727M830.091 219.158V262.789M830.091 219.158H873.727M830.091 262.789V306.421M830.091 262.789H873.727M830.091 306.421V350.053M830.091 306.421H873.727M830.091 350.053V393.684M830.091 350.053H873.727M830.091 393.684V437.316M830.091 393.684H873.727M830.091 437.316V480.947M830.091 437.316H873.727M830.091 480.947V524.579M830.091 480.947H873.727M830.091 524.579V568.211M830.091 524.579H873.727M830.091 568.211V611.842M830.091 568.211H873.727M830.091 611.842V655.474M830.091 611.842H873.727M830.091 655.474V699.105M830.091 655.474H873.727M830.091 699.105V742.737M830.091 699.105H873.727M830.091 742.737V786.368M830.091 742.737H873.727M830.091 786.368V830M830.091 786.368H873.727M830.091 830H873.727M873.727 1V44.6316M873.727 1H917.364M873.727 44.6316V88.2632M873.727 44.6316H917.364M873.727 88.2632V131.895M873.727 88.2632H917.364M873.727 131.895V175.526M873.727 131.895H917.364M873.727 175.526V219.158M873.727 175.526H917.364M873.727 219.158V262.789M873.727 219.158H917.364M873.727 262.789V306.421M873.727 262.789H917.364M873.727 306.421V350.053M873.727 306.421H917.364M873.727 350.053V393.684M873.727 350.053H917.364M873.727 393.684V437.316M873.727 393.684H917.364M873.727 437.316V480.947M873.727 437.316H917.364M873.727 480.947V524.579M873.727 480.947H917.364M873.727 524.579V568.211M873.727 524.579H917.364M873.727 568.211V611.842M873.727 568.211H917.364M873.727 611.842V655.474M873.727 611.842H917.364M873.727 655.474V699.105M873.727 655.474H917.364M873.727 699.105V742.737M873.727 699.105H917.364M873.727 742.737V786.368M873.727 742.737H917.364M873.727 786.368V830M873.727 786.368H917.364M873.727 830H917.364M917.364 1V44.6316M917.364 1H961M917.364 44.6316V88.2632M917.364 44.6316H961M917.364 88.2632V131.895M917.364 88.2632H961M917.364 131.895V175.526M917.364 131.895H961M917.364 175.526V219.158M917.364 175.526H961M917.364 219.158V262.789M917.364 219.158H961M917.364 262.789V306.421M917.364 262.789H961M917.364 306.421V350.053M917.364 306.421H961M917.364 350.053V393.684M917.364 350.053H961M917.364 393.684V437.316M917.364 393.684H961M917.364 437.316V480.947M917.364 437.316H961M917.364 480.947V524.579M917.364 480.947H961M917.364 524.579V568.211M917.364 524.579H961M917.364 568.211V611.842M917.364 568.211H961M917.364 611.842V655.474M917.364 611.842H961M917.364 655.474V699.105M917.364 655.474H961M917.364 699.105V742.737M917.364 699.105H961M917.364 742.737V786.368M917.364 742.737H961M917.364 786.368V830M917.364 786.368H961M917.364 830H961M961 1V44.6316M961 1H1004.64M961 44.6316V88.2632M961 44.6316H1004.64M961 88.2632V131.895M961 88.2632H1004.64M961 131.895V175.526M961 131.895H1004.64M961 175.526V219.158M961 175.526H1004.64M961 219.158V262.789M961 219.158H1004.64M961 262.789V306.421M961 262.789H1004.64M961 306.421V350.053M961 306.421H1004.64M961 350.053V393.684M961 350.053H1004.64M961 393.684V437.316M961 393.684H1004.64M961 437.316V480.947M961 437.316H1004.64M961 480.947V524.579M961 480.947H1004.64M961 524.579V568.211M961 524.579H1004.64M961 568.211V611.842M961 568.211H1004.64M961 611.842V655.474M961 611.842H1004.64M961 655.474V699.105M961 655.474H1004.64M961 699.105V742.737M961 699.105H1004.64M961 742.737V786.368M961 742.737H1004.64M961 786.368V830M961 786.368H1004.64M961 830H1004.64M1004.64 1V44.6316M1004.64 1H1048.27M1004.64 44.6316V88.2632M1004.64 44.6316H1048.27M1004.64 88.2632V131.895M1004.64 88.2632H1048.27M1004.64 131.895V175.526M1004.64 131.895H1048.27M1004.64 175.526V219.158M1004.64 175.526H1048.27M1004.64 219.158V262.789M1004.64 219.158H1048.27M1004.64 262.789V306.421M1004.64 262.789H1048.27M1004.64 306.421V350.053M1004.64 306.421H1048.27M1004.64 350.053V393.684M1004.64 350.053H1048.27M1004.64 393.684V437.316M1004.64 393.684H1048.27M1004.64 437.316V480.947M1004.64 437.316H1048.27M1004.64 480.947V524.579M1004.64 480.947H1048.27M1004.64 524.579V568.211M1004.64 524.579H1048.27M1004.64 568.211V611.842M1004.64 568.211H1048.27M1004.64 611.842V655.474M1004.64 611.842H1048.27M1004.64 655.474V699.105M1004.64 655.474H1048.27M1004.64 699.105V742.737M1004.64 699.105H1048.27M1004.64 742.737V786.368M1004.64 742.737H1048.27M1004.64 786.368V830M1004.64 786.368H1048.27M1004.64 830H1048.27M1048.27 1V44.6316M1048.27 1H1091.91V44.6316M1048.27 44.6316V88.2632M1048.27 44.6316H1091.91M1048.27 88.2632V131.895M1048.27 88.2632H1091.91M1048.27 131.895V175.526M1048.27 131.895H1091.91M1048.27 175.526V219.158M1048.27 175.526H1091.91M1048.27 219.158V262.789M1048.27 219.158H1091.91M1048.27 262.789V306.421M1048.27 262.789H1091.91M1048.27 306.421V350.053M1048.27 306.421H1091.91M1048.27 350.053V393.684M1048.27 350.053H1091.91M1048.27 393.684V437.316M1048.27 393.684H1091.91M1048.27 437.316V480.947M1048.27 437.316H1091.91M1048.27 480.947V524.579M1048.27 480.947H1091.91M1048.27 524.579V568.211M1048.27 524.579H1091.91M1048.27 568.211V611.842M1048.27 568.211H1091.91M1048.27 611.842V655.474M1048.27 611.842H1091.91M1048.27 655.474V699.105M1048.27 655.474H1091.91M1048.27 699.105V742.737M1048.27 699.105H1091.91M1048.27 742.737V786.368M1048.27 742.737H1091.91M1048.27 786.368V830M1048.27 786.368H1091.91M1048.27 830H1091.91V786.368M1091.91 44.6316V88.2632M1091.91 88.2632V131.895M1091.91 131.895V175.526M1091.91 175.526V219.158M1091.91 219.158V262.789M1091.91 262.789V306.421M1091.91 306.421V350.053M1091.91 350.053V393.684M1091.91 393.684V437.316M1091.91 437.316V480.947M1091.91 480.947V524.579M1091.91 524.579V568.211M1091.91 568.211V611.842M1091.91 611.842V655.474M1091.91 655.474V699.105M1091.91 699.105V742.737M1091.91 742.737V786.368"
        stroke="url(#paint0_radial_2997_40060)" stroke-opacity="0.15" stroke-width="0.900718"/>
    <defs>
        <radialGradient id="paint0_radial_2997_40060" cx="0" cy="0" r="1" gradientUnits="userSpaceOnUse"
                        gradientTransform="translate(437.363 415.5) rotate(90) scale(306 572.295)">
            <stop stop-color="white"/>
            <stop offset="1" stop-color="white" stop-opacity="0"/>
        </radialGradient>
    </defs>
</svg>
