<svg width="485" height="36" viewBox="0 0 485 36" fill="none" xmlns="http://www.w3.org/2000/svg">
    <path
        d="M11.8648 24.9876C11.8648 26.9556 11.4568 28.6956 10.6408 30.2076C9.84881 31.7436 8.70881 32.9316 7.22081 33.7716C5.75681 34.6116 4.04081 35.0316 2.07281 35.0316H0.704813L0.272812 29.4876H1.85681C3.36881 29.4876 4.52081 29.1036 5.31281 28.3356C6.12881 27.5916 6.53681 26.4996 6.53681 25.0596V13.7916H11.8648V24.9876ZM6.32081 10.5516V6.08764H11.8648V10.5516H6.32081ZM24.217 20.9916C24.337 20.9916 24.421 21.1596 24.469 21.4956C24.541 21.8316 24.577 22.5996 24.577 23.7996C24.577 24.9516 24.541 25.6956 24.469 26.0316C24.421 26.3676 24.337 26.5356 24.217 26.5356H22.777C20.665 26.5356 19.057 25.9356 17.953 24.7356C16.873 23.5356 16.333 21.8196 16.333 19.5876V3.38764H21.661V19.1916C21.661 19.8156 21.781 20.2716 22.021 20.5596C22.261 20.8476 22.645 20.9916 23.173 20.9916H24.217ZM26.7427 20.9916C28.0387 20.9916 28.6867 20.4396 28.6867 19.3356V13.7916H33.9067V19.3356C33.9067 20.4396 34.5427 20.9916 35.8147 20.9916C36.4387 20.9916 36.9067 20.8476 37.2187 20.5596C37.5307 20.2716 37.6867 19.8636 37.6867 19.3356V13.7916H42.9427V19.3356C42.9427 20.4396 43.5307 20.9916 44.7067 20.9916C45.3067 20.9916 45.7507 20.8476 46.0387 20.5596C46.3507 20.2716 46.5067 19.8636 46.5067 19.3356V13.7916H51.7267V19.4796C51.7267 21.6636 51.1027 23.3916 49.8547 24.6636C48.6067 25.9116 46.8787 26.5356 44.6707 26.5356C42.4627 26.5356 40.9627 25.9716 40.1707 24.8436C39.7147 25.4196 39.1387 25.8516 38.4427 26.1396C37.7467 26.4036 36.8587 26.5356 35.7787 26.5356C34.6027 26.5356 33.6427 26.4036 32.8987 26.1396C32.1547 25.8516 31.5787 25.4196 31.1707 24.8436C30.7147 25.4196 30.1267 25.8516 29.4067 26.1396C28.7107 26.4036 27.8227 26.5356 26.7427 26.5356H24.2227C23.9827 26.5356 23.8627 25.6236 23.8627 23.7996C23.8627 21.9276 23.9827 20.9916 24.2227 20.9916H26.7427ZM81.1553 20.9916C81.6353 20.9916 82.0193 20.8596 82.3073 20.5956C82.5953 20.3316 82.7393 19.9716 82.7393 19.5156V13.7916H88.0673V19.8756C88.0673 21.9636 87.4553 23.5956 86.2313 24.7716C85.0313 25.9476 83.3873 26.5356 81.2993 26.5356H69.9233C67.7393 26.5356 66.0593 25.9476 64.8833 24.7716C63.7073 23.5956 63.1193 21.9156 63.1193 19.7316V13.7916H68.4473V19.0116C68.4473 19.6836 68.5913 20.1876 68.8793 20.5236C69.1673 20.8356 69.6473 20.9916 70.3193 20.9916H81.1553ZM80.7593 6.95164V11.4156H70.3913V6.95164H80.7593ZM107.025 24.8796C107.025 28.0476 106.185 30.5316 104.505 32.3316C102.825 34.1316 100.521 35.0316 97.5926 35.0316H92.5166L92.0846 29.5596H98.2046C99.3326 29.5596 100.209 29.2836 100.833 28.7316C101.481 28.2036 101.805 27.4716 101.805 26.5356H99.7886C97.1246 26.5356 95.2166 25.9836 94.0646 24.8796C92.9366 23.7516 92.3726 21.9636 92.3726 19.5156C92.3726 17.9796 92.6726 16.6116 93.2726 15.4116C93.8966 14.1876 94.7606 13.2396 95.8646 12.5676C96.9926 11.8716 98.2766 11.5236 99.7166 11.5236C101.997 11.5236 103.785 12.2556 105.081 13.7196C106.377 15.1596 107.025 17.1756 107.025 19.7676V24.8796ZM97.5566 19.2636C97.5566 19.9596 97.7246 20.4636 98.0606 20.7756C98.4206 21.0636 99.0326 21.2076 99.8966 21.2076H101.877V19.5516C101.877 18.6156 101.673 17.9076 101.265 17.4276C100.881 16.9476 100.329 16.7076 99.6086 16.7076C98.9366 16.7076 98.4206 16.9476 98.0606 17.4276C97.7246 17.8836 97.5566 18.4956 97.5566 19.2636ZM109.47 29.4876C110.982 29.4876 112.134 29.1036 112.926 28.3356C113.742 27.5916 114.15 26.4996 114.15 25.0596V13.7916H119.478V19.2636C119.478 19.8636 119.622 20.3076 119.91 20.5956C120.198 20.8596 120.654 20.9916 121.278 20.9916H122.178C122.418 20.9916 122.538 21.9276 122.538 23.7996C122.538 25.6236 122.418 26.5356 122.178 26.5356H121.566C120.63 26.5356 119.922 26.3316 119.442 25.9236C119.322 27.6756 118.854 29.2356 118.038 30.6036C117.246 31.9956 116.13 33.0756 114.69 33.8436C113.274 34.6356 111.606 35.0316 109.686 35.0316H108.318L107.886 29.4876H109.47ZM132.392 19.8036C132.392 21.8916 131.768 23.5356 130.52 24.7356C129.296 25.9356 127.64 26.5356 125.552 26.5356H122.168C121.928 26.5356 121.808 25.6236 121.808 23.7996C121.808 21.9276 121.928 20.9916 122.168 20.9916H125.552C126.032 20.9916 126.416 20.8596 126.704 20.5956C127.016 20.3316 127.172 19.9836 127.172 19.5516V13.7916H132.392V19.8036ZM130.376 0.255644V4.57564H125.696V0.255644H130.376ZM133.22 6.08764V10.5516H122.852V6.08764H133.22ZM142.869 29.4876C144.381 29.4876 145.533 29.1036 146.325 28.3356C147.141 27.5916 147.549 26.4996 147.549 25.0596V13.7916H152.877V19.2636C152.877 19.8636 153.021 20.3076 153.309 20.5956C153.597 20.8596 154.053 20.9916 154.677 20.9916H155.577C155.817 20.9916 155.937 21.9276 155.937 23.7996C155.937 25.6236 155.817 26.5356 155.577 26.5356H154.965C154.029 26.5356 153.321 26.3316 152.841 25.9236C152.721 27.6756 152.253 29.2356 151.437 30.6036C150.645 31.9956 149.529 33.0756 148.089 33.8436C146.673 34.6356 145.005 35.0316 143.085 35.0316H141.717L141.285 29.4876H142.869ZM161.938 20.9916C162.442 20.9916 162.838 20.8716 163.126 20.6316C163.414 20.3676 163.558 20.0076 163.558 19.5516V13.7916H168.85V19.4436C168.85 20.4756 169.378 20.9916 170.434 20.9916H171.622C171.862 20.9916 171.982 21.9156 171.982 23.7636C171.982 25.6116 171.862 26.5356 171.622 26.5356H170.182C168.262 26.5356 166.906 26.0076 166.114 24.9516C165.658 25.5036 165.094 25.9116 164.422 26.1756C163.774 26.4156 162.946 26.5356 161.938 26.5356H155.566C155.326 26.5356 155.206 25.6236 155.206 23.7996C155.206 21.9276 155.326 20.9916 155.566 20.9916H161.938ZM165.07 29.8116V34.2756H154.702V29.8116H165.07ZM174.153 20.9916C175.449 20.9916 176.097 20.4396 176.097 19.3356V13.7916H181.317V19.3356C181.317 20.4396 181.953 20.9916 183.225 20.9916C183.849 20.9916 184.317 20.8476 184.629 20.5596C184.941 20.2716 185.097 19.8636 185.097 19.3356V13.7916H190.353V19.3356C190.353 20.4396 190.941 20.9916 192.117 20.9916C193.317 20.9916 193.917 20.4396 193.917 19.3356V13.7916H199.137V19.2636C199.137 19.8636 199.269 20.3076 199.533 20.5956C199.797 20.8596 200.205 20.9916 200.757 20.9916H202.197C202.437 20.9916 202.557 21.9276 202.557 23.7996C202.557 25.6236 202.437 26.5356 202.197 26.5356H200.829C198.573 26.5356 197.109 26.0076 196.437 24.9516C195.597 26.0076 194.145 26.5356 192.081 26.5356C189.873 26.5356 188.373 25.9716 187.581 24.8436C187.125 25.4196 186.549 25.8516 185.853 26.1396C185.157 26.4036 184.269 26.5356 183.189 26.5356C182.013 26.5356 181.053 26.4036 180.309 26.1396C179.565 25.8516 178.989 25.4196 178.581 24.8436C178.125 25.4196 177.537 25.8516 176.817 26.1396C176.121 26.4036 175.233 26.5356 174.153 26.5356H171.633C171.393 26.5356 171.273 25.6236 171.273 23.7996C171.273 21.9276 171.393 20.9916 171.633 20.9916H174.153ZM203.228 20.9916C203.732 20.9916 204.104 20.8836 204.344 20.6676C204.584 20.4516 204.704 20.0916 204.704 19.5876V18.7956C204.704 16.4436 205.376 14.5836 206.72 13.2156C208.064 11.8476 209.888 11.1636 212.192 11.1636C214.496 11.1636 216.272 11.8356 217.52 13.1796C218.768 14.4996 219.392 16.3956 219.392 18.8676C219.392 21.2676 218.732 23.1516 217.412 24.5196C216.116 25.8636 214.304 26.5356 211.976 26.5356C210.896 26.5356 209.972 26.3916 209.204 26.1036C208.436 25.8156 207.86 25.4316 207.476 24.9516C207.02 25.5036 206.444 25.9116 205.748 26.1756C205.076 26.4156 204.236 26.5356 203.228 26.5356H202.184C201.944 26.5356 201.824 25.6236 201.824 23.7996C201.824 21.9276 201.944 20.9916 202.184 20.9916H203.228ZM214.244 18.8676C214.244 17.2356 213.5 16.4196 212.012 16.4196C210.548 16.4196 209.816 17.2356 209.816 18.8676C209.816 19.5876 209.996 20.1516 210.356 20.5596C210.74 20.9436 211.292 21.1356 212.012 21.1356C212.78 21.1356 213.344 20.9556 213.704 20.5956C214.064 20.2116 214.244 19.6356 214.244 18.8676ZM230.744 20.0196C230.744 18.7716 231.056 17.5356 231.68 16.3116C232.304 15.0636 233.3 13.7316 234.668 12.3156L233.12 10.7316L236.9 6.84364C239.348 9.00364 241.208 10.8276 242.48 12.3156C243.752 13.7796 244.616 15.0636 245.072 16.1676C245.552 17.2716 245.792 18.4356 245.792 19.6596C245.792 21.0516 245.468 22.2996 244.82 23.4036C244.172 24.5076 243.248 25.3716 242.048 25.9956C240.872 26.5956 239.516 26.8956 237.98 26.8956C235.772 26.8956 234.008 26.2716 232.688 25.0236C231.392 23.7516 230.744 22.0836 230.744 20.0196ZM240.644 19.5156C240.644 18.8676 240.464 18.2556 240.104 17.6796C239.768 17.0796 239.156 16.4076 238.268 15.6636C237.452 16.4076 236.852 17.1036 236.468 17.7516C236.108 18.3756 235.928 18.9996 235.928 19.6236C235.928 20.1516 236.132 20.5956 236.54 20.9556C236.948 21.3156 237.488 21.4956 238.16 21.4956C238.904 21.4956 239.504 21.3156 239.96 20.9556C240.416 20.5716 240.644 20.0916 240.644 19.5156ZM256.517 24.9876C256.517 26.9556 256.109 28.6956 255.293 30.2076C254.501 31.7436 253.361 32.9316 251.873 33.7716C250.409 34.6116 248.693 35.0316 246.725 35.0316H243.341L242.909 29.4876H246.509C248.021 29.4876 249.173 29.1036 249.965 28.3356C250.781 27.5916 251.189 26.4996 251.189 25.0596V13.7916H256.517V24.9876ZM275.493 24.8796C275.493 28.0476 274.653 30.5316 272.973 32.3316C271.293 34.1316 268.989 35.0316 266.061 35.0316H260.985L260.553 29.5596H266.673C267.801 29.5596 268.677 29.2836 269.301 28.7316C269.949 28.2036 270.273 27.4716 270.273 26.5356H268.257C265.593 26.5356 263.685 25.9836 262.533 24.8796C261.405 23.7516 260.841 21.9636 260.841 19.5156C260.841 17.9796 261.141 16.6116 261.741 15.4116C262.365 14.1876 263.229 13.2396 264.333 12.5676C265.461 11.8716 266.745 11.5236 268.185 11.5236C270.465 11.5236 272.253 12.2556 273.549 13.7196C274.845 15.1596 275.493 17.1756 275.493 19.7676V24.8796ZM266.025 19.2636C266.025 19.9596 266.193 20.4636 266.529 20.7756C266.889 21.0636 267.501 21.2076 268.365 21.2076H270.345V19.5516C270.345 18.6156 270.141 17.9076 269.733 17.4276C269.349 16.9476 268.797 16.7076 268.077 16.7076C267.405 16.7076 266.889 16.9476 266.529 17.4276C266.193 17.8836 266.025 18.4956 266.025 19.2636ZM293.542 14.7996C294.478 15.9036 295.126 16.8996 295.486 17.7876C295.846 18.6756 296.026 19.5996 296.026 20.5596C296.026 22.3356 295.414 23.7756 294.19 24.8796C292.966 25.9836 291.274 26.5356 289.114 26.5356H279.322L278.89 20.9916H288.43C288.982 20.9916 289.414 20.8956 289.726 20.7036C290.062 20.5116 290.23 20.2476 290.23 19.9116C290.23 19.6476 290.158 19.3956 290.014 19.1556C289.894 18.8916 289.654 18.5436 289.294 18.1116L283.39 11.1636L287.278 7.31164L293.542 14.7996ZM322.073 20.9916C321.761 20.6076 321.521 20.1156 321.353 19.5156C321.185 18.8916 321.101 18.2676 321.101 17.6436C321.101 16.2996 321.425 15.0636 322.073 13.9356C322.721 12.8076 323.609 11.9196 324.737 11.2716C325.865 10.6236 327.113 10.2996 328.481 10.2996C329.921 10.2996 331.193 10.6116 332.297 11.2356C333.425 11.8356 334.289 12.6756 334.889 13.7556C335.513 14.8356 335.825 16.0716 335.825 17.4636C335.825 18.9036 335.441 20.0796 334.673 20.9916H338.345C338.585 20.9916 338.705 21.9276 338.705 23.7996C338.705 25.6236 338.585 26.5356 338.345 26.5356H333.413C332.093 26.5356 331.049 26.4876 330.281 26.3916C329.513 26.2716 328.901 26.0676 328.445 25.7796C327.605 26.2836 325.985 26.5356 323.585 26.5356H314.189C312.005 26.5356 310.325 25.9476 309.149 24.7716C307.973 23.5956 307.385 21.9156 307.385 19.7316V13.7916H312.713V19.0116C312.713 19.6836 312.857 20.1876 313.145 20.5236C313.433 20.8356 313.913 20.9916 314.585 20.9916H322.073ZM328.481 20.9916C329.201 20.6556 329.753 20.1996 330.137 19.6236C330.545 19.0236 330.749 18.4116 330.749 17.7876C330.749 17.0916 330.545 16.5516 330.137 16.1676C329.753 15.7596 329.201 15.5556 328.481 15.5556C327.785 15.5556 327.233 15.7716 326.825 16.2036C326.441 16.6116 326.249 17.1396 326.249 17.7876C326.249 18.4116 326.441 19.0116 326.825 19.5876C327.233 20.1636 327.785 20.6316 328.481 20.9916ZM325.709 7.23964V2.77564H331.253V7.23964H325.709ZM342.16 20.9916C342.664 20.9916 343.06 20.8716 343.348 20.6316C343.636 20.3676 343.78 20.0076 343.78 19.5516V13.7916H349.072V19.4436C349.072 20.4756 349.612 20.9916 350.692 20.9916H351.844C352.084 20.9916 352.204 21.9156 352.204 23.7636C352.204 25.6116 352.084 26.5356 351.844 26.5356H350.44C348.472 26.5356 347.116 26.0076 346.372 24.9516C345.916 25.5036 345.352 25.9116 344.68 26.1756C344.008 26.4156 343.168 26.5356 342.16 26.5356H338.344C338.104 26.5356 337.984 25.6236 337.984 23.7996C337.984 21.9276 338.104 20.9916 338.344 20.9916H342.16ZM345.904 29.8116V34.2756H335.536V29.8116H345.904ZM355.264 20.9916C354.952 20.6076 354.7 20.1156 354.508 19.5156C354.34 18.8916 354.256 18.2676 354.256 17.6436C354.256 16.2996 354.58 15.0636 355.228 13.9356C355.876 12.8076 356.764 11.9196 357.892 11.2716C359.02 10.6236 360.28 10.2996 361.672 10.2996C363.112 10.2996 364.384 10.6116 365.488 11.2356C366.616 11.8356 367.48 12.6756 368.08 13.7556C368.704 14.8356 369.016 16.0716 369.016 17.4636C369.016 18.8556 368.632 20.0316 367.864 20.9916H371.5C371.62 20.9916 371.704 21.1596 371.752 21.4956C371.824 21.8316 371.86 22.5996 371.86 23.7996C371.86 24.9516 371.824 25.6956 371.752 26.0316C371.704 26.3676 371.62 26.5356 371.5 26.5356H366.568C365.248 26.5356 364.204 26.4876 363.436 26.3916C362.692 26.2716 362.08 26.0676 361.6 25.7796C360.76 26.2836 359.152 26.5356 356.776 26.5356H351.844C351.604 26.5356 351.484 25.6236 351.484 23.7996C351.484 21.9276 351.604 20.9916 351.844 20.9916H355.264ZM361.672 15.5556C360.976 15.5556 360.424 15.7716 360.016 16.2036C359.632 16.6116 359.44 17.1396 359.44 17.7876C359.44 18.4116 359.632 19.0116 360.016 19.5876C360.424 20.1636 360.976 20.6316 361.672 20.9916C362.392 20.6556 362.944 20.1876 363.328 19.5876C363.736 18.9876 363.94 18.3876 363.94 17.7876C363.94 17.0916 363.736 16.5516 363.328 16.1676C362.944 15.7596 362.392 15.5556 361.672 15.5556ZM358.9 7.23964V2.77564H364.444V7.23964H358.9ZM383.448 10.6236C384.816 10.6236 385.944 10.8636 386.832 11.3436C387.744 11.8236 388.536 12.6636 389.208 13.8636C389.88 15.0396 390.48 16.7076 391.008 18.8676L388.812 20.3076C388.956 20.5236 389.28 20.6916 389.784 20.8116C390.288 20.9316 390.792 20.9916 391.296 20.9916H393.456C393.696 20.9916 393.816 21.9276 393.816 23.7996C393.816 24.9756 393.78 25.7316 393.708 26.0676C393.636 26.3796 393.552 26.5356 393.456 26.5356H390.864C389.52 26.5356 388.404 26.2836 387.516 25.7796C386.628 25.2756 385.824 24.4236 385.104 23.2236L383.772 24.0516C382.26 24.9876 380.784 25.6356 379.344 25.9956C377.904 26.3556 376.116 26.5356 373.98 26.5356H371.496C371.256 26.5356 371.136 25.6236 371.136 23.7996C371.136 21.9276 371.256 20.9916 371.496 20.9916H374.232C376.008 20.9916 377.496 20.8716 378.696 20.6316C379.92 20.3916 381.192 19.9356 382.512 19.2636L384.816 17.9316C384.624 17.2116 384.336 16.7196 383.952 16.4556C383.592 16.1916 383.04 16.0596 382.296 16.0596H374.088L374.628 10.6236H383.448ZM378.12 7.34764V2.88364H383.664V7.34764H378.12ZM403.693 19.8036C403.693 21.8916 403.069 23.5356 401.821 24.7356C400.597 25.9356 398.941 26.5356 396.853 26.5356H393.469C393.229 26.5356 393.109 25.6236 393.109 23.7996C393.109 21.9276 393.229 20.9916 393.469 20.9916H396.853C397.333 20.9916 397.717 20.8596 398.005 20.5956C398.317 20.3316 398.473 19.9836 398.473 19.5516V13.7916H403.693V19.8036ZM404.521 6.08764V10.5516H394.153V6.08764H404.521ZM428.533 3.67564C428.965 6.41164 429.181 8.58364 429.181 10.1916L429.145 10.6596C429.481 11.0676 429.973 11.2716 430.621 11.2716C431.029 11.2716 431.365 11.1516 431.629 10.9116C431.917 10.6716 432.061 10.3476 432.061 9.93964C432.061 9.19564 431.845 7.45564 431.413 4.71964L436.705 3.67564C437.137 6.53164 437.353 8.76364 437.353 10.3716C437.353 11.6196 437.089 12.7356 436.561 13.7196C436.033 14.7036 435.301 15.4716 434.365 16.0236C433.429 16.5756 432.373 16.8516 431.197 16.8516C430.333 16.8516 429.529 16.6956 428.785 16.3836C428.065 16.0716 427.525 15.6876 427.165 15.2316C426.757 15.7596 426.181 16.1676 425.437 16.4556C424.717 16.7196 423.937 16.8516 423.097 16.8516C422.377 16.8516 421.825 16.7316 421.441 16.4916V17.3916V26.5356H416.113V17.4636C416.113 15.1356 415.993 13.1436 415.753 11.4876C415.513 9.83164 415.033 7.82764 414.313 5.47564L419.461 3.67564L421.009 9.90364C421.129 10.3836 421.321 10.7316 421.585 10.9476C421.849 11.1636 422.185 11.2716 422.593 11.2716C423.001 11.2716 423.337 11.1516 423.601 10.9116C423.889 10.6716 424.033 10.3476 424.033 9.93964C424.033 9.41164 423.793 7.67164 423.313 4.71964L428.533 3.67564ZM449.97 8.35564C451.218 8.35564 452.418 8.70364 453.57 9.39964C454.746 10.0956 455.694 11.0196 456.414 12.1716C457.134 13.3236 457.494 14.5236 457.494 15.7716C457.494 17.0436 457.134 18.2556 456.414 19.4076C455.694 20.5596 454.746 21.4836 453.57 22.1796C452.418 22.8756 451.218 23.2236 449.97 23.2236C448.698 23.2236 447.474 22.8756 446.298 22.1796C445.146 21.4836 444.21 20.5596 443.49 19.4076C442.77 18.2556 442.41 17.0436 442.41 15.7716C442.41 14.5236 442.77 13.3236 443.49 12.1716C444.21 11.0196 445.146 10.0956 446.298 9.39964C447.474 8.70364 448.698 8.35564 449.97 8.35564ZM449.97 18.1836C450.57 18.1836 451.11 17.9436 451.59 17.4636C452.094 16.9596 452.346 16.3956 452.346 15.7716C452.346 15.1476 452.106 14.5956 451.626 14.1156C451.146 13.6356 450.594 13.3956 449.97 13.3956C449.346 13.3956 448.782 13.6476 448.278 14.1516C447.798 14.6316 447.558 15.1716 447.558 15.7716C447.558 16.3716 447.81 16.9236 448.314 17.4276C448.818 17.9316 449.37 18.1836 449.97 18.1836ZM470.336 13.3236C469.52 14.2596 468.344 14.7276 466.808 14.7276C465.272 14.7276 464.084 14.2596 463.244 13.3236C462.428 12.3876 462.02 11.1636 462.02 9.65164C462.02 7.92364 462.428 6.57964 463.244 5.61964C464.084 4.65964 465.272 4.17964 466.808 4.17964C468.344 4.17964 469.52 4.65964 470.336 5.61964C471.176 6.57964 471.596 7.92364 471.596 9.65164C471.596 11.1636 471.176 12.3876 470.336 13.3236ZM481.352 4.50364L470.624 26.5356H465.26L475.988 4.50364H481.352ZM465.008 9.54364C465.008 10.8876 465.608 11.5596 466.808 11.5596C468.008 11.5596 468.608 10.8876 468.608 9.54364C468.608 8.07964 468.008 7.34764 466.808 7.34764C465.608 7.34764 465.008 8.07964 465.008 9.54364ZM483.368 25.4916C482.528 26.4276 481.352 26.8956 479.84 26.8956C478.304 26.8956 477.116 26.4276 476.276 25.4916C475.436 24.5556 475.016 23.3316 475.016 21.8196C475.016 20.1156 475.436 18.7716 476.276 17.7876C477.116 16.8036 478.304 16.3116 479.84 16.3116C481.376 16.3116 482.552 16.8036 483.368 17.7876C484.208 18.7716 484.628 20.1156 484.628 21.8196C484.628 23.3316 484.208 24.5556 483.368 25.4916ZM478.004 21.7116C478.004 23.0316 478.616 23.6916 479.84 23.6916C481.04 23.6916 481.64 23.0316 481.64 21.7116C481.64 20.9676 481.496 20.4156 481.208 20.0556C480.92 19.6956 480.464 19.5156 479.84 19.5156C478.616 19.5156 478.004 20.2476 478.004 21.7116Z"
        fill="url(#paint0_linear_2989_605)"/>
    <defs>
        <linearGradient id="paint0_linear_2989_605" x1="-226" y1="27" x2="491.438" y2="7.31245"
                        gradientUnits="userSpaceOnUse">
            <stop stop-color="#010101"/>
            <stop offset="1" stop-color="white"/>
        </linearGradient>
    </defs>
</svg>
