<svg xmlns="http://www.w3.org/2000/svg" width="47" height="46" viewBox="0 0 47 46" fill="none">
    <path fill-rule="evenodd" clip-rule="evenodd"
          d="M27.3333 34.4997L35 40.2497V34.4997H36.9167C39.0346 34.4997 40.75 32.7843 40.75 30.6663V19.1663C40.75 17.0484 39.0346 15.333 36.9167 15.333H21.5833C19.4654 15.333 17.75 17.0484 17.75 19.1663V30.6663C17.75 32.7843 19.4654 34.4997 21.5833 34.4997H27.3333Z"
          stroke="#737887" stroke-width="2.875" stroke-linecap="round" stroke-linejoin="round"></path>
    <path
        d="M17.75 28.7503L12 32.5837V26.8337H10.0833C7.96542 26.8337 6.25 25.1182 6.25 23.0003V11.5003C6.25 9.38241 7.96542 7.66699 10.0833 7.66699H27.3333C29.4513 7.66699 31.1667 9.38241 31.1667 11.5003V15.3337"
        stroke="#737887" stroke-width="2.875" stroke-linecap="round" stroke-linejoin="round"></path>
    <path
        d="M24.3386 24.8486C24.376 24.886 24.376 24.9467 24.3386 24.9841C24.3012 25.0215 24.2405 25.0215 24.2031 24.9841C24.1656 24.9467 24.1656 24.886 24.2031 24.8486C24.2405 24.8112 24.3012 24.8112 24.3386 24.8486"
        stroke="#737887" stroke-width="2.875" stroke-linecap="round" stroke-linejoin="round"></path>
    <path
        d="M29.323 24.8486C29.3604 24.886 29.3604 24.9467 29.323 24.9841C29.2855 25.0215 29.2249 25.0215 29.1874 24.9841C29.15 24.9467 29.15 24.886 29.1874 24.8486C29.2249 24.8112 29.2855 24.8112 29.323 24.8486"
        stroke="#737887" stroke-width="2.875" stroke-linecap="round" stroke-linejoin="round"></path>
    <path
        d="M34.3073 24.8486C34.3448 24.886 34.3448 24.9467 34.3073 24.9841C34.2699 25.0215 34.2092 25.0215 34.1718 24.9841C34.1344 24.9467 34.1344 24.886 34.1718 24.8486C34.2092 24.8112 34.2699 24.8112 34.3073 24.8486"
        stroke="#737887" stroke-width="2.875" stroke-linecap="round" stroke-linejoin="round"></path>
</svg>
