<svg width="1154" height="81" viewBox="0 0 1154 81" fill="none" xmlns="http://www.w3.org/2000/svg">
    <path
        d="M209.941 42C209.648 42 209.435 41.9267 209.301 41.78C209.181 41.6333 209.121 41.3867 209.121 41.04C209.121 40.7067 209.181 40.4733 209.301 40.34C209.435 40.1933 209.648 40.12 209.941 40.12C210.248 40.12 210.461 40.1933 210.581 40.34C210.701 40.4733 210.761 40.7067 210.761 41.04C210.761 41.3867 210.695 41.6333 210.561 41.78C210.441 41.9267 210.235 42 209.941 42ZM218.717 40.88C219.264 40.88 219.704 40.76 220.037 40.52C220.384 40.2667 220.557 39.9533 220.557 39.58C220.557 39.3 220.444 38.8267 220.217 38.16C220.004 37.48 219.504 36.06 218.717 33.9L218.257 32.66L219.257 32.2L221.637 38.98C221.877 39.6733 222.15 40.1667 222.457 40.46C222.764 40.74 223.184 40.88 223.717 40.88H224.077C224.21 40.88 224.277 41.0733 224.277 41.46C224.277 41.6867 224.257 41.8333 224.217 41.9C224.19 41.9667 224.144 42 224.077 42H223.697C223.097 42 222.59 41.8867 222.177 41.66C221.777 41.4333 221.464 41.08 221.237 40.6C220.997 41.08 220.67 41.4333 220.257 41.66C219.857 41.8867 219.344 42 218.717 42H213.897L213.777 40.88H218.717ZM225.6 40.88C226.28 40.88 226.807 40.72 227.18 40.4C227.567 40.0667 227.76 39.6267 227.76 39.08V35.86H228.86V39.08C228.86 39.6667 229.027 40.1133 229.36 40.42C229.707 40.7267 230.207 40.88 230.86 40.88C231.527 40.88 232.053 40.72 232.44 40.4C232.827 40.0667 233.02 39.6267 233.02 39.08V35.86H234.1V39.08C234.1 39.6533 234.267 40.1 234.6 40.42C234.933 40.7267 235.407 40.88 236.02 40.88C236.633 40.88 237.113 40.7267 237.46 40.42C237.82 40.1 238 39.6533 238 39.08V35.86H239.08V39C239.08 39.9333 238.8 40.6667 238.24 41.2C237.68 41.7333 236.94 42 236.02 42C235.38 42 234.847 41.8867 234.42 41.66C233.993 41.42 233.687 41.0867 233.5 40.66C233.273 41.0867 232.927 41.42 232.46 41.66C232.007 41.8867 231.473 42 230.86 42C230.18 42 229.62 41.8867 229.18 41.66C228.74 41.4333 228.433 41.1 228.26 40.66C228.02 41.0867 227.667 41.42 227.2 41.66C226.747 41.8867 226.213 42 225.6 42H224.08C223.947 42 223.88 41.82 223.88 41.46C223.88 41.0733 223.947 40.88 224.08 40.88H225.6ZM234.26 29.74V30.9H232.84V29.74H234.26ZM236.04 32.2V33.3H231.04V32.2H236.04ZM246.097 40.88C246.231 40.88 246.297 41.0733 246.297 41.46C246.297 41.82 246.231 42 246.097 42H245.697C244.751 42 244.031 41.7133 243.537 41.14C243.057 40.5533 242.817 39.7267 242.817 38.66V29.02H243.917V38.62C243.917 40.1267 244.524 40.88 245.737 40.88H246.097ZM251.252 39.08C251.252 39.9867 250.972 40.7 250.412 41.22C249.852 41.74 249.125 42 248.232 42H246.092C245.958 42 245.892 41.82 245.892 41.46C245.892 41.0733 245.958 40.88 246.092 40.88H248.232C248.818 40.88 249.285 40.7267 249.632 40.42C249.992 40.1133 250.172 39.68 250.172 39.12V35.86H251.252V39.08ZM246.832 46.04V44.78H248.552V46.04H246.832ZM268.646 40.88C268.779 40.88 268.846 41.0733 268.846 41.46C268.846 41.82 268.779 42 268.646 42H266.406C266.673 42.2533 266.806 42.6333 266.806 43.14C266.806 43.8867 266.586 44.5467 266.146 45.12C265.719 45.6933 265.099 46.14 264.286 46.46C263.473 46.78 262.526 46.94 261.446 46.94H259.886C258.246 46.94 256.979 46.46 256.086 45.5C255.206 44.5533 254.766 43.2133 254.766 41.48V37.86H255.866V41.46C255.866 42.8733 256.219 43.9533 256.926 44.7C257.633 45.46 258.639 45.84 259.946 45.84H261.446C262.793 45.84 263.839 45.6 264.586 45.12C265.346 44.6533 265.726 44.02 265.726 43.22C265.726 42.3933 265.319 41.98 264.506 41.98H260.626L260.766 40.88H268.646ZM269.07 40.88C269.617 40.88 270.037 40.7533 270.33 40.5C270.624 40.2467 270.77 39.8733 270.77 39.38V38.42C270.77 37.14 271.084 36.1467 271.71 35.44C272.337 34.72 273.217 34.36 274.35 34.36C275.497 34.36 276.37 34.6933 276.97 35.36C277.584 36.0267 277.89 36.9933 277.89 38.26C277.89 39.4467 277.57 40.3667 276.93 41.02C276.304 41.6733 275.437 42 274.33 42C272.917 42 271.95 41.52 271.43 40.56C271.244 41.0667 270.964 41.4333 270.59 41.66C270.217 41.8867 269.71 42 269.07 42H268.65C268.517 42 268.45 41.82 268.45 41.46C268.45 41.0733 268.517 40.88 268.65 40.88H269.07ZM276.79 38.26C276.79 36.38 275.97 35.44 274.33 35.44C273.477 35.44 272.85 35.6867 272.45 36.18C272.05 36.66 271.85 37.4067 271.85 38.42C271.85 39.1667 272.07 39.7667 272.51 40.22C272.964 40.66 273.57 40.88 274.33 40.88C275.97 40.88 276.79 40.0067 276.79 38.26ZM284.929 45.84C286.209 45.84 287.209 45.4533 287.929 44.68C288.662 43.92 289.029 42.8667 289.029 41.52V35.86H290.109V39.14C290.109 39.6733 290.275 40.1 290.609 40.42C290.955 40.7267 291.429 40.88 292.029 40.88H292.249C292.382 40.88 292.449 41.0733 292.449 41.46C292.449 41.82 292.382 42 292.249 42H292.029C291.615 42 291.229 41.92 290.869 41.76C290.509 41.6 290.255 41.3933 290.109 41.14V41.58C290.109 42.6867 289.889 43.64 289.449 44.44C289.009 45.2533 288.402 45.8733 287.629 46.3C286.855 46.7267 285.982 46.94 285.009 46.94H284.469L284.349 45.84H284.929ZM297.004 40.88C297.591 40.88 298.057 40.7267 298.404 40.42C298.751 40.1133 298.924 39.68 298.924 39.12V35.86H300.024V39.08C300.024 39.9867 299.744 40.7 299.184 41.22C298.624 41.74 297.897 42 297.004 42H292.244C292.111 42 292.044 41.82 292.044 41.46C292.044 41.0733 292.111 40.88 292.244 40.88H297.004ZM297.444 44.78V45.88H292.444V44.78H297.444ZM307.955 40.88C308.502 40.88 308.942 40.76 309.275 40.52C309.622 40.2667 309.795 39.9533 309.795 39.58C309.795 39.3 309.682 38.8267 309.455 38.16C309.242 37.48 308.742 36.06 307.955 33.9L307.495 32.66L308.495 32.2L310.875 38.98C311.115 39.6733 311.389 40.1667 311.695 40.46C312.002 40.74 312.422 40.88 312.955 40.88H313.315C313.449 40.88 313.515 41.0733 313.515 41.46C313.515 41.6867 313.495 41.8333 313.455 41.9C313.429 41.9667 313.382 42 313.315 42H312.935C312.335 42 311.829 41.8867 311.415 41.66C311.015 41.4333 310.702 41.08 310.475 40.6C310.235 41.08 309.909 41.4333 309.495 41.66C309.095 41.8867 308.582 42 307.955 42H303.135L303.015 40.88H307.955ZM306.975 29.92V28.66H308.695V29.92H306.975ZM318.478 39.08C318.478 39.9867 318.198 40.7 317.638 41.22C317.078 41.74 316.352 42 315.458 42H313.318C313.185 42 313.118 41.82 313.118 41.46C313.118 41.0733 313.185 40.88 313.318 40.88H315.458C316.045 40.88 316.512 40.7267 316.858 40.42C317.218 40.1133 317.398 39.68 317.398 39.12V35.86H318.478V39.08ZM317.418 44.78V45.88H312.418V44.78H317.418ZM314.218 48.34V47.18H315.618V48.34H314.218ZM332.015 46.94C330.375 46.94 329.108 46.46 328.215 45.5C327.335 44.5533 326.895 43.2133 326.895 41.48V37.86H327.995V41.46C327.995 42.8733 328.348 43.9533 329.055 44.7C329.761 45.46 330.768 45.84 332.075 45.84H332.955C333.781 45.84 334.515 45.66 335.155 45.3C335.795 44.9533 336.288 44.46 336.635 43.82C336.995 43.18 337.175 42.44 337.175 41.6V35.86H338.255V41.46C338.255 42.5533 338.028 43.5133 337.575 44.34C337.121 45.1667 336.495 45.8067 335.695 46.26C334.895 46.7133 333.981 46.94 332.955 46.94H332.015ZM331.315 35.1V33.84H333.035V35.1H331.315ZM345.277 40.88C345.41 40.88 345.477 41.0733 345.477 41.46C345.477 41.82 345.41 42 345.277 42H344.877C343.93 42 343.21 41.7133 342.717 41.14C342.237 40.5533 341.997 39.7267 341.997 38.66V29.02H343.097V38.62C343.097 40.1267 343.704 40.88 344.917 40.88H345.277ZM350.911 40.88C351.591 40.88 352.125 40.7333 352.511 40.44C352.898 40.1467 353.091 39.76 353.091 39.28C353.091 38.64 352.785 38.0133 352.171 37.4L347.271 32.44V31.46L354.391 28.56L354.731 29.62L348.491 32.14L352.951 36.64C354.298 37.9867 355.285 38.9467 355.911 39.52C356.551 40.0933 357.038 40.4667 357.371 40.64C357.718 40.8 358.098 40.88 358.511 40.88C358.645 40.88 358.711 41.0733 358.711 41.46C358.711 41.82 358.645 42 358.511 42C358.005 42 357.571 41.94 357.211 41.82C356.865 41.7 356.458 41.4533 355.991 41.08C355.525 40.6933 354.871 40.08 354.031 39.24C354.045 39.3067 354.051 39.4 354.051 39.52C354.051 40.2267 353.771 40.82 353.211 41.3C352.665 41.7667 351.898 42 350.911 42H345.271C345.138 42 345.071 41.82 345.071 41.46C345.071 41.0733 345.138 40.88 345.271 40.88H350.911ZM358.934 40.88C359.48 40.88 359.9 40.7533 360.194 40.5C360.487 40.2467 360.634 39.8733 360.634 39.38V38.42C360.634 37.14 360.947 36.1467 361.574 35.44C362.2 34.72 363.08 34.36 364.214 34.36C365.36 34.36 366.234 34.6933 366.834 35.36C367.447 36.0267 367.754 36.9933 367.754 38.26C367.754 39.4467 367.434 40.3667 366.794 41.02C366.167 41.6733 365.3 42 364.194 42C362.78 42 361.814 41.52 361.294 40.56C361.107 41.0667 360.827 41.4333 360.454 41.66C360.08 41.8867 359.574 42 358.934 42H358.514C358.38 42 358.314 41.82 358.314 41.46C358.314 41.0733 358.38 40.88 358.514 40.88H358.934ZM366.654 38.26C366.654 36.38 365.834 35.44 364.194 35.44C363.34 35.44 362.714 35.6867 362.314 36.18C361.914 36.66 361.714 37.4067 361.714 38.42C361.714 39.1667 361.934 39.7667 362.374 40.22C362.827 40.66 363.434 40.88 364.194 40.88C365.834 40.88 366.654 40.0067 366.654 38.26ZM371.47 29.02H372.57V42H371.47V29.02ZM384.992 41.52C384.992 42.64 384.772 43.6067 384.332 44.42C383.892 45.2467 383.285 45.8733 382.512 46.3C381.738 46.7267 380.865 46.94 379.892 46.94H379.352L379.232 45.84H379.812C381.092 45.84 382.092 45.4533 382.812 44.68C383.545 43.92 383.912 42.8667 383.912 41.52V35.86H384.992V41.52ZM383.412 33.3V32.04H385.132V33.3H383.412ZM391.996 40.88C392.129 40.88 392.196 41.0733 392.196 41.46C392.196 41.82 392.129 42 391.996 42H391.596C390.649 42 389.929 41.7133 389.436 41.14C388.956 40.5533 388.716 39.7267 388.716 38.66V29.02H389.816V38.62C389.816 40.1267 390.423 40.88 391.636 40.88H391.996ZM393.51 40.88C394.19 40.88 394.717 40.72 395.09 40.4C395.477 40.0667 395.67 39.6267 395.67 39.08V35.86H396.77V39.08C396.77 39.6667 396.937 40.1133 397.27 40.42C397.617 40.7267 398.117 40.88 398.77 40.88C399.437 40.88 399.964 40.72 400.35 40.4C400.737 40.0667 400.93 39.6267 400.93 39.08V35.86H402.01V39.08C402.01 39.6533 402.177 40.1 402.51 40.42C402.844 40.7267 403.317 40.88 403.93 40.88C404.544 40.88 405.024 40.7267 405.37 40.42C405.73 40.1 405.91 39.6533 405.91 39.08V35.86H406.99V39C406.99 39.9333 406.71 40.6667 406.15 41.2C405.59 41.7333 404.85 42 403.93 42C403.29 42 402.757 41.8867 402.33 41.66C401.904 41.42 401.597 41.0867 401.41 40.66C401.184 41.0867 400.837 41.42 400.37 41.66C399.917 41.8867 399.384 42 398.77 42C398.09 42 397.53 41.8867 397.09 41.66C396.65 41.4333 396.344 41.1 396.17 40.66C395.93 41.0867 395.577 41.42 395.11 41.66C394.657 41.8867 394.124 42 393.51 42H391.99C391.857 42 391.79 41.82 391.79 41.46C391.79 41.0733 391.857 40.88 391.99 40.88H393.51ZM425.29 39.34C425.623 39.34 425.89 39.2467 426.09 39.06C426.303 38.8733 426.41 38.6267 426.41 38.32V35.12H428.95V38.46C428.95 39.5667 428.623 40.4333 427.97 41.06C427.317 41.6867 426.43 42 425.31 42H418.73C417.53 42 416.61 41.6867 415.97 41.06C415.33 40.42 415.01 39.5067 415.01 38.32V35.12H417.55V37.98C417.55 38.4333 417.65 38.7733 417.85 39C418.063 39.2267 418.397 39.34 418.85 39.34H425.29ZM424.81 31.46V33.74H419.17V31.46H424.81ZM439.611 41.16C439.611 42.9067 439.144 44.28 438.211 45.28C437.291 46.28 436.024 46.78 434.411 46.78H431.671L431.451 44.12H434.571C435.358 44.12 435.971 43.9267 436.411 43.54C436.851 43.1667 437.071 42.6533 437.071 42H435.671C434.231 42 433.198 41.7 432.571 41.1C431.958 40.5 431.651 39.5467 431.651 38.24C431.651 37.3867 431.818 36.6267 432.151 35.96C432.484 35.2933 432.951 34.7733 433.551 34.4C434.164 34.0267 434.871 33.84 435.671 33.84C436.898 33.84 437.858 34.24 438.551 35.04C439.258 35.84 439.611 36.9467 439.611 38.36V41.16ZM434.171 38.14C434.171 38.5667 434.284 38.88 434.511 39.08C434.751 39.2667 435.171 39.36 435.771 39.36H437.071V38.32C437.071 37.68 436.944 37.1933 436.691 36.86C436.438 36.5267 436.071 36.36 435.591 36.36C435.138 36.36 434.784 36.5267 434.531 36.86C434.291 37.18 434.171 37.6067 434.171 38.14ZM441.145 44.12C442.065 44.12 442.779 43.8667 443.285 43.36C443.792 42.8667 444.045 42.1667 444.045 41.26V35.12H446.585V38.14C446.585 38.5533 446.685 38.86 446.885 39.06C447.099 39.2467 447.432 39.34 447.885 39.34H448.245C448.379 39.34 448.445 39.8 448.445 40.72C448.445 41.5733 448.379 42 448.245 42H447.925C447.645 42 447.385 41.9667 447.145 41.9C446.905 41.82 446.719 41.7133 446.585 41.58C446.545 42.58 446.299 43.4733 445.845 44.26C445.405 45.0467 444.785 45.66 443.985 46.1C443.185 46.5533 442.252 46.78 441.185 46.78H440.545L440.325 44.12H441.145ZM453.86 38.44C453.86 39.5467 453.527 40.42 452.86 41.06C452.207 41.6867 451.32 42 450.2 42H448.24C448.107 42 448.04 41.5733 448.04 40.72C448.04 39.8 448.107 39.34 448.24 39.34H450.2C450.534 39.34 450.8 39.2533 451 39.08C451.214 38.8933 451.32 38.64 451.32 38.32V35.12H453.86V38.44ZM452.72 27.62V29.8H450.32V27.62H452.72ZM454.34 30.76V33.04H448.7V30.76H454.34ZM460.227 44.12C461.147 44.12 461.861 43.8667 462.367 43.36C462.874 42.8667 463.127 42.1667 463.127 41.26V35.12H465.667V38.14C465.667 38.5533 465.767 38.86 465.967 39.06C466.181 39.2467 466.514 39.34 466.967 39.34H467.327C467.461 39.34 467.527 39.8 467.527 40.72C467.527 41.5733 467.461 42 467.327 42H467.007C466.727 42 466.467 41.9667 466.227 41.9C465.987 41.82 465.801 41.7133 465.667 41.58C465.627 42.58 465.381 43.4733 464.927 44.26C464.487 45.0467 463.867 45.66 463.067 46.1C462.267 46.5533 461.334 46.78 460.267 46.78H459.627L459.407 44.12H460.227ZM470.982 39.34C471.316 39.34 471.582 39.2533 471.782 39.08C471.982 38.8933 472.082 38.64 472.082 38.32V35.12H474.642V38.24C474.642 38.9733 475.016 39.34 475.762 39.34H476.502C476.636 39.34 476.702 39.7867 476.702 40.68C476.702 41.56 476.636 42 476.502 42H475.642C474.496 42 473.736 41.68 473.362 41.04C473.122 41.3733 472.802 41.62 472.402 41.78C472.016 41.9267 471.542 42 470.982 42H467.322C467.189 42 467.122 41.5733 467.122 40.72C467.122 39.8 467.189 39.34 467.322 39.34H470.982ZM472.542 44.08V46.36H466.902V44.08H472.542ZM478.042 39.34C478.495 39.34 478.835 39.2333 479.062 39.02C479.302 38.8067 479.422 38.5133 479.422 38.14V35.12H481.962V38.14C481.962 38.94 482.422 39.34 483.342 39.34C483.795 39.34 484.135 39.2333 484.362 39.02C484.602 38.8067 484.722 38.5133 484.722 38.14V35.12H487.262V38.14C487.262 38.94 487.689 39.34 488.542 39.34C489.395 39.34 489.822 38.94 489.822 38.14V35.12H492.362V38.14C492.362 38.94 492.735 39.34 493.482 39.34H494.282C494.415 39.34 494.482 39.8 494.482 40.72C494.482 41.5733 494.415 42 494.282 42H493.482C492.842 42 492.322 41.9267 491.922 41.78C491.522 41.62 491.222 41.3733 491.022 41.04C490.782 41.3733 490.455 41.62 490.042 41.78C489.642 41.9267 489.142 42 488.542 42C487.835 42 487.269 41.9133 486.842 41.74C486.415 41.5533 486.095 41.2867 485.882 40.94C485.629 41.2867 485.295 41.5533 484.882 41.74C484.482 41.9133 483.969 42 483.342 42C482.609 42 482.022 41.9133 481.582 41.74C481.142 41.5533 480.815 41.2867 480.602 40.94C480.082 41.6467 479.229 42 478.042 42H476.502C476.369 42 476.302 41.5733 476.302 40.72C476.302 39.8 476.369 39.34 476.502 39.34H478.042ZM494.795 39.34C495.169 39.34 495.429 39.2667 495.575 39.12C495.735 38.9733 495.815 38.7333 495.815 38.4V37.84C495.815 36.5467 496.182 35.5267 496.915 34.78C497.662 34.02 498.669 33.64 499.935 33.64C501.202 33.64 502.169 34.0067 502.835 34.74C503.515 35.46 503.855 36.5 503.855 37.86C503.855 39.1667 503.502 40.1867 502.795 40.92C502.089 41.64 501.102 42 499.835 42C499.169 42 498.615 41.92 498.175 41.76C497.735 41.5867 497.409 41.3467 497.195 41.04C496.942 41.3733 496.622 41.62 496.235 41.78C495.862 41.9267 495.382 42 494.795 42H494.275C494.142 42 494.075 41.5733 494.075 40.72C494.075 39.8 494.142 39.34 494.275 39.34H494.795ZM501.335 37.86C501.335 36.74 500.835 36.18 499.835 36.18C498.835 36.18 498.335 36.74 498.335 37.86C498.335 38.34 498.455 38.7133 498.695 38.98C498.949 39.2333 499.329 39.36 499.835 39.36C500.342 39.36 500.715 39.24 500.955 39C501.209 38.7467 501.335 38.3667 501.335 37.86ZM510.947 38.46C510.947 37.7533 511.134 37.0467 511.507 36.34C511.881 35.62 512.487 34.84 513.327 34L512.467 33.14L514.267 31.24C515.601 32.4133 516.621 33.4 517.327 34.2C518.034 35 518.521 35.7133 518.787 36.34C519.054 36.9533 519.187 37.5933 519.187 38.26C519.187 39.0333 519.007 39.72 518.647 40.32C518.287 40.9067 517.781 41.3667 517.127 41.7C516.474 42.0333 515.721 42.2 514.867 42.2C513.667 42.2 512.714 41.86 512.007 41.18C511.301 40.4867 510.947 39.58 510.947 38.46ZM516.647 38.24C516.647 37.8 516.527 37.38 516.287 36.98C516.061 36.58 515.654 36.1333 515.067 35.64C514.507 36.1467 514.101 36.62 513.847 37.06C513.594 37.4867 513.467 37.9133 513.467 38.34C513.467 38.6867 513.601 38.98 513.867 39.22C514.134 39.4467 514.501 39.56 514.967 39.56C515.474 39.56 515.881 39.44 516.187 39.2C516.494 38.9467 516.647 38.6267 516.647 38.24ZM525.316 41.26C525.316 42.3533 525.096 43.3133 524.656 44.14C524.216 44.98 523.583 45.6267 522.756 46.08C521.943 46.5467 520.996 46.78 519.916 46.78H518.236L518.016 44.12H519.876C520.796 44.12 521.509 43.8667 522.016 43.36C522.523 42.8667 522.776 42.1667 522.776 41.26V35.12H525.316V41.26ZM535.978 41.16C535.978 42.9067 535.512 44.28 534.578 45.28C533.658 46.28 532.392 46.78 530.778 46.78H528.038L527.818 44.12H530.938C531.725 44.12 532.338 43.9267 532.778 43.54C533.218 43.1667 533.438 42.6533 533.438 42H532.038C530.598 42 529.565 41.7 528.938 41.1C528.325 40.5 528.018 39.5467 528.018 38.24C528.018 37.3867 528.185 36.6267 528.518 35.96C528.852 35.2933 529.318 34.7733 529.918 34.4C530.532 34.0267 531.238 33.84 532.038 33.84C533.265 33.84 534.225 34.24 534.918 35.04C535.625 35.84 535.978 36.9467 535.978 38.36V41.16ZM530.538 38.14C530.538 38.5667 530.652 38.88 530.878 39.08C531.118 39.2667 531.538 39.36 532.138 39.36H533.438V38.32C533.438 37.68 533.312 37.1933 533.058 36.86C532.805 36.5267 532.438 36.36 531.958 36.36C531.505 36.36 531.152 36.5267 530.898 36.86C530.658 37.18 530.538 37.6067 530.538 38.14ZM546.202 35.72C546.696 36.2933 547.042 36.8133 547.242 37.28C547.442 37.7467 547.542 38.24 547.542 38.76C547.542 39.7067 547.202 40.4867 546.522 41.1C545.856 41.7 544.922 42 543.722 42H538.302L538.102 39.34H543.602C544.016 39.34 544.336 39.2733 544.562 39.14C544.789 39.0067 544.902 38.82 544.902 38.58C544.902 38.4067 544.856 38.24 544.762 38.08C544.669 37.9067 544.496 37.6733 544.242 37.38L540.802 33.34L542.642 31.52L546.202 35.72ZM569.408 40.88C569.541 40.88 569.608 41.0733 569.608 41.46C569.608 41.82 569.541 42 569.408 42H567.168C567.434 42.2533 567.568 42.6333 567.568 43.14C567.568 43.8867 567.348 44.5467 566.908 45.12C566.481 45.6933 565.861 46.14 565.048 46.46C564.234 46.78 563.288 46.94 562.208 46.94H560.648C559.008 46.94 557.741 46.46 556.848 45.5C555.968 44.5533 555.528 43.2133 555.528 41.48V37.86H556.628V41.46C556.628 42.8733 556.981 43.9533 557.688 44.7C558.394 45.46 559.401 45.84 560.708 45.84H562.208C563.554 45.84 564.601 45.6 565.348 45.12C566.108 44.6533 566.488 44.02 566.488 43.22C566.488 42.3933 566.081 41.98 565.268 41.98H561.388L561.528 40.88H569.408ZM573.852 40.88C574.385 40.88 574.812 40.8333 575.132 40.74C574.105 40.42 573.319 40.1067 572.772 39.8C572.225 39.48 571.839 39.12 571.612 38.72C571.385 38.32 571.272 37.8133 571.272 37.2C571.272 36.5333 571.432 35.9267 571.752 35.38C572.072 34.82 572.512 34.38 573.072 34.06C573.645 33.7267 574.285 33.56 574.992 33.56C576.152 33.56 577.052 33.92 577.692 34.64C578.332 35.36 578.652 36.3933 578.652 37.74V38.44C578.652 39.6133 578.272 40.5 577.512 41.1C576.765 41.7 575.672 42 574.232 42H569.412C569.279 42 569.212 41.82 569.212 41.46C569.212 41.0733 569.279 40.88 569.412 40.88H573.852ZM576.692 40.38C577.265 39.98 577.552 39.3333 577.552 38.44V37.84C577.552 35.7067 576.672 34.64 574.912 34.64C574.445 34.64 574.019 34.7533 573.632 34.98C573.245 35.2067 572.939 35.5133 572.712 35.9C572.485 36.2733 572.372 36.68 572.372 37.12C572.372 37.64 572.492 38.0733 572.732 38.42C572.972 38.7533 573.392 39.0733 573.992 39.38C574.605 39.6733 575.505 40.0067 576.692 40.38ZM574.032 31.3V30.04H575.752V31.3H574.032ZM584.621 39.14C584.621 39.6733 584.787 40.1 585.121 40.42C585.467 40.7267 585.941 40.88 586.541 40.88H586.761C586.894 40.88 586.961 41.0733 586.961 41.46C586.961 41.82 586.894 42 586.761 42H586.541C586.127 42 585.741 41.92 585.381 41.76C585.021 41.6 584.767 41.3933 584.621 41.14V41.58C584.621 42.6867 584.401 43.64 583.961 44.44C583.521 45.2533 582.914 45.8733 582.141 46.3C581.367 46.7267 580.494 46.94 579.521 46.94H578.281L578.161 45.84H579.441C580.721 45.84 581.721 45.4533 582.441 44.68C583.174 43.92 583.541 42.8667 583.541 41.52V35.86H584.621V39.14ZM587.736 40.88C588.709 40.88 589.509 40.82 590.136 40.7C590.763 40.58 591.283 40.3933 591.696 40.14L588.676 35.8L589.356 34.6H594.556C595.249 34.6 595.823 34.76 596.276 35.08C596.729 35.4 596.956 35.8733 596.956 36.5C596.956 36.8333 596.869 37.16 596.696 37.48C596.536 37.8 596.236 38.18 595.796 38.62C595.356 39.06 594.709 39.6267 593.856 40.32C594.136 40.5333 594.489 40.68 594.916 40.76C595.343 40.84 596.023 40.88 596.956 40.88H598.716C598.849 40.88 598.916 41.0733 598.916 41.46C598.916 41.82 598.849 42 598.716 42H596.956C596.049 42 595.336 41.9667 594.816 41.9C594.296 41.8333 593.876 41.72 593.556 41.56C593.236 41.4 592.936 41.1733 592.656 40.88C592.003 41.2933 591.303 41.5867 590.556 41.76C589.809 41.92 588.856 42 587.696 42H586.756C586.623 42 586.556 41.82 586.556 41.46C586.556 41.0733 586.623 40.88 586.756 40.88H587.736ZM595.896 36.7C595.896 36.3667 595.763 36.1133 595.496 35.94C595.243 35.7533 594.876 35.66 594.396 35.66H589.836L592.836 39.98C594.063 38.9933 594.876 38.28 595.276 37.84C595.689 37.4 595.896 37.02 595.896 36.7ZM599.129 40.88C599.676 40.88 600.096 40.7533 600.389 40.5C600.682 40.2467 600.829 39.8733 600.829 39.38V38.42C600.829 37.14 601.142 36.1467 601.769 35.44C602.396 34.72 603.276 34.36 604.409 34.36C605.556 34.36 606.429 34.6933 607.029 35.36C607.642 36.0267 607.949 36.9933 607.949 38.26C607.949 39.4467 607.629 40.3667 606.989 41.02C606.362 41.6733 605.496 42 604.389 42C602.976 42 602.009 41.52 601.489 40.56C601.302 41.0667 601.022 41.4333 600.649 41.66C600.276 41.8867 599.769 42 599.129 42H598.709C598.576 42 598.509 41.82 598.509 41.46C598.509 41.0733 598.576 40.88 598.709 40.88H599.129ZM606.849 38.26C606.849 36.38 606.029 35.44 604.389 35.44C603.536 35.44 602.909 35.6867 602.509 36.18C602.109 36.66 601.909 37.4067 601.909 38.42C601.909 39.1667 602.129 39.7667 602.569 40.22C603.022 40.66 603.629 40.88 604.389 40.88C606.029 40.88 606.849 40.0067 606.849 38.26ZM623.807 45.84C624.634 45.84 625.354 45.6733 625.967 45.34C626.594 45.0067 627.074 44.5467 627.407 43.96C627.754 43.3867 627.941 42.7333 627.967 42H625.587C624.254 42 623.287 41.7333 622.687 41.2C622.101 40.6533 621.807 39.8067 621.807 38.66C621.807 37.86 621.961 37.1533 622.267 36.54C622.587 35.9133 623.021 35.4267 623.567 35.08C624.114 34.7333 624.741 34.56 625.447 34.56C626.567 34.56 627.447 34.94 628.087 35.7C628.727 36.4467 629.047 37.4667 629.047 38.76V40.88H631.167C631.301 40.88 631.367 41.0733 631.367 41.46C631.367 41.82 631.301 42 631.167 42H629.047C628.967 43 628.694 43.8667 628.227 44.6C627.774 45.3467 627.161 45.92 626.387 46.32C625.627 46.7333 624.761 46.94 623.787 46.94H621.487C619.847 46.94 618.581 46.46 617.687 45.5C616.807 44.5533 616.367 43.2133 616.367 41.48V37.86H617.467V41.46C617.467 42.8733 617.821 43.9533 618.527 44.7C619.234 45.46 620.241 45.84 621.547 45.84H623.807ZM622.887 38.56C622.887 39.4133 623.094 40.0133 623.507 40.36C623.921 40.7067 624.647 40.88 625.687 40.88H627.967V38.98C627.967 37.8867 627.747 37.06 627.307 36.5C626.867 35.9267 626.214 35.64 625.347 35.64C624.627 35.64 624.034 35.9067 623.567 36.44C623.114 36.9733 622.887 37.68 622.887 38.56ZM627.947 31.3V32.4H622.947V31.3H627.947ZM635.93 40.88C636.517 40.88 636.983 40.7267 637.33 40.42C637.677 40.1133 637.85 39.68 637.85 39.12V35.86H638.95V39.08C638.95 39.9867 638.67 40.7 638.11 41.22C637.55 41.74 636.823 42 635.93 42H631.17C631.037 42 630.97 41.82 630.97 41.46C630.97 41.0733 631.037 40.88 631.17 40.88H635.93ZM636.37 44.78V45.88H631.37V44.78H636.37ZM639.734 45.84C641.014 45.84 642.014 45.4533 642.734 44.68C643.467 43.92 643.834 42.8667 643.834 41.52V35.86H644.914V39.14C644.914 39.6733 645.08 40.1 645.414 40.42C645.76 40.7267 646.234 40.88 646.834 40.88H647.054C647.187 40.88 647.254 41.0733 647.254 41.46C647.254 41.82 647.187 42 647.054 42H646.834C646.42 42 646.034 41.92 645.674 41.76C645.314 41.6 645.06 41.3933 644.914 41.14V41.58C644.914 42.6867 644.694 43.64 644.254 44.44C643.814 45.2533 643.207 45.8733 642.434 46.3C641.66 46.7267 640.787 46.94 639.814 46.94H639.274L639.154 45.84H639.734ZM650.249 29.02V38.94C651.275 37.2067 652.242 35.9533 653.149 35.18C654.069 34.4067 654.995 34.02 655.929 34.02C656.609 34.02 657.229 34.1933 657.789 34.54C658.362 34.8867 658.809 35.3667 659.129 35.98C659.449 36.5933 659.609 37.2867 659.609 38.06C659.609 38.8333 659.442 39.52 659.109 40.12C658.789 40.7067 658.322 41.1667 657.709 41.5C657.095 41.8333 656.382 42 655.569 42H647.049C646.915 42 646.849 41.82 646.849 41.46C646.849 41.0733 646.915 40.88 647.049 40.88H649.169V29.02H650.249ZM655.569 40.88C656.502 40.88 657.222 40.6267 657.729 40.12C658.249 39.6133 658.509 38.9267 658.509 38.06C658.509 37.1933 658.255 36.4867 657.749 35.94C657.255 35.38 656.629 35.1 655.869 35.1C654.989 35.1 654.095 35.56 653.189 36.48C652.282 37.4 651.262 38.8667 650.129 40.88H655.569ZM671.828 41.52C671.828 42.64 671.608 43.6067 671.168 44.42C670.728 45.2467 670.121 45.8733 669.348 46.3C668.574 46.7267 667.701 46.94 666.728 46.94H666.188L666.068 45.84H666.648C667.928 45.84 668.928 45.4533 669.648 44.68C670.381 43.92 670.748 42.8667 670.748 41.52V35.86H671.828V41.52ZM670.248 33.3V32.04H671.968V33.3H670.248ZM675.552 29.02H676.652V42H675.552V29.02ZM687.694 38.94C688.734 37.2067 689.707 35.9533 690.614 35.18C691.534 34.4067 692.454 34.02 693.374 34.02C694.054 34.02 694.674 34.1933 695.234 34.54C695.807 34.8867 696.254 35.3667 696.574 35.98C696.894 36.5933 697.054 37.2867 697.054 38.06C697.054 38.9267 696.84 39.6533 696.414 40.24C696.627 40.48 696.9 40.6467 697.234 40.74C697.567 40.8333 698.02 40.88 698.594 40.88H699.034C699.167 40.88 699.234 41.0733 699.234 41.46C699.234 41.82 699.167 42 699.034 42H698.594C697.86 42 697.287 41.9333 696.874 41.8C696.474 41.6667 696.114 41.42 695.794 41.06C695.087 41.6867 694.167 42 693.034 42H684.874L684.754 40.88H686.614V29.02H687.694V38.94ZM693.034 40.88C693.954 40.88 694.674 40.6267 695.194 40.12C695.714 39.6133 695.974 38.9267 695.974 38.06C695.974 37.1933 695.72 36.4867 695.214 35.94C694.72 35.38 694.094 35.1 693.334 35.1C692.44 35.1 691.54 35.56 690.634 36.48C689.74 37.3867 688.727 38.8533 687.594 40.88H693.034ZM702.941 40.88C702.328 40.52 701.848 40.06 701.501 39.5C701.154 38.9267 700.981 38.3133 700.981 37.66C700.981 36.9933 701.141 36.38 701.461 35.82C701.794 35.26 702.241 34.82 702.801 34.5C703.374 34.18 704.001 34.02 704.681 34.02C705.374 34.02 705.994 34.1733 706.541 34.48C707.101 34.7733 707.534 35.1933 707.841 35.74C708.161 36.2733 708.321 36.88 708.321 37.56C708.321 38.2667 708.148 38.8933 707.801 39.44C707.468 39.9867 706.954 40.4667 706.261 40.88H710.261C710.394 40.88 710.461 41.0733 710.461 41.46C710.461 41.82 710.394 42 710.261 42H707.641C706.788 42 706.154 41.9867 705.741 41.96C705.341 41.92 705.014 41.8467 704.761 41.74C704.508 41.8333 704.154 41.9 703.701 41.94C703.248 41.98 702.594 42 701.741 42H699.041C698.908 42 698.841 41.82 698.841 41.46C698.841 41.0733 698.908 40.88 699.041 40.88H702.941ZM704.681 35.12C703.934 35.12 703.308 35.36 702.801 35.84C702.308 36.32 702.061 36.9267 702.061 37.66C702.061 38.3267 702.281 38.9333 702.721 39.48C703.174 40.0133 703.828 40.46 704.681 40.82C705.534 40.4333 706.174 39.9733 706.601 39.44C707.028 38.8933 707.241 38.3 707.241 37.66C707.241 36.9 707.008 36.2867 706.541 35.82C706.088 35.3533 705.468 35.12 704.681 35.12ZM707.181 30.4V31.5H702.181V30.4H707.181ZM714.692 40.88C715.225 40.88 715.652 40.8333 715.972 40.74C714.945 40.42 714.159 40.1067 713.612 39.8C713.065 39.48 712.679 39.12 712.452 38.72C712.225 38.32 712.112 37.8133 712.112 37.2C712.112 36.5333 712.272 35.9267 712.592 35.38C712.912 34.82 713.352 34.38 713.912 34.06C714.485 33.7267 715.125 33.56 715.832 33.56C716.992 33.56 717.892 33.92 718.532 34.64C719.172 35.36 719.492 36.3933 719.492 37.74V38.44C719.492 39.6133 719.112 40.5 718.352 41.1C717.605 41.7 716.512 42 715.072 42H710.252C710.119 42 710.052 41.82 710.052 41.46C710.052 41.0733 710.119 40.88 710.252 40.88H714.692ZM717.532 40.38C718.105 39.98 718.392 39.3333 718.392 38.44V37.84C718.392 35.7067 717.512 34.64 715.752 34.64C715.285 34.64 714.859 34.7533 714.472 34.98C714.085 35.2067 713.779 35.5133 713.552 35.9C713.325 36.2733 713.212 36.68 713.212 37.12C713.212 37.64 713.332 38.0733 713.572 38.42C713.812 38.7533 714.232 39.0733 714.832 39.38C715.445 39.6733 716.345 40.0067 717.532 40.38ZM714.872 31.3V30.04H716.592V31.3H714.872ZM731.71 41.52C731.71 42.64 731.49 43.6067 731.05 44.42C730.61 45.2467 730.004 45.8733 729.23 46.3C728.457 46.7267 727.584 46.94 726.61 46.94H726.07L725.95 45.84H726.53C727.81 45.84 728.81 45.4533 729.53 44.68C730.264 43.92 730.63 42.8667 730.63 41.52V35.86H731.71V41.52ZM730.13 33.3V32.04H731.85V33.3H730.13ZM738.715 40.88C738.848 40.88 738.915 41.0733 738.915 41.46C738.915 41.82 738.848 42 738.715 42H738.315C737.368 42 736.648 41.7133 736.155 41.14C735.675 40.5533 735.435 39.7267 735.435 38.66V29.02H736.535V38.62C736.535 40.1267 737.141 40.88 738.355 40.88H738.715ZM741.109 40.88C741.749 40.88 742.256 40.7267 742.629 40.42C743.002 40.1 743.189 39.6667 743.189 39.12V35.86H744.269V39.1C744.269 39.6733 744.436 40.1133 744.769 40.42C745.102 40.7267 745.582 40.88 746.209 40.88H746.569C746.702 40.88 746.769 41.0667 746.769 41.44C746.769 41.8133 746.702 42 746.569 42H746.169C745.542 42 745.016 41.8933 744.589 41.68C744.162 41.4533 743.862 41.12 743.689 40.68C743.462 41.1067 743.122 41.4333 742.669 41.66C742.229 41.8867 741.709 42 741.109 42H738.709C738.576 42 738.509 41.82 738.509 41.46C738.509 41.0733 738.576 40.88 738.709 40.88H741.109ZM742.749 44.78V45.88H737.749V44.78H742.749ZM748.961 40.88C749.601 40.88 750.107 40.7267 750.481 40.42C750.854 40.1 751.041 39.6667 751.041 39.12V35.86H752.121V39.1C752.121 39.6733 752.287 40.1133 752.621 40.42C752.954 40.7267 753.434 40.88 754.061 40.88H754.421C754.554 40.88 754.621 41.0667 754.621 41.44C754.621 41.8133 754.554 42 754.421 42H754.021C753.394 42 752.867 41.8933 752.441 41.68C752.014 41.4533 751.714 41.12 751.541 40.68C751.314 41.1067 750.974 41.4333 750.521 41.66C750.081 41.8867 749.561 42 748.961 42H746.561C746.427 42 746.361 41.82 746.361 41.46C746.361 41.0733 746.427 40.88 746.561 40.88H748.961ZM752.801 32.2V33.3H747.801V32.2H752.801ZM754.832 40.88C755.379 40.88 755.799 40.7533 756.092 40.5C756.385 40.2467 756.532 39.8733 756.532 39.38V38.42C756.532 37.14 756.845 36.1467 757.472 35.44C758.099 34.72 758.979 34.36 760.112 34.36C761.259 34.36 762.132 34.6933 762.732 35.36C763.345 36.0267 763.652 36.9933 763.652 38.26C763.652 39.4467 763.332 40.3667 762.692 41.02C762.065 41.6733 761.199 42 760.092 42C758.679 42 757.712 41.52 757.192 40.56C757.005 41.0667 756.725 41.4333 756.352 41.66C755.979 41.8867 755.472 42 754.832 42H754.412C754.279 42 754.212 41.82 754.212 41.46C754.212 41.0733 754.279 40.88 754.412 40.88H754.832ZM762.552 38.26C762.552 36.38 761.732 35.44 760.092 35.44C759.239 35.44 758.612 35.6867 758.212 36.18C757.812 36.66 757.612 37.4067 757.612 38.42C757.612 39.1667 757.832 39.7667 758.272 40.22C758.725 40.66 759.332 40.88 760.092 40.88C761.732 40.88 762.552 40.0067 762.552 38.26ZM767.368 29.02H768.468V42H767.368V29.02ZM787.85 40.88C788.49 40.88 788.997 40.7267 789.37 40.42C789.743 40.1 789.93 39.6733 789.93 39.14V35.86H791.03V39.1C791.03 39.6733 791.19 40.1133 791.51 40.42C791.843 40.7267 792.323 40.88 792.95 40.88H793.31C793.443 40.88 793.51 41.0733 793.51 41.46C793.51 41.82 793.443 42 793.31 42H792.93C791.637 42 790.81 41.56 790.45 40.68C790.21 41.12 789.863 41.4533 789.41 41.68C788.97 41.8933 788.45 42 787.85 42H780.51C779.363 42 778.503 41.7 777.93 41.1C777.37 40.4867 777.09 39.68 777.09 38.68V35.86H778.19V38.52C778.19 40.0933 778.997 40.88 780.61 40.88H787.85ZM786.53 32.84V33.94H781.53V32.84H786.53ZM797.758 40.88C798.292 40.88 798.718 40.8333 799.038 40.74C798.012 40.42 797.225 40.1067 796.678 39.8C796.132 39.48 795.745 39.12 795.518 38.72C795.292 38.32 795.178 37.8133 795.178 37.2C795.178 36.5333 795.338 35.9267 795.658 35.38C795.978 34.82 796.418 34.38 796.978 34.06C797.552 33.7267 798.192 33.56 798.898 33.56C800.058 33.56 800.958 33.92 801.598 34.64C802.238 35.36 802.558 36.3933 802.558 37.74V38.44C802.558 39.6133 802.178 40.5 801.418 41.1C800.672 41.7 799.578 42 798.138 42H793.318C793.185 42 793.118 41.82 793.118 41.46C793.118 41.0733 793.185 40.88 793.318 40.88H797.758ZM800.598 40.38C801.172 39.98 801.458 39.3333 801.458 38.44V37.84C801.458 35.7067 800.578 34.64 798.818 34.64C798.352 34.64 797.925 34.7533 797.538 34.98C797.152 35.2067 796.845 35.5133 796.618 35.9C796.392 36.2733 796.278 36.68 796.278 37.12C796.278 37.64 796.398 38.0733 796.638 38.42C796.878 38.7533 797.298 39.0733 797.898 39.38C798.512 39.6733 799.412 40.0067 800.598 40.38ZM797.938 31.3V30.04H799.658V31.3H797.938ZM809.554 40.88C809.688 40.88 809.754 41.0733 809.754 41.46C809.754 41.82 809.688 42 809.554 42H809.154C808.208 42 807.488 41.7133 806.994 41.14C806.514 40.5533 806.274 39.7267 806.274 38.66V29.02H807.374V38.62C807.374 40.1267 807.981 40.88 809.194 40.88H809.554ZM814.309 40.88C814.895 40.88 815.362 40.7267 815.709 40.42C816.055 40.1133 816.229 39.68 816.229 39.12V35.86H817.329V39.08C817.329 39.9867 817.049 40.7 816.489 41.22C815.929 41.74 815.202 42 814.309 42H809.549C809.415 42 809.349 41.82 809.349 41.46C809.349 41.0733 809.415 40.88 809.549 40.88H814.309ZM814.749 44.78V45.88H809.749V44.78H814.749ZM823.292 41.52C823.292 42.64 823.072 43.6067 822.632 44.42C822.192 45.2467 821.586 45.8733 820.812 46.3C820.039 46.7267 819.166 46.94 818.192 46.94H817.652L817.532 45.84H818.112C819.392 45.84 820.392 45.4533 821.112 44.68C821.846 43.92 822.212 42.8667 822.212 41.52V35.86H823.292V41.52ZM834.477 36.74C835.237 37.6067 835.617 38.44 835.617 39.24C835.617 40.08 835.33 40.7533 834.757 41.26C834.197 41.7533 833.397 42 832.357 42H826.417L826.297 40.88H832.357C833.037 40.88 833.57 40.7333 833.957 40.44C834.343 40.1467 834.537 39.76 834.537 39.28C834.537 38.7333 834.23 38.1067 833.617 37.4L829.677 32.96L830.457 32.18L834.477 36.74ZM842.663 45.84C843.943 45.84 844.943 45.4533 845.663 44.68C846.397 43.92 846.763 42.8667 846.763 41.52V35.86H847.843V39.14C847.843 39.6733 848.01 40.1 848.343 40.42C848.69 40.7267 849.163 40.88 849.763 40.88H849.983C850.117 40.88 850.183 41.0733 850.183 41.46C850.183 41.82 850.117 42 849.983 42H849.763C849.35 42 848.963 41.92 848.603 41.76C848.243 41.6 847.99 41.3933 847.843 41.14V41.58C847.843 42.6867 847.623 43.64 847.183 44.44C846.743 45.2533 846.137 45.8733 845.363 46.3C844.59 46.7267 843.717 46.94 842.743 46.94H842.203L842.083 45.84H842.663ZM850.619 40.88C851.285 40.88 851.812 40.72 852.199 40.4C852.585 40.0667 852.779 39.6267 852.779 39.08V35.86H853.859V39.04C853.859 39.4933 853.959 39.8667 854.159 40.16C854.359 40.44 854.639 40.6333 854.999 40.74C856.319 38.34 857.519 36.62 858.599 35.58C859.679 34.54 860.772 34.02 861.879 34.02C862.559 34.02 863.179 34.1933 863.739 34.54C864.312 34.8867 864.759 35.3667 865.079 35.98C865.399 36.5933 865.559 37.2867 865.559 38.06C865.559 38.8333 865.392 39.52 865.059 40.12C864.739 40.7067 864.272 41.1667 863.659 41.5C863.045 41.8333 862.332 42 861.519 42H855.979C854.552 42 853.645 41.56 853.259 40.68C853.019 41.12 852.672 41.4533 852.219 41.68C851.765 41.8933 851.232 42 850.619 42H849.979C849.845 42 849.779 41.82 849.779 41.46C849.779 41.0733 849.845 40.88 849.979 40.88H850.619ZM861.519 40.88C862.452 40.88 863.179 40.6267 863.699 40.12C864.219 39.6133 864.479 38.9267 864.479 38.06C864.479 37.1933 864.225 36.4867 863.719 35.94C863.225 35.38 862.592 35.1 861.819 35.1C860.939 35.1 860.045 35.56 859.139 36.48C858.245 37.3867 857.225 38.8533 856.079 40.88H861.519ZM860.919 31.68V30.42H862.639V31.68H860.919ZM872.562 40.88C872.696 40.88 872.762 41.0733 872.762 41.46C872.762 41.82 872.696 42 872.562 42H872.162C871.216 42 870.496 41.7133 870.002 41.14C869.522 40.5533 869.282 39.7267 869.282 38.66V29.02H870.382V38.62C870.382 40.1267 870.989 40.88 872.202 40.88H872.562ZM873.897 40.88C874.91 40.88 875.743 40.7933 876.397 40.62C877.063 40.4467 877.757 40.1533 878.477 39.74L882.257 37.52C882.003 36.64 881.65 36.0333 881.197 35.7C880.757 35.3533 880.117 35.18 879.277 35.18H874.517L874.677 34.06H879.457C880.23 34.06 880.87 34.1867 881.377 34.44C881.883 34.68 882.303 35.08 882.637 35.64C882.983 36.1867 883.283 36.9333 883.537 37.88L878.997 40.64C878.21 41.1333 877.443 41.4867 876.697 41.7C875.963 41.9 875.023 42 873.877 42H872.557C872.423 42 872.357 41.82 872.357 41.46C872.357 41.0733 872.423 40.88 872.557 40.88H873.897ZM896.487 46.94C894.847 46.94 893.581 46.46 892.687 45.5C891.807 44.5533 891.367 43.2133 891.367 41.48V37.86H892.467V41.46C892.467 42.8733 892.821 43.9533 893.527 44.7C894.234 45.46 895.241 45.84 896.547 45.84H897.427C898.254 45.84 898.987 45.66 899.627 45.3C900.267 44.9533 900.761 44.46 901.107 43.82C901.467 43.18 901.647 42.44 901.647 41.6V29.02H902.727V41.46C902.727 42.5533 902.501 43.5133 902.047 44.34C901.594 45.1667 900.967 45.8067 900.167 46.26C899.367 46.7133 898.454 46.94 897.427 46.94H896.487ZM909.945 40.88C910.078 40.88 910.145 41.0733 910.145 41.46C910.145 41.82 910.078 42 909.945 42H909.545C908.598 42 907.878 41.7133 907.385 41.14C906.905 40.5533 906.665 39.7267 906.665 38.66V29.02H907.765V38.62C907.765 40.1267 908.372 40.88 909.585 40.88H909.945ZM911.279 40.88C912.293 40.88 913.126 40.7933 913.779 40.62C914.446 40.4467 915.139 40.1533 915.859 39.74L919.639 37.52C919.386 36.64 919.033 36.0333 918.579 35.7C918.139 35.3533 917.499 35.18 916.659 35.18H911.899L912.059 34.06H916.839C917.613 34.06 918.253 34.1867 918.759 34.44C919.266 34.68 919.686 35.08 920.019 35.64C920.366 36.1867 920.666 36.9333 920.919 37.88L916.379 40.64C915.593 41.1333 914.826 41.4867 914.079 41.7C913.346 41.9 912.406 42 911.259 42H909.939C909.806 42 909.739 41.82 909.739 41.46C909.739 41.0733 909.806 40.88 909.939 40.88H911.279ZM932.55 41.52C932.55 42.64 932.33 43.6067 931.89 44.42C931.45 45.2467 930.844 45.8733 930.07 46.3C929.297 46.7267 928.424 46.94 927.45 46.94H926.91L926.79 45.84H927.37C928.65 45.84 929.65 45.4533 930.37 44.68C931.104 43.92 931.47 42.8667 931.47 41.52V35.86H932.55V41.52ZM943.734 36.74C944.494 37.6067 944.874 38.44 944.874 39.24C944.874 40.08 944.588 40.7533 944.014 41.26C943.454 41.7533 942.654 42 941.614 42H935.674L935.554 40.88H941.614C942.294 40.88 942.828 40.7333 943.214 40.44C943.601 40.1467 943.794 39.76 943.794 39.28C943.794 38.7333 943.488 38.1067 942.874 37.4L938.934 32.96L939.714 32.18L943.734 36.74Z"
        fill="white"/>
    <path
        d="M949.852 11.04C950.284 11.04 950.626 11.184 950.878 11.472C951.166 11.76 951.31 12.228 951.31 12.876C951.31 13.452 951.238 14.154 951.094 14.982C950.95 15.81 950.842 16.386 950.77 16.71C950.41 18.438 950.104 20.364 949.852 22.488C949.636 20.436 949.33 18.51 948.934 16.71C948.61 14.838 948.448 13.56 948.448 12.876C948.448 12.264 948.574 11.814 948.826 11.526C949.114 11.202 949.456 11.04 949.852 11.04ZM939.916 16.764C940.168 16.296 940.564 16.062 941.104 16.062C941.464 16.062 941.842 16.188 942.238 16.44C942.922 16.836 943.948 17.628 945.316 18.816C946.468 19.86 947.98 21.084 949.852 22.488C948.34 21.804 946.504 21.102 944.344 20.382C944.128 20.31 943.606 20.13 942.778 19.842C941.986 19.518 941.338 19.212 940.834 18.924C940.114 18.528 939.754 18.042 939.754 17.466C939.754 17.214 939.808 16.98 939.916 16.764ZM959.788 16.764C959.896 16.98 959.95 17.214 959.95 17.466C959.95 18.042 959.608 18.528 958.924 18.924C958.096 19.392 956.89 19.878 955.306 20.382C953.47 20.994 951.652 21.696 949.852 22.488C951.184 21.48 952.696 20.256 954.388 18.816C954.604 18.636 955.036 18.276 955.684 17.736C956.368 17.16 956.962 16.728 957.466 16.44C957.862 16.188 958.24 16.062 958.6 16.062C959.14 16.062 959.536 16.296 959.788 16.764ZM939.916 28.212C939.808 27.996 939.754 27.762 939.754 27.51C939.754 26.934 940.114 26.448 940.834 26.052C941.626 25.584 942.814 25.098 944.398 24.594C946.234 23.982 948.052 23.28 949.852 22.488C948.52 23.496 947.008 24.72 945.316 26.16C945.1 26.34 944.65 26.718 943.966 27.294C943.318 27.834 942.742 28.248 942.238 28.536C941.842 28.788 941.464 28.914 941.104 28.914C940.564 28.914 940.168 28.68 939.916 28.212ZM949.852 33.936C949.456 33.936 949.114 33.792 948.826 33.504C948.574 33.18 948.448 32.712 948.448 32.1C948.448 31.416 948.61 30.138 948.934 28.266C949.294 26.538 949.6 24.612 949.852 22.488C950.068 24.54 950.374 26.466 950.77 28.266C950.842 28.59 950.95 29.166 951.094 29.994C951.238 30.822 951.31 31.524 951.31 32.1C951.31 32.748 951.166 33.216 950.878 33.504C950.626 33.792 950.284 33.936 949.852 33.936ZM958.924 26.052C959.608 26.448 959.95 26.934 959.95 27.51C959.95 27.762 959.896 27.996 959.788 28.212C959.536 28.68 959.14 28.914 958.6 28.914C958.24 28.914 957.862 28.788 957.466 28.536C956.782 28.14 955.756 27.348 954.388 26.16C953.236 25.116 951.724 23.892 949.852 22.488C951.364 23.172 953.2 23.874 955.36 24.594C955.612 24.666 956.134 24.864 956.926 25.188C957.718 25.476 958.384 25.764 958.924 26.052Z"
        fill="url(#paint0_linear_3003_38974)"/>
    <defs>
        <linearGradient id="paint0_linear_3003_38974" x1="961.742" y1="10.9688" x2="940.646" y2="32.358"
                        gradientUnits="userSpaceOnUse">
            <stop stop-color="#F8B806"/>
            <stop offset="1" stop-color="#1C1C1C"/>
        </linearGradient>
    </defs>
</svg>
