<svg xmlns="http://www.w3.org/2000/svg" width="1055" height="963" viewBox="0 0 1055 963" fill="none">
    <path fill-rule="evenodd" clip-rule="evenodd"
          d="M5.64967 196.843C1.96452 199.264 -0.108541 203.496 0.255984 207.891C0.423126 209.877 1.09379 211.815 2.19441 213.49L7.40606 221.402C6.28116 223.486 5.75183 225.884 5.95051 228.304C6.13995 230.527 6.92785 232.659 8.24064 234.484L13.2241 241.401C11.9897 243.586 11.4165 246.12 11.629 248.711L11.6281 248.704C11.8332 251.172 12.7478 253.512 14.2785 255.472L18.9921 261.499C17.6785 263.779 17.0615 266.435 17.2848 269.122L17.2772 269.123C17.5056 271.835 18.5536 274.374 20.3173 276.467L24.6867 281.647C23.3188 283.997 22.6916 286.727 22.9243 289.526C23.1702 292.499 24.3593 295.236 26.3627 297.453L30.3494 301.86C28.9554 304.279 28.3131 307.081 28.5496 309.941C28.814 313.12 30.1775 316.136 32.4005 318.441L35.96 322.127C34.5603 324.601 33.9158 327.46 34.1588 330.349C34.4398 333.781 35.9604 337.001 38.4374 339.42L41.5383 342.442C40.1569 344.959 39.5229 347.857 39.7612 350.766C40.0684 354.465 41.7452 357.882 44.4818 360.399L47.0785 362.788C45.7157 365.336 45.1124 368.222 45.3552 371.177L45.3542 371.169C45.6799 375.136 47.5149 378.764 50.5186 381.379L52.5908 383.185C51.2725 385.754 50.6927 388.643 50.934 391.589C51.2859 395.823 53.2847 399.646 56.5556 402.359L58.0774 403.619C56.817 406.203 56.2667 409.084 56.505 412.003C56.8753 416.442 59.0913 420.578 62.5923 423.339L63.5456 424.091C62.3473 426.675 61.8288 429.538 62.0686 432.417C62.4584 437.132 64.8544 441.469 68.6282 444.311L69.0035 444.594C67.8736 447.173 67.3901 450.007 67.6256 452.84L67.6332 452.839C68.0342 457.732 70.5181 462.198 74.4476 465.131C73.395 467.688 72.9507 470.476 73.1815 473.255C73.5891 478.176 76.0153 482.643 79.8838 485.656C78.8916 488.187 78.4908 490.903 78.7222 493.673C79.1368 498.627 81.5101 503.104 85.3241 506.197C84.4016 508.703 84.0365 511.374 84.2631 514.09L84.2546 514.083C84.6701 519.078 87.0049 523.568 90.7618 526.734C89.8998 529.212 89.5662 531.843 89.7887 534.509L89.7963 534.508C90.2018 539.453 92.5444 544.032 96.2168 547.267C95.4151 549.721 95.1087 552.313 95.3218 554.927L95.3142 554.928C95.7318 559.902 98.0342 564.501 101.663 567.808C100.913 570.233 100.633 572.781 100.847 575.347C101.26 580.36 103.527 584.968 107.113 588.337C106.411 590.736 106.155 593.247 106.365 595.767L106.358 595.768C106.777 600.816 109.016 605.449 112.563 608.881C111.911 611.248 111.677 613.716 111.883 616.187C112.304 621.27 114.506 625.924 118.011 629.416C117.402 631.754 117.189 634.186 117.387 636.617L117.386 636.609C118.007 644.059 122.331 650.569 128.956 654.029L715.347 960.45C720.483 963.134 726.366 963.67 731.907 961.94C737.45 960.217 741.983 956.445 744.675 951.315L1052.16 366.334C1054.07 362.686 1054.9 358.595 1054.57 354.506C1053.96 347.062 1049.63 340.545 1043.01 337.085L456.616 30.6642C453.659 29.1184 450.454 28.2878 447.209 28.1902C445.066 27.4103 442.829 26.9872 440.573 26.9275C438.407 26.1327 436.166 25.7231 433.937 25.6737C431.798 24.8706 429.553 24.4426 427.286 24.3999C425.159 23.5914 422.923 23.163 420.662 23.1281C418.519 22.3038 416.284 21.8895 414.063 21.8608C411.924 21.0154 409.658 20.5773 407.361 20.566C405.269 19.7324 403.047 19.3012 400.792 19.2918C398.676 18.4278 396.417 17.9879 394.123 17.9945C392.032 17.1311 389.794 16.6941 387.514 16.7079C385.389 15.8131 383.132 15.3866 380.89 15.4085C378.773 14.4985 376.515 14.0679 374.272 14.0989C372.195 13.1838 369.939 12.7302 367.628 12.7776C365.533 11.843 363.279 11.4076 361.039 11.4592C358.983 10.5097 356.722 10.0426 354.394 10.1128C352.454 9.20306 350.318 8.73676 348.112 8.76381C347.995 8.76524 347.878 8.76804 347.762 8.77221C345.691 7.78488 343.421 7.3337 341.168 7.4227C339.101 6.41026 336.821 5.9491 334.556 6.05114C332.5 5.01822 330.215 4.54897 327.944 4.66463C325.904 3.61522 323.618 3.13865 321.346 3.26667C319.321 2.19801 317.033 1.71119 314.758 1.85006C310.975 -0.201916 306.206 -0.16605 302.362 2.35252L5.64967 196.843ZM311.601 2.46005C308.869 1.74516 305.854 2.1428 303.311 3.80742L6.61399 198.296C3.45555 200.365 1.68352 203.987 1.9984 207.747C2.1365 209.443 2.70971 211.1 3.65594 212.533L8.43944 219.795C9.17526 218.824 10.0582 217.955 11.0705 217.229L308.297 4.14781C309.334 3.4043 310.448 2.84381 311.601 2.46005ZM9.45461 221.336C10.1509 220.308 11.0367 219.393 12.0908 218.636L309.301 5.5494C310.843 4.44686 312.581 3.81288 314.345 3.6198C314.909 3.96138 315.443 4.35949 315.939 4.81221C315.349 5.13555 314.778 5.50973 314.23 5.9355L18.9304 235.722L9.45461 221.336ZM8.50534 223.071C7.83107 224.639 7.53927 226.375 7.68533 228.161C7.84282 230.071 8.52375 231.908 9.64983 233.479L14.2488 239.862C14.8931 239.033 15.6461 238.277 16.4991 237.614L17.5481 236.798L8.50534 223.071ZM18.5037 238.248L17.5677 238.977C16.6899 239.659 15.9337 240.457 15.3128 241.339L25.286 255.181L28.1015 252.818L18.5037 238.248ZM29.0584 254.271L26.2987 256.586L36.2386 270.382L38.3939 268.442L29.0584 254.271ZM39.7051 267.262L30.4041 253.142L319.883 10.2282L321.901 13.2932L39.7051 267.262ZM39.3588 269.907L37.2583 271.798L46.9063 285.188L48.4489 283.706L39.3588 269.907ZM49.7275 282.478L40.67 268.727L322.869 14.7615L325.027 18.0387L49.7275 282.478ZM49.4201 285.181L47.9313 286.611L57.3157 299.636L58.2882 298.643L49.4201 285.181ZM59.5357 297.369L50.6986 283.953L325.998 19.513L328.289 22.9912L59.5357 297.369ZM59.264 300.124L58.3442 301.063L67.4833 313.747L67.9242 313.271L59.264 300.124ZM69.1422 311.954L60.5114 298.85L329.265 24.4725L331.673 28.1274L69.1422 311.954ZM68.907 314.762L68.5179 315.183L76.291 325.972L68.907 314.762ZM78.5646 326.259L70.125 313.446L332.658 29.6231L335.173 33.4422L78.5646 326.259ZM87.8114 340.297L79.552 327.758L336.158 34.937L338.781 38.9189L87.8114 340.297ZM96.8933 354.085L88.8056 341.806L339.78 40.4361L342.484 44.5413L96.8933 354.085ZM100.583 359.687L97.9006 355.615L343.494 46.0743L346.287 50.314L106.084 367.322L100.583 359.687ZM128.342 401.83L126.216 398.602L129.621 402.956L131.55 405.634L128.342 401.83ZM127.008 402.962L130.792 408.706L130.181 409.62L121.407 399.921L122.78 397.949L127.008 402.962ZM114.561 384.067L118.846 390.571L114.006 384.833L114.561 384.067ZM113.028 381.739L113.539 382.515L112.851 383.463L103.993 372.961L105.06 371.551L113.028 381.739ZM99.0839 360.572L101.257 363.871L96.3391 357.583L96.6488 357.192L99.0839 360.572ZM131.827 410.277L134.645 414.555L131.38 410.946L131.827 410.277ZM140.264 419.931L136.5 414.216L140.721 419.22L140.264 419.931ZM142.29 423.007L141.309 421.517L141.893 420.61L144.958 424.244L149.679 430.796L149.54 431.021L142.29 423.007ZM140.939 424.11L140.181 423.272L138.524 425.849L147.186 434.819L147.577 434.187L140.939 424.11ZM148.631 435.786L148.431 436.109L149.729 437.453L148.631 435.786ZM156.263 444.22L149.637 434.161L149.798 433.903L158.023 442.994L156.897 444.877L156.263 444.22ZM154.92 445.333L155.813 446.689L154.048 449.639L145.318 441.132L147.486 437.633L154.92 445.333ZM156.878 448.305L163.957 459.051L163.867 459.206L155.332 450.889L156.878 448.305ZM164.927 457.373L161.452 452.099L165.533 456.325L164.927 457.373ZM170.194 465.371L165.996 458.997L166.789 457.626L174.927 466.054L173.505 468.596L170.194 465.371ZM168.862 466.498L172.007 471.272L170.49 473.985L161.901 466.082L164.255 462.009L168.862 466.498ZM173.083 472.905L178.878 481.703L171.803 475.193L173.083 472.905ZM180.907 481.635L174.654 472.141L182.114 479.409L180.907 481.635ZM184.142 486.545L181.99 483.279L183.405 480.668L190.803 487.876L191.36 488.649L189.752 491.708L184.142 486.545ZM182.813 487.677L180.673 485.708L178.164 490.338L186.605 497.696L187.851 495.324L182.813 487.677ZM188.771 493.574L188.076 492.519L188.919 493.294L188.771 493.574ZM188.945 496.985L187.954 498.871L193.2 503.445L188.945 496.985ZM198.066 507.686L189.865 495.235L190.245 494.514L206.089 509.092L208.815 512.876C206.967 513.177 205.075 512.968 203.35 512.292L198.066 507.686ZM196.765 508.855L197.076 509.327C198.426 511.381 200.304 512.885 202.415 513.78L221.372 530.304L221.751 530.83C223.022 532.594 224.676 533.925 226.518 534.79L246.012 551.782L246.441 552.331C247.605 553.821 249.038 554.981 250.619 555.798L270.619 573.231L271.114 573.818C272.154 575.051 273.374 576.045 274.705 576.792L295.295 594.739L295.811 595.311C296.698 596.292 297.698 597.114 298.774 597.772L319.81 616.109L320.477 616.799C321.217 617.564 322.024 618.227 322.881 618.785L344.515 637.643L345.173 638.284C345.718 638.814 346.294 639.291 346.895 639.717L366.568 656.866L184.271 505.879L187.124 500.452L196.765 508.855ZM206.111 514.698C207.378 514.807 208.667 514.718 209.928 514.42L216.91 524.111L206.111 514.698ZM213.089 513.179L222.833 522.144L214.912 512.015L213.76 512.77C213.539 512.914 213.316 513.051 213.089 513.179ZM216.797 510.779L223.236 517.053L217.536 510.295L216.797 510.779ZM216.376 508.982L215.526 509.54L214.08 508.132L207.797 500.098L216.376 508.982ZM219.868 508.766L238.869 529.771L239.941 530.882L535.258 319.166C538.329 316.961 539.971 313.409 539.663 309.641L539.655 309.642C539.498 307.731 538.817 305.895 537.692 304.331L394.605 105.727L390.289 113.938L513.929 301.64C515.03 303.315 515.7 305.253 515.866 307.232C516.231 311.626 514.166 315.865 510.465 318.281L219.868 508.766ZM389.36 115.706L512.459 302.591C513.405 304.023 513.986 305.679 514.124 307.376L514.133 307.382C514.44 311.143 512.668 314.765 509.51 316.842L218.691 507.465L200.137 486.955L196.491 482.631L389.36 115.706ZM389.193 112.274L393.466 104.145L390.043 99.3949L385.83 107.169L389.193 112.274ZM384.885 108.913L388.264 114.042L195.279 481.194L187.876 472.417L384.885 108.913ZM384.748 105.525L388.917 97.8319L385.537 93.1399L381.428 100.485L384.748 105.525ZM380.466 102.204L383.802 107.269L186.675 470.993L179.146 462.067L380.466 102.204ZM380.352 98.8523L384.417 91.5858L381.084 86.9587L377.08 93.8843L380.352 98.8523ZM376.101 95.577L379.39 100.571L177.95 460.649L170.292 451.568L376.101 95.577ZM376.007 92.2553L379.966 85.4071L376.678 80.8443L372.781 87.3591L376.007 92.2553ZM371.785 89.0248L375.028 93.948L169.1 450.155L164.126 444.258L161.391 440.76L371.785 89.0248ZM371.721 85.7485L375.572 79.3093L372.335 74.816L368.546 80.9297L371.721 85.7485ZM367.532 82.5672L370.724 87.4142L160.239 439.288L152.552 429.459L367.532 82.5672ZM367.493 79.33L371.236 73.2901L368.06 68.8825L364.38 74.6053L367.493 79.33ZM363.346 76.2134L366.478 80.9675L151.411 428L143.58 417.986L363.346 76.2134ZM363.331 73.0116L366.964 67.3608L363.844 63.0296L360.274 68.3716L363.331 73.0116ZM359.22 69.9492L362.297 74.6197L142.446 416.537L134.464 406.331L359.22 69.9492ZM359.237 66.7964L362.759 61.5245L359.698 57.2758L356.24 62.2477L359.237 66.7964ZM355.165 63.7934L358.183 68.374L133.339 404.893L130.986 401.883L125.418 394.155L355.165 63.7934ZM355.215 60.6908L358.625 55.7868L355.635 51.6362L352.289 56.2496L355.215 60.6908ZM351.193 57.7621L354.14 62.2365L124.342 392.663L116.361 381.585L351.193 57.7621ZM351.27 54.7013L354.567 50.1541L351.651 46.1059L348.418 50.3723L351.27 54.7013ZM347.298 51.85L350.173 56.2137L115.29 380.099L107.147 368.797L347.298 51.85ZM347.406 48.8364L350.59 44.6342L347.757 40.7014L344.638 44.633L347.406 48.8364ZM343.628 43.1L346.697 39.2309L343.955 35.4237L340.949 39.0329L343.628 43.1ZM339.949 37.5157L342.905 33.9667L340.244 30.2739L337.353 33.5737L339.949 37.5157ZM336.368 32.0789L339.209 28.8371L336.659 25.2975L333.88 28.3017L336.368 32.0789ZM332.895 26.806L335.622 23.8579L333.183 20.4727L330.516 23.1951L332.895 26.806ZM329.541 21.7138L332.154 19.0452L329.836 15.827L327.28 18.282L329.541 21.7138ZM326.309 16.8077L328.811 14.4044L326.63 11.3767L324.182 13.5792L326.309 16.8077ZM323.215 12.1109L325.607 9.95788L324.181 7.97793C324.052 7.79836 323.918 7.62402 323.779 7.45495C322.902 7.86618 322.065 8.39638 321.29 9.0475L321.23 9.09743L323.215 12.1109ZM320.268 7.63674C320.976 7.05482 321.727 6.55917 322.509 6.14863C322.021 5.7267 321.5 5.35459 320.954 5.03354C320.237 5.1056 319.525 5.2479 318.827 5.46181C318.904 5.57102 318.98 5.68188 319.054 5.7944L320.268 7.63674ZM317.151 6.13131C316.508 6.45196 315.887 6.84044 315.299 7.29801L19.8859 237.173L29.4473 251.689L318.92 8.767L317.593 6.75209C317.452 6.53816 317.305 6.33121 317.151 6.13131ZM317.643 4.03566C317.797 3.97849 317.953 3.92445 318.109 3.87355C317.845 3.80805 317.579 3.75258 317.311 3.70724C317.423 3.81425 317.534 3.92373 317.643 4.03566ZM213.84 510.645L212.804 511.323C212.457 511.551 212.101 511.755 211.737 511.935L207.41 507.954L197.986 494.875L212.777 509.286L213.84 510.645ZM13.3562 248.569C13.1935 246.614 13.5532 244.693 14.3601 242.978L23.9561 256.297L21.9277 257.999C21.2134 258.598 20.5723 259.264 20.0103 259.986L15.6495 254.41C14.3227 252.717 13.5341 250.701 13.3562 248.569ZM23.0448 259.317L24.9688 257.703L34.9438 271.547L31.4862 274.659L21.1165 261.4C21.664 260.636 22.3096 259.935 23.0448 259.317ZM32.5571 276.028L35.9635 272.963L45.6447 286.4L42.8031 289.129L32.5571 276.028ZM43.8781 290.504L46.6696 287.823L56.0855 300.892L53.8149 303.21L43.8781 290.504ZM54.8923 304.587L57.1139 302.319L66.2828 315.045L64.5426 316.926L54.8923 304.587ZM65.6251 318.311L67.3173 316.481L76.2581 328.891L75.0118 330.313L65.6251 318.311ZM76.0969 331.7L77.2963 330.332L86.0233 342.444L85.2376 343.388L76.0969 331.7ZM86.3278 344.782L87.0674 343.894L95.592 355.725L95.2368 356.173L86.3278 344.782ZM160.305 442.576L161.528 444.273L164.52 447.581L162.975 445.605L160.353 442.496L160.305 442.576ZM166.663 454.37L160.207 445.41L159.246 444.347L158.151 446.176L166.438 454.758L166.663 454.37ZM151.017 432.654L150.778 432.321L150.753 432.362L151.017 432.654ZM168.426 456.817L167.778 455.917L167.695 456.06L168.426 456.817ZM170.718 457.028L175.929 464.261L176.438 463.352L170.718 457.028ZM174.792 469.85L176.114 467.487L183.225 477.358L182.974 477.823L174.792 469.85ZM183.967 475.417L184.144 475.663L184.166 475.623L183.967 475.417ZM184.265 479.081L184.352 478.921L184.941 479.739L184.265 479.081ZM185.27 477.226L192.124 486.738L192.283 486.893L193.258 485.039L185.43 476.932L185.27 477.226ZM201.059 502.11L192.498 490.228L191.078 492.928L201.059 502.11ZM212.441 514.937L222.667 529.129L227.475 533.32C228.987 533.99 230.638 534.302 232.287 534.232L229.398 530.539L212.441 514.937ZM233.556 535.855C232.516 536 231.465 536.012 230.43 535.896L240.351 544.543L233.556 535.855ZM243.805 541.439L236.758 534.955C237.135 534.792 237.506 534.608 237.871 534.404L243.805 541.439ZM262.181 553.915L241.159 532.143L536.27 320.574C539.78 318.051 541.744 313.809 541.39 309.499C541.208 307.275 540.42 305.143 539.108 303.317L395.509 104.007L399.288 96.8178L562.923 306.056C564.25 307.749 565.04 309.772 565.217 311.897L565.216 311.889C565.526 315.61 563.957 319.192 561.012 321.481L263.28 553.159C262.925 553.436 262.558 553.688 262.181 553.915ZM398.109 95.3108L394.37 102.425L390.963 97.6974L394.652 90.8905L398.109 95.3108ZM393.487 89.4002L389.837 96.1344L386.473 91.4656L390.072 85.0334L393.487 89.4002ZM388.912 83.5507L385.354 89.9115L382.037 85.3086L385.544 79.2435L388.912 83.5507ZM384.385 77.7621L380.92 83.757L377.65 79.2193L381.063 73.5139L384.385 77.7621ZM379.916 72.0475L376.544 77.6843L373.326 73.2173L376.644 67.8633L379.916 72.0475ZM375.503 66.4044L372.227 71.6913L369.071 67.3111L372.293 62.2999L375.503 66.4044ZM371.154 60.8439L367.974 65.7895L364.874 61.4868L367.999 56.8097L371.154 60.8439ZM366.872 55.3684L363.79 59.9816L360.75 55.7627L363.777 51.4105L366.872 55.3684ZM362.661 49.9837L359.678 54.2738L356.71 50.1544L359.637 46.1172L362.661 49.9837ZM358.526 44.6957L355.642 48.6722L352.749 44.6567L355.577 40.9247L358.526 44.6957ZM354.472 39.5119L351.688 43.185L348.88 39.2864L351.607 35.8489L354.472 39.5119ZM350.502 34.4358L347.82 37.8159L345.103 34.0446L347.729 30.8907L350.502 34.4358ZM346.633 29.4892L344.053 32.5876L341.42 28.9325L343.945 26.0513L346.633 29.4892ZM342.863 24.6678L340.385 27.4957L337.863 23.9958L340.287 21.3748L342.863 24.6678ZM339.202 19.987L336.826 22.5562L334.417 19.2128L336.741 16.8401L339.202 19.987ZM335.664 15.4625L333.389 17.7853L331.102 14.6111L333.248 12.5496C333.274 12.5244 333.3 12.4993 333.327 12.4744L335.664 15.4625ZM332.046 11.2966L330.077 13.1885L327.948 10.2341C328.72 9.63623 329.548 9.14802 330.41 8.76841C330.533 8.90971 330.652 9.05484 330.769 9.20378L332.253 11.1017C332.184 11.1658 332.115 11.2308 332.046 11.2966ZM329.081 7.4757C328.334 7.8508 327.614 8.29975 326.931 8.82308L325.598 6.97187C325.56 6.91981 325.523 6.86813 325.484 6.81684C326.165 6.62273 326.859 6.49349 327.557 6.42832C328.089 6.73115 328.599 7.08055 329.081 7.4757ZM324.605 5.27136C324.485 5.30964 324.366 5.34968 324.247 5.39151C324.163 5.30814 324.077 5.22619 323.991 5.14565C324.197 5.18177 324.402 5.22369 324.605 5.27136ZM235.339 533.65C235.811 533.485 236.276 533.286 236.729 533.05L234.708 530.654L222.046 518.317L230.7 529.382L235.339 533.65ZM20.1608 262.993C19.2566 264.824 18.8464 266.888 19.0187 268.971C19.2169 271.324 20.1294 273.525 21.6569 275.339L25.7066 280.141C26.197 279.513 26.7475 278.922 27.3552 278.377L30.1938 275.822L20.1608 262.993ZM31.2647 277.192L28.515 279.666C27.891 280.227 27.3364 280.843 26.8552 281.503L37.5465 294.179L41.5456 290.337L31.2647 277.192ZM42.6206 291.712L38.6681 295.509L49.1662 307.956L52.5903 304.46L42.6206 291.712ZM53.6676 305.837L50.289 309.287L60.4574 321.343L63.349 318.217L53.6676 305.837ZM64.4315 319.601L61.5842 322.679L71.4503 334.377L73.8477 331.641L64.4315 319.601ZM74.9328 333.029L72.5789 335.715L82.1637 347.079L84.1014 344.752L74.9328 333.029ZM85.1916 346.146L83.2963 348.422L92.6179 359.474L94.1272 357.572L85.1916 346.146ZM95.2294 358.981L93.762 360.831L102.844 371.598L103.952 370.135L95.2294 358.981ZM197.484 486.911L195.785 484.738L198.685 487.944L200.089 489.609L197.484 486.911ZM179.506 466.743L185.101 473.897L185.035 474.018L177.073 465.772L177.667 464.71L179.506 466.743ZM196.189 488.075L204.811 499.1L193.584 488.161L194.531 486.358L196.189 488.075ZM247.283 550.586L237.266 537.778L252.673 551.953L255.622 555.45C254.226 555.338 252.852 554.963 251.584 554.335L247.283 550.586ZM254.764 557.107C255.539 557.213 256.324 557.248 257.108 557.212L263.281 564.53L254.764 557.107ZM260.331 556.645L263.324 559.398L260.718 556.517C260.647 556.542 260.576 556.566 260.505 556.589C260.447 556.608 260.389 556.627 260.331 556.645ZM263.42 555.198L279.875 572.239L284.106 576.362C285.682 575.947 287.193 575.187 288.522 574.073L586.767 323.803C589.593 321.429 591.097 317.825 590.793 314.149L590.794 314.157C590.603 311.803 589.691 309.602 588.155 307.781L403.487 88.8295L400.173 95.1342L564.294 304.994C565.825 306.954 566.747 309.293 566.952 311.761C567.304 316.057 565.484 320.21 562.082 322.858L264.351 554.537C264.048 554.773 263.737 554.993 263.42 555.198ZM398.994 93.6272L402.273 87.3901L398.789 83.259L395.554 89.2277L398.994 93.6272ZM394.388 87.7374L397.587 81.8347L394.145 77.7531L390.99 83.3922L394.388 87.7374ZM389.83 81.9095L392.949 76.3352L389.553 72.3089L386.48 77.6249L389.83 81.9095ZM385.321 76.1434L388.357 70.8913L385.008 66.9195L382.017 71.9188L385.321 76.1434ZM380.87 70.4524L383.823 65.5157L380.524 61.6031L377.617 66.2928L380.87 70.4524ZM376.476 64.8338L379.345 60.2054L376.108 56.3675L373.286 60.755L376.476 64.8338ZM372.148 59.2989L374.93 54.9715L371.748 51.1988L369.014 55.2915L372.148 59.2989ZM367.887 53.8502L370.582 49.816L367.46 46.1144L364.813 49.9204L367.887 53.8502ZM363.697 48.4936L366.305 44.7446L363.255 41.1286L360.697 44.6565L363.697 48.4936ZM359.585 43.235L362.103 39.7627L359.129 36.2364L356.66 39.4948L359.585 43.235ZM355.555 38.0821L357.983 34.8778L355.095 31.4532L352.716 34.4515L355.555 38.0821ZM351.611 33.0383L353.947 30.093L351.153 26.7798L348.865 29.5273L351.611 33.0383ZM347.769 28.1258L350.014 25.4295L347.305 22.2171L345.108 24.7237L347.769 28.1258ZM344.026 23.3403L346.18 20.8831L343.586 17.8084L341.48 20.085L344.026 23.3403ZM340.395 18.6973L342.456 16.4688L340.009 13.5665C339.743 13.7962 339.486 14.038 339.237 14.2916L337.965 15.5903L340.395 18.6973ZM336.888 14.2127L337.995 13.0824C338.284 12.7879 338.582 12.5075 338.891 12.2413L337.356 10.4219C337.255 10.3016 337.152 10.184 337.046 10.0689C336.219 10.41 335.421 10.8457 334.67 11.3762L336.888 14.2127ZM333.599 10.0069C334.257 9.53599 334.947 9.12939 335.661 8.78691C335.19 8.4196 334.696 8.09365 334.183 7.80952C333.501 7.86691 332.821 7.98333 332.154 8.15921L333.599 10.0069ZM330.863 6.73525C330.949 6.70647 331.036 6.67859 331.123 6.6516C330.974 6.61879 330.826 6.58891 330.677 6.56199C330.739 6.61903 330.801 6.67678 330.863 6.73525ZM259.43 555.094C259.224 555.15 259.017 555.2 258.809 555.244L254.009 550.828L247.534 543.15L256.743 552.123L259.43 555.094ZM24.6591 289.384C24.4746 287.16 24.9106 284.99 25.8893 283.073L36.2813 295.394L32.7828 298.754C32.2592 299.258 31.7799 299.796 31.347 300.363L27.6585 296.285C25.9074 294.353 24.8711 291.967 24.6591 289.384ZM33.9843 300.007L37.4029 296.724L47.9357 309.212L43.4732 313.768L32.5343 301.675C32.9623 301.083 33.4466 300.524 33.9843 300.007ZM44.6383 315.056L49.0585 310.543L59.2597 322.638L55.3352 326.881L44.6383 315.056ZM56.5033 328.172L60.3866 323.974L70.2836 335.708L66.8572 339.618L56.5033 328.172ZM68.0261 340.91L71.4122 337.046L81.0263 348.445L78.0621 352.005L68.0261 340.91ZM79.234 353.3L82.1589 349.788L91.5083 360.873L88.9738 364.067L79.234 353.3ZM90.1567 365.375L92.6525 362.229L101.761 373.028L99.6269 375.844L90.1567 365.375ZM100.814 377.156L102.909 374.39L111.793 384.922L110.034 387.348L100.814 377.156ZM111.226 388.666L112.948 386.292L121.621 396.575L120.213 398.601L111.226 388.666ZM234.877 528.144L236.065 529.553L238.258 531.689L237.631 530.996L234.877 528.144ZM262.877 561.342L271.91 572.052L275.676 575.335C276.657 575.872 277.705 576.257 278.783 576.487L276.031 573.445L262.877 561.342ZM280.573 578.466C280.078 578.443 279.585 578.393 279.096 578.316L285.439 583.845L280.573 578.466ZM306.328 598.015L285.525 577.744C286.986 577.234 288.38 576.457 289.633 575.407L587.877 325.13C591.137 322.399 592.872 318.241 592.52 314.007C592.299 311.294 591.244 308.756 589.48 306.663L404.356 87.1756L407.264 81.6434L613.393 309.505C615.136 311.431 616.173 313.825 616.385 316.408L616.384 316.4C616.691 320.099 615.288 323.644 612.529 326.125L313.772 594.993C311.639 596.911 308.994 597.91 306.328 598.015ZM406.018 80.2655L403.142 85.7362L399.674 81.6246L402.511 76.3897L406.018 80.2655ZM401.278 75.0256L398.473 80.2003L395.048 76.1392L397.813 71.1959L401.278 75.0256ZM396.584 69.8373L393.852 74.7213L390.474 70.7162L393.166 66.0591L396.584 69.8373ZM391.937 64.7L389.278 69.2987L385.947 65.3491L388.565 60.9726L391.937 64.7ZM387.347 59.626L384.763 63.9453L381.482 60.0559L384.025 55.9538L387.347 59.626ZM382.811 54.6122L380.304 58.6582L377.087 54.8446L379.553 51.0102L382.811 54.6122ZM378.34 49.6693L375.91 53.4485L372.749 49.7013L375.136 46.1283L378.34 49.6693ZM373.934 44.7992L371.583 48.3185L368.483 44.6435L370.791 41.3249L373.934 44.7992ZM369.599 40.0075L367.328 43.2737L364.301 39.6857L366.529 36.6137L369.599 40.0075ZM365.34 35.2992L363.149 38.3198L360.2 34.8228L362.346 31.9899L365.34 35.2992ZM361.163 30.6814L359.054 33.4643L356.192 30.0705L358.256 27.4685L361.163 30.6814ZM357.07 26.1572L355.044 28.7103L352.277 25.4296L354.259 23.0499L357.07 26.1572ZM353.081 21.7471L351.138 24.0793L348.458 20.9012L350.356 18.7353L353.081 21.7471ZM349.191 17.4471L347.333 19.5672L344.77 16.5287L345.22 16.042C345.678 15.5465 346.168 15.0914 346.686 14.6785L349.191 17.4471ZM343.936 14.8689L343.64 15.1891L341.393 12.5253C342.113 12.0576 342.877 11.6669 343.673 11.3573C343.765 11.4523 343.855 11.5492 343.945 11.6479L345.52 13.3898C344.962 13.8404 344.433 14.3341 343.936 14.8689ZM342.228 10.0871C341.548 10.4016 340.893 10.7702 340.268 11.1906L338.832 9.48881C339.48 9.33207 340.139 9.22882 340.8 9.17892C341.293 9.44449 341.771 9.74729 342.228 10.0871ZM337.627 8.02078C337.605 8.02736 337.583 8.034 337.562 8.04069C337.536 8.04872 337.51 8.05683 337.484 8.06502L337.456 8.0398L337.428 8.01431C337.412 8.00017 337.397 7.98607 337.381 7.97202C337.434 7.98202 337.488 7.9924 337.541 8.00314C337.569 8.00891 337.598 8.01479 337.627 8.02078ZM31.5826 303.224C30.5508 305.224 30.0861 307.492 30.2768 309.799C30.5063 312.581 31.7056 315.216 33.6535 317.239L36.9319 320.634C37.3211 320.111 37.7481 319.611 38.2114 319.14L42.2504 315.016L31.5826 303.224ZM43.4155 316.304L39.4537 320.349C38.9771 320.836 38.5443 321.356 38.1574 321.904L49.282 333.425L54.1462 328.166L43.4155 316.304ZM55.3143 329.457L50.4886 334.674L61.3404 345.913L65.7001 340.938L55.3143 329.457ZM66.8691 342.23L62.5468 347.163L73.0424 358.032L76.9352 353.358L66.8691 342.23ZM78.107 354.653L74.2507 359.284L84.4161 369.812L87.8754 365.452L78.107 354.653ZM89.0583 366.759L85.6349 371.074L95.4997 381.29L98.5555 377.258L89.0583 366.759ZM99.7424 378.57L96.7219 382.556L106.309 392.485L108.988 388.79L99.7424 378.57ZM110.18 390.108L107.535 393.755L116.864 403.416L119.192 400.069L110.18 390.108ZM120.386 401.39L118.092 404.689L127.185 414.105L129.183 411.114L120.386 401.39ZM130.382 412.44L128.417 415.381L137.284 424.565L138.974 421.937L130.382 412.44ZM277.308 572.264L276.515 571.388L278.467 573.289L278.821 573.657L277.308 572.264ZM296.524 593.507L290.014 586.311L299.198 594.76L301.579 597.227C300.965 596.989 300.367 596.699 299.793 596.356L296.524 593.507ZM303.455 599.549C303.599 599.574 303.744 599.598 303.889 599.619L305.765 601.562L303.455 599.549ZM307.957 599.602L323.833 615.07L328.22 619.107C331.99 619.829 336.045 618.776 339.015 615.922L638.285 328.455C640.942 325.902 642.288 322.333 641.985 318.665L641.993 318.664C641.763 315.883 640.563 313.239 638.624 311.223L410.673 75.1575L408.123 80.0085L614.683 308.346C616.686 310.563 617.875 313.3 618.12 316.265C618.473 320.506 616.857 324.572 613.698 327.421L314.932 596.29C312.905 598.114 310.473 599.212 307.957 599.602ZM406.877 78.6306L409.397 73.8359L405.873 70.1866L403.388 74.7733L406.877 78.6306ZM402.154 73.4092L404.609 68.8778L401.127 65.2716L398.707 69.5988L402.154 73.4092ZM397.478 68.2401L399.868 63.9674L396.432 60.4096L394.078 64.4821L397.478 68.2401ZM392.848 63.1229L395.172 59.1041L391.782 55.5938L389.496 59.4166L392.848 63.1229ZM388.277 58.07L390.533 54.2998L387.193 50.8413L384.975 54.4198L388.277 58.07ZM383.762 53.0782L385.947 49.5513L382.672 46.1592L380.524 49.4993L383.762 53.0782ZM379.311 48.1584L381.426 44.8691L378.206 41.5342L376.13 44.6416L379.311 48.1584ZM374.927 43.3125L376.97 40.2547L373.811 36.9827L371.807 39.8635L374.927 43.3125ZM370.616 38.5461L372.585 35.7137L369.499 32.5179L367.57 35.179L370.616 38.5461ZM366.38 33.8645L368.276 31.2508L365.267 28.135L363.412 30.5833L366.38 33.8645ZM362.229 29.2748L364.049 26.8729L361.128 23.8486L359.349 26.0914L362.229 29.2748ZM358.163 24.7802L359.906 22.5828L357.083 19.6592L355.38 21.7041L358.163 24.7802ZM354.201 20.4012L355.834 18.4405L355.867 18.4006L353.355 15.799C352.703 16.2777 352.085 16.8212 351.513 17.429L354.201 20.4012ZM350.352 16.1458C350.915 15.5587 351.516 15.0258 352.147 14.5476L350.524 12.8671C350.451 12.7915 350.378 12.7171 350.303 12.6439C349.546 12.9214 348.816 13.2689 348.124 13.6827L350.352 16.1458ZM346.94 12.3746C347.536 11.9995 348.157 11.6683 348.798 11.383C348.348 11.0642 347.881 10.7793 347.4 10.5285C346.761 10.5724 346.131 10.6633 345.515 10.7995L346.94 12.3746ZM344.102 9.37532L344.105 9.37439L344.1 9.37334L344.102 9.37532ZM35.8936 330.206C35.6985 327.842 36.1736 325.505 37.2283 323.441L48.1011 334.702L43.6399 339.525C43.2244 339.973 42.8396 340.445 42.4864 340.937L39.6542 338.177C37.4771 336.052 36.1453 333.225 35.8936 330.206ZM44.9163 340.699L49.3076 335.951L60.1918 347.224L55.0088 353.138L43.7469 342.165C44.0991 341.651 44.4895 341.161 44.9163 340.699ZM56.2503 354.348L61.3982 348.473L71.9243 359.375L67.2145 365.031L56.2503 354.348ZM68.4567 366.241L73.1326 360.627L83.3268 371.185L79.0554 376.568L68.4567 366.241ZM80.3076 377.788L84.5456 372.447L94.4377 382.692L90.5738 387.791L80.3076 377.788ZM91.8287 389.014L95.6598 383.958L105.272 393.913L101.788 398.718L91.8287 389.014ZM103.047 399.945L106.499 395.184L115.852 404.871L112.722 409.372L103.047 399.945ZM113.982 410.599L117.081 406.143L126.196 415.584L123.397 419.773L113.982 410.599ZM124.66 421.004L127.428 416.86L136.318 426.067L133.829 429.938L124.66 421.004ZM135.099 431.175L137.558 427.351L146.241 436.344L144.043 439.89L135.099 431.175ZM320.912 614.739L321.068 614.901L321.439 615.224L320.912 614.739ZM350.716 639.805L330.327 621.045C333.879 621.095 337.453 619.806 340.207 617.161L639.478 329.702C642.513 326.784 644.058 322.711 643.711 318.516C643.456 315.343 642.084 312.321 639.861 310.023L411.523 73.5416L413.762 69.282L663.839 312.942C666.015 315.06 667.348 317.895 667.599 320.913L667.607 320.912C667.907 324.558 666.61 328.151 664.047 330.77L364.263 636.827C360.64 640.53 355.278 641.531 350.716 639.805ZM412.458 68.0121L410.247 72.22L406.74 68.5881L408.92 64.5647L412.458 68.0121ZM407.629 63.3065L405.476 67.2792L402.011 63.6912L404.132 59.8998L407.629 63.3065ZM402.845 58.6455L400.752 62.3869L397.335 58.8481L399.395 55.2843L402.845 58.6455ZM398.106 54.0282L396.074 57.5426L392.704 54.0522L394.702 50.7117L398.106 54.0282ZM393.424 49.4662L391.455 52.7582L388.136 49.3205L390.07 46.1985L393.424 49.4662ZM388.795 44.9561L386.89 48.0305L383.636 44.6602L385.506 41.7514L388.795 44.9561ZM384.23 40.5082L382.39 43.37L379.192 40.0582L380.997 37.3576L384.23 40.5082ZM379.73 36.1239L377.957 38.7786L374.821 35.5307L376.558 33.0327L379.73 36.1239ZM375.301 31.8084L373.595 34.2617L370.534 31.0913L372.203 28.7897L375.301 31.8084ZM370.948 27.5666L369.311 29.8241L366.328 26.7352L367.928 24.6239L370.948 27.5666ZM366.676 23.4048L365.109 25.473L362.216 22.4771L363.154 21.2955C363.352 21.0456 363.557 20.804 363.768 20.5707L366.676 23.4048ZM361.782 20.2187L360.994 21.2112L358.262 18.3813C358.817 17.8487 359.411 17.3662 360.038 16.9367L362.518 19.3536C362.265 19.6313 362.019 19.9197 361.782 20.2187ZM358.773 15.7044C358.171 16.1365 357.597 16.6131 357.055 17.1319L354.85 14.8479C355.524 14.4789 356.224 14.1707 356.943 13.9238C356.999 13.9771 357.056 14.0309 357.111 14.0853L358.773 15.7044ZM355.385 12.6741C354.779 12.9312 354.186 13.2287 353.612 13.5663L352.204 12.1072C352.8 11.9866 353.408 11.9064 354.025 11.8682C354.493 12.1072 354.947 12.3762 355.385 12.6741ZM42.838 343.708C41.777 345.829 41.2987 348.223 41.496 350.623C41.7634 353.887 43.2428 356.904 45.6567 359.13L47.9989 361.285C48.3309 360.807 48.6924 360.345 49.0827 359.9L53.8608 354.448L42.838 343.708ZM55.1024 355.658L50.3857 361.04C49.9853 361.497 49.6191 361.975 49.288 362.471L60.6447 372.92L66.0982 366.371L55.1024 355.658ZM67.3405 367.582L61.9186 374.092L72.9599 384.251L77.969 377.938L67.3405 367.582ZM79.2212 379.158L74.2432 385.432L84.9191 395.254L89.5157 389.188L79.2212 379.158ZM90.7706 390.411L86.2045 396.437L96.5437 405.95L100.757 400.14L90.7706 390.411ZM102.016 401.367L97.8324 407.135L107.861 416.362L111.716 410.818L102.016 401.367ZM112.976 412.046L109.149 417.548L118.894 426.513L122.415 421.243L112.976 412.046ZM123.678 422.473L120.185 427.701L129.661 436.42L132.87 431.43L123.678 422.473ZM134.14 432.667L130.959 437.614L140.19 446.107L143.106 441.403L134.14 432.667ZM144.38 442.644L141.492 447.305L150.491 455.585L153.132 451.171L144.38 442.644ZM154.415 452.422L151.802 456.791L160.589 464.876L162.97 460.757L154.415 452.422ZM353.358 642.235C357.691 642.794 362.227 641.391 365.506 638.044L665.297 331.978C668.209 329.006 669.683 324.919 669.342 320.769C669.061 317.338 667.54 314.117 665.064 311.706L414.606 67.6756L416.569 63.9418L689.07 314.667C691.483 316.886 692.963 319.911 693.231 323.174L693.232 323.182C693.538 326.811 692.29 330.429 689.811 333.106L389.514 657.755C384.935 662.704 377.372 663.311 372.079 659.365L370.121 657.658L353.358 642.235ZM413.303 66.4057L415.24 62.7196L411.69 59.4534L409.782 62.9751L413.303 66.4057ZM408.49 61.7169L410.374 58.242L406.866 55.0142L405.012 58.3277L408.49 61.7169ZM403.725 57.0733L405.552 53.806L402.091 50.6213L400.294 53.7305L403.725 57.0733ZM399.004 52.4744L400.776 49.4108L397.36 46.2684L395.62 49.1771L399.004 52.4744ZM394.342 47.9316L396.055 45.0676L392.69 41.9714L391.009 44.684L394.342 47.9316ZM389.734 43.4416L391.388 40.773L388.088 37.7368L386.466 40.2581L389.734 43.4416ZM385.19 39.0148L386.784 36.5369L383.539 33.5519L381.98 35.8864L385.19 39.0148ZM380.713 34.6527L382.245 32.3607L379.062 29.4322L377.565 31.5848L380.713 34.6527ZM376.308 30.3606L377.776 28.2495L374.668 25.39L373.235 27.3664L376.308 30.3606ZM371.98 26.1433L373.384 24.2077L370.457 21.5147C369.983 21.9887 369.537 22.5 369.122 23.0481L368.986 23.2266L371.98 26.1433ZM367.735 22.0075L367.738 22.0035C368.188 21.4103 368.67 20.8556 369.18 20.34L366.722 18.0789C366.126 18.4571 365.554 18.8821 365.011 19.3531L367.735 22.0075ZM363.76 18.1342C364.284 17.6721 364.833 17.2488 365.403 16.8647L363.698 15.2958C363.683 15.2824 363.669 15.2691 363.654 15.2559C363.631 15.2349 363.608 15.214 363.585 15.1931C362.897 15.4163 362.229 15.6922 361.588 16.018L363.76 18.1342ZM360.284 14.7472C360.825 14.4461 361.385 14.1775 361.959 13.9428C361.541 13.6701 361.109 13.4228 360.665 13.2016C360.076 13.2326 359.49 13.3016 358.909 13.4082L360.284 14.7472ZM47.09 371.034C46.8859 368.569 47.3457 366.162 48.4033 364.007L59.5366 374.251L54.5114 380.286C54.1424 380.729 53.8001 381.188 53.4853 381.661L51.666 380.075C49.0087 377.756 47.3806 374.542 47.09 371.034ZM55.8475 381.382L60.8104 375.423L71.8819 385.61L66.2129 392.755L54.8023 382.809C55.118 382.316 55.4667 381.84 55.8475 381.382ZM67.5252 393.899L73.1652 386.791L83.8696 396.639L78.619 403.569L67.5252 393.899ZM79.9328 404.714L85.1549 397.822L95.521 407.36L90.6593 414.064L79.9328 404.714ZM91.9758 415.211L96.8098 408.546L106.863 417.796L102.364 424.266L91.9758 415.211ZM103.68 425.413L108.152 418.982L117.921 427.97L113.759 434.199L103.68 425.413ZM115.076 435.347L119.212 429.157L128.711 437.898L124.865 443.88L115.076 435.347ZM126.188 445.033L130.009 439.091L139.262 447.605L135.711 453.334L126.188 445.033ZM137.039 454.491L140.564 448.803L149.584 457.102L146.311 462.573L137.039 454.491ZM147.647 463.737L150.894 458.308L159.702 466.412L156.69 471.62L147.647 463.737ZM158.026 472.784L161.013 467.618L169.621 475.538L166.856 480.481L158.026 472.784ZM168.193 481.646L170.934 476.746L179.357 484.496L176.824 489.17L168.193 481.646ZM395.689 679.945L376.602 663.308C381.606 664.437 387.067 662.948 390.789 658.921L691.087 334.273C693.891 331.237 695.309 327.135 694.965 323.024C694.658 319.333 692.981 315.908 690.244 313.391L417.404 62.3535L419.122 59.0841L714.299 316.377C716.964 318.695 718.584 321.903 718.875 325.418L718.883 325.417C719.194 329.085 718.016 332.64 715.587 335.411L414.777 678.658C409.859 684.263 401.306 684.838 395.689 679.945ZM417.77 57.9059L416.075 61.1312L412.543 57.8809L414.211 54.8031L417.77 57.9059ZM412.871 53.635L411.226 56.6695L407.736 53.4584L409.353 50.5686L412.871 53.635ZM408.016 49.4031L406.423 52.2502L402.981 49.083L404.545 46.3776L408.016 49.4031ZM403.204 45.2094L401.665 47.8725L398.269 44.7484L399.779 42.224L403.204 45.2094ZM398.45 41.0648L396.964 43.5476L393.62 40.4706L395.075 38.1232L398.45 41.0648ZM393.747 36.9658L392.318 39.2722L389.04 36.2562L390.438 34.0815L393.747 36.9658ZM389.108 32.9221L387.736 35.0563L384.514 32.0925L385.855 30.0865L389.108 32.9221ZM384.534 28.9349L383.22 30.9013L380.061 27.9951L381.065 26.552C381.157 26.419 381.252 26.2876 381.348 26.158L384.534 28.9349ZM379.642 25.5664L378.776 26.8125L375.718 23.9993C376.163 23.4632 376.64 22.9614 377.146 22.4957L380.039 25.0175C379.904 25.1975 379.772 25.3805 379.642 25.5664ZM375.83 21.3488C375.341 21.8099 374.877 22.3019 374.44 22.8232L371.758 20.3558C372.283 19.9412 372.832 19.5657 373.4 19.2299L375.83 21.3488ZM372.03 18.0363C371.491 18.3808 370.969 18.7583 370.468 19.1685L368.327 17.199C368.945 16.9096 369.581 16.6654 370.23 16.467C370.245 16.4804 370.261 16.4939 370.276 16.5074L372.03 18.0363ZM368.538 15.2209C368.001 15.4313 367.473 15.6708 366.958 15.9393L365.611 14.6997C365.953 14.6428 366.299 14.5982 366.648 14.5663C366.856 14.5473 367.063 14.5328 367.27 14.5229C367.702 14.731 368.125 14.9637 368.538 15.2209ZM53.9417 384.363C52.9081 386.548 52.4644 388.974 52.6689 391.446C52.9837 395.206 54.7518 398.611 57.6677 401.021L58.9392 402.074C59.2474 401.586 59.583 401.112 59.9455 400.655L65.1322 394.117L53.9417 384.363ZM66.4446 395.261L61.3101 401.732C60.9381 402.201 60.5978 402.689 60.2901 403.193L71.7266 412.665L77.5676 404.956L66.4446 395.261ZM78.8814 406.102L73.0671 413.775L84.1885 422.987L89.6355 415.476L78.8814 406.102ZM90.9521 416.623L85.5311 424.099L96.2856 433.006L101.366 425.701L90.9521 416.623ZM102.682 426.848L97.6267 434.117L108.047 442.747L112.786 435.655L102.682 426.848ZM114.103 436.803L109.389 443.859L119.496 452.23L123.916 445.356L114.103 436.803ZM125.239 446.509L120.843 453.345L130.664 461.479L134.784 454.83L125.239 446.509ZM136.112 455.987L132.014 462.598L141.565 470.508L145.405 464.087L136.112 455.987ZM146.741 465.252L142.924 471.634L152.228 479.34L155.805 473.152L146.741 465.252ZM157.14 474.316L153.586 480.464L162.66 487.98L165.989 482.03L157.14 474.316ZM167.326 483.195L164.02 489.106L172.881 496.445L175.976 490.735L167.326 483.195ZM177.316 491.903L174.243 497.573L182.9 504.744L185.774 499.276L177.316 491.903ZM399.493 684.136L420.335 701.397C426.263 706.306 435.094 705.486 440.027 699.57L741.349 337.725C743.701 334.902 744.831 331.33 744.529 327.669L744.522 327.678C744.206 323.911 742.439 320.513 739.522 318.096L421.45 54.6544L419.953 57.5041L715.447 315.073C718.443 317.689 720.284 321.309 720.61 325.275C720.951 329.418 719.629 333.423 716.89 336.551L416.081 679.805C411.852 684.629 405.216 686.147 399.493 684.136ZM418.601 56.3259L420.077 53.5171L416.509 50.5619L415.059 53.2383L418.601 56.3259ZM413.719 52.0702L415.147 49.434L411.621 46.5135L410.219 49.0198L413.719 52.0702ZM408.882 47.8543L410.262 45.3876L406.783 42.5061L405.43 44.8456L408.882 47.8543ZM404.09 43.6774L405.42 41.3772L401.987 38.5337L400.685 40.7096L404.09 43.6774ZM399.355 39.5504L400.634 37.4132L397.251 34.6115L396.002 36.6273L399.355 39.5504ZM394.674 35.4699L395.9 33.4922L392.583 30.7453L391.387 32.6051L394.674 35.4699ZM390.057 31.4456L391.229 29.6236L388.032 26.9757C387.682 27.4012 387.351 27.8467 387.041 28.3112L386.828 28.6305L390.057 31.4456ZM385.506 27.4789L385.591 27.3523C385.936 26.8361 386.305 26.3412 386.695 25.8684L383.834 23.4985C383.35 23.9091 382.89 24.3501 382.456 24.82L385.506 27.4789ZM381.15 23.6816C381.572 23.222 382.016 22.787 382.481 22.3779L380.072 20.383C379.531 20.6831 379.01 21.0158 378.509 21.3796L381.15 23.6816ZM377.169 20.2118C377.644 19.8492 378.137 19.5123 378.647 19.2024L376.872 17.7327C376.259 17.9094 375.656 18.1254 375.068 18.38L377.169 20.2118ZM373.636 17.1318C374.121 16.8929 374.616 16.6784 375.12 16.4885C374.726 16.2517 374.322 16.0354 373.909 15.8399C373.379 15.8615 372.851 15.9119 372.327 15.9908L373.636 17.1318ZM58.2398 411.86C58.0371 409.402 58.4632 406.969 59.4594 404.764L70.6748 414.053L65.3817 421.039C65.0184 421.518 64.6831 422.014 64.3764 422.524L63.6777 421.973C60.5536 419.505 58.5722 415.818 58.2398 411.86ZM66.7728 422.082L72.0153 415.164L83.1648 424.398L77.1907 432.636L65.7548 423.612C66.0607 423.085 66.4003 422.574 66.7728 422.082ZM78.5575 433.715L84.5073 425.51L95.2883 434.44L89.6857 442.496L78.5575 433.715ZM91.0505 443.573L96.6295 435.551L107.075 444.202L101.819 452.07L91.0505 443.573ZM103.183 453.147L108.417 445.314L118.548 453.705L113.614 461.378L103.183 453.147ZM114.983 462.458L119.895 454.82L129.738 462.973L125.107 470.446L114.983 462.458ZM126.479 471.529L131.089 464.092L140.66 472.02L136.312 479.288L126.479 471.529ZM137.693 480.378L142.019 473.145L151.344 480.868L147.262 487.929L137.693 480.378ZM148.641 489.017L152.702 481.993L161.796 489.525L157.964 496.374L148.641 489.017ZM159.344 497.463L163.155 490.651L172.035 498.006L168.44 504.64L159.344 497.463ZM169.822 505.731L173.397 499.134L182.072 506.319L178.699 512.736L169.822 505.731ZM180.09 513.833L183.443 507.454L413.842 698.285L180.09 513.833ZM444.981 722.857L421.433 704.275C427.934 708.003 436.407 706.638 441.358 700.691L742.681 338.846C745.328 335.668 746.594 331.654 746.257 327.535C745.905 323.301 743.914 319.477 740.635 316.765L422.277 53.0811L423.583 50.5976L764.751 319.805C767.876 322.274 769.856 325.953 770.182 329.92L770.189 329.919C770.491 333.572 769.403 337.169 767.119 340.046L465.283 720.482C460.337 726.724 451.229 727.787 444.981 722.857ZM422.19 49.4983L420.904 51.9437L417.354 49.0032L418.615 46.6773L422.19 49.4983ZM417.233 45.5866L415.992 47.8752L412.485 44.9701L413.699 42.7987L417.233 45.5866ZM412.319 41.7099L411.125 43.8442L407.666 40.9788L408.833 38.9592L412.319 41.7099ZM407.449 37.8669L406.303 39.8499L402.89 37.0233L404.009 35.1525L407.449 37.8669ZM402.635 34.068L401.537 35.9028L398.176 33.1189L398.984 31.815C399.071 31.6743 399.16 31.5352 399.251 31.3979L402.635 34.068ZM397.502 30.9066L396.825 31.9995L393.551 29.288C393.92 28.778 394.314 28.292 394.731 27.8312L397.882 30.3175C397.752 30.5108 397.626 30.7071 397.502 30.9066ZM393.359 26.7488C392.953 27.2019 392.568 27.6768 392.204 28.1726L389.209 25.6914C389.631 25.2768 390.075 24.8869 390.538 24.5227L393.359 26.7488ZM389.142 23.4213C388.7 23.7859 388.274 24.1723 387.866 24.5797L385.259 22.4204C385.74 22.0982 386.238 21.8028 386.752 21.5353L389.142 23.4213ZM385.274 20.3693C384.793 20.6477 384.325 20.9489 383.873 21.2721L381.805 19.5588C382.362 19.3353 382.934 19.1436 383.52 18.985L385.274 20.3693ZM381.696 17.7421C381.223 17.9134 380.758 18.1049 380.304 18.3162L379.048 17.276C379.547 17.2092 380.049 17.1673 380.552 17.1505C380.94 17.3293 381.321 17.5264 381.696 17.7421ZM64.9555 425.203C64.0059 427.416 63.6028 429.84 63.8034 432.274C64.1543 436.5 66.291 440.376 69.6804 442.927L69.7956 443.013C70.1074 442.464 70.4507 441.93 70.8246 441.414L76.1659 434.049L64.9555 425.203ZM77.5329 435.128L72.2356 442.432C71.8537 442.958 71.5073 443.505 71.1977 444.07L82.6101 452.67L88.6883 443.93L77.5329 435.128ZM90.0531 445.007L83.9971 453.715L95.1194 462.096L100.847 453.524L90.0531 445.007ZM102.212 454.601L96.5055 463.141L107.266 471.25L112.667 462.851L102.212 454.601ZM114.036 463.931L108.656 472.297L119.088 480.158L124.183 471.937L114.036 463.931ZM125.555 473.02L120.481 481.208L130.602 488.834L135.41 480.796L125.555 473.02ZM136.791 481.886L132.003 489.89L141.842 497.304L146.381 489.453L136.791 481.886ZM147.76 490.541L143.241 498.359L152.817 505.575L157.103 497.913L147.76 490.541ZM158.483 499.002L154.216 506.629L163.55 513.663L167.597 506.194L158.483 499.002ZM168.98 507.284L164.951 514.718L174.052 521.577L177.875 514.304L168.98 507.284ZM179.266 515.401L175.461 522.639L469.627 744.31C476.193 749.253 485.572 747.947 490.533 741.402L792.882 342.368C795.098 339.446 796.152 335.822 795.85 332.169L795.844 332.177C795.494 327.959 793.356 324.076 789.974 321.524L425.53 46.8936L424.401 49.0416L765.831 318.456C769.332 321.216 771.547 325.345 771.918 329.784C772.26 333.88 771.034 337.912 768.477 341.133L466.641 721.568C461.102 728.549 450.897 729.736 443.903 724.214L179.266 515.401ZM423.008 47.9423L424.118 45.8297L420.537 43.1309L419.45 45.1353L423.008 47.9423ZM418.068 44.0447L419.136 42.0752L415.596 39.408L414.554 41.2716L418.068 44.0447ZM413.174 40.1827L414.197 38.3536L410.705 35.7221L409.707 37.4475L413.174 40.1827ZM408.323 36.3552L409.301 34.664L405.923 32.1186C405.578 32.5854 405.255 33.0712 404.953 33.5751L404.904 33.657L408.323 36.3552ZM403.53 32.5729C403.844 32.0551 404.18 31.5549 404.536 31.0733L401.421 28.7261C401.02 29.1295 400.637 29.5554 400.273 30.0033L403.53 32.5729ZM398.909 28.9266C399.264 28.4891 399.635 28.0707 400.022 27.6716L397.235 25.5717C396.795 25.8942 396.372 26.2384 395.965 26.6034L398.909 28.9266ZM394.578 25.5095C394.968 25.1493 395.372 24.8066 395.789 24.4822L393.431 22.7055C392.946 22.9431 392.474 23.2042 392.016 23.4879L394.578 25.5095ZM390.579 22.3534C391.007 22.0671 391.447 21.7994 391.899 21.5507L390.154 20.236C389.604 20.377 389.064 20.5461 388.537 20.7423L390.579 22.3534ZM386.972 19.5075C387.395 19.321 387.826 19.1508 388.265 18.9974C387.902 18.7966 387.533 18.6124 387.159 18.4447C386.694 18.4586 386.226 18.4935 385.758 18.5499L386.972 19.5075ZM69.3604 452.697C69.1617 450.288 69.5378 447.883 70.4356 445.673L81.6166 454.098L76.2673 461.79C75.8784 462.35 75.5238 462.93 75.2045 463.527C71.8357 460.889 69.7188 456.975 69.3604 452.697ZM77.6907 462.783L83.0037 455.144L94.152 463.544L87.9921 472.764L76.6202 464.562C76.9364 463.949 77.2936 463.354 77.6907 462.783ZM89.3983 473.778L95.5381 464.589L106.324 472.716L100.495 481.78L89.3983 473.778ZM101.905 482.797L107.714 473.764L118.168 481.642L112.65 490.546L101.905 482.797ZM114.062 491.565L119.562 482.692L129.705 490.335L124.476 499.075L114.062 491.565ZM125.897 500.099L131.106 491.391L140.966 498.82L136.01 507.393L125.897 500.099ZM137.427 508.415L142.364 499.874L151.961 507.106L147.261 515.507L137.427 508.415ZM148.678 516.529L153.36 508.16L162.712 515.207L158.254 523.434L148.678 516.529ZM159.672 524.458L164.113 516.263L173.233 523.135L169.002 531.186L159.672 524.458ZM170.428 532.214L174.642 524.197L468.591 745.7C475.918 751.226 486.389 749.766 491.925 742.454L794.274 343.419C796.748 340.155 797.925 336.106 797.586 332.033C797.196 327.318 794.801 322.989 791.026 320.139L426.347 45.3383L427.315 43.4981L815.204 323.234C818.851 325.868 821.152 329.946 821.527 334.424C821.829 338.077 820.808 341.72 818.652 344.689L515.791 762.322C510.816 769.185 501.159 770.735 494.282 765.769L170.428 532.214ZM425.885 42.4673L424.936 44.2744L421.372 41.5893L422.298 39.8805L425.885 42.4673ZM420.88 38.8573L419.971 40.5336L416.451 37.8808L416.89 37.0952C417.039 36.8297 417.193 36.5692 417.353 36.3137L420.88 38.8573ZM415.377 36.2447L415.051 36.8264L411.615 34.2368C411.928 33.7723 412.26 33.3244 412.611 32.8941L415.941 35.2959C415.746 35.6054 415.558 35.9217 415.377 36.2447ZM411.195 31.8731C410.854 32.2957 410.529 32.7336 410.221 33.186L407.019 30.7736C407.37 30.3834 407.736 30.01 408.118 29.6541L411.195 31.8731ZM406.685 28.6202C406.319 28.9736 405.966 29.3419 405.627 29.7247L402.727 27.5392C403.117 27.2194 403.519 26.9182 403.933 26.6358L406.685 28.6202ZM402.445 25.5626C402.054 25.8482 401.673 26.1496 401.303 26.4666L398.78 24.565C399.211 24.3168 399.655 24.0875 400.109 23.8778L402.445 25.5626ZM398.513 22.7271C398.093 22.948 397.683 23.1846 397.282 23.4365L395.288 21.9339C395.782 21.7634 396.286 21.6155 396.799 21.4908L398.513 22.7271ZM394.851 20.2546C394.447 20.3909 394.048 20.5408 393.656 20.7041L392.48 19.8178C392.915 19.7718 393.349 19.7436 393.782 19.733C394.144 19.8926 394.501 20.0665 394.851 20.2546ZM75.8978 466.18C75.0597 468.378 74.714 470.751 74.9087 473.113C75.2652 477.41 77.326 481.32 80.6157 484.031C80.9411 483.394 81.3062 482.771 81.7101 482.166L87.028 474.207L75.8978 466.18ZM88.4342 475.221L83.1524 483.126C82.7312 483.758 82.3571 484.41 82.0309 485.079L93.3437 492.903L99.5558 483.241L88.4342 475.221ZM100.966 484.258L94.7718 493.89L105.836 501.542L111.734 492.024L100.966 484.258ZM113.147 493.043L107.266 502.531L117.978 509.939L123.583 500.569L113.147 493.043ZM125.003 501.593L119.416 510.934L129.808 518.12L135.137 508.902L125.003 501.593ZM136.554 509.924L131.242 519.112L141.338 526.094L146.409 517.03L136.554 509.924ZM147.826 518.053L142.772 527.086L152.593 533.878L157.42 524.972L147.826 518.053ZM158.839 525.995L154.028 534.871L163.589 541.483L168.187 532.736L158.839 525.995ZM169.613 533.765L165.032 542.481L518.928 787.229C522.415 789.636 526.632 790.553 530.814 789.798C534.989 789.045 538.624 786.715 541.047 783.233L844.422 347.01C846.519 343.994 847.512 340.324 847.204 336.679L847.211 336.671C846.817 331.925 844.344 327.652 840.433 324.944L428.956 40.379C428.915 40.4546 428.874 40.5305 428.834 40.6067L428.13 41.9476L816.223 321.83C820.285 324.759 822.845 329.291 823.262 334.281C823.599 338.339 822.462 342.398 820.063 345.707L517.201 763.332C511.66 770.97 500.921 772.695 493.263 767.173L169.613 533.765ZM426.7 40.9169L427.288 39.7991C427.362 39.6588 427.437 39.5195 427.513 39.3812L424.019 36.9647C423.708 37.4111 423.414 37.8724 423.138 38.3479L426.7 40.9169ZM421.725 37.3285C421.998 36.8655 422.287 36.4151 422.592 35.9779L419.31 33.708C418.972 34.085 418.647 34.4776 418.337 34.8857L421.725 37.3285ZM416.928 33.8691C417.229 33.47 417.544 33.0843 417.87 32.7123L414.828 30.609C414.465 30.9234 414.114 31.2524 413.775 31.5955L416.928 33.8691ZM412.347 30.5656C412.672 30.2279 413.007 29.9023 413.354 29.5892L410.628 27.704C410.237 27.9551 409.856 28.2213 409.486 28.5022L412.347 30.5656ZM408.019 27.4445C408.368 27.1648 408.726 26.8973 409.093 26.6424L406.795 25.0533C406.371 25.2383 405.953 25.4404 405.544 25.6592L408.019 27.4445ZM403.994 24.5417C404.371 24.3186 404.756 24.1089 405.146 23.9129L403.45 22.74C402.97 22.8499 402.498 22.9795 402.034 23.1281L403.994 24.5417ZM400.324 21.895C400.686 21.7516 401.054 21.619 401.427 21.4977C401.097 21.3265 400.762 21.1674 400.422 21.0207C400.017 21.0282 399.612 21.0507 399.206 21.0884L400.324 21.895ZM80.457 493.53C80.2614 491.176 80.5666 488.868 81.3455 486.702L92.4102 494.354L87.1454 502.542C86.732 503.188 86.3609 503.851 86.0329 504.529C82.8172 501.75 80.8116 497.842 80.457 493.53ZM88.6076 503.476L93.8383 495.342L104.926 503.01L98.679 513.09L87.6968 505.793C87.6096 505.735 87.5232 505.676 87.4374 505.617C87.7729 504.883 88.1634 504.169 88.6076 503.476ZM100.127 514.052L106.356 504L117.09 511.423L111.14 521.369L100.127 514.052ZM112.595 522.336L118.528 512.418L128.941 519.62L123.27 529.429L112.595 522.336ZM124.721 530.393L130.375 520.612L140.491 527.608L135.082 537.277L124.721 530.393ZM136.532 538.24L141.925 528.6L151.766 535.405L146.603 544.932L136.532 538.24ZM148.053 545.896L153.201 536.398L162.78 543.023L157.849 552.404L148.053 545.896ZM159.306 553.372L164.222 544.02L517.935 788.653C521.803 791.328 526.488 792.34 531.123 791.504C535.766 790.66 539.792 788.072 542.477 784.218L845.852 347.994C848.177 344.649 849.274 340.579 848.938 336.529C848.502 331.264 845.761 326.522 841.419 323.521L429.851 38.8822C430.123 38.4691 430.409 38.0676 430.708 37.6784L865.656 326.662C869.839 329.444 872.483 333.912 872.895 338.925L872.889 338.934C873.203 342.632 872.263 346.234 870.192 349.33L566.305 804.153C563.869 807.782 560.176 810.259 555.883 811.112C551.589 811.966 547.218 811.108 543.575 808.69L159.306 553.372ZM429.252 36.711C428.961 37.0933 428.682 37.4864 428.416 37.8898L425.078 35.5811C425.375 35.2268 425.684 34.884 426.005 34.5533L429.252 36.711ZM424.538 33.5785C424.23 33.9056 423.932 34.243 423.645 34.5905L420.549 32.4495C420.873 32.1508 421.205 31.8646 421.546 31.591L424.538 33.5785ZM420.033 30.5856C419.71 30.8592 419.395 31.1435 419.088 31.4384L416.266 29.487C416.613 29.243 416.969 29.0111 417.333 28.7915L420.033 30.5856ZM415.746 27.7371C415.407 27.9608 415.074 28.1947 414.75 28.4384L412.309 26.7503C412.688 26.5617 413.075 26.3861 413.469 26.224L415.746 27.7371ZM411.76 25.0887C411.401 25.2614 411.048 25.4446 410.701 25.6383L408.797 24.3217C409.228 24.1935 409.663 24.0818 410.101 23.9869L411.76 25.0887ZM408.02 22.7489C407.684 22.8544 407.351 22.9692 407.021 23.093L405.956 22.3565C406.325 22.3276 406.695 22.3109 407.063 22.3063C407.386 22.4431 407.705 22.5907 408.02 22.7489ZM86.7855 507.268C86.0728 509.397 85.7991 511.651 85.9894 513.94C86.3486 518.266 88.304 522.183 91.4528 525.023C91.7847 524.304 92.1634 523.601 92.5882 522.918L97.7658 514.563L86.7855 507.268ZM99.2135 515.525L94.0637 523.835C93.5993 524.585 93.1953 525.36 92.8533 526.157C93.1304 526.358 93.4148 526.552 93.7061 526.738L103.994 533.316L110.25 522.858L99.2135 515.525ZM111.705 523.825L105.465 534.256L116.428 541.265L122.401 530.932L111.705 523.825ZM123.852 531.896L117.893 542.202L128.524 548.999L134.233 538.794L123.852 531.896ZM135.683 539.757L129.989 549.936L140.313 556.537L145.774 546.462L135.683 539.757ZM147.224 547.425L141.778 557.474L151.812 563.889L157.038 553.946L147.224 547.425ZM158.496 554.915L153.284 564.83L568.236 830.14C576.077 835.153 586.536 832.868 591.567 825.048L895.969 351.635C897.988 348.498 898.895 344.877 898.586 341.163L898.587 341.171C898.148 335.891 895.34 331.227 890.878 328.373L432.721 35.439C432.413 35.7335 432.114 36.0382 431.824 36.3527L866.6 325.222C871.238 328.301 874.151 333.245 874.615 338.784C874.949 342.881 873.925 346.857 871.635 350.29L567.738 805.106C565.06 809.129 560.959 811.866 556.214 812.815C551.469 813.757 546.631 812.811 542.607 810.133L158.496 554.915ZM430.355 35.3765C430.632 35.0672 430.918 34.7664 431.212 34.4744L428.244 32.5767C427.919 32.8216 427.602 33.0767 427.293 33.3417L430.355 35.3765ZM425.797 32.348C426.089 32.0855 426.388 31.8315 426.695 31.586L424.049 29.8943C423.705 30.0894 423.366 30.2955 423.034 30.5125L425.797 32.348ZM421.47 29.4734C421.779 29.2558 422.093 29.0471 422.412 28.8474L420.155 27.4044C419.784 27.5489 419.419 27.7049 419.06 27.8719L421.47 29.4734ZM417.391 26.7628C417.716 26.5904 418.047 26.4266 418.383 26.2717L416.745 25.2242C416.479 25.2791 416.213 25.3402 415.948 25.4074C415.805 25.4435 415.662 25.4811 415.521 25.5204L417.391 26.7628ZM413.671 24.2912C413.975 24.1828 414.282 24.0815 414.592 23.9875C414.301 23.8462 414.007 23.7137 413.709 23.59C413.363 23.5921 413.016 23.6044 412.671 23.627L413.671 24.2912ZM91.5235 534.366C91.3382 532.141 91.5807 529.941 92.2283 527.852C92.4048 527.973 92.5838 528.092 92.7653 528.208L103.098 534.814L98.03 543.286C97.5967 544.013 97.213 544.76 96.8797 545.524C93.8204 542.615 91.8787 538.638 91.5235 534.366ZM99.5264 544.185L104.569 535.755L115.553 542.778L109.291 553.61L99.7107 547.706C99.2117 547.399 98.7313 547.067 98.2704 546.713C98.6192 545.846 99.0384 545.001 99.5264 544.185ZM110.771 554.522L117.019 543.715L127.67 550.525L121.675 561.241L110.771 554.522ZM123.155 562.153L129.135 551.462L139.479 558.075L133.736 568.673L123.155 562.153ZM135.215 569.584L140.945 559.012L150.997 565.439L145.49 575.916L135.215 569.584ZM146.975 576.832L152.469 566.38L567.294 831.603C575.941 837.124 587.483 834.609 593.029 825.982L897.431 352.569C899.663 349.104 900.663 345.116 900.321 341.021C899.837 335.198 896.736 330.054 891.811 326.903L434.085 34.2513C434.372 34.0238 434.665 33.8043 434.964 33.593L916.091 330.077C920.765 332.959 923.823 337.946 924.278 343.417C924.587 347.131 923.706 350.779 921.739 353.956L616.817 845.968C614.383 849.907 610.539 852.665 606.018 853.733C601.505 854.8 596.838 854.048 592.883 851.608L146.975 576.832ZM433.363 32.6062C433.083 32.8184 432.808 33.0374 432.539 33.263L429.807 31.5164C430.111 31.3316 430.42 31.1548 430.734 30.9865L433.363 32.6062ZM429.051 29.9495C428.762 30.1222 428.478 30.3016 428.198 30.4875L425.858 28.9913C426.185 28.8492 426.516 28.7164 426.85 28.5929L429.051 29.9495ZM425.016 27.463C424.716 27.5961 424.419 27.7364 424.126 27.8837L422.297 26.7148C422.664 26.6206 423.031 26.5379 423.399 26.4665L425.016 27.463ZM421.172 25.2269C420.901 25.3063 420.633 25.3911 420.368 25.481L419.423 24.8772C419.72 24.8614 420.016 24.8529 420.312 24.8519C420.601 24.9686 420.887 25.0936 421.172 25.2269ZM97.6794 548.433C97.0909 550.482 96.8773 552.628 97.0576 554.792C97.411 559.077 99.3091 563.053 102.31 566.023C102.646 565.217 103.036 564.428 103.48 563.661L108.424 555.11L98.8012 549.181C98.4172 548.944 98.0431 548.695 97.6794 548.433ZM109.904 556.022L104.981 564.536C104.475 565.414 104.044 566.323 103.691 567.256C104.333 567.771 105.014 568.245 105.73 568.673L114.575 573.933L120.829 562.754L109.904 556.022ZM122.308 563.666L116.068 574.821L126.909 581.269L132.909 570.198L122.308 563.666ZM134.388 571.109L128.401 582.156L138.921 588.413L144.682 577.453L134.388 571.109ZM146.168 578.368L140.419 589.304L617.546 873.073C621.655 875.51 626.47 876.211 631.102 875.044C635.741 873.877 639.643 870.972 642.097 866.877L947.524 356.275C949.448 353.057 950.303 349.389 949.993 345.668L949.984 345.661C949.51 339.914 946.265 334.727 941.311 331.78L437.443 32.1008C437.154 32.2471 436.87 32.4001 436.59 32.5597L917.008 328.602C922.15 331.764 925.511 337.253 926.012 343.267C926.353 347.355 925.386 351.362 923.22 354.857L618.297 846.862C615.613 851.202 611.387 854.233 606.416 855.404C601.437 856.577 596.305 855.753 591.964 853.068L146.168 578.368ZM434.92 31.5306C435.176 31.3697 435.436 31.2141 435.7 31.0638L433.516 29.7649C433.21 29.8719 432.908 29.9859 432.609 30.107L434.92 31.5306ZM430.819 29.0039C431.085 28.8776 431.354 28.7566 431.626 28.6409L430.066 27.7134C429.731 27.7744 429.397 27.8443 429.065 27.9231L430.819 29.0039ZM427.054 26.6838C427.29 26.6075 427.527 26.5354 427.766 26.4675C427.504 26.3478 427.241 26.2348 426.975 26.1283C426.709 26.1273 426.443 26.1322 426.176 26.1429L427.054 26.6838ZM102.575 575.212C102.4 573.11 102.59 571.021 103.125 569.015C103.67 569.422 104.238 569.802 104.829 570.154L113.729 575.447L108.923 584.036C108.47 584.844 108.074 585.676 107.736 586.526C104.788 583.505 102.934 579.519 102.575 575.212ZM110.436 584.887L115.221 576.334L126.082 582.794L119.851 594.292L111.733 589.626C110.799 589.089 109.924 588.477 109.112 587.8C109.468 586.8 109.91 585.826 110.436 584.887ZM121.355 595.157L127.575 583.682L138.114 589.95L132.123 601.346L121.355 595.157ZM133.633 602.214L139.612 590.841L616.646 874.562C621.149 877.242 626.427 878.008 631.515 876.722C636.604 875.443 640.887 872.258 643.576 867.763L949.003 357.16C951.111 353.626 952.052 349.6 951.712 345.519C951.19 339.222 947.635 333.534 942.197 330.301L439.377 31.2453C439.647 31.1427 439.919 31.0455 440.194 30.9538L966.541 333.49C971.773 336.502 975.198 341.89 975.698 347.904L975.692 347.913C975.995 351.643 975.166 355.331 973.286 358.589L667.346 887.79C662.274 896.565 650.989 899.588 642.193 894.534L133.633 602.214ZM438.236 29.8284C437.994 29.9276 437.754 30.0309 437.516 30.1383L435.797 29.116C436.094 29.0503 436.392 28.9918 436.691 28.9402L438.236 29.8284ZM433.922 27.8141C433.852 27.8348 433.783 27.8557 433.714 27.877L432.935 27.4135C433.164 27.407 433.393 27.4046 433.622 27.4064C433.857 27.499 434.09 27.5965 434.322 27.699C434.188 27.7361 434.055 27.7744 433.922 27.8141ZM108.574 589.585C108.088 591.55 107.923 593.588 108.093 595.632C108.451 599.96 110.27 603.956 113.169 607.027C113.506 606.134 113.906 605.261 114.366 604.412L119.028 595.811L110.864 591.119C110.061 590.656 109.296 590.143 108.574 589.585ZM120.532 596.676L115.892 605.238C115.349 606.239 114.899 607.277 114.543 608.342C115.519 609.187 116.589 609.937 117.743 610.578L125.115 614.679L131.319 602.877L120.532 596.676ZM132.829 603.745L126.637 615.525L666.839 915.994C671.26 918.452 676.369 919.039 681.237 917.665C686.105 916.29 690.141 913.099 692.609 908.693L999.063 360.901C1000.9 357.61 1001.71 353.901 1001.41 350.155C1000.89 343.866 997.279 338.269 991.763 335.201L443.345 30.1753C443.083 30.2182 442.821 30.2664 442.559 30.3199L967.402 331.999C973.133 335.295 976.877 341.191 977.419 347.771C977.751 351.852 976.851 355.889 974.786 359.457L668.846 888.657C663.292 898.258 650.94 901.578 641.319 896.042L132.829 603.745ZM440.391 29.0735L439.669 28.6584C439.855 28.6552 440.042 28.6547 440.229 28.6569C440.454 28.7433 440.678 28.8344 440.901 28.9301C440.731 28.9758 440.561 29.0236 440.391 29.0735ZM113.611 616.045C113.449 614.065 113.592 612.087 114.029 610.171C114.921 610.883 115.877 611.526 116.893 612.092L124.308 616.216L119.801 624.789C119.336 625.675 118.935 626.587 118.598 627.519C115.75 624.401 113.968 620.395 113.611 616.045ZM121.347 625.589L125.829 617.062L666.011 917.497C670.83 920.175 676.41 920.826 681.725 919.317C687.04 917.816 691.449 914.338 694.143 909.525L1000.6 361.733C1002.6 358.143 1003.49 354.085 1003.15 350.004C1002.58 343.134 998.644 337.031 992.612 333.68L446.459 29.9141C446.593 29.9134 446.727 29.9141 446.861 29.9162C447.667 30.2221 448.459 30.5833 449.23 30.9992L1016.98 336.905C1022.79 340.037 1026.58 345.826 1027.12 352.399L1027.12 352.406C1027.43 356.15 1026.64 359.888 1024.84 363.213L717.873 929.603C712.774 939.015 700.942 942.532 691.501 937.452L123.753 631.531C122.374 630.789 121.109 629.897 119.974 628.881C120.33 627.752 120.788 626.65 121.347 625.589ZM119.483 630.75C120.541 631.622 121.693 632.398 122.929 633.064L690.684 938.984C700.962 944.522 713.858 940.685 719.414 930.427L1026.38 364.037C1028.35 360.413 1029.19 356.336 1028.86 352.255C1028.26 345.103 1024.13 338.792 1017.81 335.386L452.693 30.8895C453.756 31.2359 454.798 31.6741 455.808 32.2031L1042.19 338.625C1048.29 341.805 1052.27 347.802 1052.83 354.649L1052.84 354.648C1053.16 358.4 1052.39 362.165 1050.62 365.525L743.144 950.506C740.661 955.222 736.492 958.694 731.396 960.282C726.292 961.872 720.887 961.384 716.156 958.911L129.766 652.498C123.677 649.309 119.697 643.32 119.128 636.465C118.967 634.542 119.089 632.619 119.483 630.75Z"
          fill="white" fill-opacity="0.2"></path>
</svg>
