<svg xmlns="http://www.w3.org/2000/svg" width="28" height="28" viewBox="0 0 28 28" fill="none">
    <path d="M14.0001 19.9263V24.5" stroke="white" stroke-width="1.75" stroke-linecap="round"
          stroke-linejoin="round"></path>
    <path
        d="M3.5 24.5001V22.7833C3.5 21.1149 4.67761 19.6785 6.31359 19.3513L9.63392 18.6872C9.90836 18.6324 10.1934 18.6887 10.4262 18.844V18.844C12.5904 20.2867 15.4097 20.2867 17.5738 18.844V18.844C17.8067 18.6887 18.0917 18.6324 18.3662 18.6872L21.6865 19.3513C23.3224 19.6785 24.5 21.115 24.5 22.7833V24.5001"
        stroke="white" stroke-width="1.75" stroke-linecap="round" stroke-linejoin="round"></path>
    <path
        d="M18.6666 8.63159V11.6669C18.6666 14.2442 16.5772 16.3335 13.9999 16.3335V16.3335C11.4226 16.3335 9.33325 14.2442 9.33325 11.6669V8.63159"
        stroke="white" stroke-width="1.75" stroke-linecap="round" stroke-linejoin="round"></path>
    <path d="M16.4515 15.6396L17.2962 19.0189" stroke="white" stroke-width="1.75" stroke-linecap="round"
          stroke-linejoin="round"></path>
    <path d="M11.5514 15.6396L10.7066 19.0187" stroke="white" stroke-width="1.75" stroke-linecap="round"
          stroke-linejoin="round"></path>
    <path fill-rule="evenodd" clip-rule="evenodd"
          d="M7.11308 7.53213L12.31 10.1049C13.3752 10.6316 14.625 10.6316 15.6901 10.1049L20.8871 7.53213C21.3132 7.32379 21.5834 6.89091 21.5834 6.41658C21.5834 5.94226 21.3132 5.50937 20.8871 5.30104L15.6901 2.72827C14.625 2.20158 13.3752 2.20158 12.31 2.72827L7.11308 5.30104C6.68696 5.50937 6.41675 5.94226 6.41675 6.41658C6.41675 6.89091 6.68696 7.32379 7.11308 7.53213Z"
          stroke="white" stroke-width="1.75" stroke-linecap="round" stroke-linejoin="round"></path>
    <path d="M21.5833 6.45679V9.49012" stroke="white" stroke-width="1.75" stroke-linecap="round"
          stroke-linejoin="round"></path>
</svg>
