<svg xmlns="http://www.w3.org/2000/svg" width="46" height="46" viewBox="0 0 46 46" fill="none">
    <path fill-rule="evenodd" clip-rule="evenodd"
          d="M13.7879 20.5129C13.042 21.2722 11.8206 21.2722 11.0747 20.5129C9.12076 18.5226 5.74219 14.5438 5.74219 10.8182C5.74219 6.95642 8.73727 3.8252 12.4322 3.8252C16.1272 3.8252 19.1223 6.95642 19.1223 10.8182C19.1223 14.5438 15.7437 18.5226 13.7879 20.5129Z"
          stroke="#0FABB5" stroke-width="2.875" stroke-linecap="round" stroke-linejoin="round"></path>
    <path
        d="M12.4353 10.2279C12.1707 10.2279 11.9578 10.4426 11.9578 10.7072C11.9578 10.9699 12.1726 11.1847 12.4353 11.1847C12.6999 11.1847 12.9127 10.9699 12.9127 10.7072C12.9147 10.4426 12.6999 10.2279 12.4353 10.2279"
        stroke="#0FABB5" stroke-width="2.875" stroke-linecap="round" stroke-linejoin="round"></path>
    <path fill-rule="evenodd" clip-rule="evenodd"
          d="M38.6525 33.6478L33.1129 36.9247C32.4207 37.3351 32.4207 38.3379 33.1129 38.7463L38.6525 42.0233C39.3638 42.4451 40.2631 41.9312 40.2631 41.1048V34.5663C40.2631 33.7398 39.3638 33.2259 38.6525 33.6478Z"
          stroke="#0FABB5" stroke-width="2.875" stroke-linecap="round" stroke-linejoin="round"></path>
    <path
        d="M24.9144 37.7606H15.3271C13.2083 37.7606 11.4922 36.0445 11.4922 33.9257V33.9257C11.4922 31.8069 13.2083 30.0908 15.3271 30.0908H26.1627C28.6497 30.0908 30.6668 28.0736 30.6668 25.5866V25.5866C30.6668 23.0997 28.6497 21.0825 26.1627 21.0825H21.0795"
        stroke="#0FABB5" stroke-width="2.875" stroke-linecap="round" stroke-linejoin="round"></path>
</svg>
