<svg xmlns="http://www.w3.org/2000/svg" width="46" height="46" viewBox="0 0 46 46" fill="none">
    <path
        d="M38.2191 29.2497C40.7355 31.7661 40.7355 35.8461 38.2191 38.3626C35.7026 40.8791 31.6226 40.8791 29.1061 38.3626C26.5896 35.8462 26.5896 31.7661 29.1061 29.2497C31.6226 26.7332 35.7026 26.7332 38.2191 29.2497"
        stroke="#0FABB5" stroke-width="2.875" stroke-linecap="round" stroke-linejoin="round"></path>
    <path d="M12.1927 18.7646V27.3705" stroke="#0FABB5" stroke-width="2.875" stroke-linecap="round"
          stroke-linejoin="round"></path>
    <path fill-rule="evenodd" clip-rule="evenodd"
          d="M16.4891 40.25H7.89858C6.71217 40.25 5.75 39.2878 5.75 38.1014V29.5109C5.75 28.3245 6.71217 27.3623 7.89858 27.3623H16.4891C17.6755 27.3623 18.6377 28.3245 18.6377 29.5109V38.1014C18.6377 39.2878 17.6755 40.25 16.4891 40.25Z"
          stroke="#0FABB5" stroke-width="2.875" stroke-linecap="round" stroke-linejoin="round"></path>
    <path d="M33.6771 27.37V19.895" stroke="#0FABB5" stroke-width="2.875" stroke-linecap="round"
          stroke-linejoin="round"></path>
    <path
        d="M16.7503 7.77163C19.2668 10.2881 19.2668 14.3681 16.7503 16.8846C14.2338 19.4011 10.1538 19.4011 7.63735 16.8846C5.12088 14.3681 5.12088 10.2881 7.63735 7.77163C10.1538 5.25516 14.2338 5.25516 16.7503 7.77163"
        stroke="#0FABB5" stroke-width="2.875" stroke-linecap="round" stroke-linejoin="round"></path>
    <path fill-rule="evenodd" clip-rule="evenodd"
          d="M40.7453 13.7098L35.1908 19.2643C34.3513 20.1038 32.9924 20.1038 32.1529 19.2643L26.5984 13.7098C25.7589 12.8703 25.7589 11.5114 26.5984 10.6719L32.1529 5.11742C32.9924 4.27792 34.3513 4.27792 35.1908 5.11742L40.7453 10.6719C41.5829 11.5114 41.5829 12.8703 40.7453 13.7098V13.7098Z"
          stroke="#0FABB5" stroke-width="2.875" stroke-linecap="round" stroke-linejoin="round"></path>
    <path d="M25.9658 12.3241H18.625" stroke="#0FABB5" stroke-width="2.875" stroke-linecap="round"
          stroke-linejoin="round"></path>
</svg>
