<svg xmlns="http://www.w3.org/2000/svg" width="54" height="54" viewBox="0 0 54 54" fill="none">
    <path opacity="0.4"
          d="M41.3506 28.8896V39.9821C41.3506 42.8396 39.1231 45.8996 36.4456 46.7996L29.2681 49.1847C28.0081 49.6122 25.9606 49.6122 24.7231 49.1847L17.5456 46.7996C14.8456 45.8996 12.6406 42.8396 12.6406 39.9821L12.6631 28.8896L22.6081 35.3696C25.0381 36.9671 29.0431 36.9671 31.4731 35.3696L41.3506 28.8896Z"
          fill="#0FABB5"></path>
    <path
        d="M44.9647 14.5353L31.4872 5.69275C29.0572 4.09525 25.0522 4.09525 22.6222 5.69275L9.07719 14.5353C4.73469 17.3478 4.73469 23.7153 9.07719 26.5503L12.6772 28.8903L22.6222 35.3703C25.0522 36.9678 29.0572 36.9678 31.4872 35.3703L41.3647 28.8903L44.4472 26.8653V33.7503C44.4472 34.6728 45.2122 35.4378 46.1347 35.4378C47.0572 35.4378 47.8222 34.6728 47.8222 33.7503V22.6803C48.7222 19.7778 47.7997 16.4028 44.9647 14.5353Z"
        fill="#0FABB5"></path>
</svg>
