<svg xmlns="http://www.w3.org/2000/svg" width="54" height="54" viewBox="0 0 54 54" fill="none">
    <path opacity="0.4"
          d="M36.4275 4.5H17.5725C9.3825 4.5 4.5 9.3825 4.5 17.5725V36.405C4.5 44.6175 9.3825 49.5 17.5725 49.5H36.405C44.595 49.5 49.4775 44.6175 49.4775 36.4275V17.5725C49.5 9.3825 44.6175 4.5 36.4275 4.5Z"
          fill="#0FABB5"></path>
    <path
        d="M37.8619 21.1726C37.7044 20.7901 37.3894 20.4751 37.0069 20.3176C36.8269 20.2501 36.6244 20.2051 36.4219 20.2051H32.2369C31.3594 20.2051 30.6619 20.9026 30.6619 21.7801C30.6619 22.6576 31.3594 23.3551 32.2369 23.3551H32.6419L27.8944 28.1026L25.5994 24.6826C25.3294 24.3001 24.9244 24.0301 24.4519 23.9851C23.9569 23.9401 23.5294 24.0976 23.1919 24.4351L16.4869 31.1401C15.8794 31.7476 15.8794 32.7376 16.4869 33.3676C16.8019 33.6826 17.1844 33.8176 17.5894 33.8176C17.9944 33.8176 18.3994 33.6601 18.6919 33.3676L24.0469 28.0126L26.3419 31.4326C26.6119 31.8151 27.0169 32.0851 27.4894 32.1301C27.9844 32.1751 28.4119 32.0176 28.7494 31.6801L34.8694 25.5601V25.9651C34.8694 26.8426 35.5669 27.5401 36.4444 27.5401C37.3219 27.5401 38.0194 26.8426 38.0194 25.9651V21.7576C37.9744 21.5551 37.9519 21.3526 37.8619 21.1726Z"
        fill="#0FABB5"></path>
</svg>
