<svg width="608" height="46" viewBox="0 0 608 46" fill="none" xmlns="http://www.w3.org/2000/svg">
    <path
        d="M13.2613 30.28C13.2613 32.4667 12.8079 34.4 11.9013 36.08C11.0213 37.7867 9.75458 39.1067 8.10125 40.04C6.47458 40.9733 4.56792 41.44 2.38125 41.44H0.86125L0.38125 35.28H2.14125C3.82125 35.28 5.10125 34.8533 5.98125 34C6.88792 33.1733 7.34125 31.96 7.34125 30.36V17.84H13.2613V30.28ZM7.10125 14.24V9.28H13.2613V14.24H7.10125ZM26.9859 25.84C27.1193 25.84 27.2126 26.0267 27.2659 26.4C27.3459 26.7733 27.3859 27.6267 27.3859 28.96C27.3859 30.24 27.3459 31.0667 27.2659 31.44C27.2126 31.8133 27.1193 32 26.9859 32H25.3859C23.0393 32 21.2526 31.3333 20.0259 30C18.8259 28.6667 18.2259 26.76 18.2259 24.28V6.28H24.1459V23.84C24.1459 24.5333 24.2793 25.04 24.5459 25.36C24.8126 25.68 25.2393 25.84 25.8259 25.84H26.9859ZM31.2322 25.84C31.7922 25.84 32.2322 25.7067 32.5522 25.44C32.8722 25.1467 33.0322 24.7467 33.0322 24.24V17.84H38.9122V24.12C38.9122 25.2667 39.5122 25.84 40.7122 25.84H41.9922C42.2589 25.84 42.3922 26.8667 42.3922 28.92C42.3922 30.9733 42.2589 32 41.9922 32H40.4322C38.2455 32 36.7389 31.4133 35.9122 30.24C35.4055 30.8533 34.7789 31.3067 34.0322 31.6C33.2855 31.8667 32.3522 32 31.2322 32H26.9922C26.7255 32 26.5922 30.9867 26.5922 28.96C26.5922 26.88 26.7255 25.84 26.9922 25.84H31.2322ZM35.3922 35.64V40.6H23.8722V35.64H35.3922ZM46.2322 25.84C46.7922 25.84 47.2322 25.7067 47.5522 25.44C47.8722 25.1467 48.0322 24.7467 48.0322 24.24V17.84H53.9122V24.12C53.9122 25.2667 54.5122 25.84 55.7122 25.84H56.9922C57.2589 25.84 57.3922 26.8667 57.3922 28.92C57.3922 30.9733 57.2589 32 56.9922 32H55.4322C53.2455 32 51.7389 31.4133 50.9122 30.24C50.4055 30.8533 49.7789 31.3067 49.0322 31.6C48.2855 31.8667 47.3522 32 46.2322 32H41.9922C41.7255 32 41.5922 30.9867 41.5922 28.96C41.5922 26.88 41.7255 25.84 41.9922 25.84H46.2322ZM54.1122 9.28V14.24H42.5922V9.28H54.1122ZM58.1522 25.84C58.7122 25.84 59.1255 25.72 59.3922 25.48C59.6589 25.24 59.7922 24.84 59.7922 24.28V23.4C59.7922 20.7867 60.5389 18.72 62.0322 17.2C63.5255 15.68 65.5522 14.92 68.1122 14.92C70.6722 14.92 72.6455 15.6667 74.0322 17.16C75.4189 18.6267 76.1122 20.7333 76.1122 23.48C76.1122 26.1467 75.3789 28.24 73.9122 29.76C72.4722 31.2533 70.4589 32 67.8722 32C66.6722 32 65.6455 31.84 64.7922 31.52C63.9389 31.2 63.2989 30.7733 62.8722 30.24C62.3655 30.8533 61.7255 31.3067 60.9522 31.6C60.2055 31.8667 59.2722 32 58.1522 32H56.9922C56.7255 32 56.5922 30.9867 56.5922 28.96C56.5922 26.88 56.7255 25.84 56.9922 25.84H58.1522ZM70.3922 23.48C70.3922 21.6667 69.5655 20.76 67.9122 20.76C66.2855 20.76 65.4722 21.6667 65.4722 23.48C65.4722 24.28 65.6722 24.9067 66.0722 25.36C66.4989 25.7867 67.1122 26 67.9122 26C68.7655 26 69.3922 25.8 69.7922 25.4C70.1922 24.9733 70.3922 24.3333 70.3922 23.48ZM81.0775 6.28H86.9975V32H81.0775V6.28ZM119.457 32.04C119.457 31.1067 118.897 30.64 117.777 30.64H110.137V22.56C110.137 20.1067 110.844 18.1333 112.257 16.64C113.697 15.1467 115.631 14.4 118.057 14.4H123.857L124.217 20.36H118.137C117.524 20.36 117.017 20.56 116.617 20.96C116.217 21.3333 116.017 21.8533 116.017 22.52V24.56H118.737C121.057 24.56 122.737 25.1467 123.777 26.32C124.817 27.4933 125.337 29.1733 125.337 31.36C125.337 33.2 124.844 34.88 123.857 36.4C122.897 37.9467 121.551 39.1733 119.817 40.08C118.084 40.9867 116.137 41.44 113.977 41.44H110.897C107.404 41.44 104.697 40.4267 102.777 38.4C100.884 36.4 99.9372 33.6133 99.9372 30.04V21.84H105.857V29.88C105.857 31.6933 106.271 33.04 107.097 33.92C107.924 34.8267 109.217 35.28 110.977 35.28H114.137C115.897 35.28 117.217 34.9867 118.097 34.4C119.004 33.8133 119.457 33.0267 119.457 32.04ZM139.16 30.28C139.16 32.4667 138.706 34.4 137.8 36.08C136.92 37.7867 135.653 39.1067 134 40.04C132.373 40.9733 130.466 41.44 128.28 41.44H126.76L126.28 35.28H128.04C129.72 35.28 131 34.8533 131.88 34C132.786 33.1733 133.24 31.96 133.24 30.36V17.84H139.16V30.28ZM160.244 30.16C160.244 33.68 159.311 36.44 157.444 38.44C155.578 40.44 153.018 41.44 149.764 41.44H144.124L143.644 35.36H150.444C151.698 35.36 152.671 35.0533 153.364 34.44C154.084 33.8533 154.444 33.04 154.444 32H152.204C149.244 32 147.124 31.3867 145.844 30.16C144.591 28.9067 143.964 26.92 143.964 24.2C143.964 22.4933 144.298 20.9733 144.964 19.64C145.658 18.28 146.618 17.2267 147.844 16.48C149.098 15.7067 150.524 15.32 152.124 15.32C154.658 15.32 156.644 16.1333 158.084 17.76C159.524 19.36 160.244 21.6 160.244 24.48V30.16ZM149.724 23.92C149.724 24.6933 149.911 25.2533 150.284 25.6C150.684 25.92 151.364 26.08 152.324 26.08H154.524V24.24C154.524 23.2 154.298 22.4133 153.844 21.88C153.418 21.3467 152.804 21.08 152.004 21.08C151.258 21.08 150.684 21.3467 150.284 21.88C149.911 22.3867 149.724 23.0667 149.724 23.92ZM165.718 5.36C164.731 5.36 164.091 5.74667 163.798 6.52L162.797 9.04L159.037 7.36L160.397 3.72C160.904 2.38667 161.557 1.49333 162.357 1.04C163.131 0.559998 164.291 0.319998 165.838 0.319998H175.598V5.36H165.718ZM171.998 9.44V32H166.077V9.44H171.998ZM198.888 25.84C199.022 25.84 199.115 26.0267 199.168 26.4C199.248 26.7733 199.288 27.6267 199.288 28.96C199.288 30.24 199.248 31.0667 199.168 31.44C199.115 31.8133 199.022 32 198.888 32H194.408C192.195 32 190.555 31.8933 189.488 31.68C188.422 31.44 187.502 31 186.728 30.36C184.168 32.0133 182.888 33.8667 182.888 35.92C182.888 38.3467 184.622 39.56 188.088 39.56H195.968L195.488 45.72H187.888C180.608 45.72 176.968 42.52 176.968 36.12C176.968 32.52 178.582 29.36 181.808 26.64L177.408 20.12L180.128 14.88H189.888C191.782 14.88 193.275 15.32 194.368 16.2C195.462 17.0533 196.008 18.2667 196.008 19.84C196.008 20.96 195.768 21.9733 195.288 22.88C194.835 23.7867 193.968 24.8667 192.688 26.12C193.008 25.9333 193.502 25.84 194.168 25.84H198.888ZM187.168 25.28C188.502 24.1333 189.395 23.3067 189.848 22.8C190.328 22.2667 190.568 21.8267 190.568 21.48C190.568 20.84 190.062 20.52 189.048 20.52H183.808L187.168 25.28ZM200.066 25.84C200.626 25.84 201.04 25.72 201.306 25.48C201.573 25.24 201.706 24.84 201.706 24.28V23.4C201.706 20.7867 202.453 18.72 203.946 17.2C205.44 15.68 207.466 14.92 210.026 14.92C212.586 14.92 214.56 15.6667 215.946 17.16C217.333 18.6267 218.026 20.7333 218.026 23.48V24.04C218.026 24.68 218.16 25.1467 218.426 25.44C218.72 25.7067 219.133 25.84 219.666 25.84H220.826C221.093 25.84 221.226 26.88 221.226 28.96C221.226 30.9867 221.093 32 220.826 32H219.746C217.533 32 216 31.4267 215.146 30.28C213.92 31.4267 212.133 32 209.786 32C208.586 32 207.56 31.84 206.706 31.52C205.853 31.2 205.213 30.7733 204.786 30.24C204.28 30.8533 203.64 31.3067 202.866 31.6C202.12 31.8667 201.186 32 200.066 32H198.906C198.64 32 198.506 30.9867 198.506 28.96C198.506 26.88 198.64 25.84 198.906 25.84H200.066ZM212.306 23.48C212.306 21.6667 211.48 20.76 209.826 20.76C208.2 20.76 207.386 21.6667 207.386 23.48C207.386 24.28 207.586 24.9067 207.986 25.36C208.413 25.7867 209.026 26 209.826 26C210.68 26 211.306 25.8 211.706 25.4C212.106 24.9733 212.306 24.3333 212.306 23.48ZM223.86 25.84C225.834 25.84 227.487 25.7067 228.82 25.44C230.18 25.1733 231.594 24.6667 233.06 23.92L235.62 22.44C235.407 21.64 235.087 21.0933 234.66 20.8C234.26 20.5067 233.647 20.36 232.82 20.36H223.7L224.3 14.32H234.1C235.727 14.32 237.06 14.6267 238.1 15.24C239.14 15.8533 240.02 16.8667 240.74 18.28C241.46 19.6933 242.114 21.6933 242.7 24.28L234.46 29.24C232.78 30.28 231.14 31 229.54 31.4C227.94 31.8 225.954 32 223.58 32H220.82C220.554 32 220.42 30.9867 220.42 28.96C220.42 26.88 220.554 25.84 220.82 25.84H223.86ZM226.94 40.6V35.64H233.1V40.6H226.94ZM270.869 30.16C270.869 33.68 269.936 36.44 268.069 38.44C266.203 40.44 263.643 41.44 260.389 41.44H254.749L254.269 35.36H261.069C262.323 35.36 263.296 35.0533 263.989 34.44C264.709 33.8533 265.069 33.04 265.069 32H262.829C259.869 32 257.749 31.3867 256.469 30.16C255.216 28.9067 254.589 26.92 254.589 24.2C254.589 22.4933 254.923 20.9733 255.589 19.64C256.283 18.28 257.243 17.2267 258.469 16.48C259.723 15.7067 261.149 15.32 262.749 15.32C265.283 15.32 267.269 16.1333 268.709 17.76C270.149 19.36 270.869 21.6 270.869 24.48V30.16ZM260.349 23.92C260.349 24.6933 260.536 25.2533 260.909 25.6C261.309 25.92 261.989 26.08 262.949 26.08H265.149V24.24C265.149 23.2 264.923 22.4133 264.469 21.88C264.043 21.3467 263.429 21.08 262.629 21.08C261.883 21.08 261.309 21.3467 260.909 21.88C260.536 22.3867 260.349 23.0667 260.349 23.92ZM299.812 25.84C299.465 25.4133 299.199 24.8667 299.012 24.2C298.825 23.5067 298.732 22.8133 298.732 22.12C298.732 20.6267 299.092 19.2533 299.812 18C300.532 16.7467 301.519 15.76 302.772 15.04C304.025 14.32 305.412 13.96 306.932 13.96C308.532 13.96 309.945 14.3067 311.172 15C312.425 15.6667 313.385 16.6 314.052 17.8C314.745 19 315.092 20.3733 315.092 21.92C315.092 23.52 314.665 24.8267 313.812 25.84H317.892C318.159 25.84 318.292 26.88 318.292 28.96C318.292 30.9867 318.159 32 317.892 32H312.412C310.945 32 309.785 31.9467 308.932 31.84C308.079 31.7067 307.399 31.48 306.892 31.16C305.959 31.72 304.159 32 301.492 32H291.052C288.625 32 286.759 31.3467 285.452 30.04C284.145 28.7333 283.492 26.8667 283.492 24.44V17.84H289.412V23.64C289.412 24.3867 289.572 24.9467 289.892 25.32C290.212 25.6667 290.745 25.84 291.492 25.84H299.812ZM306.932 25.84C307.732 25.4667 308.345 24.96 308.772 24.32C309.225 23.6533 309.452 22.9733 309.452 22.28C309.452 21.5067 309.225 20.9067 308.772 20.48C308.345 20.0267 307.732 19.8 306.932 19.8C306.159 19.8 305.545 20.04 305.092 20.52C304.665 20.9733 304.452 21.56 304.452 22.28C304.452 22.9733 304.665 23.64 305.092 24.28C305.545 24.92 306.159 25.44 306.932 25.84ZM303.852 10.56V5.6H310.012V10.56H303.852ZM322.131 25.84C322.691 25.84 323.131 25.7067 323.451 25.44C323.771 25.1467 323.931 24.7467 323.931 24.24V17.84H329.811V24.12C329.811 25.2667 330.411 25.84 331.611 25.84H332.891C333.157 25.84 333.291 26.8667 333.291 28.92C333.291 30.9733 333.157 32 332.891 32H331.331C329.144 32 327.637 31.4133 326.811 30.24C326.304 30.8533 325.677 31.3067 324.931 31.6C324.184 31.8667 323.251 32 322.131 32H317.891C317.624 32 317.491 30.9867 317.491 28.96C317.491 26.88 317.624 25.84 317.891 25.84H322.131ZM326.291 35.64V40.6H314.771V35.64H326.291ZM336.691 25.84C336.344 25.4133 336.064 24.8667 335.851 24.2C335.664 23.5067 335.571 22.8133 335.571 22.12C335.571 20.6267 335.931 19.2533 336.651 18C337.371 16.7467 338.357 15.76 339.611 15.04C340.864 14.32 342.264 13.96 343.811 13.96C345.411 13.96 346.824 14.3067 348.051 15C349.304 15.6667 350.264 16.6 350.931 17.8C351.624 19 351.971 20.3733 351.971 21.92C351.971 23.4667 351.544 24.7733 350.691 25.84H354.731C354.864 25.84 354.957 26.0267 355.011 26.4C355.091 26.7733 355.131 27.6267 355.131 28.96C355.131 30.24 355.091 31.0667 355.011 31.44C354.957 31.8133 354.864 32 354.731 32H349.251C347.784 32 346.624 31.9467 345.771 31.84C344.944 31.7067 344.264 31.48 343.731 31.16C342.797 31.72 341.011 32 338.371 32H332.891C332.624 32 332.491 30.9867 332.491 28.96C332.491 26.88 332.624 25.84 332.891 25.84H336.691ZM343.811 19.8C343.037 19.8 342.424 20.04 341.971 20.52C341.544 20.9733 341.331 21.56 341.331 22.28C341.331 22.9733 341.544 23.64 341.971 24.28C342.424 24.92 343.037 25.44 343.811 25.84C344.611 25.4667 345.224 24.9467 345.651 24.28C346.104 23.6133 346.331 22.9467 346.331 22.28C346.331 21.5067 346.104 20.9067 345.651 20.48C345.224 20.0267 344.611 19.8 343.811 19.8ZM340.731 10.56V5.6H346.891V10.56H340.731ZM368.007 14.32C369.527 14.32 370.78 14.5867 371.767 15.12C372.78 15.6533 373.66 16.5867 374.407 17.92C375.153 19.2267 375.82 21.08 376.407 23.48L373.967 25.08C374.127 25.32 374.487 25.5067 375.047 25.64C375.607 25.7733 376.167 25.84 376.727 25.84H379.127C379.393 25.84 379.527 26.88 379.527 28.96C379.527 30.2667 379.487 31.1067 379.407 31.48C379.327 31.8267 379.233 32 379.127 32H376.247C374.753 32 373.513 31.72 372.527 31.16C371.54 30.6 370.647 29.6533 369.847 28.32L368.367 29.24C366.687 30.28 365.047 31 363.447 31.4C361.847 31.8 359.86 32 357.487 32H354.727C354.46 32 354.327 30.9867 354.327 28.96C354.327 26.88 354.46 25.84 354.727 25.84H357.767C359.74 25.84 361.393 25.7067 362.727 25.44C364.087 25.1733 365.5 24.6667 366.967 23.92L369.527 22.44C369.313 21.64 368.993 21.0933 368.567 20.8C368.167 20.5067 367.553 20.36 366.727 20.36H357.607L358.207 14.32H368.007ZM362.087 10.68V5.72H368.247V10.68H362.087ZM390.501 24.52C390.501 26.84 389.807 28.6667 388.421 30C387.061 31.3333 385.221 32 382.901 32H379.141C378.874 32 378.741 30.9867 378.741 28.96C378.741 26.88 378.874 25.84 379.141 25.84H382.901C383.434 25.84 383.861 25.6933 384.181 25.4C384.527 25.1067 384.701 24.72 384.701 24.24V17.84H390.501V24.52ZM391.421 9.28V14.24H379.901V9.28H391.421ZM423.141 25.84C423.675 25.84 424.101 25.7067 424.421 25.44C424.741 25.1733 424.901 24.7867 424.901 24.28V17.84H430.821V24.12C430.821 25.2667 431.408 25.84 432.581 25.84H433.861C434.128 25.84 434.261 26.88 434.261 28.96C434.261 30.9867 434.128 32 433.861 32H432.301C430.115 32 428.608 31.4133 427.781 30.24C427.275 30.8533 426.648 31.3067 425.901 31.6C425.181 31.8667 424.261 32 423.141 32H410.661C408.235 32 406.368 31.3467 405.061 30.04C403.755 28.7333 403.101 26.8667 403.101 24.44V17.84H409.021V23.64C409.021 24.3867 409.181 24.9467 409.501 25.32C409.821 25.6667 410.355 25.84 411.101 25.84H423.141ZM422.701 10.24V15.2H411.181V10.24H422.701ZM438.707 25.84C437.321 24.88 436.627 23.48 436.627 21.64C436.627 20.1733 436.961 18.8267 437.627 17.6C438.321 16.3467 439.281 15.3467 440.507 14.6C441.761 13.8533 443.214 13.48 444.867 13.48C447.507 13.48 449.534 14.2667 450.947 15.84C452.361 17.4133 453.067 19.6267 453.067 22.48V23.92C453.067 26.56 452.174 28.5733 450.387 29.96C448.601 31.32 446.014 32 442.627 32H433.867C433.601 32 433.467 30.9867 433.467 28.96C433.467 26.88 433.601 25.84 433.867 25.84H437.867H438.707ZM446.707 25.6C447.187 25.0933 447.427 24.24 447.427 23.04V22.64C447.427 21.5467 447.201 20.72 446.747 20.16C446.294 19.5733 445.641 19.28 444.787 19.28C444.121 19.28 443.547 19.52 443.067 20C442.614 20.4533 442.387 21.0267 442.387 21.72C442.387 22.5733 442.707 23.3067 443.347 23.92C444.014 24.5067 445.134 25.0667 446.707 25.6ZM441.667 10.32V5.36H447.827V10.32H441.667ZM466.791 25.84C466.924 25.84 467.017 26.0267 467.071 26.4C467.151 26.7733 467.191 27.6267 467.191 28.96C467.191 30.24 467.151 31.0667 467.071 31.44C467.017 31.8133 466.924 32 466.791 32H465.191C462.844 32 461.057 31.3333 459.831 30C458.631 28.6667 458.031 26.76 458.031 24.28V6.28H463.951V23.84C463.951 24.5333 464.084 25.04 464.351 25.36C464.617 25.68 465.044 25.84 465.631 25.84H466.791ZM476.397 25.84C476.904 25.84 477.317 25.6933 477.637 25.4C477.984 25.1067 478.157 24.72 478.157 24.24V17.84H483.957V24.52C483.957 26.84 483.264 28.6667 481.877 30C480.517 31.3333 478.677 32 476.357 32H466.797C466.53 32 466.397 30.9867 466.397 28.96C466.397 26.88 466.53 25.84 466.797 25.84H476.397ZM478.717 35.64V40.6H467.197V35.64H478.717ZM495.878 30.28C495.878 32.4667 495.425 34.4 494.518 36.08C493.638 37.7867 492.372 39.1067 490.718 40.04C489.092 40.9733 487.185 41.44 484.998 41.44H483.478L482.998 35.28H484.758C486.438 35.28 487.718 34.8533 488.598 34C489.505 33.1733 489.958 31.96 489.958 30.36V17.84H495.878V30.28ZM515.923 18.96C516.963 20.1867 517.683 21.2933 518.083 22.28C518.483 23.2667 518.683 24.2933 518.683 25.36C518.683 27.3333 518.003 28.9333 516.643 30.16C515.283 31.3867 513.403 32 511.003 32H500.123L499.643 25.84H510.243C510.856 25.84 511.336 25.7333 511.683 25.52C512.056 25.3067 512.243 25.0133 512.243 24.64C512.243 24.3467 512.163 24.0667 512.003 23.8C511.87 23.5067 511.603 23.12 511.203 22.64L504.643 14.92L508.963 10.64L515.923 18.96ZM531.304 24.76C531.304 23.3733 531.651 22 532.344 20.64C533.038 19.2533 534.144 17.7733 535.664 16.2L533.944 14.44L538.144 10.12C540.864 12.52 542.931 14.5467 544.344 16.2C545.758 17.8267 546.718 19.2533 547.224 20.48C547.758 21.7067 548.024 23 548.024 24.36C548.024 25.9067 547.664 27.2933 546.944 28.52C546.224 29.7467 545.198 30.7067 543.864 31.4C542.558 32.0667 541.051 32.4 539.344 32.4C536.891 32.4 534.931 31.7067 533.464 30.32C532.024 28.9067 531.304 27.0533 531.304 24.76ZM542.304 24.2C542.304 23.48 542.104 22.8 541.704 22.16C541.331 21.4933 540.651 20.7467 539.664 19.92C538.758 20.7467 538.091 21.52 537.664 22.24C537.264 22.9333 537.064 23.6267 537.064 24.32C537.064 24.9067 537.291 25.4 537.744 25.8C538.198 26.2 538.798 26.4 539.544 26.4C540.371 26.4 541.038 26.2 541.544 25.8C542.051 25.3733 542.304 24.84 542.304 24.2ZM571.912 25.84C572.178 25.84 572.312 26.88 572.312 28.96C572.312 30.9867 572.178 32 571.912 32H568.992C568.698 34.96 567.632 37.2667 565.792 38.92C563.978 40.6 561.592 41.44 558.632 41.44H552.992L552.512 35.36H559.312C560.565 35.36 561.538 35.0533 562.232 34.44C562.952 33.8533 563.312 33.04 563.312 32H561.072C558.112 32 555.992 31.3867 554.712 30.16C553.458 28.9067 552.832 26.92 552.832 24.2C552.832 22.4933 553.165 20.9733 553.832 19.64C554.525 18.28 555.485 17.2267 556.712 16.48C557.965 15.7067 559.392 15.32 560.992 15.32C563.525 15.32 565.512 16.1333 566.952 17.76C568.392 19.36 569.112 21.6 569.112 24.48V25.84H571.912ZM558.592 23.92C558.592 24.6933 558.778 25.2533 559.152 25.6C559.552 25.92 560.232 26.08 561.192 26.08H563.392V24.24C563.392 23.2 563.165 22.4133 562.712 21.88C562.285 21.3467 561.672 21.08 560.872 21.08C560.125 21.08 559.552 21.3467 559.152 21.88C558.778 22.3867 558.592 23.0667 558.592 23.92ZM585.194 14.32C586.714 14.32 587.967 14.5867 588.954 15.12C589.967 15.6533 590.847 16.5867 591.594 17.92C592.341 19.2267 593.007 21.08 593.594 23.48L591.154 25.08C591.314 25.32 591.674 25.5067 592.234 25.64C592.794 25.7733 593.354 25.84 593.914 25.84H596.314C596.581 25.84 596.714 26.88 596.714 28.96C596.714 30.2667 596.674 31.1067 596.594 31.48C596.514 31.8267 596.421 32 596.314 32H593.434C591.941 32 590.701 31.72 589.714 31.16C588.727 30.6 587.834 29.6533 587.034 28.32L585.554 29.24C583.874 30.28 582.234 31 580.634 31.4C579.034 31.8 577.047 32 574.674 32H571.914C571.647 32 571.514 30.9867 571.514 28.96C571.514 26.88 571.647 25.84 571.914 25.84H574.954C576.927 25.84 578.581 25.7067 579.914 25.44C581.274 25.1733 582.687 24.6667 584.154 23.92L586.714 22.44C586.501 21.64 586.181 21.0933 585.754 20.8C585.354 20.5067 584.741 20.36 583.914 20.36H574.794L575.394 14.32H585.194ZM607.688 24.52C607.688 26.84 606.995 28.6667 605.608 30C604.248 31.3333 602.408 32 600.088 32H596.328C596.061 32 595.928 30.9867 595.928 28.96C595.928 26.88 596.061 25.84 596.328 25.84H600.088C600.621 25.84 601.048 25.6933 601.368 25.4C601.715 25.1067 601.888 24.72 601.888 24.24V17.84H607.688V24.52ZM600.088 14.24V9.28H606.248V14.24H600.088Z"
        fill="url(#paint0_linear_2998_41964)"/>
    <defs>
        <linearGradient id="paint0_linear_2998_41964" x1="-299.5" y1="54" x2="618.178" y2="-22.7609"
                        gradientUnits="userSpaceOnUse">
            <stop stop-color="#303030"/>
            <stop offset="1" stop-color="white"/>
        </linearGradient>
    </defs>
</svg>
