<svg xmlns="http://www.w3.org/2000/svg" width="54" height="54" viewBox="0 0 54 54" fill="none"><path opacity="0.4" d="M40.5 42.4344H38.79C36.99 42.4344 35.28 43.1319 34.02 44.3919L30.1725 48.1944C28.4175 49.9269 25.56 49.9269 23.805 48.1944L19.9575 44.3919C18.6975 43.1319 16.965 42.4344 15.1875 42.4344H13.5C9.765 42.4344 6.75 39.442 6.75 35.752V11.2044C6.75 7.51441 9.765 4.52197 13.5 4.52197H40.5C44.235 4.52197 47.25 7.51441 47.25 11.2044V35.752C47.25 39.4195 44.235 42.4344 40.5 42.4344Z" fill="#0FABB5"></path><path d="M23.356 32.6469H17.326C16.336 32.6469 15.4135 32.1744 14.8285 31.3644C14.266 30.5994 14.131 29.6544 14.401 28.7544C15.1885 26.3469 17.1235 25.0418 18.8335 23.8718C20.6335 22.6568 21.646 21.8919 21.646 20.5869C21.646 19.4169 20.701 18.4719 19.531 18.4719C18.361 18.4719 17.416 19.4169 17.416 20.5869C17.416 21.5094 16.651 22.2744 15.7285 22.2744C14.806 22.2744 14.041 21.5094 14.041 20.5869C14.041 17.5719 16.4935 15.0969 19.531 15.0969C22.5685 15.0969 25.021 17.5494 25.021 20.5869C25.021 23.7594 22.636 25.3793 20.7235 26.6843C19.531 27.4943 18.406 28.2594 17.8435 29.2719H23.3335C24.256 29.2719 25.021 30.0369 25.021 30.9594C25.021 31.8819 24.2785 32.6469 23.356 32.6469Z" fill="#0FABB5"></path><path d="M36.0963 32.6474C35.1738 32.6474 34.4088 31.8824 34.4088 30.9599V29.4074H29.9988C29.9988 29.4074 29.9988 29.4074 29.9763 29.4074C28.8738 29.4074 27.8613 28.8224 27.2988 27.8774C26.7363 26.9099 26.7363 25.7174 27.2988 24.7724C28.8288 22.1399 30.6063 19.1473 32.2263 16.5373C32.9463 15.3898 34.3188 14.8724 35.6013 15.2324C36.8838 15.6149 37.7838 16.7849 37.7613 18.1349V26.0549H38.2563C39.1788 26.0549 39.9438 26.8199 39.9438 27.7424C39.9438 28.6649 39.1788 29.4299 38.2563 29.4299H37.7838V30.9824C37.7838 31.9049 37.0413 32.6474 36.0963 32.6474ZM34.4088 19.4399C33.0813 21.5999 31.7088 23.9174 30.4713 26.0324H34.4088V19.4399Z" fill="#0FABB5"></path></svg>
