<svg xmlns="http://www.w3.org/2000/svg" width="28" height="28" viewBox="0 0 28 28" fill="none"><path fill-rule="evenodd" clip-rule="evenodd" d="M19.836 24.5044H8.16446C5.58606 24.5044 3.49585 22.4142 3.49585 19.8358V10.4986C3.49585 9.20941 4.54095 8.16431 5.83016 8.16431H22.1703C23.4595 8.16431 24.5046 9.20941 24.5046 10.4986V19.8358C24.5046 22.4142 22.4144 24.5044 19.836 24.5044Z" stroke="white" stroke-width="1.75" stroke-linecap="round" stroke-linejoin="round"></path><path d="M9.33154 8.16422V5.82991C9.33154 4.54071 10.3766 3.49561 11.6658 3.49561H16.3345C17.6237 3.49561 18.6688 4.54071 18.6688 5.82991V8.16422" stroke="white" stroke-width="1.75" stroke-linecap="round" stroke-linejoin="round"></path><rect x="11.666" y="12.833" width="4.66861" height="3.50146" rx="0.583333" stroke="white" stroke-width="1.75" stroke-linecap="round" stroke-linejoin="round"></rect><path d="M16.3342 14.5836H20.4193C22.6754 14.5836 24.5043 12.7546 24.5043 10.4985V10.4985" stroke="white" stroke-width="1.75" stroke-linecap="round" stroke-linejoin="round"></path><path d="M11.6659 14.5836H7.58088C5.32478 14.5836 3.49585 12.7546 3.49585 10.4985V10.4985" stroke="white" stroke-width="1.75" stroke-linecap="round" stroke-linejoin="round"></path></svg>
