<svg width="29" height="28" viewBox="0 0 29 28" fill="none" xmlns="http://www.w3.org/2000/svg">
<path d="M22.087 8.10964L19.3269 4.42949C18.5835 3.43837 17.1954 3.2006 16.1646 3.88781L9.75 8.16422" stroke="#A0A3A9" stroke-width="1.75" stroke-linecap="round" stroke-linejoin="round"/>
<path fill-rule="evenodd" clip-rule="evenodd" d="M22.0859 13.4164H25.0037C25.6483 13.4164 26.1709 13.9389 26.1709 14.5835V18.085C26.1709 18.7296 25.6483 19.2521 25.0037 19.2521H22.0859C20.4743 19.2521 19.168 17.9458 19.168 16.3343V16.3343C19.168 14.7228 20.4743 13.4164 22.0859 13.4164V13.4164Z" stroke="#A0A3A9" stroke-width="1.75" stroke-linecap="round" stroke-linejoin="round"/>
<path d="M25.0009 13.4164V11.0821C25.0009 9.47056 23.6946 8.16418 22.0831 8.16418H6.91007C5.29857 8.16418 3.99219 9.47056 3.99219 11.0821V21.5864C3.99219 23.1979 5.29857 24.5043 6.91007 24.5043H22.0831C23.6946 24.5043 25.0009 23.1979 25.0009 21.5864V19.2521" stroke="#A0A3A9" stroke-width="1.75" stroke-linecap="round" stroke-linejoin="round"/>
</svg>
