<svg width="373" height="40" viewBox="0 0 373 40" fill="none" xmlns="http://www.w3.org/2000/svg">
<path d="M10.1122 34.496C6.96816 34.496 4.53216 33.584 2.80416 31.76C1.10016 29.96 0.248156 27.452 0.248156 24.236V16.856H5.57616V24.092C5.57616 25.724 5.94816 26.936 6.69216 27.728C7.43616 28.544 8.60016 28.952 10.1842 28.952H11.6242C13.1842 28.952 14.3962 28.568 15.2602 27.8C16.1242 27.032 16.5562 25.94 16.5562 24.524V2.852H21.8482V24.092C21.8482 26.204 21.4282 28.04 20.5882 29.6C19.7482 31.184 18.5482 32.396 16.9882 33.236C15.4522 34.076 13.6642 34.496 11.6242 34.496H10.1122ZM43.6149 20.456C43.8549 20.456 43.9749 21.392 43.9749 23.264C43.9749 25.088 43.8549 26 43.6149 26H40.9869C40.7229 28.664 39.7629 30.74 38.1069 32.228C36.4749 33.74 34.3269 34.496 31.6629 34.496H26.5869L26.1549 29.024H32.2749C33.4029 29.024 34.2789 28.748 34.9029 28.196C35.5509 27.668 35.8749 26.936 35.8749 26H33.8589C31.1949 26 29.2869 25.448 28.1349 24.344C27.0069 23.216 26.4429 21.428 26.4429 18.98C26.4429 17.444 26.7429 16.076 27.3429 14.876C27.9669 13.652 28.8309 12.704 29.9349 12.032C31.0629 11.336 32.3469 10.988 33.7869 10.988C36.0669 10.988 37.8549 11.72 39.1509 13.184C40.4469 14.624 41.0949 16.64 41.0949 19.232V20.456H43.6149ZM31.6269 18.728C31.6269 19.424 31.7949 19.928 32.1309 20.24C32.4909 20.528 33.1029 20.672 33.9669 20.672H35.9469V19.016C35.9469 18.08 35.7429 17.372 35.3349 16.892C34.9509 16.412 34.3989 16.172 33.6789 16.172C33.0069 16.172 32.4909 16.412 32.1309 16.892C31.7949 17.348 31.6269 17.96 31.6269 18.728ZM52.2572 20.456C52.7132 20.456 53.0852 20.324 53.3732 20.06C53.6852 19.796 53.8412 19.448 53.8412 19.016V13.256H59.0612V19.268C59.0612 21.356 58.4372 23 57.1892 24.2C55.9652 25.4 54.3092 26 52.2212 26H43.6172C43.3772 26 43.2572 25.088 43.2572 23.264C43.2572 21.392 43.3772 20.456 43.6172 20.456H52.2572ZM53.9132 29.276V33.74H43.5452V29.276H53.9132ZM46.4612 39.572V35.252H50.9972V39.572H46.4612ZM85.108 20.456C84.796 20.072 84.556 19.58 84.388 18.98C84.22 18.356 84.136 17.732 84.136 17.108C84.136 15.764 84.46 14.528 85.108 13.4C85.756 12.272 86.644 11.384 87.772 10.736C88.9 10.088 90.148 9.764 91.516 9.764C92.956 9.764 94.228 10.076 95.332 10.7C96.46 11.3 97.324 12.14 97.924 13.22C98.548 14.3 98.86 15.536 98.86 16.928C98.86 18.368 98.476 19.544 97.708 20.456H101.38C101.62 20.456 101.74 21.392 101.74 23.264C101.74 25.088 101.62 26 101.38 26H96.448C95.128 26 94.084 25.952 93.316 25.856C92.548 25.736 91.936 25.532 91.48 25.244C90.64 25.748 89.02 26 86.62 26H77.224C75.04 26 73.36 25.412 72.184 24.236C71.008 23.06 70.42 21.38 70.42 19.196V13.256H75.748V18.476C75.748 19.148 75.892 19.652 76.18 19.988C76.468 20.3 76.948 20.456 77.62 20.456H85.108ZM91.516 20.456C92.236 20.12 92.788 19.664 93.172 19.088C93.58 18.488 93.784 17.876 93.784 17.252C93.784 16.556 93.58 16.016 93.172 15.632C92.788 15.224 92.236 15.02 91.516 15.02C90.82 15.02 90.268 15.236 89.86 15.668C89.476 16.076 89.284 16.604 89.284 17.252C89.284 17.876 89.476 18.476 89.86 19.052C90.268 19.628 90.82 20.096 91.516 20.456ZM88.744 6.704V2.24H94.288V6.704H88.744ZM105.195 20.456C105.699 20.456 106.095 20.336 106.383 20.096C106.671 19.832 106.815 19.472 106.815 19.016V13.256H112.107V18.908C112.107 19.94 112.647 20.456 113.727 20.456H114.879C115.119 20.456 115.239 21.38 115.239 23.228C115.239 25.076 115.119 26 114.879 26H113.475C111.507 26 110.151 25.472 109.407 24.416C108.951 24.968 108.387 25.376 107.715 25.64C107.043 25.88 106.203 26 105.195 26H101.379C101.139 26 101.019 25.088 101.019 23.264C101.019 21.392 101.139 20.456 101.379 20.456H105.195ZM108.939 29.24V33.704H98.5709V29.24H108.939ZM123.987 20.456C124.563 20.456 125.007 20.36 125.319 20.168C125.631 19.976 125.787 19.712 125.787 19.376C125.787 19.064 125.703 18.776 125.535 18.512C125.391 18.224 125.151 17.912 124.815 17.576L117.327 10.268V6.092L131.295 0.799998L132.699 5.984L124.059 9.26L128.811 14.012C129.795 14.972 130.491 15.92 130.899 16.856C131.307 17.792 131.511 18.8 131.511 19.88C131.511 21.776 130.875 23.276 129.603 24.38C128.355 25.46 126.639 26 124.455 26H114.879C114.639 26 114.519 25.088 114.519 23.264C114.519 21.392 114.639 20.456 114.879 20.456H123.987ZM152.654 24.452C152.654 26.42 152.246 28.16 151.43 29.672C150.638 31.208 149.498 32.396 148.01 33.236C146.546 34.076 144.83 34.496 142.862 34.496H141.494L141.062 28.952H142.646C144.158 28.952 145.31 28.568 146.102 27.8C146.918 27.056 147.326 25.964 147.326 24.524V13.256H152.654V24.452ZM147.11 10.016V5.552H152.654V10.016H147.11ZM157.122 2.852H162.45V26H157.122V2.852ZM174.096 19.484C174.096 18.236 174.408 17 175.032 15.776C175.656 14.528 176.652 13.196 178.02 11.78L176.472 10.196L180.252 6.308C182.7 8.468 184.56 10.292 185.832 11.78C187.104 13.244 187.968 14.528 188.424 15.632C188.904 16.736 189.144 17.9 189.144 19.124C189.144 20.516 188.82 21.764 188.172 22.868C187.524 23.972 186.6 24.836 185.4 25.46C184.224 26.06 182.868 26.36 181.332 26.36C179.124 26.36 177.36 25.736 176.04 24.488C174.744 23.216 174.096 21.548 174.096 19.484ZM183.996 18.98C183.996 18.332 183.816 17.72 183.456 17.144C183.12 16.544 182.508 15.872 181.62 15.128C180.804 15.872 180.204 16.568 179.82 17.216C179.46 17.84 179.28 18.464 179.28 19.088C179.28 19.616 179.484 20.06 179.892 20.42C180.3 20.78 180.84 20.96 181.512 20.96C182.256 20.96 182.856 20.78 183.312 20.42C183.768 20.036 183.996 19.556 183.996 18.98ZM207.186 14.264C208.122 15.368 208.77 16.364 209.13 17.252C209.49 18.14 209.67 19.064 209.67 20.024C209.67 21.8 209.058 23.24 207.834 24.344C206.61 25.448 204.918 26 202.758 26H192.966L192.534 20.456H202.074C202.626 20.456 203.058 20.36 203.37 20.168C203.706 19.976 203.874 19.712 203.874 19.376C203.874 19.112 203.802 18.86 203.658 18.62C203.538 18.356 203.298 18.008 202.938 17.576L197.034 10.628L200.922 6.776L207.186 14.264ZM222.03 20.456C222.15 20.456 222.234 20.624 222.282 20.96C222.354 21.296 222.39 22.064 222.39 23.264C222.39 24.416 222.354 25.16 222.282 25.496C222.234 25.832 222.15 26 222.03 26H220.59C218.478 26 216.87 25.4 215.766 24.2C214.686 23 214.146 21.284 214.146 19.052V2.852H219.474V18.656C219.474 19.28 219.594 19.736 219.834 20.024C220.074 20.312 220.458 20.456 220.986 20.456H222.03ZM225.455 20.456C225.143 20.072 224.891 19.58 224.699 18.98C224.531 18.356 224.447 17.732 224.447 17.108C224.447 15.764 224.771 14.528 225.419 13.4C226.067 12.272 226.955 11.384 228.083 10.736C229.211 10.088 230.471 9.764 231.863 9.764C233.303 9.764 234.575 10.076 235.679 10.7C236.807 11.3 237.671 12.14 238.271 13.22C238.895 14.3 239.207 15.536 239.207 16.928C239.207 18.32 238.823 19.496 238.055 20.456H241.691C241.811 20.456 241.895 20.624 241.943 20.96C242.015 21.296 242.051 22.064 242.051 23.264C242.051 24.416 242.015 25.16 241.943 25.496C241.895 25.832 241.811 26 241.691 26H236.759C235.439 26 234.395 25.952 233.627 25.856C232.883 25.736 232.271 25.532 231.791 25.244C230.951 25.748 229.343 26 226.967 26H222.035C221.795 26 221.675 25.088 221.675 23.264C221.675 21.392 221.795 20.456 222.035 20.456H225.455ZM231.863 15.02C231.167 15.02 230.615 15.236 230.207 15.668C229.823 16.076 229.631 16.604 229.631 17.252C229.631 17.876 229.823 18.476 230.207 19.052C230.615 19.628 231.167 20.096 231.863 20.456C232.583 20.12 233.135 19.652 233.519 19.052C233.927 18.452 234.131 17.852 234.131 17.252C234.131 16.556 233.927 16.016 233.519 15.632C233.135 15.224 232.583 15.02 231.863 15.02ZM229.091 6.704V2.24H234.635V6.704H229.091ZM245.504 20.456C246.008 20.456 246.404 20.336 246.692 20.096C246.98 19.832 247.124 19.472 247.124 19.016V13.256H252.416V18.908C252.416 19.94 252.956 20.456 254.036 20.456H255.188C255.428 20.456 255.548 21.38 255.548 23.228C255.548 25.076 255.428 26 255.188 26H253.784C251.816 26 250.46 25.472 249.716 24.416C249.26 24.968 248.696 25.376 248.024 25.64C247.352 25.88 246.512 26 245.504 26H241.688C241.447 26 241.327 25.088 241.327 23.264C241.327 21.392 241.447 20.456 241.688 20.456H245.504ZM253.28 5.552V10.016H242.912V5.552H253.28ZM257.708 20.456C259.004 20.456 259.652 19.904 259.652 18.8V13.256H264.872V18.8C264.872 19.904 265.508 20.456 266.78 20.456C267.404 20.456 267.872 20.312 268.184 20.024C268.496 19.736 268.652 19.328 268.652 18.8V13.256H273.908V18.8C273.908 19.904 274.496 20.456 275.672 20.456C276.272 20.456 276.716 20.312 277.004 20.024C277.316 19.736 277.472 19.328 277.472 18.8V13.256H282.692V18.944C282.692 21.128 282.068 22.856 280.82 24.128C279.572 25.376 277.844 26 275.636 26C273.428 26 271.928 25.436 271.136 24.308C270.68 24.884 270.104 25.316 269.408 25.604C268.712 25.868 267.824 26 266.744 26C265.568 26 264.608 25.868 263.864 25.604C263.12 25.316 262.544 24.884 262.136 24.308C261.68 24.884 261.092 25.316 260.372 25.604C259.676 25.868 258.788 26 257.708 26H255.188C254.947 26 254.827 25.088 254.827 23.264C254.827 21.392 254.947 20.456 255.188 20.456H257.708ZM287.2 2.852H292.528V26H287.2V2.852ZM304.174 19.484C304.174 18.236 304.486 17 305.11 15.776C305.734 14.528 306.73 13.196 308.098 11.78L306.55 10.196L310.33 6.308C312.778 8.468 314.638 10.292 315.91 11.78C317.182 13.244 318.046 14.528 318.502 15.632C318.982 16.736 319.222 17.9 319.222 19.124C319.222 20.516 318.898 21.764 318.25 22.868C317.602 23.972 316.678 24.836 315.478 25.46C314.302 26.06 312.946 26.36 311.41 26.36C309.202 26.36 307.438 25.736 306.118 24.488C304.822 23.216 304.174 21.548 304.174 19.484ZM314.074 18.98C314.074 18.332 313.894 17.72 313.534 17.144C313.198 16.544 312.586 15.872 311.698 15.128C310.882 15.872 310.282 16.568 309.898 17.216C309.538 17.84 309.358 18.464 309.358 19.088C309.358 19.616 309.562 20.06 309.97 20.42C310.378 20.78 310.918 20.96 311.59 20.96C312.334 20.96 312.934 20.78 313.39 20.42C313.846 20.036 314.074 19.556 314.074 18.98ZM340.72 20.456C340.96 20.456 341.08 21.392 341.08 23.264C341.08 25.088 340.96 26 340.72 26H338.092C337.828 28.664 336.868 30.74 335.212 32.228C333.58 33.74 331.432 34.496 328.768 34.496H323.692L323.26 29.024H329.38C330.508 29.024 331.384 28.748 332.008 28.196C332.656 27.668 332.98 26.936 332.98 26H330.964C328.3 26 326.392 25.448 325.24 24.344C324.112 23.216 323.548 21.428 323.548 18.98C323.548 17.444 323.848 16.076 324.448 14.876C325.072 13.652 325.936 12.704 327.04 12.032C328.168 11.336 329.452 10.988 330.892 10.988C333.172 10.988 334.96 11.72 336.256 13.184C337.552 14.624 338.2 16.64 338.2 19.232V20.456H340.72ZM328.732 18.728C328.732 19.424 328.9 19.928 329.236 20.24C329.596 20.528 330.208 20.672 331.072 20.672H333.052V19.016C333.052 18.08 332.848 17.372 332.44 16.892C332.056 16.412 331.504 16.172 330.784 16.172C330.112 16.172 329.596 16.412 329.236 16.892C328.9 17.348 328.732 17.96 328.732 18.728ZM352.675 10.088C354.043 10.088 355.171 10.328 356.059 10.808C356.971 11.288 357.763 12.128 358.435 13.328C359.107 14.504 359.707 16.172 360.235 18.332L358.039 19.772C358.183 19.988 358.507 20.156 359.011 20.276C359.515 20.396 360.019 20.456 360.523 20.456H362.683C362.923 20.456 363.043 21.392 363.043 23.264C363.043 24.44 363.007 25.196 362.935 25.532C362.863 25.844 362.779 26 362.683 26H360.091C358.747 26 357.631 25.748 356.743 25.244C355.855 24.74 355.051 23.888 354.331 22.688L352.999 23.516C351.487 24.452 350.011 25.1 348.571 25.46C347.131 25.82 345.343 26 343.207 26H340.723C340.483 26 340.363 25.088 340.363 23.264C340.363 21.392 340.483 20.456 340.723 20.456H343.459C345.235 20.456 346.723 20.336 347.923 20.096C349.147 19.856 350.419 19.4 351.739 18.728L354.043 17.396C353.851 16.676 353.563 16.184 353.179 15.92C352.819 15.656 352.267 15.524 351.523 15.524H343.315L343.855 10.088H352.675ZM372.919 19.268C372.919 21.356 372.295 23 371.047 24.2C369.823 25.4 368.167 26 366.079 26H362.695C362.455 26 362.335 25.088 362.335 23.264C362.335 21.392 362.455 20.456 362.695 20.456H366.079C366.583 20.456 366.979 20.336 367.267 20.096C367.555 19.832 367.699 19.472 367.699 19.016V13.256H372.919V19.268ZM365.791 10.016V5.552H371.335V10.016H365.791Z" fill="url(#paint0_linear_2998_42135)"/>
<defs>
<linearGradient id="paint0_linear_2998_42135" x1="-305" y1="26.4644" x2="380.239" y2="8.50552" gradientUnits="userSpaceOnUse">
<stop stop-color="#010101"/>
<stop offset="1" stop-color="white"/>
</linearGradient>
</defs>
</svg>
