<svg width="391" height="40" viewBox="0 0 391 40" fill="none" xmlns="http://www.w3.org/2000/svg">
<path d="M10.2528 34.496C7.10878 34.496 4.67278 33.584 2.94478 31.76C1.24078 29.96 0.388781 27.452 0.388781 24.236V16.856H5.71678V24.092C5.71678 25.724 6.08878 26.936 6.83278 27.728C7.57678 28.544 8.74078 28.952 10.3248 28.952H11.7648C13.3248 28.952 14.5368 28.568 15.4008 27.8C16.2648 27.032 16.6968 25.94 16.6968 24.524V2.852H21.9888V24.092C21.9888 26.204 21.5688 28.04 20.7288 29.6C19.8888 31.184 18.6888 32.396 17.1288 33.236C15.5928 34.076 13.8048 34.496 11.7648 34.496H10.2528ZM43.7556 20.456C43.9956 20.456 44.1156 21.392 44.1156 23.264C44.1156 25.088 43.9956 26 43.7556 26H41.1276C40.8636 28.664 39.9036 30.74 38.2476 32.228C36.6156 33.74 34.4676 34.496 31.8036 34.496H26.7276L26.2956 29.024H32.4156C33.5436 29.024 34.4196 28.748 35.0436 28.196C35.6916 27.668 36.0156 26.936 36.0156 26H33.9996C31.3356 26 29.4276 25.448 28.2756 24.344C27.1476 23.216 26.5836 21.428 26.5836 18.98C26.5836 17.444 26.8836 16.076 27.4836 14.876C28.1076 13.652 28.9716 12.704 30.0756 12.032C31.2036 11.336 32.4876 10.988 33.9276 10.988C36.2076 10.988 37.9956 11.72 39.2916 13.184C40.5876 14.624 41.2356 16.64 41.2356 19.232V20.456H43.7556ZM31.7676 18.728C31.7676 19.424 31.9356 19.928 32.2716 20.24C32.6316 20.528 33.2436 20.672 34.1076 20.672H36.0876V19.016C36.0876 18.08 35.8836 17.372 35.4756 16.892C35.0916 16.412 34.5396 16.172 33.8196 16.172C33.1476 16.172 32.6316 16.412 32.2716 16.892C31.9356 17.348 31.7676 17.96 31.7676 18.728ZM52.3978 20.456C52.8538 20.456 53.2258 20.324 53.5138 20.06C53.8258 19.796 53.9818 19.448 53.9818 19.016V13.256H59.2018V19.268C59.2018 21.356 58.5778 23 57.3298 24.2C56.1058 25.4 54.4498 26 52.3618 26H43.7578C43.5178 26 43.3978 25.088 43.3978 23.264C43.3978 21.392 43.5178 20.456 43.7578 20.456H52.3978ZM54.0538 29.276V33.74H43.6858V29.276H54.0538ZM46.6018 39.572V35.252H51.1378V39.572H46.6018ZM85.2487 20.456C84.9367 20.072 84.6967 19.58 84.5287 18.98C84.3607 18.356 84.2767 17.732 84.2767 17.108C84.2767 15.764 84.6007 14.528 85.2487 13.4C85.8967 12.272 86.7847 11.384 87.9127 10.736C89.0407 10.088 90.2887 9.764 91.6567 9.764C93.0967 9.764 94.3687 10.076 95.4727 10.7C96.6007 11.3 97.4647 12.14 98.0647 13.22C98.6887 14.3 99.0007 15.536 99.0007 16.928C99.0007 18.368 98.6167 19.544 97.8487 20.456H101.521C101.761 20.456 101.881 21.392 101.881 23.264C101.881 25.088 101.761 26 101.521 26H96.5887C95.2687 26 94.2247 25.952 93.4567 25.856C92.6887 25.736 92.0767 25.532 91.6207 25.244C90.7807 25.748 89.1607 26 86.7607 26H77.3647C75.1807 26 73.5007 25.412 72.3247 24.236C71.1487 23.06 70.5607 21.38 70.5607 19.196V13.256H75.8887V18.476C75.8887 19.148 76.0327 19.652 76.3207 19.988C76.6087 20.3 77.0887 20.456 77.7607 20.456H85.2487ZM91.6567 20.456C92.3767 20.12 92.9287 19.664 93.3127 19.088C93.7207 18.488 93.9247 17.876 93.9247 17.252C93.9247 16.556 93.7207 16.016 93.3127 15.632C92.9287 15.224 92.3767 15.02 91.6567 15.02C90.9607 15.02 90.4087 15.236 90.0007 15.668C89.6167 16.076 89.4247 16.604 89.4247 17.252C89.4247 17.876 89.6167 18.476 90.0007 19.052C90.4087 19.628 90.9607 20.096 91.6567 20.456ZM88.8847 6.704V2.24H94.4287V6.704H88.8847ZM105.336 20.456C105.84 20.456 106.236 20.336 106.524 20.096C106.812 19.832 106.956 19.472 106.956 19.016V13.256H112.248V18.908C112.248 19.94 112.788 20.456 113.868 20.456H115.02C115.26 20.456 115.38 21.38 115.38 23.228C115.38 25.076 115.26 26 115.02 26H113.616C111.648 26 110.292 25.472 109.548 24.416C109.092 24.968 108.528 25.376 107.856 25.64C107.184 25.88 106.344 26 105.336 26H101.52C101.28 26 101.16 25.088 101.16 23.264C101.16 21.392 101.28 20.456 101.52 20.456H105.336ZM109.08 29.276V33.74H98.7115V29.276H109.08ZM124.128 20.456C124.704 20.456 125.148 20.36 125.46 20.168C125.772 19.976 125.928 19.712 125.928 19.376C125.928 19.064 125.844 18.776 125.676 18.512C125.532 18.224 125.292 17.912 124.956 17.576L117.468 10.268V6.092L131.436 0.799998L132.84 5.984L124.2 9.26L128.952 14.012C129.936 14.972 130.632 15.92 131.04 16.856C131.448 17.792 131.652 18.8 131.652 19.88C131.652 21.776 131.016 23.276 129.744 24.38C128.496 25.46 126.78 26 124.596 26H115.02C114.78 26 114.66 25.088 114.66 23.264C114.66 21.392 114.78 20.456 115.02 20.456H124.128ZM152.795 24.452C152.795 26.42 152.387 28.16 151.571 29.672C150.779 31.208 149.639 32.396 148.151 33.236C146.687 34.076 144.971 34.496 143.003 34.496H141.635L141.202 28.952H142.787C144.299 28.952 145.451 28.568 146.243 27.8C147.059 27.056 147.467 25.964 147.467 24.524V13.256H152.795V24.452ZM147.251 10.016V5.552H152.795V10.016H147.251ZM165.147 20.456C165.267 20.456 165.351 20.624 165.399 20.96C165.471 21.296 165.507 22.064 165.507 23.264C165.507 24.416 165.471 25.16 165.399 25.496C165.351 25.832 165.267 26 165.147 26H163.707C161.595 26 159.987 25.4 158.883 24.2C157.803 23 157.263 21.284 157.263 19.052V2.852H162.591V18.656C162.591 19.28 162.711 19.736 162.951 20.024C163.191 20.312 163.575 20.456 164.103 20.456H165.147ZM168.968 20.456C169.472 20.456 169.868 20.336 170.156 20.096C170.444 19.832 170.588 19.472 170.588 19.016V13.256H175.88V18.908C175.88 19.94 176.42 20.456 177.5 20.456H178.652C178.892 20.456 179.012 21.38 179.012 23.228C179.012 25.076 178.892 26 178.652 26H177.248C175.28 26 173.924 25.472 173.18 24.416C172.724 24.968 172.16 25.376 171.488 25.64C170.816 25.88 169.976 26 168.968 26H165.152C164.912 26 164.792 25.088 164.792 23.264C164.792 21.392 164.912 20.456 165.152 20.456H168.968ZM172.712 29.276V33.74H162.344V29.276H172.712ZM182.468 20.456C182.972 20.456 183.368 20.336 183.656 20.096C183.944 19.832 184.088 19.472 184.088 19.016V13.256H189.38V18.908C189.38 19.94 189.92 20.456 191 20.456H192.152C192.392 20.456 192.512 21.38 192.512 23.228C192.512 25.076 192.392 26 192.152 26H190.748C188.78 26 187.424 25.472 186.68 24.416C186.224 24.968 185.66 25.376 184.988 25.64C184.316 25.88 183.476 26 182.468 26H178.652C178.412 26 178.292 25.088 178.292 23.264C178.292 21.392 178.412 20.456 178.652 20.456H182.468ZM189.56 5.552V10.016H179.192V5.552H189.56ZM193.196 20.456C193.7 20.456 194.072 20.348 194.312 20.132C194.552 19.916 194.672 19.556 194.672 19.052V18.26C194.672 15.908 195.344 14.048 196.688 12.68C198.032 11.312 199.856 10.628 202.16 10.628C204.464 10.628 206.24 11.3 207.488 12.644C208.736 13.964 209.36 15.86 209.36 18.332C209.36 20.732 208.7 22.616 207.38 23.984C206.084 25.328 204.272 26 201.944 26C200.864 26 199.94 25.856 199.172 25.568C198.404 25.28 197.828 24.896 197.444 24.416C196.988 24.968 196.412 25.376 195.716 25.64C195.044 25.88 194.204 26 193.196 26H192.152C191.912 26 191.792 25.088 191.792 23.264C191.792 21.392 191.912 20.456 192.152 20.456H193.196ZM204.212 18.332C204.212 16.7 203.468 15.884 201.98 15.884C200.516 15.884 199.784 16.7 199.784 18.332C199.784 19.052 199.964 19.616 200.324 20.024C200.708 20.408 201.26 20.6 201.98 20.6C202.748 20.6 203.312 20.42 203.672 20.06C204.032 19.676 204.212 19.1 204.212 18.332ZM213.829 2.852H219.157V26H213.829V2.852ZM240.667 34.496C237.523 34.496 235.087 33.584 233.359 31.76C231.655 29.96 230.803 27.452 230.803 24.236V16.856H236.131V24.092C236.131 25.724 236.503 26.936 237.247 27.728C237.991 28.544 239.155 28.952 240.739 28.952H242.179C243.739 28.952 244.951 28.568 245.815 27.8C246.679 27.032 247.111 25.94 247.111 24.524V2.852H252.403V18.944C252.403 19.952 252.943 20.456 254.023 20.456H255.103C255.199 20.456 255.271 20.624 255.319 20.96C255.367 21.296 255.391 22.064 255.391 23.264C255.391 24.416 255.367 25.16 255.319 25.496C255.271 25.832 255.199 26 255.103 26H254.167C253.351 26 252.739 25.868 252.331 25.604C252.211 27.332 251.707 28.868 250.819 30.212C249.955 31.556 248.779 32.6 247.291 33.344C245.803 34.112 244.099 34.496 242.179 34.496H240.667ZM265.271 19.268C265.271 21.356 264.647 23 263.399 24.2C262.175 25.4 260.519 26 258.431 26H255.047C254.807 26 254.687 25.088 254.687 23.264C254.687 21.392 254.807 20.456 255.047 20.456H258.431C258.911 20.456 259.295 20.324 259.583 20.06C259.895 19.796 260.051 19.448 260.051 19.016V13.256H265.271V19.268ZM263.111 29.276V33.74H252.743V29.276H263.111ZM276.964 20.456C277.444 20.456 277.828 20.36 278.116 20.168C278.428 19.976 278.584 19.712 278.584 19.376C278.584 19.088 278.428 18.512 278.116 17.648C277.804 16.784 276.988 14.636 275.668 11.204L274.912 9.224L279.88 6.92L284.092 18.62C284.308 19.268 284.572 19.736 284.884 20.024C285.196 20.312 285.604 20.456 286.108 20.456H287.116C287.356 20.456 287.476 21.392 287.476 23.264C287.476 24.44 287.44 25.196 287.368 25.532C287.296 25.844 287.212 26 287.116 26H285.748C283.78 26 282.376 25.436 281.536 24.308C281.032 24.932 280.456 25.376 279.808 25.64C279.184 25.88 278.428 26 277.54 26H269.08L268.648 20.456H276.964ZM290.925 20.456C291.429 20.456 291.825 20.336 292.113 20.096C292.401 19.832 292.545 19.472 292.545 19.016V13.256H297.837V18.908C297.837 19.94 298.377 20.456 299.457 20.456H300.609C300.849 20.456 300.969 21.38 300.969 23.228C300.969 25.076 300.849 26 300.609 26H299.205C297.237 26 295.881 25.472 295.137 24.416C294.681 24.968 294.117 25.376 293.445 25.64C292.773 25.88 291.933 26 290.925 26H287.109C286.869 26 286.749 25.088 286.749 23.264C286.749 21.392 286.869 20.456 287.109 20.456H290.925ZM287.937 33.74V29.276H293.481V33.74H287.937ZM310.833 19.268C310.833 21.356 310.209 23 308.961 24.2C307.737 25.4 306.081 26 303.993 26H300.609C300.369 26 300.249 25.088 300.249 23.264C300.249 21.392 300.369 20.456 300.609 20.456H303.993C304.473 20.456 304.857 20.324 305.145 20.06C305.457 19.796 305.613 19.448 305.613 19.016V13.256H310.833V19.268ZM311.661 5.552V10.016H301.293V5.552H311.661ZM322.174 19.484C322.174 18.236 322.486 17 323.11 15.776C323.734 14.528 324.73 13.196 326.098 11.78L324.55 10.196L328.33 6.308C330.778 8.468 332.638 10.292 333.91 11.78C335.182 13.244 336.046 14.528 336.502 15.632C336.982 16.736 337.222 17.9 337.222 19.124C337.222 20.516 336.898 21.764 336.25 22.868C335.602 23.972 334.678 24.836 333.478 25.46C332.302 26.06 330.946 26.36 329.41 26.36C327.202 26.36 325.438 25.736 324.118 24.488C322.822 23.216 322.174 21.548 322.174 19.484ZM332.074 18.98C332.074 18.332 331.894 17.72 331.534 17.144C331.198 16.544 330.586 15.872 329.698 15.128C328.882 15.872 328.282 16.568 327.898 17.216C327.538 17.84 327.358 18.464 327.358 19.088C327.358 19.616 327.562 20.06 327.97 20.42C328.378 20.78 328.918 20.96 329.59 20.96C330.334 20.96 330.934 20.78 331.39 20.42C331.846 20.036 332.074 19.556 332.074 18.98ZM358.72 20.456C358.96 20.456 359.08 21.392 359.08 23.264C359.08 25.088 358.96 26 358.72 26H356.092C355.828 28.664 354.868 30.74 353.212 32.228C351.58 33.74 349.432 34.496 346.768 34.496H341.692L341.26 29.024H347.38C348.508 29.024 349.384 28.748 350.008 28.196C350.656 27.668 350.98 26.936 350.98 26H348.964C346.3 26 344.392 25.448 343.24 24.344C342.112 23.216 341.548 21.428 341.548 18.98C341.548 17.444 341.848 16.076 342.448 14.876C343.072 13.652 343.936 12.704 345.04 12.032C346.168 11.336 347.452 10.988 348.892 10.988C351.172 10.988 352.96 11.72 354.256 13.184C355.552 14.624 356.2 16.64 356.2 19.232V20.456H358.72ZM346.732 18.728C346.732 19.424 346.9 19.928 347.236 20.24C347.596 20.528 348.208 20.672 349.072 20.672H351.052V19.016C351.052 18.08 350.848 17.372 350.44 16.892C350.056 16.412 349.504 16.172 348.784 16.172C348.112 16.172 347.596 16.412 347.236 16.892C346.9 17.348 346.732 17.96 346.732 18.728ZM370.675 10.088C372.043 10.088 373.171 10.328 374.059 10.808C374.971 11.288 375.763 12.128 376.435 13.328C377.107 14.504 377.707 16.172 378.235 18.332L376.039 19.772C376.183 19.988 376.507 20.156 377.011 20.276C377.515 20.396 378.019 20.456 378.523 20.456H380.683C380.923 20.456 381.043 21.392 381.043 23.264C381.043 24.44 381.007 25.196 380.935 25.532C380.863 25.844 380.779 26 380.683 26H378.091C376.747 26 375.631 25.748 374.743 25.244C373.855 24.74 373.051 23.888 372.331 22.688L370.999 23.516C369.487 24.452 368.011 25.1 366.571 25.46C365.131 25.82 363.343 26 361.207 26H358.723C358.483 26 358.363 25.088 358.363 23.264C358.363 21.392 358.483 20.456 358.723 20.456H361.459C363.235 20.456 364.723 20.336 365.923 20.096C367.147 19.856 368.419 19.4 369.739 18.728L372.043 17.396C371.851 16.676 371.563 16.184 371.179 15.92C370.819 15.656 370.267 15.524 369.523 15.524H361.315L361.855 10.088H370.675ZM390.919 19.268C390.919 21.356 390.295 23 389.047 24.2C387.823 25.4 386.167 26 384.079 26H380.695C380.455 26 380.335 25.088 380.335 23.264C380.335 21.392 380.455 20.456 380.695 20.456H384.079C384.559 20.456 384.943 20.324 385.231 20.06C385.543 19.796 385.699 19.448 385.699 19.016V13.256H390.919V19.268ZM384.079 10.016V5.552H389.623V10.016H384.079Z" fill="url(#paint0_linear_2998_42131)"/>
<defs>
<linearGradient id="paint0_linear_2998_42131" x1="-287" y1="26.4644" x2="398.239" y2="8.50552" gradientUnits="userSpaceOnUse">
<stop stop-color="#010101"/>
<stop offset="1" stop-color="white"/>
</linearGradient>
</defs>
</svg>
