<svg width="384" height="147" viewBox="0 0 384 147" fill="none" xmlns="http://www.w3.org/2000/svg">
<g filter="url(#filter0_di_2978_42223)">
<path d="M87.3263 81C85.1503 81 83.2303 80.5307 81.5663 79.592C79.9449 78.6533 78.0889 76.9253 75.9983 74.408C73.9076 71.8907 70.8569 67.7947 66.8463 62.12C67.7849 60.9253 68.8516 59.0053 70.0463 56.36C71.2409 53.7147 72.0943 51.4747 72.6063 49.64C74.4836 53.3947 75.9983 56.0827 77.1503 57.704C78.3023 59.3253 79.5609 60.4133 80.9263 60.968C82.2916 61.5227 84.2543 61.8 86.8143 61.8H87.3263V81ZM62.3663 99.56C60.5743 98.4933 57.3743 96.2107 52.7662 92.712C48.1582 89.2133 44.2116 86.056 40.9262 83.24V82.92L41.3102 83.176C43.7422 84.4133 45.3209 85.16 46.0462 85.416C46.7289 85.672 47.3689 85.8 47.9662 85.8C50.3129 85.8 53.4702 85.288 57.4383 84.264C61.4063 83.24 65.2889 81.96 69.0863 80.424C72.8836 78.8453 75.6569 77.3307 77.4063 75.88C76.7663 81.0427 76.1689 84.6907 75.6143 86.824C75.0596 88.9573 74.3769 90.536 73.5663 91.56C72.7129 92.456 71.6249 93.416 70.3022 94.44C69.0223 95.5067 67.6569 96.488 66.2063 97.384C64.7983 98.28 63.5183 99.0053 62.3663 99.56ZM111.664 81C107.866 81 105.072 80.04 103.28 78.12C101.488 76.2 100.762 73.5333 101.104 70.12C99.8664 72.808 98.7784 74.8773 97.8398 76.328C96.9438 77.7787 96.2184 78.696 95.6638 79.08C94.7678 79.6773 93.5944 80.1467 92.1438 80.488C90.7358 80.8293 89.1358 81 87.3438 81C86.9597 81 86.6397 80.1467 86.3837 78.44C86.0851 76.7333 85.9357 74.3867 85.9357 71.4C85.9357 68.456 86.0851 66.1307 86.3837 64.424C86.6397 62.6747 86.9597 61.8 87.3438 61.8H88.6238C93.7011 61.8 97.3064 61.672 99.4398 61.416C101.616 61.16 102.917 60.7547 103.344 60.2C103.77 59.6027 104.389 58.5147 105.2 56.936C106.01 55.3573 106.778 53.7787 107.504 52.2H107.824L105.904 59.24C106.032 60.008 106.736 60.6267 108.016 61.096C109.338 61.5653 110.768 61.8 112.304 61.8V81H111.664ZM91.1838 89.96C90.5864 90.5147 89.7758 91.5173 88.7518 92.968C87.7278 94.4613 87.0451 95.592 86.7037 96.36L78.7037 90.6C79.4291 89.9173 80.2824 88.8507 81.2637 87.4C82.2451 85.992 82.8851 84.9253 83.1837 84.2L91.1838 89.96ZM102.384 89.96C101.786 90.5147 100.954 91.5173 99.8878 92.968C98.8638 94.4613 98.2024 95.592 97.9038 96.36L89.9038 90.6C90.6291 89.9173 91.4611 88.8507 92.3998 87.4C93.3811 85.992 94.0424 84.9253 94.3838 84.2L102.384 89.96ZM167.321 81C163.993 81 161.455 80.1893 159.705 78.568C157.999 76.9467 157.231 74.344 157.401 70.76L153.561 82.28C150.063 81.6827 147.631 80.4667 146.265 78.632C144.943 76.7547 144.601 74.1307 145.241 70.76C143.449 74.7707 141.721 77.48 140.057 78.888C138.436 80.296 136.644 81 134.681 81C132.121 81 130.159 80.1253 128.793 78.376C127.428 76.584 127.044 73.9387 127.641 70.44C125.167 74.92 123.14 77.6933 121.561 78.76C120.623 79.3573 119.257 79.8907 117.465 80.36C115.673 80.7867 113.945 81 112.281 81C111.897 81 111.577 80.1467 111.321 78.44C111.023 76.7333 110.873 74.3867 110.873 71.4C110.873 68.456 111.023 66.1307 111.321 64.424C111.577 62.6747 111.897 61.8 112.281 61.8C118.383 61.8 122.841 61.5867 125.657 61.16C128.516 60.6907 130.457 59.944 131.481 58.92C132.335 58.0667 133.273 56.936 134.297 55.528C135.364 54.12 136.345 52.584 137.241 50.92H137.561L133.401 59.56C133.999 60.3707 134.895 60.9467 136.089 61.288C137.327 61.6293 138.777 61.8 140.441 61.8C142.319 61.8 143.919 61.672 145.241 61.416C146.607 61.1173 147.46 60.712 147.801 60.2C148.228 59.6027 148.847 58.536 149.657 57C150.468 55.4213 151.236 53.8213 151.961 52.2H152.281L150.361 59.24C150.489 60.0507 151.257 60.8187 152.665 61.544C154.116 62.2693 155.865 62.7813 157.913 63.08C159.449 59.24 160.985 54.76 162.521 49.64H162.841L161.241 57.96C161.241 59.112 161.775 60.0507 162.841 60.776C163.908 61.4587 165.401 61.8 167.321 61.8V81ZM167.344 81C166.96 81 166.64 80.1467 166.384 78.44C166.085 76.7333 165.936 74.3867 165.936 71.4C165.936 68.456 166.085 66.1307 166.384 64.424C166.64 62.6747 166.96 61.8 167.344 61.8H180.144V81H167.344ZM180.156 81C179.772 81 179.452 80.1467 179.196 78.44C178.898 76.7333 178.748 74.3867 178.748 71.4C178.748 68.456 178.898 66.1307 179.196 64.424C179.452 62.6747 179.772 61.8 180.156 61.8H192.956V81H180.156ZM222.409 44.84C223.817 44.84 225.267 45.5013 226.761 46.824C228.254 48.104 229.491 49.6827 230.473 51.56C231.497 53.3947 232.009 55.1013 232.009 56.68C232.009 57.192 231.795 58.1733 231.369 59.624C230.985 61.032 230.451 62.504 229.769 64.04C229.385 63.3147 228.958 62.568 228.489 61.8C227.422 60.136 226.227 58.664 224.905 57.384C223.625 56.0613 222.345 55.0373 221.065 54.312C219.785 53.5867 218.633 53.2027 217.609 53.16C216.115 53.16 214.75 53.416 213.513 53.928C212.275 54.3973 211.187 55.1013 210.249 56.04C212.339 52.9253 214.025 50.6 215.305 49.064C216.585 47.528 217.758 46.44 218.825 45.8C219.891 45.16 221.086 44.84 222.409 44.84ZM219.209 81C217.843 81 216.03 80.4667 213.769 79.4C211.507 78.2907 209.374 76.9467 207.369 75.368C205.363 73.7467 203.977 72.2107 203.209 70.76C201.971 73.576 200.926 75.688 200.073 77.096C199.262 78.4613 198.494 79.336 197.769 79.72C197.086 80.1893 196.297 80.5307 195.401 80.744C194.505 80.9147 193.694 81 192.969 81C192.585 81 192.265 80.1467 192.009 78.44C191.71 76.7333 191.561 74.3867 191.561 71.4C191.561 68.456 191.71 66.1307 192.009 64.424C192.265 62.6747 192.585 61.8 192.969 61.8C197.449 61.8 200.627 61.7147 202.505 61.544C204.382 61.3307 205.811 60.8613 206.793 60.136C207.817 59.368 208.969 58.0027 210.249 56.04C212.041 57.5333 214.963 59.1333 219.017 60.84C223.07 62.5467 226.654 63.6133 229.769 64.04C227.678 68.6907 225.587 72.68 223.497 76.008C221.449 79.336 220.019 81 219.209 81ZM293.721 81C291.247 81 289.22 80.5733 287.641 79.72C286.105 78.824 284.655 77.0747 283.289 74.472C281.967 71.8267 280.644 67.816 279.321 62.44C278.212 59.4107 277.295 57.2347 276.569 55.912C275.844 54.5467 275.097 53.6507 274.329 53.224C273.561 52.7547 272.559 52.52 271.321 52.52C268.548 52.52 265.54 52.8613 262.297 53.544C259.055 54.184 256.047 54.9947 253.273 55.976C250.543 56.9573 248.559 57.9387 247.321 58.92C248.303 56.9573 249.433 55.08 250.713 53.288C251.993 51.496 253.103 50.28 254.041 49.64C256.004 48.4027 258.991 47.144 263.001 45.864C267.055 44.5413 270.575 43.88 273.561 43.88C275.481 43.88 276.996 44.136 278.105 44.648C279.215 45.16 280.217 46.1627 281.113 47.656C282.009 49.1493 283.012 51.5173 284.121 54.76C284.761 56.7653 285.508 58.28 286.361 59.304C287.215 60.328 288.217 61.0107 289.369 61.352C290.521 61.6507 291.972 61.8 293.721 61.8V81ZM271.321 81.64C267.609 81 264.537 80.1893 262.105 79.208C259.673 78.184 257.881 76.9893 256.729 75.624C255.577 74.2587 255.001 72.744 255.001 71.08C255.001 69.8 255.279 68.0507 255.833 65.832C256.388 63.5707 257.241 61.096 258.393 58.408C259.545 55.72 260.975 53.1173 262.681 50.6L271.321 52.52C269.188 52.52 267.225 52.7333 265.433 53.16C263.684 53.544 262.297 54.0133 261.273 54.568C260.292 55.1227 259.801 55.6133 259.801 56.04C259.801 56.6373 260.505 57.32 261.913 58.088C263.321 58.856 265.476 59.6453 268.377 60.456C271.321 61.224 274.969 61.8853 279.321 62.44C277.785 68.4987 276.271 73.2133 274.777 76.584C273.327 79.9547 272.175 81.64 271.321 81.64ZM245.721 104.68C245.679 101.608 245.465 98.4507 245.081 95.208C244.697 91.9653 244.164 88.0827 243.481 83.56C243.183 81.256 242.884 79.0373 242.585 76.904C242.329 74.7707 242.201 73.1493 242.201 72.04C242.201 70.7173 242.628 69.0107 243.481 66.92C244.377 64.8293 245.465 62.5253 246.745 60.008L247.321 58.92C247.364 60.584 247.62 62.7173 248.089 65.32C248.559 67.88 249.263 71.4213 250.201 75.944C251.353 81.4053 252.207 85.8 252.761 89.128C253.359 92.456 253.679 95.1867 253.721 97.32L245.721 104.68ZM293.719 81C293.335 81 293.015 80.1467 292.759 78.44C292.46 76.7333 292.311 74.3867 292.311 71.4C292.311 68.456 292.46 66.1307 292.759 64.424C293.015 62.6747 293.335 61.8 293.719 61.8H306.519V81H293.719ZM343.651 57.64C343.651 58.4507 343.459 59.4747 343.075 60.712C342.691 61.9067 342.243 63.016 341.731 64.04C341.689 63.912 341.646 63.784 341.603 63.656C341.603 63.4853 341.603 63.2933 341.603 63.08C341.39 62.056 340.921 61.1813 340.195 60.456C339.513 59.688 338.617 58.984 337.507 58.344C336.398 57.704 334.755 56.8507 332.579 55.784C329.081 54.0347 325.838 52.3067 322.851 50.6C319.865 48.8507 316.558 46.6107 312.931 43.88C313.87 43.3253 315.193 42.4293 316.899 41.192C318.649 39.912 319.886 38.888 320.611 38.12C322.531 39.8693 324.473 41.384 326.435 42.664C328.398 43.9013 330.723 45.288 333.411 46.824C335.886 48.2747 337.785 49.448 339.107 50.344C340.473 51.24 341.561 52.3067 342.371 53.544C343.225 54.7387 343.651 56.104 343.651 57.64ZM333.091 81.96C331.342 81.32 329.337 80.7227 327.075 80.168C324.814 79.5707 322.489 79.0587 320.099 78.632C319.502 78.4613 318.862 78.312 318.179 78.184C317.497 78.056 316.814 77.928 316.131 77.8C313.87 76.6053 312.249 74.3653 311.267 71.08C310.329 67.752 310.243 64.0187 311.011 59.88C311.438 57.704 312.313 55.272 313.635 52.584C315.001 49.896 316.515 47.6133 318.179 45.736C319.843 43.8587 321.294 42.92 322.531 42.92C323.598 42.92 324.601 43.432 325.539 44.456C326.478 45.48 327.225 46.8667 327.779 48.616C328.334 50.3653 328.611 52.2 328.611 54.12C328.611 54.6747 328.441 55.528 328.099 56.68L327.971 57.32C327.417 55.8693 326.542 54.44 325.347 53.032C324.153 51.5813 322.787 50.4507 321.251 49.64C319.715 49.896 318.329 50.3013 317.091 50.856C315.897 51.368 314.958 51.9867 314.275 52.712C313.593 53.4373 313.251 54.12 313.251 54.76C313.251 55.9547 313.891 57.1067 315.171 58.216C316.451 59.3253 318.691 60.3067 321.891 61.16L325.091 60.84C326.542 61.0533 329.998 61.6933 335.459 62.76C336.526 62.9733 337.571 63.1867 338.595 63.4C339.662 63.6133 340.707 63.8267 341.731 64.04L333.091 81.96ZM327.971 57.32C326.649 61.8 325.155 65.7253 323.491 69.096C321.827 72.4667 319.587 75.304 316.771 77.608C313.998 79.8693 310.585 81 306.531 81C306.147 81 305.827 80.1467 305.571 78.44C305.273 76.7333 305.123 74.3867 305.123 71.4C305.123 68.456 305.273 66.1307 305.571 64.424C305.827 62.6747 306.147 61.8 306.531 61.8H307.491C311.971 61.8 316.067 61.416 319.779 60.648C323.491 59.88 326.222 58.7707 327.971 57.32Z" fill="#F8B806"/>
</g>
<defs>
<filter id="filter0_di_2978_42223" x="0.925781" y="0.120117" width="382.725" height="146.56" filterUnits="userSpaceOnUse" color-interpolation-filters="sRGB">
<feFlood flood-opacity="0" result="BackgroundImageFix"/>
<feColorMatrix in="SourceAlpha" type="matrix" values="0 0 0 0 0 0 0 0 0 0 0 0 0 0 0 0 0 0 127 0" result="hardAlpha"/>
<feOffset dy="2"/>
<feGaussianBlur stdDeviation="20"/>
<feComposite in2="hardAlpha" operator="out"/>
<feColorMatrix type="matrix" values="0 0 0 0 1 0 0 0 0 1 0 0 0 0 1 0 0 0 0.15 0"/>
<feBlend mode="normal" in2="BackgroundImageFix" result="effect1_dropShadow_2978_42223"/>
<feBlend mode="normal" in="SourceGraphic" in2="effect1_dropShadow_2978_42223" result="shape"/>
<feColorMatrix in="SourceAlpha" type="matrix" values="0 0 0 0 0 0 0 0 0 0 0 0 0 0 0 0 0 0 127 0" result="hardAlpha"/>
<feOffset dy="4"/>
<feGaussianBlur stdDeviation="2"/>
<feComposite in2="hardAlpha" operator="arithmetic" k2="-1" k3="1"/>
<feColorMatrix type="matrix" values="0 0 0 0 1 0 0 0 0 1 0 0 0 0 1 0 0 0 0.5 0"/>
<feBlend mode="normal" in2="shape" result="effect2_innerShadow_2978_42223"/>
</filter>
</defs>
</svg>
